<svg width="236" height="240" viewBox="0 0 236 240" fill="none" xmlns="http://www.w3.org/2000/svg">
<rect width="236" height="240" fill="#F5F5F5"/>
<path d="M-2440 -164C-2440 -165.105 -2439.1 -166 -2438 -166H1996C1997.1 -166 1998 -165.105 1998 -164V7832C1998 7833.1 1997.1 7834 1996 7834H-2438C-2439.1 7834 -2440 7833.1 -2440 7832V-164Z" fill="#8E8E8E"/>
<rect width="1440" height="4400" transform="translate(-602 -66)" fill="url(#paint0_linear_0_1)"/>
<g filter="url(#filter0_dd_0_1)">
<path fill-rule="evenodd" clip-rule="evenodd" d="M158.562 158.515L205.909 111.167L151.796 111.163L104.449 158.51L131.508 185.569L151.801 205.862H205.909L158.562 158.515ZM63.8677 117.933L151.801 30H205.909L90.9266 144.992L63.8677 117.933ZM89.6976 180.196C89.6976 196.657 76.3541 210 59.8941 210C43.4341 210 30.0906 196.657 30.0906 180.196C30.0906 163.736 43.4341 150.393 59.8941 150.393C76.3541 150.393 89.6976 163.736 89.6976 180.196Z" fill="white"/>
</g>
<path d="M-2438 -165H1996V-167H-2438V-165ZM1997 -164V7832H1999V-164H1997ZM1996 7833H-2438V7835H1996V7833ZM-2439 7832V-164H-2441V7832H-2439ZM-2438 7833C-2438.55 7833 -2439 7832.55 -2439 7832H-2441C-2441 7833.66 -2439.66 7835 -2438 7835V7833ZM1997 7832C1997 7832.55 1996.55 7833 1996 7833V7835C1997.66 7835 1999 7833.66 1999 7832H1997ZM1996 -165C1996.55 -165 1997 -164.552 1997 -164H1999C1999 -165.657 1997.66 -167 1996 -167V-165ZM-2438 -167C-2439.66 -167 -2441 -165.657 -2441 -164H-2439C-2439 -164.552 -2438.55 -165 -2438 -165V-167Z" fill="black" fill-opacity="0.1"/>
<defs>
<filter id="filter0_dd_0_1" x="0.0905762" y="0" width="235.819" height="240" filterUnits="userSpaceOnUse" color-interpolation-filters="sRGB">
<feFlood flood-opacity="0" result="BackgroundImageFix"/>
<feColorMatrix in="SourceAlpha" type="matrix" values="0 0 0 0 0 0 0 0 0 0 0 0 0 0 0 0 0 0 127 0" result="hardAlpha"/>
<feOffset dx="-10" dy="-10"/>
<feGaussianBlur stdDeviation="10"/>
<feComposite in2="hardAlpha" operator="out"/>
<feColorMatrix type="matrix" values="0 0 0 0 0.254167 0 0 0 0 0.821 0 0 0 0 1 0 0 0 0.45 0"/>
<feBlend mode="normal" in2="BackgroundImageFix" result="effect1_dropShadow_0_1"/>
<feColorMatrix in="SourceAlpha" type="matrix" values="0 0 0 0 0 0 0 0 0 0 0 0 0 0 0 0 0 0 127 0" result="hardAlpha"/>
<feOffset dx="10" dy="10"/>
<feGaussianBlur stdDeviation="10"/>
<feComposite in2="hardAlpha" operator="out"/>
<feColorMatrix type="matrix" values="0 0 0 0 0.512541 0 0 0 0 0.0695833 0 0 0 0 0.695833 0 0 0 0.4 0"/>
<feBlend mode="normal" in2="effect1_dropShadow_0_1" result="effect2_dropShadow_0_1"/>
<feBlend mode="normal" in="SourceGraphic" in2="effect2_dropShadow_0_1" result="shape"/>
</filter>
<linearGradient id="paint0_linear_0_1" x1="720" y1="0" x2="720" y2="4400" gradientUnits="userSpaceOnUse">
<stop stop-color="#602678"/>
<stop offset="0.31163" stop-color="#1D192B"/>
<stop offset="1" stop-color="#1D192B"/>
</linearGradient>
</defs>
</svg>
