<svg width="360" height="360" viewBox="0 0 360 360" fill="none" xmlns="http://www.w3.org/2000/svg">
<g clip-path="url(#clip0_95_2255)">
<path fill-rule="evenodd" clip-rule="evenodd" d="M315.55 236.885C316.991 238.315 318.884 239.035 320.777 239.035C322.67 239.035 324.563 238.315 326.014 236.885C328.904 234.015 328.904 229.377 326.014 226.507L312.674 213.265L305.765 185.885C305.44 184.604 304.766 183.421 303.82 182.481L222.457 101.753C218.885 98.2082 212.903 92.2776 202.454 92.2776C196.995 92.2776 191.383 94.7364 187.064 99.0224C185.007 101.063 183.369 103.391 182.217 105.856C178.555 102.649 173.225 99.2111 165.328 99.2111C159.9 99.2111 154.334 101.673 150.043 105.964C148.019 107.987 146.402 110.295 145.258 112.738C141.588 109.541 136.264 106.144 128.412 106.144C122.968 106.144 117.384 108.614 113.081 112.923C108.781 117.233 106.89 129.256 108.624 137.345L120.757 134.456C119.024 130.411 122.011 124.855 123.5 123.355C124.994 121.867 126.918 120.899 128.412 120.899C132.524 120.899 134.704 122.885 137.938 126.117L149.895 138.092C150.922 139.268 151.927 140.273 152.789 141.136L152.79 141.136L211.556 199.905C212.99 201.338 214.87 202.057 216.751 202.057L216.804 202.057L216.812 202.057C218.698 202.057 220.584 201.335 222.022 199.895C224.9 197.012 224.9 192.349 222.022 189.463L160.33 127.677C158.835 125.803 157.984 123.941 157.984 121.25C157.984 119.759 158.945 117.841 160.43 116.351C161.92 114.866 163.838 113.903 165.328 113.903C169.428 113.903 171.602 115.88 174.827 119.097L187.604 131.875C188.39 132.722 189.146 133.472 189.817 134.137L189.829 134.149L196.218 140.489L233.594 177.866C234.259 178.532 235.02 179.043 235.831 179.4C238.647 180.958 242.264 180.55 244.659 178.176C247.549 175.306 247.549 170.668 244.659 167.798L200.288 123.771C197.049 120.565 195.058 118.386 195.058 114.291C195.058 112.802 196.028 110.886 197.52 109.398C199.015 107.914 200.951 106.955 202.454 106.955C206.574 106.955 208.77 108.922 212.014 112.141L291.907 191.426L298.813 218.798C299.138 220.088 299.812 221.27 300.757 222.208L315.55 236.885ZM172.839 245.968C170.959 245.968 169.078 245.25 167.645 243.816L165.898 242.07C161.771 238.233 154.066 231.771 150.496 231.771C148.992 231.771 147.058 232.734 145.555 234.216C144.057 235.701 143.086 237.625 143.086 239.118C143.086 243.21 145.072 245.391 148.317 248.609L177.962 278C185.999 285.971 197.588 290.539 209.768 290.539H231.995C233.968 290.539 235.848 291.311 237.235 292.691L252.052 307.386C254.95 310.256 254.95 314.9 252.052 317.773C250.608 319.204 248.712 319.925 246.815 319.925C244.919 319.925 243.022 319.204 241.576 317.773L228.929 305.233H209.768C193.691 305.233 178.28 299.092 167.484 288.387L137.849 259.004C134.254 255.44 128.268 249.497 128.268 239.118C128.268 233.694 130.751 228.12 135.076 223.829C137.301 221.623 139.866 219.901 142.578 218.749L108.878 185.048C105.33 181.499 99.3789 175.548 99.3789 165.161C99.3789 159.732 101.84 154.164 106.131 149.875C110.422 145.584 115.988 143.123 121.417 143.123C131.803 143.123 137.751 149.07 141.3 152.619L141.302 152.622L200.072 211.391C202.942 214.264 202.942 218.907 200.072 221.778C197.199 224.651 192.555 224.651 189.682 221.778L130.916 163.009C127.69 159.792 125.517 157.814 121.417 157.814C119.926 157.814 118.008 158.777 116.518 160.262C115.033 161.753 114.073 163.671 114.073 165.161C114.073 169.261 116.047 171.435 119.265 174.661L169.224 224.619C169.89 225.218 170.489 225.795 171.024 226.324C172.188 227.398 173.593 228.837 174.911 230.188C175.81 231.108 176.667 231.987 177.38 232.679C177.824 233.111 178.209 233.549 178.54 233.99C179.289 234.909 179.783 235.966 180.021 237.068C180.627 239.654 179.696 242.072 178.223 243.654C177.8 244.108 177.294 244.515 176.727 244.857C175.541 245.598 174.19 245.968 172.839 245.968Z" fill="url(#paint0_linear_95_2255)"/>
<path d="M112.332 233.591L56.7728 178.162C55.8251 177.216 55.149 176.025 54.8232 174.73L47.9073 147.136L34.5289 133.794C31.6316 130.901 31.6316 126.229 34.5289 123.336C37.4288 120.444 42.1155 120.444 45.0154 123.336L59.8438 138.127C60.7914 139.075 61.4675 140.264 61.7934 141.559L68.712 169.153L122.816 223.133C121.855 224.095 112.829 233.591 112.332 233.591Z" fill="url(#paint1_linear_95_2255)"/>
<path d="M182.633 82.0445C179.158 78.5808 162.985 69.5504 150.802 69.5504H128.559C126.593 69.5504 124.703 68.7839 123.315 67.4064L108.487 52.771C105.588 49.9087 105.588 45.2831 108.487 42.4235C111.387 39.5613 116.074 39.5613 118.971 42.4235L131.63 54.915H150.802C166.893 54.915 182.312 61.0334 193.116 71.6944C191.523 73.2534 183.627 81.0111 182.633 82.0445Z" fill="url(#paint2_linear_95_2255)"/>
<path d="M217.246 62.2325H202.61C201.752 61.3745 196.269 48.7666 195.291 47.7879H214.217L226.709 35.4616C229.568 32.6372 234.194 32.6372 237.056 35.4616C239.918 38.286 239.918 42.8505 237.056 45.6722L222.421 60.1168C221.051 61.4735 219.191 62.2325 217.246 62.2325Z" fill="url(#paint3_linear_95_2255)"/>
<path d="M291.204 150.718V128.433C291.204 126.463 291.96 124.57 293.319 123.179L307.763 108.323C310.587 105.418 315.152 105.418 317.974 108.323C320.799 111.226 320.799 115.921 317.974 118.827L305.647 131.507V162.136C305.647 162.827 293.319 152.834 291.204 150.718Z" fill="url(#paint4_linear_95_2255)"/>
<path d="M320.274 128.1C318.39 128.1 316.506 127.38 315.073 125.949L219.406 30.5138C216.528 27.6426 216.528 23.0024 219.406 20.1339L239.203 0.369629C242.853 3.66526 246.133 7.29004 249.603 10.7599L235.015 25.3225L320.274 110.378C320.274 110.378 348.833 80.7218 349.411 81.2996C349.989 81.8773 359.382 91.1219 359.799 91.6997C359.221 92.2775 325.478 125.949 325.478 125.949C324.041 127.38 322.158 128.1 320.274 128.1Z" fill="url(#paint5_linear_95_2255)"/>
<path d="M143.292 297.767L157.927 297.767C158.785 298.626 164.268 311.233 165.247 312.212L146.32 312.212L133.829 324.538C130.969 327.363 126.344 327.363 123.481 324.538C120.619 321.714 120.619 317.15 123.481 314.328L138.117 299.883C139.486 298.526 141.346 297.767 143.292 297.767Z" fill="url(#paint6_linear_95_2255)"/>
<path d="M69.334 209.282L69.334 231.567C69.334 233.537 68.5776 235.43 67.2181 236.821L52.7748 251.677C49.9502 254.582 45.3852 254.582 42.5632 251.677C39.7386 248.774 39.7386 244.079 42.5632 241.173L54.8907 228.493L54.8907 197.864C54.8907 197.173 67.2181 207.166 69.334 209.282Z" fill="url(#paint7_linear_95_2255)"/>
<path d="M40.2637 231.9C42.1475 231.9 44.0312 232.621 45.4649 234.051L141.132 329.486C144.01 332.358 144.01 336.998 141.132 339.866L121.335 359.631C117.685 356.335 114.404 352.71 110.935 349.24L125.523 334.678L40.2637 249.622C40.2637 249.622 11.7043 279.278 11.1265 278.701C10.5487 278.123 1.15546 268.878 0.738961 268.301C1.31673 267.723 35.0598 234.051 35.0598 234.051C36.4962 232.621 38.38 231.9 40.2637 231.9Z" fill="url(#paint8_linear_95_2255)"/>
<path d="M232.27 320.106C232.27 318.222 232.99 316.338 234.42 314.905L329.856 219.238C332.727 216.36 337.367 216.36 340.236 219.238L360 239.035C356.704 242.685 353.08 245.965 349.61 249.435L335.047 234.847L249.992 320.106C249.992 320.106 279.648 348.665 279.07 349.243C278.492 349.821 269.248 359.214 268.67 359.631C268.092 359.053 234.42 325.31 234.42 325.31C232.99 323.873 232.27 321.99 232.27 320.106Z" fill="url(#paint9_linear_95_2255)"/>
<path d="M127.73 40.5122C127.73 42.396 127.01 44.2797 125.58 45.7134L30.1442 141.38C27.273 144.259 22.6328 144.259 19.7643 141.38L2.61821e-07 121.583C3.29564 117.933 6.92041 114.653 10.3903 111.183L24.9529 125.771L110.008 40.5122C110.008 40.5122 80.3522 11.9528 80.9299 11.3751C81.5077 10.7973 90.7523 1.40399 91.3301 0.987489C91.9079 1.56526 125.58 35.3084 125.58 35.3084C127.01 36.7448 127.73 38.6285 127.73 40.5122Z" fill="url(#paint10_linear_95_2255)"/>
</g>
<defs>
<linearGradient id="paint0_linear_95_2255" x1="99.3789" y1="206.101" x2="328.182" y2="206.101" gradientUnits="userSpaceOnUse">
<stop stop-color="#FF57DD"/>
<stop offset="1" stop-color="#56C2FF"/>
</linearGradient>
<linearGradient id="paint1_linear_95_2255" x1="32.356" y1="177.379" x2="122.816" y2="177.379" gradientUnits="userSpaceOnUse">
<stop stop-color="#FF57DD"/>
<stop offset="1" stop-color="#56C2FF"/>
</linearGradient>
<linearGradient id="paint2_linear_95_2255" x1="106.312" y1="61.1607" x2="193.116" y2="61.1607" gradientUnits="userSpaceOnUse">
<stop stop-color="#FF57DD"/>
<stop offset="1" stop-color="#56C2FF"/>
</linearGradient>
<linearGradient id="paint3_linear_95_2255" x1="195.291" y1="47.7879" x2="239.203" y2="47.7879" gradientUnits="userSpaceOnUse">
<stop stop-color="#FF57DD"/>
<stop offset="1" stop-color="#56C2FF"/>
</linearGradient>
<linearGradient id="paint4_linear_95_2255" x1="291.204" y1="134.157" x2="320.093" y2="134.157" gradientUnits="userSpaceOnUse">
<stop stop-color="#FF57DD"/>
<stop offset="1" stop-color="#56C2FF"/>
</linearGradient>
<linearGradient id="paint5_linear_95_2255" x1="217.247" y1="64.2348" x2="359.799" y2="64.2348" gradientUnits="userSpaceOnUse">
<stop stop-color="#FF57DD"/>
<stop offset="1" stop-color="#56C2FF"/>
</linearGradient>
<linearGradient id="paint6_linear_95_2255" x1="165.247" y1="312.212" x2="121.335" y2="312.212" gradientUnits="userSpaceOnUse">
<stop stop-color="#FF57DD"/>
<stop offset="1" stop-color="#56C2FF"/>
</linearGradient>
<linearGradient id="paint7_linear_95_2255" x1="69.334" y1="225.843" x2="40.4447" y2="225.843" gradientUnits="userSpaceOnUse">
<stop stop-color="#FF57DD"/>
<stop offset="1" stop-color="#56C2FF"/>
</linearGradient>
<linearGradient id="paint8_linear_95_2255" x1="143.291" y1="295.765" x2="0.738958" y2="295.765" gradientUnits="userSpaceOnUse">
<stop stop-color="#FF57DD"/>
<stop offset="1" stop-color="#56C2FF"/>
</linearGradient>
<linearGradient id="paint9_linear_95_2255" x1="296.135" y1="217.079" x2="296.135" y2="359.631" gradientUnits="userSpaceOnUse">
<stop stop-color="#FF57DD"/>
<stop offset="1" stop-color="#56C2FF"/>
</linearGradient>
<linearGradient id="paint10_linear_95_2255" x1="63.8652" y1="143.539" x2="63.8652" y2="0.987489" gradientUnits="userSpaceOnUse">
<stop stop-color="#FF57DD"/>
<stop offset="1" stop-color="#56C2FF"/>
</linearGradient>
<clipPath id="clip0_95_2255">
<rect width="360" height="360" fill="white"/>
</clipPath>
</defs>
</svg>
