<svg width="360" height="360" viewBox="0 0 360 360" fill="none" xmlns="http://www.w3.org/2000/svg">
<g clip-path="url(#clip0_95_2274)">
<path d="M59.9991 284.999C43.4537 284.999 30.001 271.546 30.001 255.001C30.001 238.456 43.4537 225 59.9991 225C76.5446 225 90.0001 238.456 90.0001 255.001C90.0001 271.546 76.5446 284.999 59.9991 284.999ZM59.9991 239.999C51.7264 239.999 45.0001 246.728 45.0001 255.001C45.0001 263.274 51.7264 270 59.9991 270C68.2719 270 75.001 263.274 75.001 255.001C75.001 246.728 68.2719 239.999 59.9991 239.999Z" fill="url(#paint0_linear_95_2274)"/>
<path d="M104.999 360H7.50092C3.35907 360 0 356.646 0 352.499V337.5C0 327.489 3.90015 318.076 10.9808 310.987C18.067 303.906 27.4878 300.001 37.4991 300.001H82.4991C92.5214 300.001 101.939 303.906 109.02 310.987C109.02 310.987 98.3756 321.56 98.4073 321.592C94.1638 317.34 88.5141 315 82.4991 315H37.4991C31.4923 315 25.8453 317.348 21.5936 321.592C17.3392 325.846 14.9991 331.493 14.9991 337.5V345.001H104.999C104.999 345.001 104.999 348.352 104.999 352.499C104.999 356.646 104.999 359.5 104.999 360Z" fill="url(#paint1_linear_95_2274)"/>
<path d="M300.001 284.999C316.546 284.999 329.999 271.546 329.999 255.001C329.999 238.456 316.546 225 300.001 225C283.455 225 270 238.456 270 255.001C270 271.546 283.455 284.999 300.001 284.999ZM300.001 239.999C308.274 239.999 315 246.728 315 255.001C315 263.274 308.274 270 300.001 270C291.728 270 284.999 263.274 284.999 255.001C284.999 246.728 291.728 239.999 300.001 239.999Z" fill="url(#paint2_linear_95_2274)"/>
<path d="M255.001 360H352.499C356.641 360 360 356.646 360 352.499V337.5C360 327.489 356.1 318.076 349.019 310.987C341.933 303.906 332.512 300.001 322.501 300.001H277.501C267.479 300.001 258.061 303.906 250.98 310.987C250.98 310.987 261.624 321.56 261.593 321.592C265.836 317.34 271.486 315 277.501 315H322.501C328.508 315 334.155 317.348 338.406 321.592C342.661 325.846 345.001 331.493 345.001 337.5V345.001H255.001C255.001 345.001 255.001 348.352 255.001 352.499C255.001 356.646 255.001 360 255.001 360Z" fill="url(#paint3_linear_95_2274)"/>
<path d="M180 284.999C163.455 284.999 149.999 271.546 149.999 255.001C149.999 238.456 163.455 225 180 225C196.545 225 210.001 238.456 210.001 255.001C210.001 271.546 196.545 284.999 180 284.999ZM180 239.999C171.727 239.999 165.001 246.728 165.001 255.001C165.001 263.274 171.727 270 180 270C188.273 270 194.999 263.274 194.999 255.001C194.999 246.728 188.273 239.999 180 239.999Z" fill="url(#paint4_linear_95_2274)"/>
<path d="M232.501 360H127.499C123.36 360 120.001 356.646 120.001 352.499V337.5C120.001 327.489 123.901 318.076 130.979 310.987C138.068 303.906 147.489 300.001 157.5 300.001H202.5C212.52 300.001 221.94 303.906 229.021 310.987C236.094 318.068 239.999 327.489 239.999 337.5V352.499C239.999 356.646 236.648 360 232.501 360ZM135 345.001H225V337.5C225 331.493 222.652 325.838 218.408 321.592C214.162 317.34 208.515 315 202.5 315H157.5C151.493 315 145.846 317.348 141.592 321.592C137.34 325.846 135 331.493 135 337.5V345.001Z" fill="url(#paint5_linear_95_2274)"/>
<path d="M83.5 210.001H14.9991C6.72638 210.001 0 203.272 0 194.999V14.9991C0 6.72638 6.72638 0 14.9991 0H127.499L124 14.5L14.9991 14.9991V194.999H75.0009C75.0009 194.999 84 210.001 83.5 210.001Z" fill="url(#paint6_linear_95_2274)"/>
<path d="M276.5 210.001H345.001C353.274 210.001 360 203.272 360 194.999V14.9991C360 6.72638 353.274 0 345.001 0H232.501L236 14.5L345.001 14.9991V194.999H284.999C284.999 194.999 276 210.001 276.5 210.001Z" fill="url(#paint7_linear_95_2274)"/>
<path fill-rule="evenodd" clip-rule="evenodd" d="M142.501 37.4991C142.501 58.1781 159.324 75.0009 180 75.0009C200.676 75.0009 217.499 58.1781 217.499 37.4991C217.499 16.8228 200.676 0 180 0C159.324 0 142.501 16.8228 142.501 37.4991ZM157.5 37.4991C157.5 25.0955 167.594 14.9991 180 14.9991C192.406 14.9991 202.5 25.0955 202.5 37.4991C202.5 49.9054 192.406 59.9991 180 59.9991C167.594 59.9991 157.5 49.9054 157.5 37.4991ZM247.5 135V142.501H270C274.147 142.501 277.501 145.86 277.501 149.999V180C277.501 181.989 276.713 183.9 275.304 185.304L247.5 213.105V239.999H239.999H232.501V180C232.501 175.861 235.852 172.499 239.999 172.499C244.146 172.499 247.5 175.861 247.5 180V191.895L262.499 176.896V157.5H97.5009V176.896L112.5 191.896V180C112.5 175.861 115.859 172.499 120.001 172.499C124.14 172.499 127.499 175.861 127.499 180V239.999H120.001H112.5V213.105L84.6963 185.304C83.2873 183.9 82.499 181.989 82.499 180V149.999C82.499 145.86 85.8608 142.501 89.9999 142.501H112.5V135C112.5 110.182 132.682 90 157.5 90H202.5C227.318 90 247.5 110.182 247.5 135ZM232.501 142.501H127.499V135C127.499 118.455 140.955 104.999 157.5 104.999H202.5C219.045 104.999 232.501 118.455 232.501 135V142.501ZM202.5 202.5C202.5 206.647 205.854 210.001 210.001 210.001C214.148 210.001 217.499 206.647 217.499 202.5V180C217.499 175.861 214.148 172.499 210.001 172.499H149.999C145.86 172.499 142.501 175.861 142.501 180V202.5C142.501 206.647 145.86 210.001 149.999 210.001C154.141 210.001 157.5 206.647 157.5 202.5V187.501H202.5V202.5Z" fill="url(#paint8_linear_95_2274)"/>
</g>
<defs>
<linearGradient id="paint0_linear_95_2274" x1="30.001" y1="255" x2="90.0001" y2="255" gradientUnits="userSpaceOnUse">
<stop stop-color="#FF57DD"/>
<stop offset="1" stop-color="#56C2FF"/>
</linearGradient>
<linearGradient id="paint1_linear_95_2274" x1="0" y1="330" x2="109.02" y2="330" gradientUnits="userSpaceOnUse">
<stop stop-color="#FF57DD"/>
<stop offset="1" stop-color="#56C2FF"/>
</linearGradient>
<linearGradient id="paint2_linear_95_2274" x1="329.999" y1="255" x2="270" y2="255" gradientUnits="userSpaceOnUse">
<stop stop-color="#FF57DD"/>
<stop offset="1" stop-color="#56C2FF"/>
</linearGradient>
<linearGradient id="paint3_linear_95_2274" x1="360" y1="330" x2="250.98" y2="330" gradientUnits="userSpaceOnUse">
<stop stop-color="#FF57DD"/>
<stop offset="1" stop-color="#56C2FF"/>
</linearGradient>
<linearGradient id="paint4_linear_95_2274" x1="149.999" y1="255" x2="210.001" y2="255" gradientUnits="userSpaceOnUse">
<stop stop-color="#FF57DD"/>
<stop offset="1" stop-color="#56C2FF"/>
</linearGradient>
<linearGradient id="paint5_linear_95_2274" x1="120.001" y1="330" x2="239.999" y2="330" gradientUnits="userSpaceOnUse">
<stop stop-color="#FF57DD"/>
<stop offset="1" stop-color="#56C2FF"/>
</linearGradient>
<linearGradient id="paint6_linear_95_2274" x1="0" y1="105" x2="127.499" y2="105" gradientUnits="userSpaceOnUse">
<stop stop-color="#FF57DD"/>
<stop offset="1" stop-color="#56C2FF"/>
</linearGradient>
<linearGradient id="paint7_linear_95_2274" x1="360" y1="105" x2="232.501" y2="105" gradientUnits="userSpaceOnUse">
<stop stop-color="#FF57DD"/>
<stop offset="1" stop-color="#56C2FF"/>
</linearGradient>
<linearGradient id="paint8_linear_95_2274" x1="157.5" y1="12.2618" x2="262.804" y2="252.48" gradientUnits="userSpaceOnUse">
<stop stop-color="#FF57DD"/>
<stop offset="1" stop-color="#56C2FF"/>
</linearGradient>
<clipPath id="clip0_95_2274">
<rect width="360" height="360" fill="white"/>
</clipPath>
</defs>
</svg>
