<svg xmlns="http://www.w3.org/2000/svg" width="1024" height="422.317"><path d="M394.29 184.129c9.284 6.383 16.284 14.934 21.026 25.656 4.743 10.746 7.09 22.574 7.09 35.492 0 12.914-2.37 24.746-7.09 35.493-4.742 10.746-11.742 19.296-21.027 25.656-9.281 6.379-20.379 9.547-33.297 9.547-14.379 0-27.406-3.922-39.035-11.743l-.555 9.02h-31.66V108.516h33.852v78.34c11.101-8.2 23.574-12.274 37.398-12.274 12.918 0 24.016 3.188 33.297 9.547Zm-14.888 92.277c5.54-7.824 8.332-18.191 8.332-31.129 0-12.937-2.77-23.285-8.332-31.129-5.558-7.82-13.336-11.742-23.351-11.742-11.477 0-20.028 3.813-25.656 11.457-5.649 7.64-8.461 18.121-8.461 31.39 0 13.274 2.812 23.75 8.46 31.395 5.63 7.645 14.204 11.477 25.657 11.477 10.015 0 17.793-3.922 23.351-11.742ZM453.09 144.25h33.851v33.852H453.09Zm0 67.707h33.851V313.25H453.09ZM621.29 108.516h33.855v124.222l46.035-55.965h38.218l-53.414 65.512 50.778 70.985h-38.219l-43.398-60.614v60.614h-33.856ZM779.61 306.293c-11.188-6.45-19.563-15.11-25.126-25.922-5.558-10.836-8.328-22.887-8.328-36.18s2.637-24.39 7.91-34.937c5.27-10.547 12.914-18.988 22.93-25.258 10.012-6.27 21.934-9.414 35.758-9.414 12.738 0 23.527 2.637 32.344 7.906 8.82 5.274 15.465 12.387 19.941 21.293 4.453 8.93 6.691 18.918 6.691 30.02 0 5.472-.73 11.652-2.195 18.566H781.36c1.817 12.008 6.559 20.98 14.203 26.895 7.641 5.918 16.836 8.863 27.56 8.863 14.753 0 28.401-3.723 40.94-11.188l1.641 28.668c-5.828 3.102-12.605 5.582-20.34 7.512-7.73 1.903-16.148 2.856-25.254 2.856-15.843 0-29.355-3.235-40.543-9.703Zm57.734-76.856c0-7.09-2.016-13.382-6.004-18.832-4.008-5.472-10.192-8.199-18.567-8.199-8.37 0-15.109 2.461-20.203 7.38-5.097 4.917-8.55 11.476-10.367 19.651ZM936.598 301.992l-55.762-125.219h36.996l34.32 86.34 34.871-86.34h37l-83.925 198.973h-33.254l29.754-73.73ZM554.648 178.102V144.25h-33.851v169.02h33.851V211.977h33.832v-33.875ZM0 0l229.879 132.707-76.656 44.246v68.39l76.656 44.243L0 422.316Zm17.371 392.254 50.18-28.98v-68.88l-50.18-28.98Zm67.547-38.992 42.273-24.418-42.273-24.414Zm68.305-39.438 41.918-24.191-41.918-24.195v48.41Zm-17.368-.023v-58.399l-50.937-29.398v58.398Zm-68.304-39.434v-47.922l-41.496 23.95 41.496 23.949Zm-50.18-39.015 41.895-24.192-41.895-24.195Zm118.484 0v-48.344L93.98 211.18Zm-50.937-38.993 50.937-29.398v-58.402l-50.937 29.398Zm-17.367-.445v-47.918l-41.496 23.95 41.496 23.949Zm85.672-38.992 41.918-24.192-41.918-24.195v48.41Zm-135.852 0 50.18-28.977V59.043L17.37 30.086Zm67.547-38.992 42.273-24.414-42.273-24.414Zm0 0" style="stroke:none;fill-rule:nonzero;fill:#fff;fill-opacity:1"/></svg>