<svg width="176" height="72" viewBox="0 0 176 72" fill="none" xmlns="http://www.w3.org/2000/svg">
<g clip-path="url(#clip0_2069_4671)">
<g clip-path="url(#clip1_2069_4671)">
<path d="M67.7686 31.5522C69.3643 32.646 70.5674 34.1113 71.3824 35.9486C72.1976 37.79 72.601 39.8169 72.601 42.0305C72.601 44.2434 72.1937 46.2709 71.3824 48.1125C70.5674 49.954 69.3643 51.4191 67.7684 52.5089C66.1732 53.602 64.2658 54.1449 62.0455 54.1449C59.5741 54.1449 57.3351 53.4728 55.3364 52.1326L55.241 53.6783H49.7994V18.5952H55.6177V32.0195C57.5257 30.6144 59.6695 29.9162 62.0455 29.9162C64.2658 29.9162 66.1732 30.4625 67.7684 31.5522H67.7686ZM65.2097 47.3647C66.1619 46.024 66.6418 44.2475 66.6418 42.0305C66.6418 39.8136 66.1657 38.0404 65.2097 36.6962C64.2544 35.3562 62.9176 34.6841 61.1963 34.6841C59.2237 34.6841 57.754 35.3375 56.7866 36.6474C55.8157 37.9566 55.3324 39.7526 55.3324 42.0264C55.3324 44.301 55.8157 46.0962 56.7865 47.4062C57.7541 48.7162 59.2278 49.3729 61.1963 49.3729C62.9176 49.3729 64.2544 48.7008 65.2097 47.3608V47.3647ZM77.8748 24.7186H83.693V30.5194H77.8748V24.7186ZM77.8748 36.3208H83.693V53.6783H77.8748V36.3208ZM106.784 18.5952H112.603V39.8818L120.515 30.2917H127.084L117.904 41.5178L126.631 53.6817H120.062L112.603 43.2949V53.6817H106.784L106.784 18.5952ZM133.995 52.4861C132.073 51.3809 130.633 49.8969 129.677 48.0442C128.722 46.1873 128.246 44.1223 128.246 41.8444C128.246 39.5665 128.699 37.6649 129.605 35.8576C130.511 34.0503 131.825 32.6038 133.546 31.5294C135.267 30.455 137.316 29.9162 139.692 29.9162C141.881 29.9162 143.736 30.3681 145.251 31.271C146.767 32.1748 147.909 33.3936 148.679 34.9198C149.444 36.45 149.829 38.1615 149.829 40.064C149.829 41.0016 149.703 42.0606 149.451 43.2454H134.296C134.609 45.3031 135.424 46.8405 136.737 47.8541C138.051 48.8682 139.631 49.3729 141.474 49.3729C144.01 49.3729 146.356 48.7349 148.511 47.4557L148.793 52.3682C147.791 52.8998 146.626 53.3248 145.297 53.6555C143.968 53.9816 142.521 54.1449 140.956 54.1449C138.233 54.1449 135.911 53.5905 133.988 52.4822L133.995 52.4861ZM143.919 39.3162C143.919 38.1012 143.572 37.023 142.887 36.0891C142.198 35.1514 141.135 34.6841 139.695 34.6841C138.257 34.6841 137.098 35.1059 136.223 35.9488C135.347 36.7913 134.753 37.9153 134.441 39.3162H143.919ZM160.978 51.7491L151.394 30.2917H157.752L163.651 45.0868L169.645 30.2917H176.004L161.579 64.3876H155.864L160.978 51.7532V51.7491ZM95.3301 30.5194V24.7186H89.512V53.6817H95.3301V36.3242H101.145V30.5194H95.3301ZM0 0L39.5105 22.7406L26.3352 30.3225V42.0418L39.5105 49.6232L0 72.3678V0ZM2.98564 67.2163L11.6103 62.2504V50.4471L2.98564 45.4811V67.2163ZM14.5953 60.5347L21.861 56.3505L14.5953 52.1669V60.5347ZM26.3352 53.7766L33.5399 49.6313L26.3352 45.4853V53.7808V53.7766ZM23.3501 53.7727V43.7655L14.5953 38.7279V48.7349L23.3501 53.7727ZM11.6103 47.0153V38.8034L4.4782 42.9075L11.6103 47.0114V47.0153ZM2.98564 40.3297L10.1863 36.1842L2.98564 32.0382V40.3297ZM23.3501 40.3297V32.0455L16.1528 36.1876L23.3501 40.3297ZM14.5953 33.6479L23.3501 28.6103V18.6026L14.5953 23.6402V33.6479ZM11.6103 33.5717V25.3605L4.4782 29.4645L11.6103 33.5684V33.5717ZM26.3352 26.89L33.5399 22.7445L26.3352 18.5985V26.894V26.89ZM2.98564 26.89L11.6103 21.9246V10.1176L2.98547 5.15551L2.98564 26.89ZM14.5953 20.2084L21.861 16.0248L14.5953 11.8413V20.2084Z" fill="white"/>
</g>
</g>
<defs>
<clipPath id="clip0_2069_4671">
<rect width="176" height="72" fill="white"/>
</clipPath>
<clipPath id="clip1_2069_4671">
<rect width="176" height="72.3679" fill="white"/>
</clipPath>
</defs>
</svg>
