<svg width="256" height="52" viewBox="0 0 256 52" fill="none" xmlns="http://www.w3.org/2000/svg">
<g clip-path="url(#clip0_2166_3212)">
<g clip-path="url(#clip1_2166_3212)">
<path d="M33.4698 19.19C33.4698 29.7778 25.6877 37.9042 15.468 37.9042H1.90298C1.06154 37.9042 0.378197 37.2141 0.378197 36.3644V2.02073C0.378197 1.17102 1.06154 0.480959 1.90298 0.480959H15.468C25.6826 0.47581 33.4698 8.6021 33.4698 19.19ZM24.2036 19.19C24.2036 13.4686 20.5523 9.72475 15.468 9.72475H10.1185V28.6552H15.468C20.5472 28.6552 24.2036 24.9114 24.2036 19.19Z" fill="#DA3734"/>
<path d="M50.5229 31.0606C52.0375 31.0606 53.389 30.6537 54.516 29.871C55.0515 29.5002 55.7501 29.4796 56.2856 29.8607L60.2632 32.6724C61.0587 33.2338 61.1403 34.3976 60.4315 35.0671C57.8409 37.4926 54.3273 38.6564 50.3139 38.6564C41.155 38.6564 35.4892 32.5076 35.4892 24.5925C35.4892 16.5692 41.313 10.4204 49.5743 10.4204C57.9939 10.4204 63.2362 16.461 63.2362 24.4844C63.2362 25.1538 63.2005 25.8027 63.1138 26.4567C63.0119 27.224 62.3643 27.8008 61.5994 27.8008H44.6022C45.6527 30.3654 47.9782 31.0606 50.5229 31.0606ZM54.6535 21.6519C53.858 18.8711 51.7928 17.9081 49.6765 17.9081C47.1368 17.9081 45.2295 19.1904 44.4849 21.6519H54.6535Z" fill="#DA3734"/>
<path d="M156.437 31.0606C157.952 31.0606 159.303 30.6537 160.43 29.871C160.966 29.5002 161.664 29.4796 162.2 29.8607L166.177 32.6724C166.973 33.2338 167.054 34.3976 166.346 35.0671C163.755 37.4926 160.241 38.6564 156.228 38.6564C147.069 38.6564 141.403 32.5076 141.403 24.5925C141.403 16.5692 147.227 10.4204 155.489 10.4204C163.908 10.4204 169.15 16.461 169.15 24.4844C169.15 25.1538 169.115 25.8027 169.028 26.4567C168.926 27.224 168.278 27.8008 167.513 27.8008H150.516C151.567 30.3654 153.897 31.0606 156.437 31.0606ZM160.568 21.6519C159.772 18.8711 157.707 17.9081 155.591 17.9081C153.051 17.9081 151.144 19.1904 150.399 21.6519H160.568Z" fill="#DA3734"/>
<path d="M106.604 21.5436V36.3646C106.604 37.2143 105.92 37.9044 105.079 37.9044H99.2909C98.4495 37.9044 97.7662 37.2143 97.7662 36.3646V22.5633C97.7662 20.2665 96.7054 18.8194 94.482 18.8194C91.9934 18.8194 90.8307 20.6373 90.8307 23.31V36.3646C90.8307 37.2143 90.1474 37.9044 89.3059 37.9044H83.5685C82.7271 37.9044 82.0387 37.2143 82.0387 36.3646V22.5633C82.0387 20.2665 80.9269 18.8194 78.7035 18.8194C76.2659 18.8194 75.0521 20.6373 75.0521 23.31V36.3646C75.0521 37.2143 74.3688 37.9044 73.5222 37.9044H67.7851C66.9437 37.9044 66.2603 37.2143 66.2603 36.3646V12.0835C66.2603 11.5788 66.6632 11.172 67.1629 11.172H74.1496C74.6493 11.172 75.0521 11.5788 75.0521 12.0835V13.6851C76.48 11.7591 78.8105 10.4253 82.2018 10.4253C85.3282 10.4253 87.5517 11.6561 88.9796 13.8447C90.6216 11.8106 93.0031 10.4253 96.6544 10.4253C102.738 10.4201 106.604 14.5915 106.604 21.5436Z" fill="#DA3734"/>
<path d="M138.373 12.7118V36.3646C138.373 37.2143 137.69 37.9044 136.849 37.9044H131.112C130.27 37.9044 129.587 37.2143 129.587 36.3646V35.448C127.894 37.4821 125.456 38.6562 122.07 38.6562C114.976 38.6562 109.627 32.559 109.627 24.5408C109.627 16.5226 114.976 10.4253 122.07 10.4253C125.461 10.4253 127.894 11.6046 129.587 13.6336V12.7169C129.587 11.8672 130.27 11.1772 131.112 11.1772H136.849C137.69 11.172 138.373 11.8621 138.373 12.7118ZM129.587 24.5356C129.587 21.0595 127.307 18.7061 124.028 18.7061C120.744 18.7061 118.47 21.0595 118.47 24.5356C118.47 28.0117 120.749 30.3652 124.028 30.3652C127.307 30.3652 129.587 28.0117 129.587 24.5356Z" fill="#DA3734"/>
<path d="M226.073 12.7118V36.3646C226.073 37.2143 225.39 37.9044 224.548 37.9044H218.811C217.97 37.9044 217.286 37.2143 217.286 36.3646V35.448C215.593 37.4821 213.156 38.6562 209.77 38.6562C202.676 38.6562 197.326 32.559 197.326 24.5408C197.326 16.5226 202.676 10.4253 209.77 10.4253C213.161 10.4253 215.593 11.6046 217.286 13.6336V12.7169C217.286 11.8672 217.97 11.1772 218.811 11.1772H224.548C225.39 11.172 226.073 11.8621 226.073 12.7118ZM217.281 24.5356C217.281 21.0595 215.007 18.7061 211.722 18.7061C208.438 18.7061 206.164 21.0595 206.164 24.5356C206.164 28.0117 208.443 30.3652 211.722 30.3652C215.007 30.3652 217.281 28.0117 217.281 24.5356Z" fill="#DA3734"/>
<path d="M171.16 24.5354C171.16 16.5687 177.198 10.4199 185.245 10.4199C189.85 10.4199 193.924 12.5262 196.387 15.8632C196.953 16.6305 196.749 17.6501 195.928 18.1291L190.977 21.018C190.36 21.3785 189.579 21.2498 189.09 20.7245C188.157 19.7203 186.785 19.0869 185.189 19.0869C182.226 19.0869 179.997 21.3323 179.997 24.5405C179.997 27.7488 182.221 29.9941 185.189 29.9941C186.775 29.9941 188.177 29.3607 189.1 28.341C189.564 27.8312 190.411 27.6819 191.002 28.0269L195.933 30.9004C196.749 31.3742 196.953 32.3887 196.398 33.156C193.934 36.5445 189.855 38.6559 185.24 38.6559C177.198 38.6508 171.16 32.502 171.16 24.5354Z" fill="#DA3734"/>
<path d="M255.997 21.9192V36.3643C255.997 37.214 255.314 37.9041 254.473 37.9041H248.736C247.894 37.9041 247.211 37.214 247.211 36.3643V23.042C247.211 20.1529 245.518 18.8191 243.238 18.8191C240.541 18.8191 238.898 20.4773 238.898 23.6857V36.3643C238.898 37.214 238.215 37.9041 237.374 37.9041H231.637C230.795 37.9041 230.107 37.214 230.107 36.3643V12.7115C230.107 11.8618 230.79 11.1718 231.637 11.1718H237.374C238.215 11.1718 238.898 11.8618 238.898 12.7115V13.8445C240.382 11.7074 242.973 10.4199 246.257 10.4199C251.709 10.4199 255.997 14.2204 255.997 21.9192Z" fill="#DA3734"/>
<path d="M58.1522 51.8963H4.7234C4.26443 51.8963 3.83609 51.6491 3.60661 51.2474L0.174569 45.2428C-0.320095 44.3776 0.29693 43.291 1.29136 43.291H61.5843C62.5736 43.291 63.1957 44.3725 62.701 45.2428L59.269 51.2474C59.0344 51.6491 58.6111 51.8963 58.1522 51.8963Z" fill="#DA3734"/>
</g>
</g>
<defs>
<clipPath id="clip0_2166_3212">
<rect width="256" height="51.0383" fill="white" transform="translate(0 0.480957)"/>
</clipPath>
<clipPath id="clip1_2166_3212">
<rect width="256" height="51.4972" fill="white" transform="translate(0 0.480957)"/>
</clipPath>
</defs>
</svg>
