<svg width="256" height="52" viewBox="0 0 256 52" fill="none" xmlns="http://www.w3.org/2000/svg">
<g clip-path="url(#clip0_2276_3163)">
<path d="M33.4698 19.19C33.4698 29.7778 25.6877 37.9042 15.468 37.9042H1.90295C1.06152 37.9042 0.378174 37.2141 0.378174 36.3644V2.02073C0.378174 1.17102 1.06152 0.480959 1.90295 0.480959H15.468C25.6826 0.47581 33.4698 8.6021 33.4698 19.19ZM24.2036 19.19C24.2036 13.4686 20.5523 9.72475 15.468 9.72475H10.1185V28.6552H15.468C20.5472 28.6552 24.2036 24.9114 24.2036 19.19Z" fill="#DA3734"/>
<path d="M50.523 31.0603C52.0375 31.0603 53.389 30.6535 54.516 29.8707C55.0515 29.5 55.7501 29.4794 56.2856 29.8604L60.2632 32.6722C61.0587 33.2335 61.1403 34.3973 60.4315 35.0668C57.8409 37.4923 54.3274 38.6562 50.314 38.6562C41.155 38.6562 35.4893 32.5074 35.4893 24.5923C35.4893 16.5689 41.313 10.4202 49.5744 10.4202C57.9939 10.4202 63.2363 16.4608 63.2363 24.4841C63.2363 25.1536 63.2006 25.8025 63.1139 26.4565C63.0119 27.2238 62.3643 27.8006 61.5994 27.8006H44.6022C45.6528 30.3651 47.9783 31.0603 50.523 31.0603ZM54.6536 21.6517C53.858 18.8709 51.7929 17.9079 49.6765 17.9079C47.1368 17.9079 45.2295 19.1901 44.485 21.6517H54.6536Z" fill="#DA3734"/>
<path d="M156.437 31.0603C157.952 31.0603 159.303 30.6535 160.43 29.8707C160.966 29.5 161.664 29.4794 162.2 29.8604L166.177 32.6722C166.973 33.2335 167.055 34.3973 166.346 35.0668C163.755 37.4923 160.241 38.6562 156.228 38.6562C147.069 38.6562 141.404 32.5074 141.404 24.5923C141.404 16.5689 147.227 10.4202 155.489 10.4202C163.908 10.4202 169.151 16.4608 169.151 24.4841C169.151 25.1536 169.115 25.8025 169.028 26.4565C168.926 27.2238 168.278 27.8006 167.514 27.8006H150.517C151.567 30.3651 153.898 31.0603 156.437 31.0603ZM160.568 21.6517C159.772 18.8709 157.707 17.9079 155.591 17.9079C153.051 17.9079 151.144 19.1901 150.399 21.6517H160.568Z" fill="#DA3734"/>
<path d="M106.604 21.5434V36.3644C106.604 37.2141 105.92 37.9041 105.079 37.9041H99.2909C98.4494 37.9041 97.7661 37.2141 97.7661 36.3644V22.563C97.7661 20.2663 96.7054 18.8192 94.482 18.8192C91.9934 18.8192 90.8307 20.637 90.8307 23.3097V36.3644C90.8307 37.2141 90.1473 37.9041 89.3059 37.9041H83.5685C82.727 37.9041 82.0386 37.2141 82.0386 36.3644V22.563C82.0386 20.2663 80.9269 18.8192 78.7035 18.8192C76.2658 18.8192 75.0521 20.637 75.0521 23.3097V36.3644C75.0521 37.2141 74.3687 37.9041 73.5222 37.9041H67.785C66.9436 37.9041 66.2603 37.2141 66.2603 36.3644V12.0833C66.2603 11.5786 66.6631 11.1718 67.1629 11.1718H74.1495C74.6493 11.1718 75.0521 11.5786 75.0521 12.0833V13.6848C76.4799 11.7588 78.8105 10.4251 82.2017 10.4251C85.3282 10.4251 87.5516 11.6558 88.9795 13.8445C90.6216 11.8103 93.0031 10.4251 96.6544 10.4251C102.738 10.4199 106.604 14.5913 106.604 21.5434Z" fill="#DA3734"/>
<path d="M138.373 12.7115V36.3644C138.373 37.2141 137.69 37.9041 136.849 37.9041H131.112C130.27 37.9041 129.587 37.2141 129.587 36.3644V35.4477C127.894 37.4818 125.456 38.656 122.07 38.656C114.976 38.656 109.627 32.5587 109.627 24.5405C109.627 16.5224 114.976 10.425 122.07 10.425C125.461 10.425 127.894 11.6043 129.587 13.6333V12.7167C129.587 11.867 130.27 11.1769 131.112 11.1769H136.849C137.69 11.1718 138.373 11.8618 138.373 12.7115ZM129.587 24.5354C129.587 21.0593 127.307 18.7059 124.028 18.7059C120.744 18.7059 118.47 21.0593 118.47 24.5354C118.47 28.0114 120.749 30.3649 124.028 30.3649C127.307 30.3649 129.587 28.0114 129.587 24.5354Z" fill="#DA3734"/>
<path d="M226.073 12.7115V36.3644C226.073 37.2141 225.39 37.9041 224.548 37.9041H218.811C217.97 37.9041 217.286 37.2141 217.286 36.3644V35.4477C215.593 37.4818 213.156 38.656 209.77 38.656C202.676 38.656 197.326 32.5587 197.326 24.5405C197.326 16.5224 202.676 10.425 209.77 10.425C213.161 10.425 215.593 11.6043 217.286 13.6333V12.7167C217.286 11.867 217.97 11.1769 218.811 11.1769H224.548C225.39 11.1718 226.073 11.8618 226.073 12.7115ZM217.281 24.5354C217.281 21.0593 215.007 18.7059 211.722 18.7059C208.438 18.7059 206.164 21.0593 206.164 24.5354C206.164 28.0114 208.443 30.3649 211.722 30.3649C215.007 30.3649 217.281 28.0114 217.281 24.5354Z" fill="#DA3734"/>
<path d="M171.16 24.5354C171.16 16.5687 177.198 10.4199 185.245 10.4199C189.85 10.4199 193.924 12.5262 196.387 15.8632C196.953 16.6305 196.749 17.6501 195.928 18.1291L190.977 21.018C190.36 21.3785 189.579 21.2498 189.09 20.7245C188.157 19.7203 186.785 19.0869 185.189 19.0869C182.226 19.0869 179.997 21.3323 179.997 24.5405C179.997 27.7488 182.221 29.9941 185.189 29.9941C186.775 29.9941 188.177 29.3607 189.1 28.341C189.564 27.8312 190.411 27.6819 191.002 28.0269L195.934 30.9004C196.749 31.3742 196.953 32.3887 196.398 33.156C193.934 36.5445 189.855 38.6559 185.24 38.6559C177.198 38.6508 171.16 32.502 171.16 24.5354Z" fill="#DA3734"/>
<path d="M255.997 21.9192V36.3643C255.997 37.214 255.314 37.9041 254.473 37.9041H248.736C247.894 37.9041 247.211 37.214 247.211 36.3643V23.042C247.211 20.1529 245.518 18.8191 243.238 18.8191C240.54 18.8191 238.898 20.4773 238.898 23.6857V36.3643C238.898 37.214 238.215 37.9041 237.374 37.9041H231.637C230.795 37.9041 230.107 37.214 230.107 36.3643V12.7115C230.107 11.8618 230.79 11.1718 231.637 11.1718H237.374C238.215 11.1718 238.898 11.8618 238.898 12.7115V13.8445C240.382 11.7074 242.973 10.4199 246.257 10.4199C251.709 10.4199 255.997 14.2204 255.997 21.9192Z" fill="#DA3734"/>
<path d="M58.1521 51.8963H4.72329C4.26433 51.8963 3.83599 51.6491 3.6065 51.2474L0.174462 45.2428C-0.320202 44.3776 0.296823 43.291 1.29125 43.291H61.5842C62.5735 43.291 63.1956 44.3725 62.7009 45.2428L59.2689 51.2474C59.0343 51.6491 58.611 51.8963 58.1521 51.8963Z" fill="#DA3734"/>
</g>
<defs>
<clipPath id="clip0_2276_3163">
<rect width="256" height="51.4972" fill="white" transform="translate(0 0.480957)"/>
</clipPath>
</defs>
</svg>
