<svg width="128" height="32" viewBox="0 0 128 32" fill="none" xmlns="http://www.w3.org/2000/svg">
<g clip-path="url(#clip0_2074_327)">
<path d="M4.64113 7.35612C4.64113 6.94857 4.78563 6.55381 5.04938 6.24208C5.31325 5.92975 5.6785 5.72054 6.081 5.65118C7.86288 5.37815 9.68218 5.48433 11.4204 5.96278C15.4551 7.02936 16.9971 8.45488 16.5304 9.25092C16.0629 10.0468 11.9892 9.39571 13.0884 11.6999C14.1871 14.0038 15.0425 16.3036 10.6259 17.9171C6.793 19.3192 11.4946 22.2635 7.16213 25.9327C6.9417 26.1244 6.67113 26.2488 6.38237 26.2913C6.09339 26.3334 5.79841 26.2918 5.53225 26.1714C5.26647 26.0511 5.04083 25.8566 4.88225 25.6114C4.72444 25.3668 4.64065 25.0816 4.641 24.7904L4.64113 7.35612Z" fill="white"/>
<path d="M16.2613 15.613C15.7208 13.9769 14.815 11.5836 16.9325 11.3938C17.2846 11.3539 17.6412 11.3851 17.981 11.4857C18.3202 11.5862 18.6357 11.7541 18.9088 11.9794C20.2441 13.1051 22.2246 16.2611 21.2238 20.2088C20.2833 23.9137 16.3375 25.6897 13.273 26.036C9.8115 26.428 10.0025 22.2905 13.273 20.9944C16.5435 19.699 17.436 19.1584 16.2613 15.613Z" fill="white"/>
<path fill-rule="evenodd" clip-rule="evenodd" d="M105.834 16.1961C105.566 15.9675 105.269 15.7745 104.952 15.6217C104.457 15.3908 103.941 15.21 103.41 15.082C103.246 15.0371 103.083 14.9975 102.923 14.9588L102.882 14.9485C102.854 14.9423 102.828 14.9353 102.801 14.929L102.393 14.8238C102.021 14.7401 101.659 14.6151 101.314 14.4509C101.226 14.4032 101.144 14.3442 101.071 14.2753C101.018 14.2304 100.976 14.1734 100.949 14.109C100.902 14.0165 100.878 13.9143 100.878 13.8106C100.878 13.6603 100.907 13.5114 100.963 13.3722C101.022 13.2195 101.115 13.0825 101.235 12.9721C101.359 12.8588 101.506 12.774 101.666 12.7235C101.953 12.6233 102.253 12.57 102.557 12.5655C103.593 12.5743 104.606 12.8487 105.487 13.3591C105.515 13.3761 105.547 13.3874 105.58 13.3923C105.613 13.3973 105.647 13.3961 105.68 13.3889C105.745 13.3747 105.802 13.3358 105.838 13.2803L106.968 11.452C107 11.4045 107.011 11.3478 106.999 11.2925C106.993 11.2649 106.981 11.2388 106.964 11.2158C106.948 11.1928 106.927 11.1733 106.902 11.1585C105.606 10.3179 104.053 9.89333 102.477 9.94806C101.846 9.96086 101.221 10.0748 100.626 10.2856C100.097 10.4697 99.6171 10.7583 99.2193 11.132C98.8228 11.5052 98.5156 11.954 98.3193 12.447C98.1366 12.9069 98.0506 13.3996 98.0664 13.8942C98.0801 14.3364 98.1854 14.7709 98.3755 15.1702C98.5669 15.5586 98.8399 15.9074 99.1773 16.196C99.449 16.4252 99.7502 16.617 100.073 16.7661C100.564 16.9987 101.077 17.1794 101.605 17.3051L102.149 17.4411L102.618 17.5639C102.99 17.647 103.352 17.7735 103.696 17.9407C103.793 17.9877 103.883 18.0468 103.963 18.1163C104.018 18.1697 104.064 18.2303 104.099 18.2959C104.148 18.3981 104.173 18.5087 104.174 18.6203C104.178 18.7845 104.146 18.9476 104.081 19.0982C104.034 19.2348 103.957 19.3592 103.855 19.4622C103.727 19.5775 103.575 19.6628 103.41 19.7122C103.131 19.8073 102.838 19.8577 102.543 19.8615C102.057 19.8671 101.574 19.7989 101.108 19.6593C100.54 19.5292 99.9909 19.3229 99.4771 19.0459C99.424 19.017 99.3626 19.0075 99.3033 19.0189C99.2436 19.0302 99.1904 19.0615 99.1537 19.107L97.8975 20.6638C97.8784 20.6875 97.8645 20.715 97.8565 20.7444C97.8488 20.7737 97.8473 20.8042 97.8522 20.8341C97.8571 20.8639 97.8682 20.8924 97.8849 20.9176C97.9014 20.9436 97.9234 20.9656 97.9492 20.9836C98.6529 21.493 99.4457 21.8844 100.293 22.1413C101.054 22.3599 101.844 22.4618 102.636 22.4436C103.251 22.4348 103.86 22.3267 104.441 22.1236C104.969 21.9455 105.448 21.6622 105.846 21.2924C106.243 20.9225 106.549 20.4764 106.743 19.9842C106.931 19.524 107.022 19.0297 107.01 18.5326C106.994 18.0754 106.881 17.6269 106.677 17.2176C106.475 16.8262 106.187 16.4784 105.834 16.1961ZM60.477 10.2681C60.4329 10.2689 60.3896 10.2807 60.3511 10.3022C60.313 10.3238 60.2823 10.3546 60.2611 10.3908L56.7784 16.5248C56.7732 16.5343 56.7654 16.5419 56.7559 16.5469C56.7464 16.5524 56.7356 16.5552 56.7246 16.5552C56.7135 16.5551 56.7026 16.5523 56.6929 16.5469C56.6836 16.5417 56.6758 16.534 56.6704 16.5248L53.1973 10.3864C53.1756 10.3495 53.1446 10.319 53.1074 10.2979C53.0689 10.2762 53.0256 10.2645 52.9815 10.264H50.3379C50.2959 10.264 50.2549 10.2739 50.2183 10.2935C50.1821 10.3125 50.1514 10.3404 50.1299 10.3736C50.1079 10.4075 50.0961 10.4457 50.0948 10.4842C50.0933 10.5234 50.103 10.5625 50.1221 10.5973L56.5069 21.9612C56.5274 21.9979 56.5581 22.0288 56.5963 22.0502C56.6343 22.0718 56.6778 22.083 56.7221 22.083C56.7666 22.083 56.81 22.0718 56.8481 22.0502C56.8863 22.0287 56.9175 21.9979 56.938 21.9613L63.3271 10.6017C63.3463 10.567 63.3555 10.5278 63.3545 10.4887C63.3528 10.4494 63.3407 10.4112 63.3194 10.3781C63.297 10.3443 63.2664 10.3167 63.2305 10.298C63.1938 10.2784 63.1529 10.2681 63.1114 10.2679L60.477 10.2681ZM43.7011 22.1837C43.7481 22.2272 43.8097 22.2512 43.8736 22.2509H46.0489C46.1133 22.2509 46.1753 22.2268 46.2208 22.1837C46.267 22.1411 46.2925 22.083 46.2925 22.0228V10.4613C46.2924 10.4309 46.286 10.4008 46.2736 10.373C46.2613 10.3451 46.2433 10.3202 46.2208 10.2997C46.1739 10.2567 46.1125 10.233 46.0489 10.2334H43.8735C43.8091 10.2334 43.7471 10.2572 43.7011 10.2997C43.6558 10.343 43.6299 10.4006 43.6299 10.4613V22.0228C43.6299 22.0829 43.6558 22.1413 43.7011 22.1838V22.1837ZM38.5766 14.8761C38.5298 14.6922 38.4829 14.5386 38.4409 14.4378C38.4096 14.3634 38.3863 14.2934 38.3686 14.2412C38.3624 14.2225 38.3569 14.2058 38.352 14.1922V14.1701C37.999 13.3301 37.4404 12.5792 36.7208 11.9784C36.1626 11.4956 35.5205 11.1056 34.8223 10.8253C34.2461 10.6148 33.6489 10.4677 33.041 10.3864C32.6712 10.3343 32.2986 10.3036 31.9253 10.2945L31.414 10.2812L30.6079 10.2642H28.5971C28.5321 10.2642 28.4708 10.2881 28.4244 10.3306C28.3789 10.3731 28.3531 10.4315 28.3531 10.4921V22.0361C28.3531 22.0962 28.3789 22.1544 28.4244 22.197C28.4706 22.2401 28.5323 22.264 28.5971 22.264H31.2925L31.7613 22.2288C32.1904 22.2038 32.6176 22.1559 33.041 22.084C33.4683 22.0233 33.8912 21.9341 34.3066 21.8169C34.9964 21.6166 35.651 21.3105 36.2471 20.9094C37.0309 20.3771 37.667 19.6775 38.104 18.8692C38.541 18.0615 38.7656 17.1671 38.7598 16.2616C38.7552 15.794 38.6937 15.3288 38.5766 14.8761ZM35.7641 17.6428C35.5123 18.1387 35.1304 18.5673 34.6534 18.8878C34.3025 19.1313 33.9169 19.3205 33.5098 19.4489C33.2193 19.5322 32.9231 19.5939 32.6235 19.6334C32.2959 19.6844 31.9659 19.718 31.6348 19.7342H31.2173C31.1889 19.7347 31.1608 19.7299 31.1343 19.7201C31.1083 19.7106 31.0846 19.696 31.0644 19.6772C31.0441 19.6584 31.0279 19.6357 31.0166 19.6105C31.0064 19.5854 31.001 19.5591 31.0015 19.5327V12.9559C31.0015 12.8952 31.0274 12.8376 31.0733 12.7943C31.1191 12.7518 31.1811 12.728 31.2456 12.728H31.8081C32.0874 12.7411 32.3656 12.767 32.6426 12.8066C33.0457 12.8573 33.4419 12.953 33.8238 13.0919C34.2224 13.2552 34.5915 13.4833 34.916 13.767C35.332 14.1095 35.6538 14.5415 35.8535 15.0253C35.873 15.0664 35.8906 15.109 35.9048 15.1526C36.0222 15.503 36.0824 15.87 36.083 16.2397C36.0909 16.7238 35.9849 17.203 35.7735 17.6384L35.7641 17.6428ZM78.2569 15.1438C78.0674 14.0698 77.5831 13.0606 76.8506 12.2147C76.1314 11.3922 75.1865 10.7682 74.1176 10.4085C74.0659 10.3909 73.9956 10.3693 73.874 10.3384C73.2938 10.1875 72.6966 10.1124 72.0971 10.1149C71.4621 10.1117 70.8302 10.2032 70.2221 10.3864C69.2602 10.6736 68.3989 11.198 67.7285 11.9035C67.4548 12.1896 67.2084 12.5009 66.9926 12.833C66.6949 13.2754 66.4555 13.7545 66.2803 14.2583C66.0689 14.8702 65.9612 15.5132 65.9615 16.1608V16.4417C66 17.3873 66.2695 18.3129 66.749 19.1466C66.9155 19.4376 67.1051 19.7148 67.3159 19.9754C67.4443 20.1299 67.5821 20.2762 67.7285 20.4138C68.4087 21.1026 69.2631 21.6211 70.2129 21.9221C70.543 22.0221 70.8798 22.0983 71.2207 22.15C71.4877 22.1891 71.7085 22.2155 71.835 22.2155C71.9815 22.2224 72.1289 22.2224 72.2754 22.2155C72.9664 22.2159 73.6532 22.1064 74.31 21.8912C75.0791 21.6354 75.7969 21.2606 76.4331 20.7821C76.6515 20.6158 76.8626 20.4402 77.0659 20.2557C77.1972 20.133 77.2959 20.0322 77.3569 19.9665C77.3598 19.9642 77.3622 19.9612 77.3637 19.9578C77.3653 19.9542 77.3662 19.9504 77.3662 19.9465C77.3661 19.9428 77.3653 19.9391 77.3637 19.9357C77.3627 19.9343 77.3619 19.9323 77.3609 19.9308L77.3569 19.927L75.313 18.6643C75.2689 18.6337 75.2165 18.6173 75.1629 18.6173C75.1092 18.6173 75.0569 18.6337 75.0127 18.6643C74.703 18.9142 74.3647 19.1262 74.0049 19.2959C73.4597 19.5604 72.8626 19.6996 72.2569 19.7034H71.9985C71.8633 19.7 71.7285 19.6852 71.5957 19.6593C71.2608 19.6073 70.9333 19.5146 70.6206 19.3834C70.2155 19.2078 69.8467 18.9579 69.5331 18.6466L69.4956 18.6075L69.2895 18.384C69.0873 18.1297 68.9172 17.8513 68.7832 17.5551V17.5024C68.7807 17.4976 68.7794 17.4922 68.7797 17.4867C68.7805 17.4813 68.7825 17.4761 68.7856 17.4716C68.7892 17.4672 68.7937 17.4636 68.7989 17.4612C68.8042 17.4589 68.8101 17.458 68.8159 17.4587H78.0928C78.1031 17.4588 78.1132 17.4552 78.1211 17.4485C78.1287 17.4422 78.1336 17.4333 78.1349 17.4235C78.2523 16.965 78.3121 16.4938 78.313 16.0205C78.3177 15.7272 78.299 15.434 78.2569 15.1438ZM68.7831 14.8937C68.9317 14.518 69.1373 14.1675 69.3926 13.8547C69.5269 13.6921 69.6743 13.5411 69.8335 13.403C70.1745 13.1184 70.57 12.9066 70.9956 12.7807C71.3602 12.6695 71.7396 12.6148 72.1206 12.6184C72.4056 12.6179 72.6898 12.6457 72.9693 12.7015C73.0513 12.7152 73.1327 12.7323 73.213 12.7543C73.8681 12.9788 74.5015 13.3747 74.9239 13.8942C75.1747 14.1931 75.3756 14.5306 75.519 14.8937C75.5234 14.9021 75.5249 14.9113 75.524 14.9206C75.523 14.93 75.5195 14.939 75.5138 14.9466C75.5081 14.9542 75.5005 14.9601 75.4918 14.9637C75.4827 14.9675 75.4728 14.969 75.463 14.9681H68.8392C68.83 14.968 68.8209 14.9658 68.8125 14.9618C68.8043 14.9576 68.7971 14.9515 68.7915 14.9441C68.7859 14.9371 68.7823 14.9288 68.7808 14.92C68.7794 14.9112 68.7801 14.9021 68.7831 14.8937ZM123.271 15.1438C123.082 14.0698 122.597 13.0606 121.865 12.2147C121.154 11.3865 120.216 10.7544 119.151 10.3864C119.071 10.3586 118.99 10.3351 118.907 10.3165C118.328 10.1682 117.733 10.096 117.135 10.1017C116.5 10.0984 115.868 10.1901 115.26 10.3738C114.498 10.6051 113.797 10.9813 113.198 11.4784C113.038 11.6144 112.888 11.7587 112.729 11.9168C112.463 12.2008 112.22 12.5057 112.003 12.8287C111.336 13.8272 110.979 14.9793 110.971 16.1564V16.4373C111.012 17.3825 111.285 18.3066 111.768 19.1378C111.933 19.4286 112.121 19.7057 112.33 19.9665C112.461 20.12 112.601 20.2663 112.748 20.4049C113.428 21.09 114.28 21.6055 115.228 21.9044C115.559 22.0052 115.897 22.0814 116.24 22.1324C116.503 22.1716 116.709 22.1891 116.844 22.198H116.868C117.016 22.2053 117.165 22.2053 117.313 22.198C118.002 22.1959 118.687 22.0865 119.343 21.8736C120.105 21.6193 120.822 21.2449 121.466 20.7645C121.685 20.6002 121.894 20.4245 122.094 20.2381C122.151 20.1902 122.197 20.1461 122.24 20.1026C122.263 20.0788 122.28 20.0502 122.291 20.0189C122.301 19.988 122.304 19.9552 122.3 19.9229C122.295 19.8907 122.283 19.8599 122.265 19.833C122.246 19.8054 122.221 19.7821 122.193 19.7645L120.365 18.6291C120.32 18.5979 120.267 18.5813 120.212 18.5815C120.158 18.5815 120.104 18.5982 120.06 18.6291C119.749 18.8801 119.409 19.0922 119.047 19.2607C118.504 19.5253 117.908 19.6645 117.304 19.6682H117.037C116.901 19.6642 116.766 19.6497 116.633 19.6246C116.3 19.5723 115.974 19.4795 115.663 19.3482C115.256 19.174 114.885 18.9242 114.571 18.6119C114.487 18.5284 114.407 18.4405 114.332 18.3486C114.126 18.0959 113.955 17.8173 113.821 17.5199C113.818 17.504 113.818 17.4878 113.821 17.4719C113.82 17.4691 113.819 17.4662 113.819 17.4637C113.818 17.4608 113.818 17.4583 113.818 17.4554C113.819 17.4497 113.821 17.4443 113.824 17.4396C113.827 17.4349 113.832 17.4311 113.837 17.4285C113.842 17.4256 113.848 17.4239 113.854 17.4235H123.121C123.129 17.4235 123.137 17.4212 123.144 17.4169C123.151 17.4126 123.157 17.4064 123.16 17.399C123.162 17.3943 123.163 17.3892 123.164 17.384C123.281 16.9256 123.34 16.4544 123.341 15.9813C123.337 15.7008 123.314 15.421 123.271 15.1438ZM113.863 14.9681C113.854 14.968 113.845 14.9658 113.836 14.9618C113.828 14.9577 113.821 14.9517 113.815 14.9441C113.81 14.9371 113.806 14.9288 113.805 14.92C113.803 14.9112 113.804 14.9021 113.807 14.8937C113.955 14.5179 114.161 14.1674 114.416 13.8547C114.55 13.6956 114.697 13.5489 114.857 13.4163C115.189 13.13 115.582 12.9123 116.01 12.7763C116.376 12.665 116.757 12.6103 117.14 12.6139C117.425 12.6133 117.709 12.6412 117.988 12.697C118.07 12.7103 118.152 12.7275 118.232 12.7499H118.293C118.952 12.9744 119.528 13.3717 119.952 13.8942C120.2 14.1959 120.4 14.5346 120.543 14.8982C120.547 14.9064 120.549 14.9157 120.548 14.925C120.547 14.9344 120.543 14.9434 120.538 14.951C120.532 14.9586 120.524 14.9645 120.516 14.9681C120.507 14.9719 120.497 14.9734 120.487 14.9725L113.863 14.9681ZM90.7256 17.27C91.2695 16.906 92.6475 15.8453 92.6475 14.0914C92.6929 13.4099 92.521 12.7312 92.1537 12.1413C91.7866 11.5513 91.2407 11.0768 90.585 10.7768C89.666 10.2681 87.8804 10.2681 87.1957 10.2681H83.4457C83.3814 10.2681 83.3194 10.2925 83.2734 10.3351C83.228 10.3776 83.2021 10.4359 83.2021 10.496V22.0492C83.2021 22.1093 83.228 22.1677 83.2734 22.2101C83.3194 22.2527 83.3814 22.2773 83.4459 22.2773H85.6114C85.6752 22.2774 85.7368 22.2535 85.7838 22.2101C85.8296 22.1676 85.8555 22.1095 85.8555 22.0492V18.1604C85.8555 18.0997 85.8809 18.0414 85.9268 17.9988C85.9738 17.9557 86.0354 17.932 86.0991 17.9325H87.5049C87.5419 17.9319 87.5786 17.9396 87.6124 17.9549C87.646 17.97 87.6749 17.9921 87.6974 18.02L91.0912 22.1672C91.1137 22.195 91.1425 22.2175 91.1762 22.2327C91.2095 22.2483 91.2461 22.2557 91.2832 22.2552H93.627C93.6714 22.2547 93.7144 22.2435 93.7525 22.2224C93.79 22.2009 93.8213 22.1706 93.8418 22.1339C93.8623 22.0979 93.8719 22.0568 93.8696 22.0155C93.8676 21.9738 93.8533 21.9337 93.8286 21.9L90.6553 17.6074C90.6359 17.5816 90.6223 17.5519 90.6152 17.5204C90.6085 17.4888 90.6085 17.4562 90.615 17.4246C90.6216 17.3931 90.6347 17.3632 90.6534 17.3369C90.673 17.3102 90.6975 17.2876 90.7256 17.27ZM85.9034 15.3707C85.881 15.3502 85.8632 15.3252 85.8509 15.2975C85.8387 15.2697 85.8323 15.2397 85.8321 15.2093L85.8271 12.9559C85.8271 12.8952 85.853 12.8376 85.8984 12.7943C85.9444 12.7518 86.0064 12.728 86.0709 12.728H88.0161C89.8676 12.728 90.0039 13.5786 90.0039 14.3238C90.0039 15.0694 89.3569 15.4372 88.4189 15.4372H86.0756C86.0119 15.4377 85.9504 15.4138 85.9034 15.3707Z" fill="white"/>
</g>
<defs>
<clipPath id="clip0_2074_327">
<rect width="128" height="30.2936" fill="white" transform="translate(0 0.853027)"/>
</clipPath>
</defs>
</svg>
