<svg width="128" height="32" viewBox="0 0 128 32" fill="none" xmlns="http://www.w3.org/2000/svg">
<path d="M4.64124 7.35612C4.64124 6.94857 4.78574 6.55381 5.04949 6.24208C5.31337 5.92975 5.67861 5.72054 6.08111 5.65118C7.86299 5.37815 9.68229 5.48433 11.4205 5.96278C15.4552 7.02936 16.9972 8.45488 16.5305 9.25092C16.063 10.0468 11.9894 9.39571 13.0885 11.6999C14.1872 14.0038 15.0426 16.3036 10.626 17.9171C6.79311 19.3192 11.4947 22.2635 7.16224 25.9327C6.94182 26.1244 6.67124 26.2488 6.38249 26.2913C6.0935 26.3334 5.79852 26.2918 5.53236 26.1714C5.26658 26.0511 5.04095 25.8566 4.88236 25.6114C4.72455 25.3668 4.64076 25.0816 4.64111 24.7904L4.64124 7.35612Z" fill="white"/>
<path d="M16.2613 15.613C15.7208 13.9769 14.8151 11.5836 16.9326 11.3938C17.2847 11.3539 17.6412 11.3851 17.9811 11.4857C18.3203 11.5862 18.6358 11.7541 18.9088 11.9794C20.2442 13.1051 22.2247 16.2611 21.2238 20.2088C20.2833 23.9137 16.3376 25.6897 13.2731 26.036C9.81155 26.428 10.0026 22.2905 13.2731 20.9944C16.5436 19.699 17.4361 19.1584 16.2613 15.613Z" fill="white"/>
<path fill-rule="evenodd" clip-rule="evenodd" d="M105.833 16.1961C105.565 15.9675 105.269 15.7745 104.952 15.6217C104.457 15.3908 103.941 15.21 103.41 15.082C103.246 15.0371 103.083 14.9975 102.923 14.9588L102.882 14.9485C102.854 14.9423 102.828 14.9353 102.801 14.929L102.393 14.8238C102.021 14.7401 101.659 14.6151 101.314 14.4509C101.226 14.4032 101.144 14.3442 101.071 14.2753C101.018 14.2304 100.976 14.1734 100.949 14.109C100.902 14.0165 100.878 13.9143 100.878 13.8106C100.878 13.6603 100.907 13.5114 100.963 13.3722C101.021 13.2195 101.114 13.0825 101.235 12.9721C101.359 12.8588 101.506 12.774 101.666 12.7235C101.952 12.6233 102.253 12.57 102.557 12.5655C103.593 12.5743 104.606 12.8487 105.487 13.3591C105.515 13.3761 105.547 13.3874 105.58 13.3923C105.613 13.3973 105.647 13.3961 105.68 13.3889C105.745 13.3747 105.802 13.3358 105.838 13.2803L106.968 11.452C107 11.4045 107.011 11.3478 106.999 11.2925C106.992 11.2649 106.981 11.2388 106.964 11.2158C106.947 11.1928 106.926 11.1733 106.902 11.1585C105.606 10.3179 104.053 9.89333 102.477 9.94806C101.846 9.96086 101.221 10.0748 100.625 10.2856C100.097 10.4697 99.617 10.7583 99.2192 11.132C98.8227 11.5052 98.5155 11.954 98.3192 12.447C98.1365 12.9069 98.0505 13.3996 98.0663 13.8942C98.08 14.3364 98.1853 14.7709 98.3754 15.1702C98.5668 15.5586 98.8398 15.9074 99.1772 16.196C99.4489 16.4252 99.7501 16.617 100.073 16.7661C100.563 16.9987 101.077 17.1794 101.605 17.3051L102.149 17.4411L102.618 17.5639C102.99 17.647 103.352 17.7735 103.696 17.9407C103.793 17.9877 103.883 18.0468 103.963 18.1163C104.018 18.1697 104.063 18.2303 104.099 18.2959C104.147 18.3981 104.173 18.5087 104.174 18.6203C104.178 18.7845 104.146 18.9476 104.081 19.0982C104.033 19.2348 103.957 19.3592 103.855 19.4622C103.727 19.5775 103.575 19.6628 103.41 19.7122C103.131 19.8073 102.838 19.8577 102.543 19.8615C102.057 19.8671 101.574 19.7989 101.108 19.6593C100.539 19.5292 99.9908 19.3229 99.477 19.0459C99.4239 19.017 99.3625 19.0075 99.3032 19.0189C99.2435 19.0302 99.1903 19.0615 99.1536 19.107L97.8974 20.6638C97.8783 20.6875 97.8644 20.715 97.8564 20.7444C97.8487 20.7737 97.8472 20.8042 97.8521 20.8341C97.857 20.8639 97.8681 20.8924 97.8848 20.9176C97.9013 20.9436 97.9233 20.9656 97.9492 20.9836C98.6528 21.493 99.4456 21.8844 100.293 22.1413C101.054 22.3599 101.844 22.4618 102.636 22.4436C103.251 22.4348 103.86 22.3267 104.441 22.1236C104.969 21.9455 105.448 21.6622 105.846 21.2924C106.243 20.9225 106.549 20.4764 106.743 19.9842C106.931 19.524 107.022 19.0297 107.01 18.5326C106.994 18.0754 106.881 17.6269 106.677 17.2176C106.475 16.8262 106.187 16.4784 105.833 16.1961ZM60.4769 10.2681C60.4328 10.2689 60.3895 10.2807 60.351 10.3022C60.3129 10.3238 60.2822 10.3546 60.261 10.3908L56.7783 16.5248C56.7731 16.5343 56.7653 16.5419 56.7558 16.5469C56.7463 16.5524 56.7355 16.5552 56.7245 16.5552C56.7134 16.5551 56.7025 16.5523 56.6928 16.5469C56.6835 16.5417 56.6757 16.534 56.6703 16.5248L53.1972 10.3864C53.1755 10.3495 53.1445 10.319 53.1073 10.2979C53.0688 10.2762 53.0255 10.2645 52.9814 10.264H50.3378C50.2958 10.264 50.2548 10.2739 50.2182 10.2935C50.182 10.3125 50.1513 10.3404 50.1298 10.3736C50.1078 10.4075 50.096 10.4457 50.0947 10.4842C50.0932 10.5234 50.1029 10.5625 50.122 10.5973L56.5068 21.9612C56.5273 21.9979 56.558 22.0288 56.5962 22.0502C56.6342 22.0718 56.6777 22.083 56.722 22.083C56.7665 22.083 56.8099 22.0718 56.848 22.0502C56.8862 22.0287 56.9174 21.9979 56.9379 21.9613L63.327 10.6017C63.3462 10.567 63.3554 10.5278 63.3544 10.4887C63.3527 10.4494 63.3406 10.4112 63.3193 10.3781C63.2969 10.3443 63.2663 10.3167 63.2304 10.298C63.1937 10.2784 63.1528 10.2681 63.1113 10.2679L60.4769 10.2681ZM43.701 22.1837C43.748 22.2272 43.8096 22.2512 43.8735 22.2509H46.0488C46.1132 22.2509 46.1752 22.2268 46.2207 22.1837C46.2669 22.1411 46.2924 22.083 46.2924 22.0228V10.4613C46.2923 10.4309 46.2859 10.4008 46.2735 10.373C46.2612 10.3451 46.2432 10.3202 46.2207 10.2997C46.1738 10.2567 46.1124 10.233 46.0488 10.2334H43.8734C43.809 10.2334 43.747 10.2572 43.701 10.2997C43.6557 10.343 43.6298 10.4006 43.6298 10.4613V22.0228C43.6298 22.0829 43.6557 22.1413 43.701 22.1838V22.1837ZM38.5765 14.8761C38.5297 14.6922 38.4828 14.5386 38.4408 14.4378C38.4095 14.3634 38.3862 14.2934 38.3685 14.2412C38.3623 14.2225 38.3568 14.2058 38.3519 14.1922V14.1701C37.9989 13.3301 37.4403 12.5792 36.7207 11.9784C36.1625 11.4956 35.5204 11.1056 34.8222 10.8253C34.246 10.6148 33.6488 10.4677 33.0409 10.3864C32.6711 10.3343 32.2985 10.3036 31.9252 10.2945L31.4139 10.2812L30.6078 10.2642H28.597C28.532 10.2642 28.4707 10.2881 28.4243 10.3306C28.3788 10.3731 28.353 10.4315 28.353 10.4921V22.0361C28.353 22.0962 28.3788 22.1544 28.4243 22.197C28.4705 22.2401 28.5322 22.264 28.597 22.264H31.2924L31.7612 22.2288C32.1903 22.2038 32.6175 22.1559 33.0409 22.084C33.4682 22.0233 33.8911 21.9341 34.3065 21.8169C34.9963 21.6166 35.6509 21.3105 36.247 20.9094C37.0308 20.3771 37.6669 19.6775 38.1039 18.8692C38.5409 18.0615 38.7655 17.1671 38.7597 16.2616C38.7551 15.794 38.6936 15.3288 38.5765 14.8761ZM35.764 17.6428C35.5122 18.1387 35.1303 18.5673 34.6533 18.8878C34.3024 19.1313 33.9168 19.3205 33.5097 19.4489C33.2192 19.5322 32.923 19.5939 32.6234 19.6334C32.2958 19.6844 31.9658 19.718 31.6347 19.7342H31.2172C31.1889 19.7347 31.1607 19.7299 31.1342 19.7201C31.1082 19.7106 31.0845 19.696 31.0643 19.6772C31.0441 19.6584 31.0278 19.6357 31.0165 19.6105C31.0063 19.5854 31.0009 19.5591 31.0014 19.5327V12.9559C31.0014 12.8952 31.0273 12.8376 31.0732 12.7943C31.119 12.7518 31.181 12.728 31.2455 12.728H31.808C32.0873 12.7411 32.3655 12.767 32.6425 12.8066C33.0456 12.8573 33.4418 12.953 33.8237 13.0919C34.2223 13.2552 34.5914 13.4833 34.9159 13.767C35.3319 14.1095 35.6537 14.5415 35.8534 15.0253C35.8729 15.0664 35.8905 15.109 35.9047 15.1526C36.0221 15.503 36.0823 15.87 36.0829 16.2397C36.0908 16.7238 35.9848 17.203 35.7734 17.6384L35.764 17.6428ZM78.2568 15.1438C78.0673 14.0698 77.583 13.0606 76.8505 12.2147C76.1313 11.3922 75.1864 10.7682 74.1175 10.4085C74.0658 10.3909 73.9955 10.3693 73.8739 10.3384C73.2937 10.1875 72.6965 10.1124 72.097 10.1149C71.462 10.1117 70.8301 10.2032 70.222 10.3864C69.2601 10.6736 68.3988 11.198 67.7284 11.9035C67.4547 12.1896 67.2083 12.5009 66.9925 12.833C66.6948 13.2754 66.4554 13.7545 66.2802 14.2583C66.0688 14.8702 65.9611 15.5132 65.9614 16.1608V16.4417C65.9999 17.3873 66.2694 18.3129 66.7489 19.1466C66.9154 19.4376 67.105 19.7148 67.3158 19.9754C67.4442 20.1299 67.5821 20.2762 67.7284 20.4138C68.4086 21.1026 69.263 21.6211 70.2128 21.9221C70.5429 22.0221 70.8797 22.0983 71.2206 22.15C71.4876 22.1891 71.7084 22.2155 71.8349 22.2155C71.9814 22.2224 72.1288 22.2224 72.2753 22.2155C72.9663 22.2159 73.6531 22.1064 74.3099 21.8912C75.079 21.6354 75.7968 21.2606 76.433 20.7821C76.6514 20.6158 76.8625 20.4402 77.0658 20.2557C77.1971 20.133 77.2958 20.0322 77.3568 19.9665C77.3597 19.9642 77.3621 19.9612 77.3636 19.9578C77.3652 19.9542 77.3661 19.9504 77.3661 19.9465C77.366 19.9428 77.3652 19.9391 77.3636 19.9357C77.3626 19.9343 77.3618 19.9323 77.3608 19.9308L77.3568 19.927L75.3129 18.6643C75.2688 18.6337 75.2164 18.6173 75.1628 18.6173C75.1091 18.6173 75.0568 18.6337 75.0126 18.6643C74.7029 18.9142 74.3646 19.1262 74.0048 19.2959C73.4596 19.5604 72.8625 19.6996 72.2568 19.7034H71.9984C71.8632 19.7 71.7284 19.6852 71.5956 19.6593C71.2607 19.6073 70.9332 19.5146 70.6205 19.3834C70.2154 19.2078 69.8466 18.9579 69.533 18.6466L69.4955 18.6075L69.2894 18.384C69.0872 18.1297 68.9171 17.8513 68.7831 17.5551V17.5024C68.7806 17.4976 68.7793 17.4922 68.7796 17.4867C68.7804 17.4813 68.7824 17.4761 68.7855 17.4716C68.7891 17.4672 68.7936 17.4636 68.7988 17.4612C68.8041 17.4589 68.81 17.458 68.8158 17.4587H78.0927C78.103 17.4588 78.1131 17.4552 78.121 17.4485C78.1286 17.4422 78.1335 17.4333 78.1348 17.4235C78.2522 16.965 78.312 16.4938 78.3129 16.0205C78.3176 15.7272 78.2989 15.434 78.2568 15.1438ZM68.783 14.8937C68.9316 14.518 69.1372 14.1675 69.3925 13.8547C69.5268 13.6921 69.6742 13.5411 69.8334 13.403C70.1744 13.1184 70.5699 12.9066 70.9955 12.7807C71.3601 12.6695 71.7395 12.6148 72.1205 12.6184C72.4055 12.6179 72.6897 12.6457 72.9692 12.7015C73.0512 12.7152 73.1326 12.7323 73.2129 12.7543C73.868 12.9788 74.5014 13.3747 74.9238 13.8942C75.1746 14.1931 75.3755 14.5306 75.5189 14.8937C75.5233 14.9021 75.5248 14.9113 75.5239 14.9206C75.5229 14.93 75.5194 14.939 75.5137 14.9466C75.508 14.9542 75.5004 14.9601 75.4917 14.9637C75.4826 14.9675 75.4727 14.969 75.4629 14.9681H68.8391C68.8299 14.968 68.8208 14.9658 68.8124 14.9618C68.8042 14.9576 68.797 14.9515 68.7914 14.9441C68.7858 14.9371 68.7822 14.9288 68.7807 14.92C68.7793 14.9112 68.78 14.9021 68.783 14.8937ZM123.271 15.1438C123.081 14.0698 122.597 13.0606 121.865 12.2147C121.154 11.3865 120.216 10.7544 119.151 10.3864C119.071 10.3586 118.99 10.3351 118.907 10.3165C118.328 10.1682 117.732 10.096 117.135 10.1017C116.5 10.0984 115.868 10.1901 115.26 10.3738C114.498 10.6051 113.797 10.9813 113.198 11.4784C113.038 11.6144 112.888 11.7587 112.729 11.9168C112.463 12.2008 112.22 12.5057 112.002 12.8287C111.336 13.8272 110.979 14.9793 110.971 16.1564V16.4373C111.012 17.3825 111.285 18.3066 111.768 19.1378C111.933 19.4286 112.121 19.7057 112.33 19.9665C112.461 20.12 112.601 20.2663 112.748 20.4049C113.428 21.09 114.28 21.6055 115.228 21.9044C115.559 22.0052 115.897 22.0814 116.24 22.1324C116.502 22.1716 116.708 22.1891 116.844 22.198H116.868C117.016 22.2053 117.165 22.2053 117.313 22.198C118.002 22.1959 118.687 22.0865 119.343 21.8736C120.105 21.6193 120.822 21.2449 121.466 20.7645C121.685 20.6002 121.894 20.4245 122.094 20.2381C122.151 20.1902 122.197 20.1461 122.24 20.1026C122.263 20.0788 122.28 20.0502 122.291 20.0189C122.301 19.988 122.304 19.9552 122.3 19.9229C122.295 19.8907 122.283 19.8599 122.265 19.833C122.246 19.8054 122.221 19.7821 122.193 19.7645L120.365 18.6291C120.32 18.5979 120.267 18.5813 120.212 18.5815C120.158 18.5815 120.104 18.5982 120.06 18.6291C119.749 18.8801 119.409 19.0922 119.047 19.2607C118.504 19.5253 117.908 19.6645 117.304 19.6682H117.037C116.901 19.6642 116.766 19.6497 116.633 19.6246C116.3 19.5723 115.974 19.4795 115.663 19.3482C115.256 19.174 114.885 18.9242 114.571 18.6119C114.487 18.5284 114.407 18.4405 114.332 18.3486C114.126 18.0959 113.955 17.8173 113.821 17.5199C113.818 17.504 113.818 17.4878 113.821 17.4719C113.82 17.4691 113.819 17.4662 113.819 17.4637C113.818 17.4608 113.818 17.4583 113.818 17.4554C113.819 17.4497 113.821 17.4443 113.824 17.4396C113.827 17.4349 113.832 17.4311 113.837 17.4285C113.842 17.4256 113.848 17.4239 113.854 17.4235H123.121C123.129 17.4235 123.137 17.4212 123.144 17.4169C123.151 17.4126 123.157 17.4064 123.16 17.399C123.162 17.3943 123.163 17.3892 123.164 17.384C123.28 16.9256 123.34 16.4544 123.341 15.9813C123.337 15.7008 123.314 15.421 123.271 15.1438ZM113.863 14.9681C113.854 14.968 113.845 14.9658 113.836 14.9618C113.828 14.9577 113.821 14.9517 113.815 14.9441C113.81 14.9371 113.806 14.9288 113.805 14.92C113.803 14.9112 113.804 14.9021 113.807 14.8937C113.955 14.5179 114.161 14.1674 114.416 13.8547C114.55 13.6956 114.697 13.5489 114.857 13.4163C115.189 13.13 115.582 12.9123 116.01 12.7763C116.376 12.665 116.757 12.6103 117.14 12.6139C117.424 12.6133 117.709 12.6412 117.988 12.697C118.07 12.7103 118.152 12.7275 118.232 12.7499H118.293C118.952 12.9744 119.528 13.3717 119.952 13.8942C120.2 14.1959 120.4 14.5346 120.543 14.8982C120.547 14.9064 120.549 14.9157 120.548 14.925C120.547 14.9344 120.543 14.9434 120.538 14.951C120.532 14.9586 120.524 14.9645 120.516 14.9681C120.506 14.9719 120.497 14.9734 120.487 14.9725L113.863 14.9681ZM90.7255 17.27C91.2694 16.906 92.6474 15.8453 92.6474 14.0914C92.6928 13.4099 92.5209 12.7312 92.1536 12.1413C91.7865 11.5513 91.2407 11.0768 90.5849 10.7768C89.6659 10.2681 87.8803 10.2681 87.1956 10.2681H83.4456C83.3813 10.2681 83.3193 10.2925 83.2733 10.3351C83.2279 10.3776 83.202 10.4359 83.202 10.496V22.0492C83.202 22.1093 83.2279 22.1677 83.2733 22.2101C83.3193 22.2527 83.3813 22.2773 83.4458 22.2773H85.6113C85.6751 22.2774 85.7367 22.2535 85.7837 22.2101C85.8295 22.1676 85.8554 22.1095 85.8554 22.0492V18.1604C85.8554 18.0997 85.8808 18.0414 85.9267 17.9988C85.9737 17.9557 86.0353 17.932 86.099 17.9325H87.5048C87.5418 17.9319 87.5785 17.9396 87.6123 17.9549C87.6459 17.97 87.6748 17.9921 87.6973 18.02L91.0911 22.1672C91.1136 22.195 91.1424 22.2175 91.1761 22.2327C91.2094 22.2483 91.246 22.2557 91.2831 22.2552H93.6269C93.6713 22.2547 93.7143 22.2435 93.7524 22.2224C93.7899 22.2009 93.8212 22.1706 93.8417 22.1339C93.8622 22.0979 93.8718 22.0568 93.8695 22.0155C93.8675 21.9738 93.8532 21.9337 93.8285 21.9L90.6552 17.6074C90.6358 17.5816 90.6222 17.5519 90.6152 17.5204C90.6084 17.4888 90.6084 17.4562 90.6149 17.4246C90.6215 17.3931 90.6346 17.3632 90.6533 17.3369C90.6729 17.3102 90.6974 17.2876 90.7255 17.27ZM85.9033 15.3707C85.8809 15.3502 85.8631 15.3252 85.8508 15.2975C85.8386 15.2697 85.8322 15.2397 85.832 15.2093L85.827 12.9559C85.827 12.8952 85.8529 12.8376 85.8983 12.7943C85.9443 12.7518 86.0063 12.728 86.0708 12.728H88.016C89.8675 12.728 90.0038 13.5786 90.0038 14.3238C90.0038 15.0694 89.3568 15.4372 88.4188 15.4372H86.0755C86.0118 15.4377 85.9503 15.4138 85.9033 15.3707Z" fill="white"/>
</svg>
