<svg xmlns="http://www.w3.org/2000/svg" width="1024" height="282.166"><path d="M731.828 105.086c-30.055 0-53.86 22.238-53.86 53.86 0 31.617 23.805 53.855 53.86 53.855 13.52 0 25.75-4.524 35.133-12.36l2.43 11.184h16.277v-52.68c0-31.675-22.496-53.86-53.86-53.86Zm0 87.812c-16.277 0-31.621-14.05-31.621-33.953 0-19.902 15.344-33.957 31.621-33.957s31.305 14.055 31.305 33.957c0 19.903-15.028 33.953-31.305 33.953ZM124.398 105.086c-29.484 0-53.855 22.238-53.855 53.86 0 31.617 24.371 53.855 55.144 53.855 26.93 0 42.325-14.051 50.012-31.617h-24.37c-3.845 4.687-11.532 11.695-25.642 11.695-16.664 0-30.113-11.695-31.398-24.59h82.7s1.288-4.691 1.288-9.363c0-31.621-24.375-53.86-53.859-53.86ZM94.29 150.738c2.555-15.23 14.734-25.75 30.11-25.75 17.953 0 29.488 10.54 32.062 25.75ZM364.48 105.086c-29.488 0-53.859 22.238-53.859 53.86 0 31.617 24.371 53.855 55.145 53.855 26.93 0 42.324-14.051 50.015-31.617h-24.37c-3.849 4.687-11.536 11.695-25.645 11.695-16.664 0-30.11-11.695-31.399-24.59h82.7s1.288-4.691 1.288-9.363c0-31.621-24.37-53.86-53.859-53.86Zm-30.113 45.652c2.559-15.23 14.735-25.75 30.113-25.75 17.954 0 29.504 10.54 32.06 25.75ZM492.871 124.988c14.274 0 23.36 8.203 27.258 19.903h24.648c-5.187-22.239-24.648-39.805-51.906-39.805-31.14 0-55.808 22.238-55.808 53.86 0 31.617 24.648 53.855 55.808 53.855 27.258 0 46.719-17.567 51.906-39.805H520.13c-3.899 11.719-12.984 19.902-27.258 19.902-16.867 0-32.762-14.05-32.762-33.953 0-19.902 15.895-33.957 32.762-33.957ZM821.703 64.102c-8.078 0-14.808 6.734-14.808 14.808s6.73 14.809 14.808 14.809c8.074 0 14.805-6.735 14.805-14.809 0-8.074-6.73-14.808-14.805-14.808ZM811.16 106.246h21.082v105.379H811.16ZM245.488 105.121c-28.218 0-47.62 11.203-47.62 11.203v95.301h21.077V130.91s12.102-5.004 24.98-5.004c17.052 0 25.99 10.414 25.99 25.293v60.406h21.081v-60.847c0-28.106-18.082-45.653-45.508-45.653ZM907.953 105.121c-28.219 0-47.625 11.203-47.625 11.203v95.301h21.082V130.91s12.102-5.004 24.977-5.004c17.05 0 25.992 10.414 25.992 25.293v60.406h21.078v-60.847c0-28.106-18.078-45.653-45.504-45.653ZM612.855 105.121a107.681 107.681 0 0 0-26.543 3.332V70.56h-21.078v141.066h21.078V130.91s12.102-5.004 24.981-5.004c17.05 0 25.988 10.414 25.988 25.293v60.406h21.082v-60.847c0-28.106-18.082-45.653-45.508-45.653Zm0 0" style="stroke:none;fill-rule:nonzero;fill:#fff;fill-opacity:1"/></svg>