<svg width="128" height="48" viewBox="0 0 128 48" fill="none" xmlns="http://www.w3.org/2000/svg">
<g clip-path="url(#clip0_2074_559)">
<g clip-path="url(#clip1_2074_559)">
<path d="M0 0.429688H128V47.5557H0V0.429688Z" fill="black"/>
<path d="M113.146 30.5633L109.977 24.0525C109.959 24.0169 109.951 23.9778 109.951 23.9383C109.951 23.8988 109.959 23.8597 109.977 23.8241L113.089 17.4833C113.174 17.3104 113.048 17.1087 112.856 17.1087H110.801C110.676 17.1087 110.563 17.1795 110.509 17.2904L107.899 22.6074C107.806 22.8119 107.491 22.8119 107.398 22.6074L104.778 17.2903C104.751 17.2359 104.71 17.1901 104.658 17.1582C104.607 17.1263 104.547 17.1095 104.486 17.1097H102.431C102.238 17.1097 102.113 17.3113 102.198 17.4841L105.322 23.8641C105.34 23.8996 105.349 23.9387 105.349 23.9783C105.349 24.0179 105.34 24.057 105.322 24.0925L102.157 30.5643C102.072 30.7372 102.199 30.9388 102.39 30.9388H104.444C104.505 30.9388 104.564 30.9218 104.616 30.8896C104.668 30.8574 104.709 30.8113 104.736 30.7567L107.398 25.3142C107.49 25.1081 107.807 25.1081 107.899 25.3142L110.564 30.7567C110.591 30.8113 110.633 30.8573 110.684 30.8895C110.736 30.9217 110.795 30.9388 110.856 30.9388H112.911C113.103 30.9388 113.229 30.7372 113.145 30.5653L113.146 30.5633ZM51.0605 30.6776V17.3699C51.0605 17.2264 51.1772 17.1097 51.3208 17.1097H53.2812C53.3154 17.1097 53.3492 17.1165 53.3807 17.1296C53.4123 17.1426 53.4409 17.1618 53.465 17.186C53.4891 17.2102 53.5083 17.2388 53.5213 17.2704C53.5343 17.3019 53.541 17.3358 53.541 17.3699V28.4355C53.541 28.4696 53.5478 28.5034 53.5609 28.535C53.5739 28.5665 53.5931 28.5952 53.6173 28.6193C53.6415 28.6435 53.6701 28.6626 53.7017 28.6756C53.7333 28.6887 53.7671 28.6954 53.8013 28.6953H59.8794C59.9135 28.6954 59.9473 28.7021 59.9789 28.7152C60.0104 28.7283 60.039 28.7475 60.0631 28.7717C60.0873 28.7958 60.1064 28.8245 60.1194 28.8561C60.1325 28.8876 60.1392 28.9214 60.1391 28.9556V30.6776C60.1391 30.8211 60.0229 30.9373 59.8794 30.9373H51.3219C51.2878 30.9373 51.254 30.9306 51.2224 30.9176C51.1909 30.9046 51.1622 30.8854 51.1381 30.8613C51.114 30.8372 51.0948 30.8085 51.0817 30.777C51.0687 30.7455 51.062 30.7117 51.062 30.6776H51.0605ZM101.393 22.7801V21.0074C101.393 20.9425 101.369 20.8799 101.326 20.8319C101.282 20.7839 101.222 20.754 101.157 20.7482C99.9219 20.6393 98.7168 21.0138 97.9306 21.8593C97.8515 21.9453 97.7075 21.8867 97.7075 21.77V21.1987C97.7075 21.1646 97.7008 21.1308 97.6878 21.0992C97.6748 21.0677 97.6556 21.039 97.6315 21.0148C97.6074 20.9907 97.5788 20.9715 97.5472 20.9584C97.5157 20.9453 97.4819 20.9386 97.4477 20.9385H95.5527C95.4837 20.9386 95.4176 20.966 95.3688 21.0148C95.32 21.0636 95.2926 21.1298 95.2925 21.1987V30.6776C95.2925 30.7117 95.2993 30.7455 95.3124 30.777C95.3255 30.8086 95.3447 30.8372 95.3688 30.8613C95.393 30.8854 95.4217 30.9046 95.4532 30.9176C95.4848 30.9306 95.5186 30.9373 95.5527 30.9373H97.394C97.5381 30.9373 97.6543 30.8211 97.6543 30.6776V25.6794C97.6328 23.6737 99.2393 22.7324 101.096 23.058C101.133 23.0637 101.171 23.0613 101.207 23.051C101.243 23.0407 101.277 23.0227 101.305 22.9982C101.334 22.9737 101.356 22.9434 101.372 22.9093C101.388 22.8752 101.396 22.8381 101.396 22.8006V22.7801H101.393ZM81.0981 20.957C81.0298 20.9569 80.9632 20.9785 80.9078 21.0186C80.8525 21.0587 80.8112 21.1153 80.79 21.1803C80.3721 22.4527 79.8096 24.1678 79.2666 25.8387C78.9498 26.8092 78.6601 27.7095 78.3629 28.628C78.2149 28.9761 77.6957 28.7597 77.4662 28.5825C77.1547 28.3242 76.8784 27.5079 76.7705 27.1534C76.1992 25.1736 75.6987 23.1864 75.1694 21.1978C75.151 21.1284 75.1102 21.0672 75.0533 21.0235C74.9964 20.9798 74.9267 20.9561 74.855 20.9561H73.1363C73.0964 20.9562 73.0571 20.9653 73.0214 20.9829C72.9857 21.0005 72.9545 21.0261 72.9302 21.0576C72.9059 21.0892 72.8892 21.1259 72.8813 21.1649C72.8734 21.2039 72.8746 21.2442 72.8848 21.2827C73.4619 23.4237 74.5806 27.5723 74.8428 28.4756C75.2569 29.9012 76.0533 30.7254 77.2574 30.9627C77.4116 30.9929 77.5044 31.1552 77.4506 31.303C76.9252 32.7712 75.8848 33.0163 74.3174 32.9987C74.2829 32.9981 74.2486 33.0044 74.2166 33.0173C74.1846 33.0301 74.1555 33.0492 74.1309 33.0734C74.1063 33.0977 74.0869 33.1265 74.0736 33.1584C74.0603 33.1902 74.0535 33.2244 74.0536 33.2589V34.9404C74.0536 35.082 74.1661 35.1972 74.3076 35.2006C74.8975 35.2139 75.5474 35.2026 76.0107 35.1221C77.5913 34.8315 79.0791 33.9673 79.7265 31.7776C80.1787 30.2498 82.2149 24.0374 83.1152 21.2979C83.128 21.2588 83.1314 21.2173 83.125 21.1767C83.1187 21.1362 83.1028 21.0977 83.0787 21.0644C83.0545 21.0311 83.0229 21.0041 82.9863 20.9854C82.9497 20.9667 82.9092 20.957 82.8681 20.957H81.0981ZM91.831 28.1221C91.8062 28.097 91.7765 28.0773 91.7437 28.0641C91.7109 28.051 91.6758 28.0447 91.6405 28.0457C91.6052 28.0467 91.5705 28.055 91.5385 28.07C91.5065 28.085 91.478 28.1064 91.4546 28.1329C90.4751 29.2939 88.6334 29.4379 87.374 28.8096C86.4478 28.3809 85.9917 27.3536 85.9252 26.8638C85.894 26.7037 86.0181 26.5557 86.1811 26.5557H93.3974C93.5684 26.5557 93.7119 26.423 93.7216 26.252C93.8145 24.7264 93.4541 23.3753 92.5659 22.3677C91.6952 21.3721 90.4067 20.7887 89.0874 20.7482C86.1396 20.4513 83.5484 23.0141 83.6265 25.9367C83.6265 27.4332 84.248 28.9096 85.3715 29.9091C87.7168 31.968 91.4688 31.1365 92.8207 29.4497C92.8638 29.4001 92.8864 29.336 92.8839 29.2703C92.8815 29.2047 92.8542 29.1425 92.8076 29.0962L91.831 28.1206V28.1221ZM86.1934 24.9167C85.9234 24.9114 85.8886 24.6209 85.9951 24.426C86.4389 23.0864 87.8574 22.579 88.8404 22.579C90.0235 22.579 91.31 23.4037 91.4936 24.6184C91.5181 24.7751 91.395 24.9167 91.2369 24.9167H86.1934ZM71.0575 21.2075C71.0574 21.1385 71.03 21.0724 70.9812 21.0236C70.9325 20.9748 70.8664 20.9474 70.7974 20.9473H68.9775C68.9085 20.9473 68.8423 20.9748 68.7935 21.0236C68.7448 21.0723 68.7173 21.1385 68.7172 21.2075V21.8647C68.7172 21.9824 68.5748 22.0381 68.4931 21.9541C67.7192 21.1598 66.5947 20.8481 65.5141 20.8506C62.8666 20.8506 60.7129 23.1567 60.7129 25.9919C60.7129 28.8271 62.8666 31.1335 65.5141 31.1335C66.7221 31.1498 67.9379 30.7219 68.7749 29.8403C68.8989 29.7099 69.1167 29.7435 69.1954 29.9056C69.6357 30.8143 70.6895 31.179 71.7104 31.1224C71.7771 31.1191 71.8401 31.0903 71.8863 31.042C71.9324 30.9936 71.9583 30.9294 71.9585 30.8626V29.3769C71.9585 29.2494 71.8663 29.1431 71.7408 29.1211C70.892 28.8979 71.0922 27.8673 71.0551 27.0108V21.21L71.0575 21.2075ZM68.1265 28.1992C67.544 28.7812 66.8008 29.0829 65.9375 29.0829C65.0742 29.0829 64.3711 28.7812 63.789 28.1992C63.2261 27.6168 62.9453 26.8736 62.9453 25.9909C62.9453 25.1081 63.2261 24.365 63.789 23.7826C64.3711 23.2006 65.0742 22.8989 65.9375 22.8989C66.8008 22.8989 67.544 23.2006 68.1265 23.7826C68.728 24.365 69.0297 25.1081 69.0297 25.9909C69.0297 26.8736 68.728 27.6168 68.1265 28.1992ZM43.8638 30.264L36.255 25.8713C36.1002 25.782 35.9246 25.7351 35.7459 25.7351C35.5672 25.7351 35.3917 25.782 35.2369 25.8713L28.6685 29.663C28.4073 29.8143 28.4073 30.1917 28.6685 30.3431L36.2772 34.7359C36.4321 34.8252 36.6076 34.8721 36.7863 34.8721C36.965 34.8721 37.1406 34.8252 37.2954 34.7359L43.8638 30.9442C44.125 30.7928 44.125 30.4148 43.8638 30.264ZM31.0845 26.3204L41.77 20.1521C41.9248 20.0626 42.0533 19.9341 42.1427 19.7793C42.2321 19.6245 42.2792 19.4489 42.2793 19.2701V12.8643C42.2793 12.5617 41.9517 12.3731 41.6905 12.5246L34.7744 16.517C34.6197 16.6063 34.4912 16.7348 34.4019 16.8894C34.3125 17.0441 34.2653 17.2195 34.2651 17.3981V20.6914L22.0201 13.6227C21.8654 13.5334 21.6899 13.4864 21.5113 13.4864C21.3327 13.4864 21.1572 13.5334 21.0025 13.6227L15.125 17.0164C14.8637 17.1678 14.8637 17.5451 15.125 17.6966L24.1425 22.9023L17.1396 26.9455C16.9849 27.0349 16.8564 27.1634 16.767 27.3182C16.6776 27.4729 16.6305 27.6484 16.6304 27.8271V35.4116C16.6304 35.7143 16.958 35.9028 17.2191 35.7515L26.9331 30.143C27.0879 30.0537 27.2165 29.9253 27.306 29.7706C27.3955 29.6159 27.4427 29.4404 27.4429 29.2617V24.807L30.0669 26.3219C30.2216 26.4111 30.397 26.4581 30.5756 26.4581C30.7542 26.4581 30.9297 26.4111 31.0844 26.3219L31.0845 26.3204Z" fill="white"/>
</g>
</g>
<defs>
<clipPath id="clip0_2074_559">
<rect width="128" height="47.1407" fill="white" transform="translate(0 0.429688)"/>
</clipPath>
<clipPath id="clip1_2074_559">
<rect width="128" height="47.1259" fill="white" transform="translate(0 0.429688)"/>
</clipPath>
</defs>
</svg>
