<svg width="128" height="48" viewBox="0 0 128 48" fill="none" xmlns="http://www.w3.org/2000/svg">
<g clip-path="url(#clip0_2276_1585)">
<path d="M0 0.429688H128V47.5557H0V0.429688Z" fill="black"/>
<path d="M113.146 30.5633L109.977 24.0525C109.96 24.0169 109.951 23.9778 109.951 23.9383C109.951 23.8988 109.96 23.8597 109.977 23.8241L113.09 17.4833C113.175 17.3104 113.049 17.1087 112.857 17.1087H110.801C110.676 17.1087 110.564 17.1795 110.509 17.2904L107.899 22.6074C107.806 22.8119 107.491 22.8119 107.398 22.6074L104.779 17.2903C104.752 17.2359 104.71 17.1901 104.658 17.1582C104.607 17.1263 104.547 17.1095 104.487 17.1097H102.431C102.238 17.1097 102.113 17.3113 102.198 17.4841L105.322 23.8641C105.34 23.8996 105.349 23.9387 105.349 23.9783C105.349 24.0179 105.34 24.057 105.322 24.0925L102.157 30.5643C102.072 30.7372 102.199 30.9388 102.39 30.9388H104.444C104.505 30.9388 104.564 30.9218 104.616 30.8896C104.668 30.8574 104.709 30.8113 104.736 30.7567L107.398 25.3142C107.49 25.1081 107.807 25.1081 107.899 25.3142L110.565 30.7567C110.591 30.8113 110.633 30.8573 110.684 30.8895C110.736 30.9217 110.795 30.9388 110.856 30.9388H112.911C113.103 30.9388 113.229 30.7372 113.145 30.5653L113.146 30.5633ZM51.0606 30.6776V17.3699C51.0606 17.2264 51.1774 17.1097 51.3209 17.1097H53.2814C53.3155 17.1097 53.3493 17.1165 53.3809 17.1296C53.4124 17.1426 53.441 17.1618 53.4652 17.186C53.4893 17.2102 53.5084 17.2388 53.5214 17.2704C53.5345 17.3019 53.5412 17.3358 53.5411 17.3699V28.4355C53.5412 28.4696 53.5479 28.5034 53.561 28.535C53.5741 28.5665 53.5933 28.5952 53.6174 28.6193C53.6416 28.6435 53.6703 28.6626 53.7018 28.6756C53.7334 28.6887 53.7672 28.6954 53.8014 28.6953H59.8795C59.9137 28.6954 59.9475 28.7021 59.979 28.7152C60.0105 28.7283 60.0392 28.7475 60.0633 28.7717C60.0874 28.7958 60.1065 28.8245 60.1196 28.8561C60.1326 28.8876 60.1393 28.9214 60.1393 28.9556V30.6776C60.1393 30.8211 60.023 30.9373 59.8795 30.9373H51.322C51.2879 30.9373 51.2541 30.9306 51.2226 30.9176C51.191 30.9046 51.1624 30.8854 51.1382 30.8613C51.1141 30.8372 51.0949 30.8085 51.0819 30.777C51.0688 30.7455 51.0621 30.7117 51.0621 30.6776H51.0606ZM101.393 22.7801V21.0074C101.394 20.9425 101.369 20.8799 101.326 20.8319C101.282 20.7839 101.222 20.754 101.157 20.7482C99.922 20.6393 98.7169 21.0138 97.9308 21.8593C97.8516 21.9453 97.7076 21.8867 97.7076 21.77V21.1987C97.7077 21.1646 97.701 21.1308 97.6879 21.0992C97.6749 21.0677 97.6558 21.039 97.6317 21.0148C97.6075 20.9907 97.5789 20.9715 97.5474 20.9584C97.5158 20.9453 97.482 20.9386 97.4479 20.9385H95.5529C95.4839 20.9386 95.4177 20.966 95.3689 21.0148C95.3201 21.0636 95.2927 21.1298 95.2926 21.1987V30.6776C95.2927 30.7117 95.2994 30.7455 95.3125 30.777C95.3256 30.8086 95.3448 30.8372 95.369 30.8613C95.3931 30.8854 95.4218 30.9046 95.4534 30.9176C95.4849 30.9306 95.5187 30.9373 95.5529 30.9373H97.3941C97.5383 30.9373 97.6544 30.8211 97.6544 30.6776V25.6794C97.6329 23.6737 99.2394 22.7324 101.096 23.058C101.133 23.0637 101.171 23.0613 101.207 23.051C101.243 23.0407 101.277 23.0227 101.305 22.9982C101.334 22.9737 101.356 22.9434 101.372 22.9093C101.388 22.8752 101.396 22.8381 101.396 22.8006V22.7801H101.393ZM81.0983 20.957C81.0299 20.9569 80.9633 20.9785 80.9079 21.0186C80.8526 21.0587 80.8114 21.1153 80.7901 21.1803C80.3723 22.4527 79.8098 24.1678 79.2668 25.8387C78.9499 26.8092 78.6603 27.7095 78.363 28.628C78.215 28.9761 77.6959 28.7597 77.4664 28.5825C77.1549 28.3242 76.8785 27.5079 76.7706 27.1534C76.1994 25.1736 75.6989 23.1864 75.1695 21.1978C75.1511 21.1284 75.1103 21.0672 75.0534 21.0235C74.9966 20.9798 74.9269 20.9561 74.8551 20.9561H73.1364C73.0966 20.9562 73.0573 20.9653 73.0216 20.9829C72.9858 21.0005 72.9546 21.0261 72.9303 21.0576C72.906 21.0892 72.8893 21.1259 72.8814 21.1649C72.8735 21.2039 72.8747 21.2442 72.8849 21.2827C73.462 23.4237 74.5808 27.5723 74.8429 28.4756C75.257 29.9012 76.0534 30.7254 77.2575 30.9627C77.4118 30.9929 77.5045 31.1552 77.4508 31.303C76.9254 32.7712 75.8849 33.0163 74.3175 32.9987C74.283 32.9981 74.2488 33.0044 74.2167 33.0173C74.1847 33.0301 74.1556 33.0492 74.131 33.0734C74.1065 33.0977 74.087 33.1265 74.0737 33.1584C74.0605 33.1902 74.0537 33.2244 74.0538 33.2589V34.9404C74.0538 35.082 74.1663 35.1972 74.3078 35.2006C74.8976 35.2139 75.5475 35.2026 76.0109 35.1221C77.5914 34.8315 79.0793 33.9673 79.7266 31.7776C80.1789 30.2498 82.215 24.0374 83.1154 21.2979C83.1282 21.2588 83.1315 21.2173 83.1252 21.1767C83.1188 21.1362 83.1029 21.0977 83.0788 21.0644C83.0547 21.0311 83.023 21.0041 82.9864 20.9854C82.9498 20.9667 82.9093 20.957 82.8683 20.957H81.0983ZM91.8311 28.1221C91.8063 28.097 91.7766 28.0773 91.7438 28.0641C91.711 28.051 91.6759 28.0447 91.6406 28.0457C91.6053 28.0467 91.5706 28.055 91.5386 28.07C91.5067 28.085 91.4781 28.1064 91.4548 28.1329C90.4753 29.2939 88.6335 29.4379 87.3741 28.8096C86.4479 28.3809 85.9919 27.3536 85.9254 26.8638C85.8941 26.7037 86.0183 26.5557 86.1813 26.5557H93.3975C93.5685 26.5557 93.712 26.423 93.7218 26.252C93.8146 24.7264 93.4543 23.3753 92.566 22.3677C91.6954 21.3721 90.4069 20.7887 89.0875 20.7482C86.1398 20.4513 83.5485 23.0141 83.6266 25.9367C83.6266 27.4332 84.2481 28.9096 85.3716 29.9091C87.7169 31.968 91.4689 31.1365 92.8209 29.4497C92.8639 29.4001 92.8865 29.336 92.8841 29.2703C92.8816 29.2047 92.8544 29.1425 92.8078 29.0962L91.8311 28.1206V28.1221ZM86.1935 24.9167C85.9235 24.9114 85.8888 24.6209 85.9953 24.426C86.439 23.0864 87.8575 22.579 88.8405 22.579C90.0236 22.579 91.3101 23.4037 91.4938 24.6184C91.5183 24.7751 91.3951 24.9167 91.237 24.9167H86.1935ZM71.0576 21.2075C71.0576 21.1385 71.0301 21.0724 70.9814 21.0236C70.9326 20.9748 70.8665 20.9474 70.7975 20.9473H68.9776C68.9086 20.9473 68.8425 20.9748 68.7937 21.0236C68.7449 21.0723 68.7174 21.1385 68.7174 21.2075V21.8647C68.7174 21.9824 68.5749 22.0381 68.4933 21.9541C67.7194 21.1598 66.5949 20.8481 65.5143 20.8506C62.8668 20.8506 60.713 23.1567 60.713 25.9919C60.713 28.8271 62.8668 31.1335 65.5143 31.1335C66.7223 31.1498 67.938 30.7219 68.775 29.8403C68.899 29.7099 69.1169 29.7435 69.1955 29.9056C69.6359 30.8143 70.6896 31.179 71.7105 31.1224C71.7773 31.1191 71.8402 31.0903 71.8864 31.042C71.9326 30.9936 71.9584 30.9294 71.9586 30.8626V29.3769C71.9586 29.2494 71.8664 29.1431 71.7409 29.1211C70.8921 28.8979 71.0924 27.8673 71.0553 27.0108V21.21L71.0576 21.2075ZM68.1266 28.1992C67.5441 28.7812 66.8009 29.0829 65.9376 29.0829C65.0744 29.0829 64.3713 28.7812 63.7891 28.1992C63.2263 27.6168 62.9454 26.8736 62.9454 25.9909C62.9454 25.1081 63.2263 24.365 63.7891 23.7826C64.3713 23.2006 65.0744 22.8989 65.9376 22.8989C66.8009 22.8989 67.5441 23.2006 68.1266 23.7826C68.7281 24.365 69.0299 25.1081 69.0299 25.9909C69.0299 26.8736 68.7281 27.6168 68.1266 28.1992ZM43.8639 30.264L36.2551 25.8713C36.1003 25.782 35.9248 25.7351 35.7461 25.7351C35.5674 25.7351 35.3918 25.782 35.237 25.8713L28.6686 29.663C28.4074 29.8143 28.4074 30.1917 28.6686 30.3431L36.2774 34.7359C36.4322 34.8252 36.6078 34.8721 36.7864 34.8721C36.9651 34.8721 37.1407 34.8252 37.2955 34.7359L43.8639 30.9442C44.1251 30.7928 44.1251 30.4148 43.8639 30.264ZM31.0846 26.3204L41.7701 20.1521C41.9249 20.0626 42.0534 19.9341 42.1428 19.7793C42.2322 19.6245 42.2793 19.4489 42.2794 19.2701V12.8643C42.2794 12.5617 41.9519 12.3731 41.6906 12.5246L34.7745 16.517C34.6198 16.6063 34.4914 16.7348 34.402 16.8894C34.3126 17.0441 34.2655 17.2195 34.2653 17.3981V20.6914L22.0203 13.6227C21.8655 13.5334 21.6901 13.4864 21.5114 13.4864C21.3328 13.4864 21.1574 13.5334 21.0026 13.6227L15.1251 17.0164C14.8639 17.1678 14.8639 17.5451 15.1251 17.6966L24.1426 22.9023L17.1398 26.9455C16.985 27.0349 16.8565 27.1634 16.7672 27.3182C16.6778 27.4729 16.6307 27.6484 16.6305 27.8271V35.4116C16.6305 35.7143 16.9581 35.9028 17.2193 35.7515L26.9333 30.143C27.0881 30.0537 27.2167 29.9253 27.3062 29.7706C27.3956 29.6159 27.4428 29.4404 27.443 29.2617V24.807L30.067 26.3219C30.2217 26.4111 30.3972 26.4581 30.5758 26.4581C30.7544 26.4581 30.9298 26.4111 31.0845 26.3219L31.0846 26.3204Z" fill="white"/>
</g>
<defs>
<clipPath id="clip0_2276_1585">
<rect width="128" height="47.1259" fill="white" transform="translate(0 0.429688)"/>
</clipPath>
</defs>
</svg>
