<svg width="128" height="36" viewBox="0 0 128 36" fill="none" xmlns="http://www.w3.org/2000/svg">
<g clip-path="url(#clip0_2276_1234)">
<path fill-rule="evenodd" clip-rule="evenodd" d="M7.71488 0.171539L7.84525 0.240197L7.91362 0.278202H8.021V0.232472H8.24263L8.30375 0.171539L8.38037 0.117958L8.46437 0.0800781H8.55612V0.407668H8.72412V0.476202H8.57125L8.63237 0.560436L8.67087 0.59844H8.94625H8.76275H8.80075V0.659248H8.86963L9.05325 0.705104H9.27487V0.971761H9.313L9.35888 1.04042V1.55106H9.48888L10.0317 1.42932H10.0699V1.49785H9.70312L9.96288 1.5437V1.58171H9.92475L9.74125 1.96276H9.86375L9.98588 2.06157L10.0927 2.17596V2.26754L10.0244 2.359L9.96288 2.49632V2.61843H10.0244V2.65644L10.0776 2.71725L10.0166 2.80871V2.90029L9.9785 2.99175L9.90975 3.06776H9.56538L9.48875 3.45654V3.63971L9.69538 3.54812L9.75638 3.65466L9.80225 3.70052H9.86375L10.3609 3.54812L10.5899 3.59385L10.4829 3.63958L10.3989 3.70824L10.3451 3.79198V4.11222L10.2534 4.21888V4.27246L10.353 4.37115L10.46 4.48554L10.1772 4.57712L10.2382 4.63793V4.67643L10.0546 4.6307H9.90187V4.74497L9.87113 4.98109V5.07256H10.0927L10.1616 5.11056L10.2075 5.16414L10.269 5.27068H10.376V5.2328V5.26295H10.521V5.24788V5.408V5.29361L10.0776 5.65958L10.2534 5.74331V5.8349H10.5366L10.6357 5.88786H10.6744L10.6128 5.97944V6.02517H10.5747V6.35326L10.0395 6.6502L9.96288 6.72658H9.92475V6.76459H9.96288L10.0469 6.8867L10.0927 6.94751H10.1616L10.5899 6.83312V6.97816L10.544 7.02402H10.5825V7.26787H10.437L10.353 7.38949L10.2992 7.44307H9.71825V7.75558L10.2002 7.64119L10.437 7.57253H10.5136L10.5747 7.77066L10.8042 8.06024L10.9263 8.24329V8.29687L10.8271 8.3426L10.6973 8.39556L10.5898 8.45699V8.54845L10.4829 8.50995H10.3681V8.65499H10.5366L10.6054 8.71592V8.79966H10.5669L10.521 8.85324H10.4829V8.90669H10.521L10.7812 9.31067L10.376 9.40163L10.1846 9.49321L10.1235 9.55452V9.83638H10.376L10.4447 9.74492L10.521 9.68399L10.6055 9.63826H10.7275V9.44013H10.7964V9.47814H11.0181V9.55452H10.98L10.8652 9.83638L10.7735 9.98142L10.7203 10.0345H10.6665V10.1182L10.6284 10.1946L10.5596 10.2482H10.4829V10.3547H10.521L10.7275 10.4385H10.9649L11.148 10.3777V10.3397H11.1865V10.4842H11.148L10.5366 10.5835V10.6521L10.7203 10.7281L10.8115 10.7889V11.0791L10.873 11.2313L10.957 11.3988L11.0029 11.5512L11.1406 11.4981V11.5361H11.1025L11.0566 11.6047V11.6812H10.873V11.7191H10.8193L10.7426 11.6733H10.7046L10.5366 11.78L10.4521 11.8336L10.3911 11.9095V12.146L10.521 12.0696L10.6514 12.0238H11.148L11.0717 12.1309L11.0107 12.2448V12.5121H10.9721L10.8271 12.5801L10.6895 12.6643L10.6357 12.7101L10.5976 12.7787V12.9462H10.7812V12.9082L10.9419 12.8318L11.0259 12.771H11.064V12.8089L11.125 12.8698L11.1788 12.9613L11.2168 13.0527V13.1443L11.1329 13.2056H11.041V13.2738H11.0181L11.1636 13.3652L11.2475 13.411H11.3243V13.4796H11.018L10.98 13.5863L10.919 13.6855L10.8345 13.7541L10.7203 13.7921V13.9903H10.6816V14.1274H11.1558L11.1176 14.181L11.1709 14.2418V14.5315L11.1176 14.5773L10.9721 14.623H10.7812L10.8804 14.8367L10.7656 14.9282L10.7275 14.9963V15.0649L11.1406 15.2022L11.1788 15.1564L11.2325 15.1184L11.3623 15.0727H11.4844L11.523 15.1107V15.1793L11.4462 15.2938L11.4082 15.3546H11.3623L11.4155 15.4388V15.4768L11.3545 15.6369L11.3086 15.7055L11.5991 16.4678L11.5229 16.5666V16.9477L11.0948 17.1764H11.0566V17.245L11.1558 17.2908L11.2397 17.3594L11.3013 17.4354V17.6184L11.2627 17.6948L11.1939 17.7484H11.0717L10.9649 17.9387L10.9034 18.038V18.1296H11.1636L11.2627 18.0911H11.3701V18.1674H11.4004V18.2054L11.3086 18.2512V18.2969L11.3853 18.4493V18.5408H11.3165V18.6094L11.4004 18.6474L11.4462 18.701V19.0514H11.2095L11.1558 19.1429V19.2194L11.4082 19.3566L11.523 19.4632L11.561 19.5168V19.5698L11.523 19.8292L11.439 20.0502L11.6221 20.4313H11.5533L11.6529 20.5758L11.7139 20.6368H11.7826L11.7369 20.8962L11.645 20.957V21.0106L11.6836 21.0714V21.2315H11.645L11.6909 21.2772H11.7295V21.4374L11.7754 21.6433V21.8487H11.6679V21.8872H11.7066V21.9251L11.7828 22.0468L11.8208 22.1004L11.7754 22.1689L11.8135 22.4737L11.8897 22.6187H11.7295L11.6529 22.6645H11.5689H11.6987L11.7905 22.7559L11.8824 22.8319H11.9971L11.8667 23.0607L11.8286 23.1751V23.3202L11.4311 23.3887L11.3013 23.2208L11.2168 23.1523H11.0948L11.1406 23.0835V22.9998L11.2554 22.9541H11.2935V22.7331H11.2324L11.0717 22.8397L10.9878 22.8855H10.8881V22.9234H10.8501L10.9034 22.9921H11.0181V23.3274H11.1636L11.0948 23.4495V23.5868H11.0566H11.5381V23.6248L11.4081 23.6934H11.2554V23.7621H11.5533L11.622 23.7241L11.6757 23.6784V23.5334H11.8594V23.7851H11.7906H11.9356V24.7989H11.8667V24.9965L11.8208 25.0729L11.7828 25.1795L11.7369 25.2559V25.3625L11.9511 25.4311L12.043 25.5075V25.6142H11.8896V25.6827L11.9663 25.7363L12.0122 25.7821V25.9416L11.9741 25.9875L11.8745 26.0868L11.6299 26.2163H11.5381L11.4844 26.1783H11.4462L11.4082 26.2469V26.3306H11.5151V26.3233H11.2554V26.5671H11.2935L11.4462 26.5214L11.584 26.4753H12.0889V26.43L12.1958 27.1922L12.0581 27.3446L12.02 27.4283V27.5275H12.0962V27.7485H12.3868L12.2949 27.9924V28.2591L12.1119 28.3126H11.9052L11.439 28.45V28.6096H11.7065L11.9126 28.5716V28.6096H11.8745L11.8364 28.7317V28.8003H11.9511V28.6476L12.3179 28.724V28.7925L12.2109 28.8305H12.0732L12.1573 28.9221H12.272V29.0286H12.081V29.0745H12.3027V29.1281H12.3945V29.3567L12.3407 29.4103V29.4482L12.4556 29.6614V29.9816L12.5395 30.172H12.249L12.1499 30.2182H12.043V30.3249H12.1958V30.4314H12.3105V30.3931H12.7388L12.8609 30.927L12.9146 31.0107H12.9526V31.0793L12.7769 31.1558L12.7002 31.2166V31.3611H13.312L13.2661 31.201V31.6586L13.3658 31.5748L13.4878 31.514L13.7402 31.4069L13.832 31.3309H13.9239L13.8857 31.2087V30.8661H14.1147L14.1835 30.8277L14.2446 30.7669L14.2984 30.6753L14.3521 30.5916V30.485H14.0918V30.4159H14.1304L14.1763 30.3628V30.1111H14.398L14.436 29.989V29.73L14.3822 29.5622L14.3364 29.3646L14.4209 29.311L14.5127 29.273L14.4668 29.1581V28.7546L14.6806 28.282L14.8872 28.0689L14.9634 27.9009L15.0092 27.8244V27.7865H14.6729V27.3367L14.7574 27.2379V26.3233L14.8565 26.0639H14.8184V26.026H14.895V25.9724H14.9331V25.9039H14.7495H14.7954L14.7574 25.7666V25.5606L14.8105 25.4618L14.9024 25.3552L14.9561 25.2939H14.9941V25.2258H14.956L14.8872 25.1873H14.8033V25.1494L14.9024 25.1035L14.979 25.0578L15.0478 24.9965V24.9591L15.2315 24.7989H14.9482L15.0781 24.7297L15.1319 24.6689V24.6309L15.0323 24.5165L14.9864 24.4557L15.1547 24.3336L15.2388 24.2649L15.3075 24.1889V23.8916L15.8199 23.3732V23.2972H15.7436L15.5064 23.3732L15.3994 23.4418V23.5484H15.3614V23.1142L15.6519 22.8018L15.7739 22.6109V22.5273L15.7129 22.4737L15.6366 22.428L15.5679 22.3821V22.2985L15.606 22.2299V21.5289H15.5679V21.4603L15.7051 21.323L15.7739 21.2544H15.8125H15.6211V21.2164H15.6591L15.606 20.9877H15.6519V20.8655L15.7129 20.7512L15.7816 20.6216V20.4922H15.8276L15.7739 20.4157L15.8125 20.2254V20.0196V20.096H15.8506L15.9044 19.9967L15.9805 19.89L16.0492 19.7985V19.7148L15.9731 19.6691V19.5848H15.9272L15.7969 19.6306H15.7359L15.9116 19.4632L15.9882 19.3639V19.3259L16.0645 19.3639H16.1411L16.1793 19.3031L16.233 19.2495L16.378 19.1658L16.5005 19.0898L16.5386 19.0514V18.9983H15.9654V18.8533L16.0191 18.7545L16.0571 18.7161H16.0952V18.6474L15.9731 18.6017H15.9272H16.187V18.533L16.1411 18.3962H16.3706V18.1597H16.0571H16.103L16.0112 17.9537V17.8321H16.103L16.3705 17.4811L16.4239 17.4354H16.4624L16.2866 17.489V17.4204H16.3248V17.1764H16.3627V17.1307L16.0571 17.23V17.1536L16.0952 17.0776V17.0393H16.0571H16.5005V17.0012H16.5386L16.5005 16.9555V16.8031L16.6763 16.4142L16.745 16.3611H16.814V16.3076L16.73 16.2468H16.1793V16.2084L16.2251 16.1625L16.1793 16.0253L16.271 15.9344L16.3325 15.8351V15.576H16.2638V15.4232H16.3706V15.3852L16.6304 15.431L16.8829 15.3701H17.4336V15.2787L16.8061 15.2251V15.0499H16.8447L16.7759 14.7374L16.6919 14.791H16.6001L16.646 14.661L16.8061 14.5013V14.3792H16.6152V14.0516L16.7451 13.8992L16.8139 13.8151V13.7391L16.5156 13.6627V13.6247L16.5923 13.5639H16.73V13.4953L16.7987 13.4495V13.3652H16.8369V13.4037L16.8906 13.5863V13.6247H16.9897L17.1122 13.5332L17.1734 13.4724H17.4101V13.3122H16.9824H17.0736L16.9746 13.2285L16.8291 13.1292L16.646 13.0299L17.0205 12.8016L17.1275 12.6566L17.1812 12.5801H17.3721V12.5042L17.6324 12.5573H17.8999V11.9936L17.9688 11.9478V11.9095L17.7241 11.8028H17.4409V11.6963H17.5405V11.132L17.7471 11.0406V11.0791H17.7085V11.117L17.8384 11.17H17.9459V11.0635H18.1289V11.2464H18.2285V11.2844L18.2666 11.1778V11.0332L18.3125 10.9033V10.8575L18.2208 10.7587L18.1747 10.7051V10.6594H17.8843V10.6064L17.9229 10.5529H17.9688L18.0909 10.6137H18.2285V10.5529H18.6645V10.5149L18.7256 10.3698L18.7866 10.309H18.8554V10.1566L18.9395 10.0652V10.0272H19.0082L18.9395 9.88211V9.71414H18.9702L18.8784 9.66118H18.8246H19.0084V9.80573L19.0543 9.95077L19.1157 10.0802L19.1537 10.2174L19.2987 10.1717L19.4293 9.55452L19.4902 9.47814H19.5284L19.5894 9.53895H19.7426V9.47041L19.8115 9.40948L19.9258 9.3564H20.0864L20.1401 9.44013V9.53172L20.0103 9.6076L19.8955 9.69184L19.7656 9.76785H19.5742V9.80573H19.498L19.5664 9.86703L19.6431 9.92012H19.8419V9.88211H20.3619L20.3008 9.67626H20.354L20.4536 9.74479L20.4995 9.79065V9.84423L20.4536 10.0345V10.3167H20.5303L20.6752 10.271H20.7749L20.6982 10.347H20.6065V10.4006H20.6602V10.5071H21.2183V10.545H21.1114V10.5835L21.2261 10.6366L21.2792 10.7051L21.333 10.8805V10.9647L21.3789 11.0332L21.4629 11.0791H21.8071V11.1476L21.6616 11.193V11.2694L21.7383 11.3074V11.3609L21.7226 11.7648V11.9021L21.7841 11.9478L21.9521 12.0086H22.1127V12.0466L22.2046 12.2526H22.0518L21.998 12.1689V12.0773L21.914 12.1153H21.8145L21.8682 12.2905H21.8145L21.7685 12.329V12.6643L21.8071 12.7174L21.853 12.7559H22.0748L22.1816 12.7174H22.2964V12.7859L22.0518 12.9768L21.9141 13.0912L21.876 13.1443V13.1827H21.7226L21.356 13.2207V13.1827L21.3174 13.2664V13.3652H21.1724L21.1265 13.4495V13.5483L21.0728 13.6247H21.0269V13.7084H20.9581V13.7464L20.8438 13.8608H20.6445L20.5605 13.7999V13.762V13.8228L20.5991 13.7543V13.6777H20.1939L20.1401 13.7235L20.0942 13.7921V13.9372H20.3848L20.2623 13.9752L20.1939 14.1274V14.2117H19.7959V14.2497H19.7579V13.9294L19.9414 13.8764L19.8345 13.7543L19.7886 13.6855V13.6091L19.8725 13.5409V13.4495H19.9106L19.9565 13.4952H20.3237L20.3619 13.4416V13.3731L20.1939 13.3652H20.0942L20.0025 13.411L19.8417 13.4495L19.7577 13.3652H19.3906V13.3272H19.4293V13.1599L19.582 13.007L19.6811 12.9385H19.773V12.7939H19.4214L19.2377 12.8474L19.1616 12.8854L19.0929 12.9383L18.9551 13.137V13.175H18.9165L18.978 13.2358L18.8022 13.4952L18.7026 13.6397V13.7391L18.9931 13.6705V13.9142L18.6798 14.0516V14.1276H18.8248H18.6645H18.7334V14.2346L18.6719 14.3334L18.5039 14.5086L18.2895 14.6386L18.0527 14.6994H18.0909L18.3584 15.0193L18.4961 15.2099L18.5341 15.2938V15.3701L18.458 15.4768L18.4121 15.6063L18.3434 15.8959V16.0331L18.2896 16.1552L18.1978 16.2468H17.8999V16.4142H18.1519L18.1978 16.4522H18.2364V16.6279L18.1675 17.2071H17.5405V17.2908H17.502V17.3288L17.7925 17.4131H18.1065L17.9457 18.076L18.0298 18.1217V18.1597L17.8463 18.5788L17.7774 18.6473L17.6782 18.7009L17.3878 18.7545V18.899H17.1353V19.1429L17.1734 19.2043L17.2344 19.2495H17.4869V19.1429L17.5707 19.0134L17.6704 18.9068H17.8999V19.2422L17.8461 19.4023L17.8081 19.562V19.9508L17.7544 20.1797H17.4639V20.2557H17.7701V20.4386L17.6324 20.5458V20.5909L17.7241 20.6295H17.8232V20.9877L17.5557 21.323L17.4336 21.5211V21.582L17.5405 21.6656H17.6705V21.9631L17.7085 22.0395H17.6704L17.5176 22.1918L17.4409 22.2756V22.352H17.5176L17.5707 22.405V22.7404L17.502 22.9006L17.3261 23.0758L17.2041 23.2515L17.1275 23.3275H17.0284L17.1655 23.3732H17.3032V23.2359L17.3417 23.1902L17.2959 23.3123L17.2344 23.434L17.1811 23.5562V23.6783L16.8218 23.7466H16.7833L16.8676 23.8916V23.9373H17.1811V23.9981L17.1353 24.2269V24.3565L16.8447 24.41L16.4854 24.5244L16.6841 24.6387H16.9975V24.7073L16.8599 24.7604V24.829H17.1504L17.0966 24.9965V25.0807H17.0205L16.9517 25.1265V25.1722V25.1337H17.0664V25.1795L16.9365 25.7363L16.8599 26.0332L16.7989 26.1325H16.7603H16.9136V26.2313L16.7911 26.3306L16.6992 26.445L16.6381 26.5745V26.7274L16.3856 26.8262H16.3476L16.4009 26.8719L16.4854 26.9249L16.3779 26.9712H16.21L15.9116 27.0165L15.9956 27.1845L16.0644 27.253H16.1562L16.1949 27.1994L16.3169 27.253H16.4546V27.3216H16.1411V27.3596L16.294 27.4434L16.3477 27.5047V27.6419L15.9731 27.5348L16.0264 27.7028H15.9731L15.9272 27.7407V27.84H16.1181V27.916H16.0801L15.7589 28.2898L15.5679 28.4952L15.5064 28.5488L15.4073 28.5945L15.3228 28.663L15.2618 28.7546V28.8613H15.6978V28.8233H15.6519H15.7206L15.8427 28.9142L15.8965 28.9605V29.0286L15.6748 29.1507L15.5981 29.2502L15.5141 29.4254L15.4375 29.6006V30.8963L15.3457 30.9878L15.2236 31.0793L15.1167 31.1859V31.3841L15.1547 31.4678V31.6435H15.4531L15.3535 31.7195L15.3003 31.7651H15.0478L14.9482 31.8036H14.8335H15.1319V31.8796L15.0249 31.9252L14.9024 32.009L14.8105 32.1083L14.7574 32.2076L14.8105 32.375L14.4971 32.5122L14.543 32.5809L14.627 32.6494L14.7344 32.741H14.5889V32.8092H14.7725L14.7344 32.8705V33.0686L14.8644 33.1373L14.918 33.1753H14.8261L14.6958 33.221L14.5815 33.2667H14.5049V33.3353L14.5815 33.3733L14.352 33.5262L14.2221 33.6099H14.0766L14.1377 33.6707L14.0386 33.7471L13.9161 33.8308L13.8013 33.9224V34.7074L13.8471 34.761V35.1723L13.6865 35.1343H13.3886L13.4419 35.1802H13.4805L13.19 35.3933L13.0293 35.4999H12.9834L12.8759 35.5457L12.8228 35.3705H12.6699L12.6161 35.4849L12.5395 35.5842L12.4326 35.6602H12.2949V35.7972H12.2188V35.7287L12.2797 35.6143L12.3256 35.5612H12.3868L12.3256 35.477L12.4556 35.3475V35.1801L12.3945 35.2254V35.2638L12.1348 35.2181L12.043 35.2638L11.9052 35.3398L11.7828 35.4693H11.7446L11.9052 35.1494L12.02 34.9742L12.0659 34.9134V34.8062H11.9971L11.7905 34.9816L11.668 35.0506H11.4082L11.4541 34.997V34.6466L11.5151 34.5317L11.5918 34.4252V34.2956L11.3086 34.395H10.873V34.3185L10.9493 34.1813L11.003 34.1205H11.018V34.044H10.8804V33.6864L10.9341 33.4269H10.896L10.7735 33.3583L10.7203 33.3125L10.5825 33.183V32.6876H10.6512L10.8804 32.6266H11.041V32.6646H11.1176L11.0791 32.5961V32.3823L11.0337 32.2987L10.995 32.2377H10.7887L10.6745 32.2985L10.567 32.36L10.4679 32.3979H10.3761L10.338 32.337L10.2995 32.192V32.0855L10.3532 31.9939L10.4294 31.9253L10.59 31.8416H10.7736V31.7195H10.2075V31.4906L10.2534 31.0335V30.7669L10.3453 30.6145L10.4062 30.546H10.498H10.2534L10.3071 30.4393V30.3931H10.1235V30.3249L10.2075 30.2407L10.2534 30.134V29.6007L10.3453 29.5548V29.5091L10.1616 29.1279L10.2154 28.9985V28.9377L10.2612 28.8769L10.6895 28.6937H10.7426V28.6476H10.896V28.5337H10.5596V28.5716L10.1386 28.7547V28.3886L10.1846 28.3356L10.2461 28.282L10.292 28.2284V28.0989L10.2154 28.0304L10.1386 27.9768V26.7803L10.3149 26.5214L10.353 26.4143V26.3687L10.4219 26.3156V26.2084H10.3453L10.292 26.2776L10.2154 26.3306H10.0316V26.1325L9.98588 25.9417V25.8044H10.0317V25.7284L9.92475 25.6449L9.856 25.5378V24.7074L9.77925 24.646L9.84087 24.4937V24.0746L9.75638 23.6856V23.4798L9.80225 23.4112H9.88675V23.2744L9.78712 23.16V22.428L9.74125 22.3821L9.69525 22.3369V22.2833H9.73337L9.84087 21.8793H9.80225V21.8415H9.69525L9.61913 21.7879L9.57325 21.7115V21.6048L9.61913 21.5669L9.70312 21.4983L9.74125 21.4526V21.4067H9.67237H9.7105V21.0027H9.67237L9.58838 20.9039L9.52738 20.8582H9.47363V20.7897L9.84813 20.4614L9.69538 20.4157H9.48875V19.9816H9.58062L9.83313 19.8823L10.0087 19.8292V19.4252H9.5275L9.48888 19.3795V19.2723L9.55037 19.2115L9.49662 19.0899V19.0285L9.60363 18.663L9.382 18.6094V18.5714L9.43575 18.5029L9.48888 18.4191V18.1976H9.34387V18.1446H9.5275L9.45075 18.0453L9.41275 17.9922V17.908L9.5655 17.7405V17.5653H9.40487H9.48888V17.489H9.5655V17.451H9.48888H9.5275V17.504H9.58075V17.3288H9.43575V17.1843L9.48888 17.0547V16.9934L9.53475 16.9404L9.6725 16.8411L9.7335 16.7875H9.81013V16.7194H9.298V16.681H9.33613L9.48888 16.0331L9.55762 15.9645H9.62663V15.8885H9.45862L9.70325 15.7892V15.6447H9.66463L9.51188 15.7207H9.38188V15.6291L9.443 15.5303L9.59638 15.3093L9.74137 15.1186L9.78725 15.0499V14.8595L9.68025 14.9054H9.45075L9.37412 14.8595V14.8211L9.45075 14.7831H9.55037V14.5086H9.63437H9.5885L9.48888 14.4172H9.359L9.7565 13.9445V13.8764H9.71838L9.54263 13.9524H9.36687V13.6704L9.32825 13.4495L9.43575 13.4037V13.3652L9.359 13.3272L9.31312 13.2736V13.0834L9.35125 13.0226L9.39713 12.9842H9.45088V12.8318H9.29L9.229 12.7861L9.17525 12.7251L9.12212 12.6715V12.3821L9.61913 11.9478L9.46587 11.7726L9.32088 11.8408L9.252 11.8865V11.6427L9.32812 11.338V10.5757L9.26713 10.4765L9.19825 10.4083L9.04537 10.271L8.98438 9.98877L9.25975 9.85146H9.1065L8.98438 9.75265H8.83887V9.55452H8.95362L8.89262 9.47029V9.37883L8.95362 9.33359H9.03025V9.20363L9.13725 9.12762L9.252 9.04351V8.92962L8.98438 9.05124L8.82375 9.08924H8.72412V8.9447L8.82375 8.85311H8.8775V8.69299L8.9385 8.50272V8.28902L8.98438 8.23594V8.03009H8.63237L8.72412 7.86212L8.686 7.80131V7.73278L8.72412 7.65627V7.58026H8.57125L8.61725 7.51172L8.54838 7.44307H8.4565V7.26787H8.81588L8.76275 7.16121V7.0619L8.72412 6.90178L8.60987 6.84097H8.28862V6.80296L8.3345 6.66577V6.56646L8.3725 6.47488L8.5025 6.36049L8.54838 6.30753H8.58687V6.20087L8.53312 6.15514H8.49512L8.35738 6.20822V6.04075H7.97512V5.99502H8.05912L7.9595 5.74331L7.82225 5.60612L7.65375 5.50731H7.48588V5.28576L7.2715 5.12626L7.19525 5.06483H7.05762L7.19537 5.28576H6.86625V5.53746H6.62162L6.39988 5.606H6.14738V5.88786H6.30813L6.50688 5.75116L6.62162 5.69758H6.7285V5.73559H6.69037L6.6065 5.77396H6.43062V5.91078L6.39213 6.00224L6.34625 6.0709L6.28512 6.11663L6.15525 6.20087L6.09425 6.26167L6.04838 6.34541L6.00975 6.73431L6.0785 6.8867V7.06975H6.2315L6.30813 7.10763H6.34625H5.76512L5.70412 7.37441V7.58026H6.00975V8.03009L5.796 8.21313L5.53562 8.3426L5.48975 8.40341V8.46422L5.4365 8.60153L5.3525 8.71592L5.27588 8.79966L5.23 8.91404V9.07416L5.62 8.98258H5.895H5.84175L5.666 9.09697L5.55125 9.21136L5.4595 9.31802L5.42137 9.3564V9.50879L5.49762 9.5848V9.68399L5.35262 9.75265H5.17637V9.79065H5.22213V10.1946L5.27588 10.4385H5.19925L5.11525 10.4842L5.062 10.545V10.6215H5.19925V10.6979L5.01613 10.8731V11.0562L4.90137 11.2771H4.8555L5.02338 11.4524L5.13037 11.5132H5.24512V11.5512H5.16888L5.0005 11.8408L4.90137 11.9629L4.83988 12.0009H4.77875L4.8325 12.2526L4.8935 12.3669H5.0005V12.4735L4.90137 12.603L4.78662 12.7023L4.67975 12.7938L4.61812 12.8318L4.771 12.9691L4.8555 13.0455L4.8935 13.0912L4.97025 13.175V13.213L4.64113 13.556L4.58787 13.6476V14.0588L4.51912 14.181V14.3183H4.59525L4.70275 14.2725V14.3105H4.74075V14.379L4.65675 14.4326L4.588 14.4935L4.542 14.5621V14.6917L4.58012 14.7452H4.771V14.7831L4.641 14.8898L4.603 14.9282L4.67188 14.9813V15.0193L4.57225 15.065L4.4805 15.1335L4.3965 15.2022H4.32025V15.1186H4.3355L4.24363 15.2708V15.4159L4.38137 15.3701V15.652L4.15963 15.5989V15.652H4.13675V15.7585H4.36625L4.47312 15.8121V15.9036L4.38137 15.9801L4.32762 16.0711L4.23588 16.2769L4.15963 16.3534L4.13675 16.4142L4.05225 16.4828V16.6352L4.106 16.6737H4.167L4.22075 16.7345V16.7725L4.13675 16.9783L4.02975 17.0776V17.3595V17.3215H4.13675V17.2758H4.2055V17.3288H4.2515V17.3672H3.96088V17.4052L4.04488 17.6491V17.9008L3.8765 18.053L3.80025 18.1597L3.7465 18.2969V18.701L3.96088 18.7618L4.04488 18.8382H4.13675V18.9142L4.06787 18.9827V19.0899H4.106V19.1278L4.00688 19.3488L3.63963 19.6764V19.7679H3.93012V19.8064L3.74662 20.2332L3.6475 20.6902H3.86125L3.8075 20.7361V20.8046L3.86125 20.8655V20.9419L3.77737 21.0257V21.1322H3.70062V21.0943L3.63188 21.0257L3.54787 21.0792L3.47125 21.1707L3.37212 21.3459V21.4526V21.4146H3.95312L4.11375 21.6735L4.2285 21.7879L4.27437 21.8487V21.9173H4.12887L4.13675 21.8643H3.7925L3.86912 21.9709L3.97613 22.0775L4.13675 22.131H4.26662V22.3141L3.89937 22.2756V22.3441H3.63963V22.3821L3.71587 22.4436V22.4814L4.03713 22.3442V22.3821H4.13675L3.938 22.5881L3.89212 22.6874V22.8397L3.37212 23.0228V23.2744H3.63188L3.586 23.3503V23.2743H3.7315L3.93025 23.16H4.07525V23.2208H4.022V23.2666L3.80025 23.3351L3.71587 23.4111V23.5104L3.76175 23.5562V23.5942L3.52487 23.5484H3.30325H3.372V23.5942H3.31825L3.2725 23.6327L3.18062 23.5942H3.08888V23.6935L3.14263 23.7699L3.20362 23.8307L3.28025 23.8687H3.81538V24.0366L3.6855 24.1355L3.60888 24.1812H3.54012H3.70062L3.60888 24.2649V24.3107L3.37212 24.5316V24.6002L3.67038 24.646V24.7604L3.53275 24.8062V24.9283L3.47125 25.0198L3.41013 25.1035L3.36425 25.2028V25.5762H3.456V25.6142L3.3335 25.675L3.37212 25.9344L3.28813 26.064V26.1933H3.37212V26.262L2.98975 26.4752V26.6052L3.02787 26.6582L3.1655 26.6052H3.37212V26.4372H3.44088V27.0091L3.395 27.0549L3.1885 27.0851L3.07375 27.1766V27.2833H3.3335L3.38725 27.4205H3.37212V27.459L3.1655 27.6263L3.08888 27.7256V27.8474L3.13475 28.0231L3.38725 27.9617H3.37212V28.1369L3.311 28.2898L3.21137 28.4193L3.07375 28.5108L2.92875 28.6096H2.86725L2.814 28.6704L2.60737 29.2954L2.37788 29.8902L2.33987 29.936H2.28612L2.187 29.9739H2.07225L1.92675 30.134H1.84275V30.2407L1.751 30.4008V30.4922L1.79688 30.5609L1.84275 30.6676V30.9955L1.3765 31.0793L1.42237 31.0185V31.1402L1.16212 31.0943V31.2317H1.11625H1.13912H1.04737L0.955625 31.2774H0.864375L0.9175 31.3231H1.124V31.6586H1.0015L0.94825 31.7043H0.558125V31.6586L0.604 31.5899L0.46625 31.4449L0.3135 31.3539H0.1835V31.2852H0.2525V31.0871H0.305625L0.3135 30.9878V30.9498L0.619125 30.6222L0.77975 30.4393L0.8565 30.3779H0.9175V30.302H0.565875V30.0275V30.0732V29.8902L0.627 29.8216H0.672875V29.753L0.51225 29.6769L0.436 29.6312V29.5928L0.481875 29.5398V29.4634H0.36725H0.604L0.504875 29.7607L0.40525 29.898L0.3515 29.9437L0.3135 29.6771L0.40525 29.8143L0.46625 29.8824H0.459L0.3135 29.9208L0.160625 29.8367L0.038125 29.7071L0 29.6386V29.5548L0.13775 29.4327L0.213875 29.3796L0.3135 29.3718L0.236875 29.273V29.2194L0.3135 28.9449L0.3745 28.8154V28.7775H0.2295V28.7395L0.275375 28.5409V28.3278L0.3135 28.0304L0.36725 27.9388L0.46625 27.8474V27.8094L0.382375 27.7485L0.504875 27.5198L0.55025 27.398V27.1615H0.8105V27.0549H0.88675L0.932625 27.1537V27.3824L0.825625 27.5275L0.688 27.6419H0.558V27.8474L0.649875 27.9009L0.69575 27.9617V28.1219L0.63475 28.2898L0.57325 28.4572V28.8077H0.527375L0.581125 28.9142V28.9605H0.69575V29.1815H0.764625L0.88675 29.0594L0.9555 29.0063H1.03225V28.869L1.07812 28.6096L1.16988 28.4728L1.231 28.4266H1.292V28.3886L1.36863 28.4265H1.40675L1.62112 28.0075H1.22362H1.292L1.25388 27.8551V27.7865H1.29975V27.4818L1.063 26.8949L0.88675 26.9483L0.9405 27.0549V27.1235H0.603875V27.055L0.657625 26.9634V26.9177L0.596125 26.8184V26.7653L0.741625 26.4144L0.864125 26.2392L1.078 25.8887H1.13175V25.8123L1.04725 25.7363V25.4696L1.078 25.271V25.0729L1.18488 25.0271L1.12388 24.9283V24.8747L1.19275 24.7989L1.269 24.6538L1.36075 24.5165L1.43737 24.0897V23.9601L1.38363 23.8765L1.4525 23.7466V23.396V23.434L1.50625 23.4798H1.56725V22.9847L1.72787 22.7482V22.5121L1.682 22.4436V22.3977L1.812 22.1232V21.7499H1.84263V21.6584H1.95738L1.88863 21.5363H1.83487H1.84263V20.9877L1.89637 21.0334H2.02625V20.774V20.8883L1.92663 20.7895V20.7438L1.98763 20.6366V20.5229H1.86563V20.3626L1.96475 20.1568L2.04137 20.0575H2.09512V19.9889L1.98038 19.928L1.90363 19.8595L1.86563 19.7756V18.9141L2.02625 18.701L2.095 18.6401H2.347V18.4493L2.21712 18.3962L2.118 18.3277L2.02625 18.2434L1.91925 18.1674V18.2054L1.8655 18.0681L2.118 17.9693L2.07212 17.8623V17.8165H2.118V17.6948H2.141H2.06437V17.5576H2.20988L2.164 17.6112H2.35488L2.41587 17.504L2.50038 17.1764V17.0012L2.42375 16.9632V16.9249L2.50775 16.8489L2.59212 16.7345V16.5894H2.27087V16.4064H2.4925L2.4315 16.1246V15.8501H2.24787V15.4159L2.286 15.3623V15.2636H2.5535L2.5995 15.2251L2.54625 15.1871H2.60725V14.8898H2.745L2.829 14.8518L2.77525 14.791L2.71425 14.7525H2.23275L2.309 14.6229L2.43887 14.4478L2.58437 14.2798L2.75237 14.1274H3.24213L3.31825 14.181L3.387 14.2574L3.50187 14.402V14.4555H3.5785V14.2497H3.7005V14.1812L3.58575 14.1353L3.47887 14.0589L3.372 13.9903L3.265 13.9523L2.84413 14.0666H2.263L2.46962 13.9372H2.72213V13.8686L2.64538 13.8306V13.7921L2.94375 13.4416V13.3731L2.76012 13.2738L2.66838 13.2358H2.60725L2.5155 13.0299H2.60725L2.722 12.603V12.4734L2.60725 12.4965V12.2146L2.76012 12.329H2.9515V12.108V12.146V11.7269L3.01988 11.7648H3.10437L3.18062 11.6427L3.23425 11.5969H3.303L3.25725 11.5589L3.19613 11.5132L3.372 11.4217L3.19613 11.4753V11.4065L3.28012 11.3L3.372 11.2315H3.433V11.0791H3.31825L3.25725 11.0332L3.1805 10.9111L3.1195 10.789V10.7359H2.61512V10.6673H2.65325V10.6215L2.71425 10.5679H2.875L2.7295 10.6215V10.6979H2.982L3.11963 10.4921L3.15775 10.3777V10.248H3.37212L3.456 10.3395H3.563V10.0193L3.51712 9.91264V9.5544H3.57862H3.502V9.60013H3.44825L3.311 9.64598H3.07375L3.02787 9.60735L3.1275 9.53159L3.22662 9.44736V9.40163L3.34912 9.47016H3.49412V9.50867H3.54L3.48688 9.38655V9.32562L3.57075 9.24924L3.6475 9.1807V8.96738H3.69338V8.89099H3.61675L3.46388 9.10469L3.36425 9.1807L3.24213 9.21908L3.18062 9.08912L3.13475 9.03603V8.79218H3.17337L3.25738 8.73087V8.40316H3.37212L3.456 8.36528L3.54 8.30397L3.6245 8.25089H3.71575L3.57862 8.02996L3.50988 7.99146H3.42525V7.87757H3.502L3.55575 7.93838V8.02996H3.6015V8.0985L3.54775 8.31955H3.83063L3.97613 8.02996L4.022 7.95345V7.87757L3.76175 7.73253L3.63963 7.64107H3.6855L3.74662 7.58798L3.92237 7.5344L3.99113 7.59534H4.2515V7.40494L4.3125 7.31348L4.3965 7.21416L4.49613 7.1075L4.57237 6.99311H4.61088L4.54938 6.88657L4.51125 6.75698H3.99125L3.94537 6.71861V6.6578L3.99913 6.58179L4.09088 6.61979H4.19L4.27437 6.52833V6.38329L4.18262 6.33756L4.35838 6.38329H4.44238L4.52637 6.31476L4.58787 6.23875V5.91851L4.64888 5.8425V5.56799L4.90137 5.2399L4.97762 5.18682L5.05425 5.14109L5.123 5.08751L5.28375 4.82085L5.47463 4.58472H5.51275L5.42875 4.54634H5.27588L5.19925 4.59207L5.03125 4.70646L4.9395 4.75219H4.84762V4.615H4.88575L4.90137 4.45526L4.94725 4.37887L5.016 4.44741L5.123 4.49326H5.207V4.35594H5.01625V4.21875H5.08462L5.299 4.12717H5.46688L5.65063 3.71597V3.40296H5.68913L5.84188 3.24333L5.92588 3.16683V3.1211H6.11737V2.69432H5.857L6.00987 2.48847L6.1095 2.38966H6.1935L6.1325 2.32885V2.16873L6.507 1.9321L6.60663 1.81049L6.65975 1.77198H6.72137L6.65975 1.71118H6.91225L7.13387 1.56663L7.21788 1.45947V1.16989H7.19537H7.26375L7.3175 1.10908V0.781363H7.547L7.50112 0.316207L7.67688 0.194467M9.57337 1.10908H9.68025V1.16989L9.59638 1.07107M4.45013 5.58319L4.51888 5.63677H4.60288L4.48812 5.72823L4.42712 5.77396H4.36613L4.35825 5.74331L4.45013 5.61385M7.34013 5.51453H7.409V5.48438M3.18837 6.59711H3.29525V6.6502L3.21125 6.55138M3.67025 6.75723H4.1595H4.13662L3.88412 6.98551L3.73137 7.10763L3.67025 7.14563H3.62438V6.6958L3.68537 6.56646M6.37687 6.7115L6.27725 6.84097L6.21613 6.89455H6.14L6.224 6.78016L6.33875 6.69593M10.6512 6.4978L10.6971 6.54353V6.60434H10.6512V6.53618M3.47125 8.03021H3.55562V8.06809L3.47125 8.03021ZM9.95562 7.51958H10.0469H10.0087V7.55758L9.97075 7.51958M8.77 8.09887V8.17476V8.08329M19.2456 8.99043V9.03628L19.207 8.99828M18.5112 9.42468H18.7178L18.8096 9.47041H18.8481V9.50891H18.5269L18.4961 9.55465V9.51627H18.603V9.47826H18.565V9.40973M5.3755 10.6978V10.7358H5.32963V10.6978M5.23 10.8195H5.30662H5.26813M2.92875 11.2542L3.043 11.292H3.09675V11.33H2.69925V11.2615V11.3072L2.913 11.2542M18.3662 9.79065H18.4429L18.2974 9.89719L18.2134 9.94292H18.1289V9.87439H18.1675L18.374 9.74479M2.5615 11.6125H2.60737L2.69138 11.7648L2.7295 11.8257L2.61525 11.9021H2.37L2.4545 11.8408H2.54625V11.6124M20.9579 10.3166H21.2181L21.1341 10.3853L21.0266 10.4384L20.7978 10.4992V10.4612H20.8358L20.9046 10.4003H20.9579V10.3166ZM26.8154 10.1181H27.1439V10.3317H27.0751L26.9832 10.4534L27.205 10.4992L27.3885 10.4082L27.4804 10.3469L27.5721 10.3853H27.6717L27.7865 10.3317V10.2252V10.2782H27.9086V10.4082H27.8626L27.6791 10.5298L27.5951 10.6063V10.6521H27.8167V10.9416L28.3598 10.9947L28.4515 11.0483H28.5585V11.2084L28.4515 11.2542V11.3302L28.7803 11.3758L28.9408 11.4372L28.9945 11.4829V11.5282H28.8031L28.7421 11.6961V11.7497L28.6805 11.7954L28.6346 11.8484V11.7799H28.6044L28.3979 11.9171L28.2987 11.9934L28.3598 12.1001L28.436 12.1765H28.6122L28.6733 12.1381L28.727 12.1001H29.0785L29.1472 12.0621H29.2235V12.1001H29.2621L29.0478 12.1916L29.1474 12.2982L29.2621 12.3668H29.6059V12.687L29.7586 12.9382V13.2206L29.8354 13.2814H29.9193V13.3579L29.583 13.2814L29.7435 13.4415L29.805 13.5408V13.6547L29.889 13.6168H29.9422L29.996 13.792H29.912L29.8354 13.8456L29.7129 13.9901L29.6059 14.1352L29.5604 14.1888H29.5219V14.3104H29.4149V14.3789L29.7127 14.3031L29.8505 14.2266V14.1201H29.9193V14.5313L29.8582 14.6078L29.782 14.6686L29.6903 14.7143H29.5751V14.783L29.889 14.8667H30.2103V15.1793L30.0726 15.2328H30.034V15.3394L30.08 15.3851L30.2176 15.4536H30.5311L30.7909 15.3243L30.8446 15.2707L30.8905 15.2099L30.9443 15.1491V15.0955L30.8905 14.9203L31.0053 14.8438L31.0662 14.8059H31.1351L31.3036 14.8897L31.265 14.8137L31.3337 14.6765L31.3797 14.6155V14.6535H31.4867L31.6014 14.1888L31.663 14.0285V13.8379L31.7542 13.7234L31.808 13.6703H31.8617V13.2586L31.9076 13.1826H32.0834L32.2211 13.2586H32.4276V13.2206L32.4809 12.9689L32.0296 12.8623V12.7709L32.0834 12.6029L32.3431 12.306L32.4886 12.1609L32.5574 12.1001H32.8021V12.0008H32.848V11.8407L32.6795 11.8864L32.5956 11.9249H32.5267L32.4735 11.8407L32.5726 11.6503L32.6264 11.5437V11.4595V11.5052L32.7181 11.3071L32.7714 11.1626V11.079L32.8401 11.0024V10.8959L32.7948 10.8194L32.8631 10.6442L32.955 10.4992L33.1996 10.2252L33.3524 10.0193L33.5516 9.94279L33.9799 9.71402V9.63041L34.1175 9.73744L34.1859 9.8056V9.85918L34.1175 9.96572V10.0878H34.4535L34.6068 10.1258H34.7518V10.0878L34.8206 10.0193H34.9656V9.93557H35.0044V10.0572L35.0961 10.0952H35.142L35.0195 10.2173L34.9584 10.286V10.3625L34.8514 10.3166H34.7826V10.4384H34.3774V10.5605L34.4613 10.6214L34.538 10.6671V10.5221H35.0653L35.5472 10.4003L35.7001 10.3318L35.8759 10.2782V10.3166L35.6922 10.4534L35.6082 10.5449V10.6365L35.7079 10.6978V10.7966L36.0286 10.7358H36.3577V10.873L36.2045 10.9718L36.1205 11.0254H36.0439V11.0634L36.1283 11.1242H36.2352V11.2313L36.1512 11.277H36.1131V11.3228H36.0439V11.0711H35.9906L35.9061 11.1548L35.8686 11.2084V11.2614H35.7919V11.3835H35.6385L35.5009 11.4293L35.4476 11.4674L35.4017 11.5131V11.7268L35.4399 11.7725H35.7079L35.83 11.7268L36.0213 11.6732L36.1131 11.6275V11.5817H36.3729V11.5439H36.411L36.5565 11.4596L36.6253 11.3988H36.7934V11.4674H36.6096V11.574H36.7396H36.6712L36.327 11.7113L36.2045 11.8106L36.1434 11.8564H36.0746V11.8944L36.2504 12.0009H36.4569L37.015 12.0695L37.1297 12.0238H37.3823L37.474 11.8407L37.5887 11.7726H37.7108L37.8792 11.8184H38.0321L37.8792 11.948L37.8255 12.0316V12.1309H37.6039L37.5199 12.2526V12.3898H37.7337L37.9481 12.3441V12.5121L38.078 12.3977L38.1239 12.329V12.2448H38.6743L38.2537 12.4662L38.017 12.6945L37.887 12.7861L37.8104 12.8244H37.7337V12.9383L37.6879 12.9842L37.6346 13.0606V13.3652V13.2207L38.2616 13.2738L38.598 13.3274H38.7127V13.4339H39.0721L39.1405 13.5639L39.7371 13.6777L40.3871 13.7391V13.8228H41.1136L41.1669 13.8608H41.2665V13.8992L41.159 13.9673L41.1136 14.0131H40.9681L40.8001 14.0745H40.6089L40.6546 14.1733L40.7235 14.2725L40.8153 14.3411H40.93V14.3033L41.0448 14.2646H41.1748L41.2586 14.166V14.0666V14.1274H41.6029L41.7557 14.0438L41.8172 13.9752V13.8914H41.8554L41.9012 13.9372H41.9696L42.039 13.9752H42.4286L42.3295 14.1046V14.4857H42.3979L42.5891 14.4098L42.765 14.3105L42.9408 14.2117L43.14 14.1581L43.2391 14.0745L43.3461 14.0058L43.4686 13.9601H43.5986L43.5526 14.0286L43.6825 14.2725L43.8201 14.3183H44.2865L44.4164 14.3713H44.5541V14.2877H44.6766V14.3256L44.6156 14.4327L44.5311 14.5699V14.6995H44.6386V14.6609H44.7455V14.623L44.7988 14.6915H45.12L45.204 14.623V14.4934L45.0209 14.4098L44.9364 14.3641H45.1507V14.5929L45.4794 14.6307V14.0131L45.6937 13.9523V13.9142V14.0209H45.8769L45.8387 14.0894V14.1733H45.9463L46.0073 14.1046V14.0666H46.0531V14.1274L46.1444 14.2648L46.1981 14.3333L46.4735 14.2497L46.6571 14.1276L46.7489 14.0666L46.8559 14.0209V14.1581L46.7411 14.2877L46.6111 14.4172L46.5726 14.4857V14.5622L46.703 14.6386L46.7562 14.6917V14.7525V14.6386V14.6766H46.825V14.8897H46.8939L47.0009 14.9283H47.1234L46.9857 15.0421L46.9399 15.1107V15.2022L46.5805 15.1492H46.2211L46.1299 15.2407L45.9076 15.3775L45.7855 15.4159H45.6479V15.3395L45.1356 15.4232V15.6063H45.0897V15.4159L45.0439 15.2636L44.952 15.1415L44.8833 15.0956H44.8144V15.1336L44.8831 15.2558L44.9291 15.3166V15.3931H44.8216L44.7304 15.3244H44.6079L44.5619 15.3701L44.4701 15.4768L44.4164 15.5225H44.3554L44.3021 15.4845H44.1415L44.0345 15.5303H43.9198V15.4617L43.8739 15.3546L43.9881 15.2636L44.0575 15.21H44.1185L44.0419 15.1492L43.9656 15.1034H43.7821V15.3472H44.661H44.4012V15.2022H44.5088H44.3787L43.6138 15.5989L43.5682 15.4232L43.5296 15.3546L43.4837 15.3015L43.4305 15.2636H43.178L43.0405 15.3546H42.91V15.3931L42.9945 15.4845V15.5989H42.7191L42.6425 15.5376L42.3675 15.2864H42.3295L42.3826 15.4539L41.3661 15.5147L41.014 15.6597L40.5785 15.7207L40.372 15.7971H39.89L39.5995 15.8959V15.7128L39.286 15.8885V15.7814L38.682 15.9493V15.8043H38.5443H38.6899L38.6283 15.7284L38.5443 15.576H38.1698L37.971 15.614V15.5376L38.055 15.4159L38.1087 15.3623H38.1698V15.2938L37.9403 15.2407L37.8334 15.1871H37.7948V15.1414L37.5887 15.2328L37.6571 15.1184L37.6956 15.0649H37.9481L37.8944 14.8898H37.9711L37.8715 14.7982L37.8255 14.7451V14.6915L37.6425 14.7754L37.4359 14.8439H37.3211L37.2294 14.8061L37.1449 14.7374L37.2142 14.6386H37.3134V14.1581V14.3256L37.3515 14.3792V14.2418L37.4202 14.0209V13.8534L37.2445 13.8992L37.0457 13.9901L36.9618 14.0516L36.893 14.1201L37.015 14.1276V14.2268L36.9232 14.1889H36.786L36.7166 14.2877H36.5179L36.3807 14.2418L36.2504 14.219H36.2045H36.3192V14.1274L36.3959 14.166H36.434L36.5257 14.0516L36.579 13.9903H36.6328L36.5565 13.9294H36.7704L36.809 13.8457L36.7704 13.7692L36.7094 13.7235H36.2122L36.1283 13.7848H36.0365V13.19L35.6849 13.4495L35.5931 13.5025H35.4169L35.3787 13.4568V13.2358H35.4325V12.6794H35.0961V12.5729L34.9658 12.6259H34.7211L34.7826 12.4891V12.4278L34.7059 12.3821H34.2855L34.2318 12.3362V12.2526H34.1019L34.056 12.2068V12.161L34.1019 12.0925L34.1551 12.0466H34.3006L34.1786 11.9323H33.7806L33.6126 11.978H33.5589V12.1153L33.4442 12.1689L33.4061 12.2146V12.2754L33.3299 12.3362L33.2684 12.4049L33.2225 12.4813V12.5801H33.1463V12.6643L33.077 12.7481V12.9919L32.9857 13.0683H32.871L32.955 13.1292L33.0545 13.1671H33.1922L32.8787 13.3351V13.556L32.7484 13.7235L32.6034 13.9221L32.5575 14.0438V14.1889H32.3739V14.2954H32.4886L32.4041 14.4172L32.351 14.4629H32.2821V14.791L32.1674 15.0878L32.0911 15.3472L32.0452 15.3931L31.9765 15.4388L31.9228 15.4845V15.7435L31.9915 15.9801L31.663 16.3383L31.5483 16.4978V16.6658H31.5096V16.7423L31.4184 16.7038H31.2884V16.8031H31.4334V16.8411H31.3495L31.265 16.7875L31.1581 16.7194H30.7987V16.8103L30.7455 16.7495L30.5921 16.8489L30.4315 16.9249H29.9657V16.9632V16.8947L29.8124 16.6352L29.7055 16.5286H29.5605V16.4906L29.9271 16.094L29.7435 16.1397V16.0866H29.3539H29.4301L29.3841 15.9873L29.3001 15.8351L29.2161 15.6977V15.6597H28.9251L28.8411 15.5989L28.9559 15.469L29.0706 15.3624L29.1931 15.172L29.285 15.0878H29.3769H29.3382V15.0193H28.8411L28.765 15.0576L28.6044 14.8898V14.9963H28.1073L28.3598 14.7982L28.4896 14.661L28.5278 14.6001V14.5622L28.4286 14.4706H28.1151L27.9848 14.4021L27.9315 14.3641H28.1224L28.1761 14.3183L28.2148 14.2648L28.268 14.1504V14.1124V14.166H28.3218L28.5047 13.998L28.5893 13.8992H28.6042V13.7921V13.8306L28.5355 13.8764V13.9221H28.3218L28.1151 13.8306H27.6639L27.8167 13.7771L27.8855 13.7313V13.6476H27.8475L27.6259 13.3652H27.3885L27.2665 13.5639V13.9372L27.205 13.9903L27.1287 14.0438H27.037V13.8457H27.0751L26.6161 13.5639L26.6776 13.4037L26.7694 13.2664L26.9604 12.9919L26.8612 12.8854L26.7694 12.8167H26.601L26.5399 12.8698L26.494 12.9613V13.2285L25.3011 13.411L25.2324 13.0527H25.0106L25.1483 12.9155L25.225 12.8698H25.4696V12.7402L25.4081 12.6259L25.347 12.5271V12.4205L25.4695 12.3441L25.5308 12.2984H25.5688V12.2603H25.4159V11.8408H25.4846V11.8028H25.6679V11.7648L25.7445 11.6884H25.8363V11.6199H25.6454V11.17L25.6835 11.1092L25.7675 10.9948L25.8822 10.751L26.2109 10.4536L26.1728 10.4083H26.8685V10.3012M17.2881 11.6884H17.3261L17.2803 11.7269L17.3189 11.6884M2.23288 13.152H2.45462V13.2285H2.33212L2.22513 13.1899M35.9219 10.2482V10.3927H35.815V10.3167L35.9141 10.2326M10.9491 12.603V12.6415H10.9034M35.3711 10.3547H35.6616V10.3167L35.4556 10.3777H35.394V10.3397M36.4951 10.7436H36.6099V10.7816H36.4649V10.675M29.1699 11.5512L29.2544 11.6048V11.6582L29.1777 11.5969L29.1245 11.5209M28.8183 11.8408L28.872 11.8792V11.9172V11.8408M19.4751 12.7403H19.5894V12.7787H19.4824V12.8167V12.7482H19.521V12.7101M29.2085 11.9021H29.2773V11.9552V11.8865M37.168 11.1778V11.2158V11.1092M17.4639 13.2207L17.502 13.2815V13.2893V13.2207M10.8574 13.9829L10.9263 14.0438V14.0058H10.8881V13.9294M11.3086 14.0745H11.3774L11.2856 14.1124H11.2475V14.0745M22.1206 13.0756V13.19H22.044L22.082 13.114L22.1357 13.0376M37.1987 11.6504V11.7191V11.6812H37.2373V11.6047M21.7226 13.251L21.998 13.3352H22.2812V13.2667H22.2125H22.5791V13.5027H22.3345L22.0976 13.4496V13.4876H22.0289V13.5561H22.2505V13.5941H22.2886L22.1895 13.8229L22.0518 13.9602L21.9902 14.0361V14.1276H22.5029V13.9602L22.5947 13.9981H22.6558V14.3486L22.5791 14.2955H22.5103V14.3335L22.648 14.425L22.7167 14.4858V14.5243H22.7628V14.6003L22.4872 14.5472H22.1816V14.6158H22.2886V14.6538H22.0361V14.6918H21.998V14.7297L22.2812 14.8747L22.4341 14.9814L22.4872 15.0271V15.0728V15.035L22.5333 14.9965H22.602V15.035L22.457 15.0807V15.1492L22.8466 15.4004H22.8086L22.7475 15.492V15.5912L22.7705 15.6521H22.7246V15.7285H22.6865V15.7665H22.8008V15.8044L22.587 15.9494L22.4721 16.0255L22.3501 16.0638V16.1097L22.3955 16.1554H22.6329L22.7705 16.1169L22.9005 16.0332L22.977 15.9953H23.061L23.1069 16.079V16.1782L22.8008 16.4752L22.4492 16.7118H22.3423V16.7497H22.3043V17.0778H22.5333L22.7857 17.0394L22.7167 17.1079V17.1766L22.8164 17.2301L22.8622 17.2832V17.3368H22.5791L22.4951 17.4433V17.5042L22.6865 17.5577L23.0991 17.474H23.4126L23.4664 17.6799L23 17.7636H22.9234L22.8696 17.878L22.7856 17.9768L22.709 18.0682L22.6636 18.1826V18.2664L22.7397 18.3121H22.9463L23.1758 18.2591L23.3438 18.2206L23.4434 18.0225L23.5121 17.9237V17.8853H23.772L23.856 17.7787V17.657L23.7569 17.7329H23.6499V17.6644L23.7799 17.0091L23.9936 16.6582V16.3915L24.0395 16.277V15.6448L24.0855 15.5912H24.1694V15.3095L24.2231 15.2559L24.3379 15.1644L24.3838 15.1186V15.065L24.33 15.0194L24.4219 14.9663H24.4605V14.8978V14.9356H24.5596V14.8976H24.8579L24.7891 14.9662V15.0043L24.8881 15.0728H25.0185V15.1108H24.9805L24.8501 15.3095L24.7969 15.416V15.5076L24.9111 15.6448V15.6979L24.6974 15.7514V15.8273H24.7812L24.9575 15.8959H25.0796L25.1787 15.5684L25.2325 15.3854V15.2865L25.3931 15.3323H25.7831L25.898 15.2787H25.9819H25.7831L25.7294 15.1035H25.8594V15.1415L26.043 15.0879H26.2495V14.9434L26.3335 14.8898L26.4331 14.8062L26.5551 14.6995L26.4482 14.5472L26.4024 14.463H26.5249L26.6011 14.3486V14.1276H26.6699V14.2575L26.7315 14.3793L26.8384 14.4707H26.9684L26.8228 14.9584L26.754 15.0728L26.6777 15.1721L26.5781 15.2408H26.4639V15.492L26.5014 15.416V15.3776V15.5683L26.4175 15.6141H26.1806V15.7972L26.3945 15.7436L26.2109 15.9802L26.1196 16.1169L26.081 16.1705H26.2188V16.2542L26.1196 16.3306H26.0049V16.4066H26.1957V16.5137L25.9741 16.6051H25.8056L25.7446 16.5287V16.3535L25.248 16.1476V16.1856H25.2861V16.4144L25.3394 16.4601H25.2481V16.4981H25.2094L25.2935 16.5974L25.4004 16.651H25.6606V16.8947L25.5537 16.9406V16.9784H25.7754V17.1766H25.5156V17.329H25.6456L25.7676 17.3673H25.8135L25.561 17.4283H25.2631L25.2173 17.3903H25.1104V17.71V17.6341H25.332V17.6721L25.2861 17.7636V17.8093H25.332L25.2782 17.855L25.1944 17.9009L25.1176 17.9466L25.0718 18.0381L24.9726 18.1677L24.8651 18.2819L24.8199 18.32H24.7812V18.358L24.8271 18.3963H24.7505H25.2705V18.4343L25.1636 18.5332L25.0645 18.6017L24.7812 18.8534H24.2769L24.2231 18.907V18.9907H24.8428V19.349L24.7812 19.4633H24.6665V19.8216H24.7051H24.5136L24.3228 20.0504L24.2153 20.1648L24.1621 20.2026H24.1084V20.1341H24.0166L23.9556 20.1877H23.7339V20.4158L23.627 20.4616V20.1798V20.2256H23.3594V20.1876H23.0991L23.0532 20.2713L22.9692 20.3701L22.8775 20.4616H22.3725V20.2256H22.5259L22.4492 20.0882V20.0197L22.518 20.0805H22.6099V20.0425L22.7167 19.9204L22.7779 19.8673H22.8466V19.7988H22.4872L22.1127 19.8595V19.898H22.0748V19.936H22.1127V19.8901H22.2197V20.1112L22.105 20.0576H21.9521V20.2026H21.7226L21.9829 19.8367L22.1206 19.4253H22.0519L21.8374 19.5013H21.4478V19.5397L21.3253 19.326L21.272 19.2116V18.8383L21.2412 18.7011V18.6631H21.5317V18.701V18.5638H21.6005V18.4421H21.876L22.2354 18.0153V17.9617H22.1816V17.9237L22.1206 17.9768H22.082L22.021 17.9311H21.8071L21.6537 17.9846L21.501 18.0225V18.1826L21.2564 18.2819L21.2031 18.1676H21.0884L21.2412 17.9388L21.3022 17.7179H21.4091V17.5577H21.6694L21.7915 17.6113H21.8452L21.9751 17.4511L22.0518 17.3747V17.1766H21.4478L21.3022 17.2451V17.1766H21.2641V17.1386L21.3253 17.07V17.032H21.3711V16.9635L21.0576 16.8791H20.7364L20.5605 16.925H20.5074V16.9634H20.4995V16.8183L20.6601 16.7498L20.7441 16.7039H20.7822L20.7441 16.6125V16.5745L20.8359 16.5287L20.958 16.4144H21.1186V16.4601H21.1875V16.4221L21.3175 16.3077L21.3633 16.2313V16.1553L21.2564 16.2011V16.1326L21.3633 16.0868H21.4858V15.8123L21.2792 15.9188L21.1801 16.003V16.094H21.0195V15.9037H20.6295V15.8352H20.6675L20.7362 15.7587L20.8207 15.6979L20.9126 15.6521H21.0117V15.6141L20.683 15.5377H20.3389L20.125 15.6063H20.0562V15.6449H20.125H19.9716L19.9258 15.5377L20.0713 15.4691H20.2471V15.3625L19.6201 15.3167V15.0879L19.727 15.0422L19.8955 15.0043H20.1939L20.2701 15.0422H20.354V14.8899H20.0176V14.974H20.2779V14.9055L20.7822 15.1415L20.851 15.035L20.9355 14.8747V14.6995H20.5303L20.3848 14.5851L20.3081 14.5315H20.1939V14.4329L20.293 14.3793L20.3468 14.3413L20.7213 14.3034H20.813L20.8896 14.2648L20.958 14.1277V14.059H21.0268L21.2261 14.2955L21.31 14.7146L21.1724 14.7605V14.8368H21.2261L21.5317 14.9206L21.5855 14.8213H21.6314V14.6461L21.7076 14.5165V14.4098L21.7226 14.219L21.6006 14.0209L21.5088 13.9445V13.8457L21.5776 13.7999H21.7226V13.762H21.356V13.6933H21.478L21.7154 13.4568M19.3834 13.6627H19.4293V13.7007L19.3145 13.6397M33.1695 12.3977L33.2534 12.4735V12.565H33.1846L33.1309 12.4205M22.3501 13.6169H22.4644V13.6933H22.4263L22.3423 13.594M11.0181 14.7603V14.8898V14.8211M33.0469 12.6794H33.1924H33.0239M25.0259 13.4416H25.5459V13.5483L25.4004 13.632L25.332 13.6856V13.7235L25.477 13.8077L25.5459 13.8608H25.3164V14.1202L25.2784 14.1581L25.1559 14.2418L25.0185 14.3033H24.9111H24.9498V14.4628H24.4447V14.3942L24.5059 14.3334H24.5825L24.4829 14.0516H24.9951L25.0874 14.0131L25.1484 13.9601V13.9221L25.0259 13.8457H24.7354H24.7812V13.4875L24.8271 13.4416H25.0029M26.104 13.3652H26.2495H26.0963M25.9434 13.5639V13.6169H26.104L26.1655 13.6548L26.2339 13.7541V13.8379H25.6758V13.7921L25.7446 13.7391L25.875 13.6855L25.8135 13.6247L25.8822 13.5483M22.3574 13.9221V13.9981V13.9294M38.2925 12.527V12.5727H38.2463M38.4679 12.5727H38.5601V12.6413H38.4835V12.6029H38.4454V12.5269M38.3078 12.6486H38.5445V12.7558H38.4679V12.603M16.6612 14.7295H16.8062V14.7681H16.6691V14.7295H16.7071V14.6917M39.0566 12.603H39.1944V12.6415H39.126V12.7559H39.0874V12.6107M25.8056 14.0437L25.9741 14.0817H26.0659H25.8364V14.0132M38.9268 12.8016H39.0264V12.8395H38.9268M38.5674 12.9082H38.667H38.5522M38.2769 13.0834H38.3301H38.1851V13.007L38.2539 12.969M16.623 15.1263V15.172L16.5845 15.1336M18.4042 14.9662H18.4731L18.3969 15.027H18.3511H18.4199V14.989M22.8164 14.6838L22.8926 14.7451H22.9385V14.8897H22.6787V14.9813H22.6327V14.8517L22.8315 14.6157M11.2554 15.8199H11.3316H11.2935M26.1426 14.5086H26.2495L26.0586 14.8139L25.9819 14.8824L25.9209 14.9282L25.875 14.989V15.0878L25.7446 15.1263H25.6455L25.5689 15.0727L25.523 14.9963V14.8367H25.6304V14.7982L25.6914 14.7451H25.8442L25.8901 14.6838L25.9511 14.6307L26.0811 14.5471M22.4111 14.9662H22.4874V15.0193V14.8897M25.0796 14.7145H25.2554H25.2173L25.1485 14.7681H25.1025L25.0566 14.6609V14.623M24.9575 14.7374L25.0796 14.791H25.2173V14.8595L24.9341 14.9282V14.7067M2.38575 17.085V17.1764V17.1001M19.6739 15.5761H19.8189V15.652H19.7808V15.576M37.2676 13.9221H37.3824V13.9903H37.3056L37.2598 13.9294M20.209 15.576H20.079H20.209ZM20.2623 15.576H20.3389H20.3008M25.9433 15.1034L25.997 15.1492V15.0727M20.0103 15.652H20.1094H19.9946M28.7271 14.8289H28.8032V14.8746L28.7954 14.8898L28.7423 14.8367M25.2554 15.2022H25.3241L25.1104 15.2558V15.2178L25.2554 15.172M4.28162 17.3366H4.35838V17.3901V17.3138M42.5513 13.8228H42.62L42.5054 13.762M20.3008 16.0408H20.7749V16.0789H20.6524V16.1168L20.4077 16.0789H20.1709H20.1939V16.0331M28.6045 15.2708H28.6733L28.6122 15.3321V15.2938M16.0494 16.475H16.187V16.5135H16.1411V16.475L16.0571 16.3762M46.4888 13.9601H46.749H46.7105V14.1274L46.5728 14.0745H46.5044L46.5728 14.0286M20.6373 16.4142V16.46H20.5991M45.166 14.3942H45.2041H45.1509M47.8955 14.1276V14.3792H47.8271V14.3106L47.7812 14.204L47.8809 14.1202M48.5381 14.0589L48.5919 14.1202V14.1962L48.5459 14.0896M48.8056 14.0896H48.9126V14.166H48.8364V14.1274L48.8745 14.0896M3.86912 18.3806V18.4878V18.4036M16.103 17.2451H16.1793V17.2987V17.2222M23.2367 16.5593H23.3515H23.1221M20.2319 16.8718H20.3466V16.9783H20.3081V16.7875M3.96088 18.5558H4.10588H3.93012V18.4799M22.9464 16.6737H22.9923V16.7422H22.9155V16.7802H22.8775V16.6352M47.9419 14.3033L48.0791 14.4327L48.1254 14.5086V14.6079H48.1787L48.0947 14.6459H47.9878V14.5773L48.079 14.3562M48.5153 14.3183H48.6221L48.752 14.4172L48.8896 14.5163H49.02L48.8745 14.5929L48.8058 14.6537V14.7451L48.7598 14.8897V15.0576H48.561L48.4234 14.7831L48.5761 14.6307L48.6299 14.5393V14.44L48.5381 14.3792L48.4614 14.3106V14.1733M29.2775 16.2618H29.4303L29.3692 16.4142H29.3307V16.201M48.9054 14.3869H49.0124H48.9356L48.8595 14.2877M49.4714 14.2268H49.5168V14.3942L49.4255 14.3334H49.2492L49.3336 14.2418H49.4557V14.204M20.4158 17.1764H20.6374V17.2831L20.5074 17.2451L20.4536 17.2071L20.4158 17.1764ZM22.9615 16.9706H23.1144L22.9615 16.9098M15.9502 17.6111V17.6491V17.5805M20.8971 17.1843L20.9509 17.2222H20.9581L20.6066 17.4739L20.4996 17.5196H20.3009L20.194 17.634L20.278 17.5655L20.316 17.5268V17.4811H20.3849V17.5576H20.4307V17.4739H20.4689V17.5119H20.6144L20.6831 17.4281H20.7901V17.3901M49.0811 14.7067H49.1881V14.8139H49.1194L49.0734 14.7525M44.1418 15.2559L44.1955 15.2938V15.2251M31.6325 16.5973V16.6737H31.5865V16.6051M48.3237 15.1412V15.1793H48.2784V15.1032M46.3209 15.3623V15.4387V15.3471M47.0625 15.37L47.1157 15.408V15.332M49.4785 15.1106H49.746V15.1491L49.4556 15.2099V15.0649M48.1176 15.225V15.4002H48.041V15.2176M49.2798 15.1032V15.1491H49.2339V15.1948M4.022 19.5927H4.07525V19.6306M20.6602 18.0609H20.7822L20.8819 18.1294L20.9506 18.2284V18.3578H20.729V18.2892L20.7822 18.2361L20.7134 18.1676H20.6216V18.0911L20.6601 18.053M11.4082 19.1735H11.5151H11.4614M15.8964 18.7545H15.9654L16.0191 18.8075V18.9526V18.9297H15.9804L15.9116 18.8611H15.8276L15.8886 18.7774M3.97613 19.9203H4.05225V20.1032H3.93012V20.0044L3.98388 19.9203M24.8809 18.9449H24.9575V18.9984V18.9297M21.1035 19.4096H21.2105V19.4632L21.0958 19.4023M21.3022 19.9888H21.4321L21.3253 20.0347H21.2564V19.9203M22.0748 20.2785H22.2426L22.0976 20.3321L21.96 20.3778V20.3013L22.021 20.2253M3.57075 23.7241H3.6475V23.7621H3.57075M16.7221 26.9327H16.791L16.7529 26.8642M1.84288 30.3931H1.98038V30.4392L1.88863 30.4008L1.84288 30.3931ZM16.1182 29.4785L16.1949 29.532H16.2407H16.1719L16.0801 29.4024M16.0801 29.6084H16.1489V29.6614V29.5855M1.292 31.4069H1.48337V31.4755H1.38375L1.292 31.4147M15.8735 30.0353H15.9502V30.0961V30.0196M15.2846 31.5519H15.3994V31.6586H15.3228L15.2774 31.5899M14.9482 32.6953H15.0551V32.8092H15.0938L15.025 32.9011V32.9465H14.8872L14.9331 32.8705L14.8872 32.7333M14.1835 34.2577V34.3341H14.1455V34.2651L14.2142 34.2197M11.6759 35.645V35.7515L11.6379 35.7058H11.6759" fill="white"/>
<path d="M76.9819 20.6676V20.0883H76.8594C75.1929 20.0883 75.1163 19.7681 75.0859 18.5259L74.9942 15.8044L74.8565 10.2635C74.8565 9.75281 74.9404 9.50111 75.1392 9.31819C75.4969 9.15177 75.8942 9.08837 76.2862 9.13514H76.4087V8.43423L74.7495 8.47224L73.2198 8.43423V8.51024C72.2569 10.7054 71.171 12.8933 70.1158 15.0043L68.6397 18.0075L64.0523 8.43423L62.8594 8.47224L60.8945 8.43423V9.13514H61.0167C61.407 9.08603 61.8022 9.17512 62.1333 9.38685C62.3394 9.55469 62.4239 9.88228 62.4239 10.4844L62.2477 15.439V17.5957C62.1788 19.8824 61.3989 20.0883 60.2979 20.0883H60.1758V20.7898H64.9088V20.0883H64.7863C64.3263 20.1524 63.858 20.0613 63.456 19.8294C63.2265 19.6235 63.1348 19.2117 63.1348 18.358V17.2682C63.1348 17.2682 63.2495 12.1691 63.2648 11.4219C63.4247 11.7309 63.5827 12.041 63.7388 12.352C65.1455 15.1265 66.5988 17.9998 67.8755 20.8734V20.942H68.3648V20.8584C68.5877 20.278 68.8429 19.7106 69.1294 19.1587L72.9985 11.0792C72.9985 11.8945 73.1128 18.8992 73.1128 18.8992C73.1128 19.6615 72.9297 19.8523 72.7232 19.9662C72.3169 20.0995 71.887 20.1463 71.4614 20.1034H71.3238V20.8049H76.9819V20.6676ZM86.211 14.6612C85.6569 14.1902 84.9584 13.9215 84.2305 13.8993C84.8305 13.6453 85.3492 13.2326 85.7305 12.7059C86.1122 12.1794 86.3418 11.5587 86.3945 10.9113C86.4108 10.3917 86.2647 9.88 85.9765 9.44681C85.6883 9.01362 85.2722 8.68038 84.7858 8.49317C84.4629 8.36893 84.1178 8.31255 83.772 8.32757C82.1588 8.32757 81.2178 9.24953 80.3159 10.2712L80.2472 10.3549L80.6597 10.8733L80.7593 10.774C81.0098 10.4381 81.3301 10.1602 81.6983 9.95916C82.0664 9.75772 82.4738 9.63786 82.8927 9.60777C83.1496 9.59786 83.4058 9.64232 83.6443 9.73822C83.8828 9.83411 84.0982 9.97927 84.2764 10.1641C84.6259 10.5582 84.8096 11.0715 84.7892 11.5971C84.7892 13.1215 83.3129 14.0747 81.8604 14.1964H81.7457V14.89H81.8755C82.3435 14.8147 82.8218 14.8347 83.2818 14.9488C83.7418 15.0626 84.1738 15.2683 84.5518 15.5534C84.7945 15.8078 84.9813 16.11 85.1002 16.4406C85.2185 16.7716 85.266 17.1236 85.2398 17.474C85.2634 17.8324 85.2117 18.1916 85.0879 18.5288C84.9644 18.8662 84.7716 19.1742 84.522 19.4331C84.2724 19.6921 83.9714 19.8963 83.6382 20.0328C83.305 20.1692 82.9469 20.2348 82.5869 20.2256C82.2361 20.2436 81.8871 20.1649 81.5782 19.9983C81.2692 19.8316 81.0124 19.5832 80.8359 19.2803C80.6289 19.0058 80.4537 18.7697 80.1475 18.7697C79.9688 18.7755 79.799 18.8488 79.6724 18.9747C79.5462 19.1009 79.4728 19.2701 79.4668 19.4482C79.4668 20.0732 80.5757 21.0257 82.2349 21.0257C85.752 21.0257 87.0597 18.4037 87.0597 16.7576C87.0768 16.368 87.0099 15.9792 86.8635 15.6176C86.717 15.2559 86.4946 14.9298 86.211 14.6612ZM90.3018 23.5642C90.8127 23.5005 91.2873 23.2675 91.6494 22.9026C92.0113 22.5376 92.2395 22.0619 92.2974 21.5519C92.2974 20.8885 91.9683 20.6982 91.3262 20.6982C91.1924 20.7004 91.0596 20.6757 90.9355 20.6257C90.8113 20.5762 90.6981 20.5026 90.6025 20.4092C90.5074 20.3153 90.4318 20.2036 90.38 20.0806C90.3283 19.9576 90.3017 19.8255 90.3018 19.6922C90.3018 18.9678 90.9288 18.6325 91.5864 18.6325C92.0832 18.6845 92.541 18.9246 92.8654 19.3033C93.1898 19.682 93.356 20.1703 93.3297 20.6676C93.3297 22.6418 91.9839 23.6328 90.4244 23.9755L90.3018 23.5642ZM100.479 10.2635C100.479 9.05141 99.8135 9.0286 98.896 9.0134V8.5637H103.767V9.01353C102.841 9.01353 102.176 9.05141 102.176 10.2633V18.9678C102.176 20.1799 102.841 20.195 103.767 20.2105V20.6676H98.896V20.2256C99.8135 20.2256 100.479 20.2256 100.479 18.9829V10.2635ZM106.917 15.0501C106.917 14.4021 106.726 14.2348 105.908 13.8993V13.5714C106.686 13.3337 107.452 13.0564 108.202 12.7405C108.247 12.7405 108.301 12.7789 108.301 12.9157V14.044C109.133 13.2895 110.192 12.8311 111.314 12.7405C112.789 12.7405 113.317 13.8152 113.317 15.1645V19.6386C113.317 20.2105 113.699 20.2105 114.181 20.2105H114.494V20.6676H110.771V20.2256H111.084C111.574 20.2256 111.925 20.2256 111.925 19.6537V15.1494C111.925 14.1661 111.314 13.6779 110.319 13.6779C109.59 13.7905 108.898 14.0754 108.301 14.5088V19.6386C108.301 20.2105 108.683 20.2105 109.172 20.2105H109.486V20.6676H105.762V20.2256H106.076C106.565 20.2256 106.909 20.2256 106.909 19.6537L106.917 15.0501ZM122.829 19.1201C122.428 19.6482 121.917 20.0834 121.331 20.3954C120.744 20.7073 120.097 20.8887 119.434 20.927C118.512 20.8661 117.647 20.4642 117.007 19.8002C116.368 19.1357 116.001 18.2571 115.978 17.3367C115.953 16.7526 116.046 16.1695 116.251 15.6215C116.455 15.0736 116.767 14.572 117.169 14.1462C117.571 13.7201 118.054 13.3783 118.59 13.1408C119.126 12.9034 119.704 12.775 120.29 12.7633C121.177 12.7633 122.637 13.0378 122.637 13.9603C122.647 14.0538 122.637 14.1483 122.609 14.238C122.581 14.3277 122.534 14.4108 122.473 14.4821C122.411 14.5532 122.336 14.6111 122.251 14.6523C122.166 14.6938 122.074 14.7176 121.98 14.7225C121.215 14.7225 121.284 13.3197 119.648 13.3197C118.119 13.3197 117.354 14.9814 117.354 16.3C117.354 18.0839 118.501 19.6615 120.413 19.6615C121.195 19.6558 121.948 19.3659 122.53 18.8462L122.829 19.1201ZM125.62 19.7987C125.62 19.4955 125.741 19.2048 125.956 18.9904C126.171 18.776 126.462 18.6554 126.767 18.6553C127.071 18.6553 127.362 18.7762 127.578 18.9903C127.792 19.2048 127.913 19.4956 127.913 19.7987C127.913 20.1018 127.792 20.3926 127.578 20.6071C127.362 20.8214 127.071 20.9419 126.767 20.9421C126.462 20.942 126.171 20.8215 125.956 20.6071C125.849 20.501 125.765 20.375 125.707 20.2363C125.649 20.0975 125.62 19.9489 125.62 19.7987Z" fill="white"/>
</g>
<defs>
<clipPath id="clip0_2276_1234">
<rect width="128" height="35.7173" fill="white" transform="translate(0 0.0800781)"/>
</clipPath>
</defs>
</svg>
