<svg width="176" height="38" viewBox="0 0 176 38" fill="none" xmlns="http://www.w3.org/2000/svg">
<g clip-path="url(#clip0_2069_4980)">
<path d="M32.7097 14.9148L27.3549 8.52093L23.4045 3.8062C23.1144 3.4585 22.7954 3.1362 22.4508 2.84281C22.2267 2.65375 21.9931 2.47629 21.7509 2.31112C21.4716 2.12521 21.1811 1.95675 20.8811 1.8067C19.7608 1.24853 18.525 0.963376 17.2741 0.974431C16.0233 0.985485 14.7927 1.29243 13.6824 1.87032C13.4267 2.00321 13.1787 2.15037 12.9394 2.31112C12.6965 2.47517 12.4628 2.65268 12.2395 2.84281C11.8942 3.13616 11.5744 3.45846 11.2836 3.8062L7.33316 8.52093L1.97832 14.9148C-2.3504 20.0794 1.31237 27.9638 8.03989 27.9638H26.6504C33.378 27.9638 37.0362 20.0794 32.7097 14.9148ZM26.6504 25.8211H8.04215C6.94341 25.8219 5.86731 25.5078 4.94053 24.9158C4.01374 24.3237 3.27483 23.4785 2.81078 22.4795C2.34672 21.4805 2.17683 20.3693 2.32109 19.2767C2.46535 18.1841 2.91777 17.1555 3.62509 16.3122L10.142 8.53229H24.5529L31.0698 16.3122C31.7761 17.1558 32.2277 18.1842 32.3715 19.2765C32.5152 20.3688 32.3452 21.4795 31.8813 22.4782C31.4174 23.4768 30.6789 24.3219 29.7527 24.9141C28.8265 25.5063 27.751 25.8209 26.6527 25.8211H26.6504Z" fill="white"/>
<path d="M4.08945 28.6726C3.04521 28.1 1.72689 28.4999 0.666793 30.4381C-0.393301 32.3762 -0.0263459 34.6211 0.641876 34.9824C1.3101 35.3437 3.38951 34.4484 4.44961 32.5103C5.5097 30.5721 5.13369 29.2475 4.08945 28.6726Z" fill="white"/>
<path d="M34.0213 30.4381C32.9634 28.4999 31.6428 28.1 30.5986 28.6726C29.5544 29.2452 29.1806 30.5767 30.2407 32.5171C31.3008 34.4575 33.3621 35.3664 34.0484 34.9892C34.7348 34.612 35.0813 32.3785 34.0213 30.4381Z" fill="white"/>
<path d="M17.3452 29.9336C16.1537 29.9336 15.1887 30.9197 15.1887 33.1305C15.1887 35.3413 16.5818 37.1341 17.3452 37.1341C18.1085 37.1341 19.5016 35.3413 19.5016 33.1305C19.5016 30.9197 18.5344 29.9336 17.3452 29.9336Z" fill="white"/>
<path d="M21.0487 13.4491C20.056 12.5207 18.7428 12.015 17.3858 12.0384C16.0287 12.0618 14.7337 12.6125 13.7734 13.5746C12.8131 14.5367 12.2625 15.8351 12.2375 17.1963C12.2125 18.5575 12.715 19.8753 13.6394 20.8722C14.1225 21.3752 14.7007 21.7766 15.3402 22.0528C15.9798 22.3291 16.6678 22.4747 17.3641 22.4811C18.0603 22.4876 18.7509 22.3547 19.3954 22.0904C20.0399 21.826 20.6254 21.4354 21.1177 20.9415C21.61 20.4475 21.9992 19.8601 22.2626 19.2135C22.5259 18.5669 22.6581 17.8741 22.6515 17.1757C22.6449 16.4773 22.4995 15.7872 22.2239 15.1458C21.9483 14.5043 21.548 13.9245 21.0464 13.44L21.0487 13.4491Z" fill="white"/>
<path d="M47.089 27.0073H43.3356L45.6868 7.63717H49.891L54.5232 21.7813L59.1396 7.62354H63.346L65.7086 27.0073H61.9529L60.5508 13.6016L56.1587 27.0073H52.9285L48.5455 13.6016L47.089 27.0073Z" fill="white"/>
<path d="M79.9541 12.5473H83.0053V27.0074H79.9406L79.6937 25.3101C79.1558 25.9355 78.4969 26.445 77.7569 26.8074C76.9788 27.1773 76.1263 27.3631 75.2653 27.3505C73.9866 27.3585 72.7312 27.0075 71.641 26.3371C70.535 25.671 69.6227 24.7253 68.9953 23.5946C68.3527 22.4325 68.0156 21.1255 68.0156 19.7967C68.0156 18.4678 68.3527 17.1608 68.9953 15.9988C69.6253 14.87 70.537 13.9249 71.641 13.2563C72.7309 12.5852 73.9865 12.2341 75.2653 12.2429C76.1369 12.2292 76.9998 12.4182 77.7864 12.795C78.5314 13.1605 79.193 13.6765 79.7299 14.3105L79.9541 12.5473ZM77.6595 23.4537C78.285 23.0975 78.803 22.5786 79.1591 21.9518C79.5291 21.2945 79.7183 20.5503 79.7072 19.7955C79.7171 19.0358 79.5281 18.2868 79.1591 17.6234C78.8044 16.9902 78.2865 16.4644 77.6595 16.101C77.0255 15.732 76.304 15.5413 75.5711 15.5489C74.8452 15.5407 74.1308 15.7316 73.5052 16.101C72.8859 16.4643 72.3775 16.9908 72.0352 17.6234C71.6728 18.289 71.4879 19.0372 71.4983 19.7955C71.4873 20.5511 71.6723 21.2965 72.0352 21.9586C72.3753 22.5852 72.8818 23.1051 73.4984 23.4605C74.1274 23.8224 74.8416 24.0083 75.5665 23.999C76.2997 24.0087 77.0222 23.822 77.6595 23.4583V23.4537Z" fill="white"/>
<path d="M97.5159 12.5334H100.415V24.8576C100.441 26.1815 100.162 27.4935 99.5976 28.6907C99.0601 29.7953 98.1964 30.7069 97.124 31.3014C96.0202 31.9331 94.6611 32.2482 93.0468 32.2467C91.9296 32.2404 90.8175 32.097 89.7351 31.8195C88.7565 31.5994 87.8195 31.2227 86.9603 30.7039L88.265 27.9591C89.6225 28.7197 91.1499 29.123 92.7047 29.1315C93.5336 29.161 94.3556 28.9705 95.0877 28.5794C95.701 28.2381 96.1951 27.7163 96.5034 27.0843C96.8159 26.4192 96.971 25.6905 96.9564 24.9553V24.6236C96.4323 25.1533 95.8097 25.5747 95.1239 25.8642C94.3892 26.1669 93.6008 26.3168 92.8066 26.305C91.5841 26.3214 90.3787 26.015 89.3115 25.4166C88.2746 24.8372 87.4135 23.9868 86.8198 22.9558C86.2068 21.8828 85.8938 20.6637 85.9138 19.4272C85.9069 18.1753 86.2238 16.9431 86.8334 15.8508C87.4221 14.7674 88.2806 13.8554 89.3251 13.2037C90.3666 12.549 91.5731 12.2069 92.8021 12.2176C93.6509 12.2032 94.492 12.3819 95.2621 12.7402C95.9879 13.0905 96.6335 13.588 97.158 14.2012L97.5159 12.5334ZM95.2213 22.7081C95.7961 22.3793 96.2712 21.9003 96.5963 21.3221C96.9273 20.7315 97.0976 20.0638 97.0901 19.3863C97.0979 18.6841 96.928 17.9914 96.5963 17.3731C96.2747 16.7759 95.797 16.2779 95.2145 15.9326C94.6137 15.5754 93.9263 15.3915 93.228 15.4009C92.5354 15.3901 91.8533 15.5718 91.2573 15.9258C90.6832 16.2684 90.2133 16.7618 89.8982 17.3527C89.5716 17.9596 89.404 18.6398 89.4112 19.3295C89.4009 20.018 89.5687 20.6975 89.8982 21.3017C90.2169 21.8828 90.6865 22.3665 91.2573 22.7013C91.8554 23.0493 92.5366 23.2276 93.228 23.2171C93.9234 23.2271 94.609 23.0514 95.2145 22.7081H95.2213Z" fill="white"/>
<path d="M104.869 9.78397C104.544 9.59703 104.274 9.32838 104.085 9.00461C103.901 8.69643 103.804 8.34376 103.804 7.98442C103.804 7.62306 103.901 7.26842 104.085 6.95741C104.274 6.6301 104.544 6.35704 104.869 6.16442C105.214 5.96676 105.604 5.86279 106.001 5.86279C106.398 5.86279 106.789 5.96676 107.134 6.16442C107.458 6.35704 107.728 6.6301 107.918 6.95741C108.101 7.26842 108.198 7.62306 108.198 7.98442C108.199 8.34376 108.102 8.69643 107.918 9.00461C107.728 9.32838 107.458 9.59703 107.134 9.78397C106.787 9.97736 106.398 10.0789 106.001 10.0789C105.605 10.0789 105.215 9.97736 104.869 9.78397ZM107.734 27.0069H104.23V12.5333H107.734V27.0069Z" fill="white"/>
<path d="M114.278 26.3755C113.15 25.7122 112.217 24.7603 111.576 23.6171C110.93 22.4548 110.592 21.1463 110.592 19.8158C110.592 18.4853 110.93 17.1769 111.576 16.0145C112.228 14.8569 113.178 13.8959 114.327 13.2317C115.475 12.5675 116.781 12.2244 118.106 12.2382C119.097 12.2287 120.081 12.4084 121.006 12.7676C121.873 13.1083 122.67 13.6067 123.357 14.2377L121.597 16.7598C121.14 16.3519 120.621 16.0211 120.059 15.7805C119.495 15.5537 118.892 15.441 118.285 15.4487C117.543 15.4436 116.814 15.6416 116.176 16.0213C115.532 16.4014 115.001 16.9464 114.636 17.6005C114.253 18.2815 114.056 19.052 114.065 19.834C114.058 20.5936 114.25 21.3417 114.623 22.0027C114.996 22.6638 115.537 23.2144 116.19 23.599C116.823 23.9775 117.548 24.1755 118.285 24.1716C118.895 24.1789 119.499 24.0662 120.066 23.8398C120.626 23.6045 121.147 23.2842 121.61 22.8901L123.357 25.3894C122.673 26.0238 121.875 26.5219 121.006 26.8572C120.089 27.2171 119.113 27.3998 118.129 27.3957C116.776 27.4147 115.445 27.0619 114.278 26.3755Z" fill="white"/>
<path d="M128.007 27.0073V7.6258H135.482C136.72 7.59888 137.945 7.87825 139.05 8.43923C140.036 8.94844 140.856 9.73069 141.412 10.6932C141.979 11.6994 142.266 12.8394 142.244 13.9947C142.27 15.1932 141.993 16.3789 141.44 17.4415C140.913 18.4229 140.104 19.2226 139.118 19.7364C138.006 20.3022 136.771 20.5817 135.525 20.5498H131.731V27.0073H128.007ZM135.235 17.1779C135.828 17.189 136.414 17.0515 136.941 16.778C137.423 16.5235 137.825 16.1386 138.101 15.667C138.387 15.172 138.532 14.6076 138.52 14.0356C138.532 13.4809 138.389 12.9339 138.108 12.4564C137.831 11.9996 137.428 11.6333 136.948 11.4021C136.413 11.1465 135.827 11.019 135.235 11.0295H131.731V17.1779H135.235Z" fill="white"/>
<path d="M147.522 26.3824C146.382 25.7245 145.434 24.778 144.774 23.6376C144.101 22.4869 143.752 21.1748 143.764 19.8408C143.764 17.8154 144.566 15.873 145.994 14.4408C147.421 13.0087 149.358 12.2041 151.377 12.2041C153.396 12.2041 155.332 13.0087 156.76 14.4408C158.188 15.873 158.99 17.8154 158.99 19.8408C158.999 21.1702 158.654 22.4778 157.991 23.6289C157.328 24.78 156.371 25.7328 155.219 26.3892C154.041 27.0624 152.705 27.4098 151.35 27.3957C150.006 27.4084 148.684 27.0584 147.522 26.3824ZM153.465 23.5285C154.091 23.1583 154.606 22.6272 154.958 21.9903C155.319 21.324 155.509 20.5777 155.509 19.8192C155.509 19.0608 155.319 18.3145 154.958 17.6482C154.604 17.0091 154.086 16.4765 153.459 16.1054C152.828 15.7349 152.111 15.5397 151.38 15.5397C150.65 15.5397 149.932 15.7349 149.302 16.1054C148.678 16.4788 148.164 17.0111 147.812 17.6482C147.441 18.3137 147.251 19.0651 147.261 19.8272C147.246 20.5895 147.433 21.3421 147.802 22.0085C148.155 22.6426 148.669 23.1712 149.293 23.5399C149.926 23.9047 150.644 24.0966 151.375 24.0966C152.105 24.0966 152.823 23.9047 153.456 23.5399L153.465 23.5285Z" fill="white"/>
<path d="M172.472 6.66211H176.004V27.007H172.946L172.699 25.3097C172.161 25.9352 171.502 26.4446 170.762 26.8071C169.984 27.1769 169.131 27.3627 168.27 27.3501C166.992 27.3581 165.736 27.0071 164.646 26.3367C163.541 25.67 162.629 24.7244 162 23.5942C161.358 22.4322 161.021 21.1252 161.021 19.7963C161.021 18.4675 161.358 17.1605 162 15.9984C162.631 14.8701 163.543 13.9252 164.646 13.2559C165.736 12.5848 166.992 12.2338 168.27 12.2425C169.057 12.2227 169.839 12.371 170.564 12.6778C171.288 12.9846 171.94 13.4427 172.475 14.0216L172.472 6.66211ZM170.66 23.4579C171.286 23.1023 171.804 22.5833 172.16 21.956C172.53 21.2987 172.719 20.5545 172.708 19.7997C172.718 19.04 172.529 18.291 172.16 17.6275C171.806 16.9939 171.288 16.4679 170.66 16.1052C170.026 15.7362 169.305 15.5454 168.572 15.5531C167.847 15.5457 167.135 15.7366 166.51 16.1052C165.891 16.4685 165.383 16.995 165.04 17.6275C164.678 18.2932 164.493 19.0414 164.503 19.7997C164.492 20.5552 164.677 21.3007 165.04 21.9628C165.38 22.5894 165.887 23.1092 166.504 23.4647C167.133 23.8266 167.847 24.0125 168.572 24.0032C169.303 24.0103 170.023 23.8221 170.658 23.4579H170.66Z" fill="white"/>
</g>
<defs>
<clipPath id="clip0_2069_4980">
<rect width="176" height="36.0515" fill="white" transform="translate(0 0.974121)"/>
</clipPath>
</defs>
</svg>
