<svg width="176" height="38" viewBox="0 0 176 38" fill="none" xmlns="http://www.w3.org/2000/svg">
<g clip-path="url(#clip0_2392_3482)">
<path d="M23.4177 3.79559L32.7255 14.9466C37.0554 20.1332 33.3917 28.0454 26.6623 28.0454H8.05357C1.32651 28.0454 -2.33724 20.1332 1.99264 14.9466L11.3004 3.79559C12.0448 2.90826 12.9726 2.19514 14.0191 1.70597C15.0655 1.21681 16.2053 0.963379 17.3591 0.963379C18.5128 0.963379 19.6527 1.21681 20.6991 1.70597C21.7455 2.19514 22.6733 2.90826 23.4177 3.79559Z" fill="#388E3C"/>
<path d="M27.3694 8.52822L23.4179 3.79549C22.6735 2.90699 21.7453 2.19283 20.6983 1.70294C19.6512 1.21305 18.5105 0.959229 17.3558 0.959229C16.2012 0.959229 15.0605 1.21305 14.0134 1.70294C12.9664 2.19283 12.0382 2.90699 11.2938 3.79549L7.34229 8.52822H27.3694Z" fill="#2A5B67"/>
<path d="M1.85669 25.0527C2.59241 25.9966 3.53398 26.7574 4.60854 27.2763C5.6831 27.7952 6.86184 28.0583 8.05357 28.0452H26.6691C27.86 28.0572 29.0378 27.7936 30.1114 27.2748C31.1851 26.7559 32.126 25.9957 32.8615 25.0527H1.85669Z" fill="#2A5B67"/>
<path d="M4.45563 32.616C3.39752 34.5638 1.3334 35.4761 0.646876 35.0975C-0.0396521 34.7189 -0.386316 32.4768 0.674064 30.5358C1.73444 28.5948 3.05312 28.1866 4.09764 28.7636C5.14216 29.3407 5.51601 30.6681 4.45563 32.616Z" fill="#FF9A0D"/>
<path d="M30.2581 32.616C31.3185 34.5638 33.3826 35.4761 34.0691 35.0975C34.7557 34.7189 35.1001 32.4768 34.0419 30.5358C32.9838 28.5948 31.6629 28.1866 30.6184 28.7636C29.5738 29.3407 29.1955 30.6681 30.2581 32.616Z" fill="#FF9A0D"/>
<path d="M19.5117 33.2433C19.5117 35.4648 18.1364 37.2644 17.3547 37.2644C16.573 37.2644 15.2 35.4648 15.2 33.2433C15.2 31.0218 16.1652 30.0342 17.3547 30.0342C18.5442 30.0342 19.5117 31.0127 19.5117 33.2433Z" fill="#FF9A0D"/>
<path d="M4.09756 28.7591C3.08477 28.2003 1.81594 28.5629 0.773682 30.3557C2.13314 30.7229 3.53112 31.0399 4.97895 31.3227C5.29616 30.0728 4.88152 29.197 4.09756 28.7591Z" fill="#F7672F"/>
<path d="M30.614 28.759C29.8209 29.197 29.4154 30.0728 29.7303 31.325C31.1804 31.0498 32.5822 30.7274 33.9356 30.3579C32.8956 28.5629 31.6177 28.2002 30.614 28.759Z" fill="#F7672F"/>
<path d="M17.3547 30.0229C16.3193 30.0229 15.4537 30.7733 15.2476 32.4315C15.9454 32.4513 16.6478 32.4619 17.3547 32.4634C18.0616 32.465 18.7648 32.4543 19.4642 32.4315C19.2557 30.7733 18.3924 30.0229 17.3547 30.0229Z" fill="#F7672F"/>
<path d="M21.0615 20.6146C21.548 20.1249 21.934 19.5435 22.1973 18.9037C22.4606 18.2638 22.5962 17.578 22.5962 16.8854C22.5962 16.1928 22.4606 15.507 22.1973 14.8672C21.934 14.2273 21.548 13.6459 21.0615 13.1562C19.1554 16.1523 16.627 18.6968 13.6501 20.6146C14.633 21.6039 15.9659 22.1597 17.3558 22.1597C18.7457 22.1597 20.0787 21.6039 21.0615 20.6146Z" fill="#A9D9CB"/>
<path d="M21.0616 13.156C20.5785 12.6509 20.0002 12.2478 19.3606 11.9703C18.721 11.6928 18.0328 11.5465 17.3363 11.5398C16.6399 11.5331 15.9491 11.6662 15.3043 11.9314C14.6596 12.1966 14.0738 12.5885 13.5812 13.0842C13.0886 13.5799 12.6991 14.1694 12.4355 14.8184C12.1719 15.4674 12.0394 16.1627 12.0459 16.8638C12.0523 17.5649 12.1975 18.2577 12.473 18.9016C12.7484 19.5456 13.1487 20.1278 13.6502 20.6143C16.627 18.6965 19.1555 16.152 21.0616 13.156Z" fill="#E3D7ED"/>
<path d="M21.0616 13.156C20.5785 12.6509 20.0002 12.2478 19.3606 11.9703C18.721 11.6928 18.0328 11.5465 17.3363 11.5398C16.6399 11.5331 15.9491 11.6662 15.3043 11.9314C14.6596 12.1966 14.0738 12.5885 13.5812 13.0842C13.0886 13.5799 12.6991 14.1694 12.4355 14.8184C12.1719 15.4674 12.0394 16.1627 12.0459 16.8638C12.0523 17.5649 12.1975 18.2577 12.473 18.9016C12.7484 19.5456 13.1487 20.1278 13.6502 20.6143C16.627 18.6965 19.1555 16.152 21.0616 13.156Z" fill="white"/>
<path d="M47.1088 27.0852H43.3567L45.7063 7.64113H49.9138L54.5451 21.8393L59.165 7.62744H63.3725L65.7357 27.0852H61.979L60.5765 13.6283L56.1809 27.0852H52.95L48.5657 13.6283L47.1088 27.0852Z" fill="#388E3C"/>
<path d="M79.9849 12.57H83.0369V27.0852H79.9713L79.7244 25.3814C79.1865 26.0094 78.5274 26.5208 77.7872 26.8845C77.0091 27.2567 76.1562 27.4433 75.2948 27.4296C74.0159 27.4371 72.7603 27.0848 71.6696 26.4124C70.5644 25.743 69.6528 24.7938 69.0254 23.6594C68.3827 22.4929 68.0454 21.1809 68.0454 19.847C68.0454 18.5131 68.3827 17.2011 69.0254 16.0346C69.6554 14.9021 70.5665 13.9535 71.6696 13.2816C72.7595 12.6075 74.0156 12.2551 75.2948 12.2644C76.1671 12.2508 77.0308 12.4397 77.8189 12.8163C78.5633 13.1854 79.2249 13.7039 79.7629 14.3399L79.9849 12.57ZM77.6897 23.518C78.3152 23.161 78.8328 22.64 79.1874 22.0104C79.5593 21.3511 79.7493 20.6039 79.738 19.8458C79.7483 19.0829 79.5584 18.3307 79.1874 17.6654C78.8341 17.0294 78.3167 16.5014 77.6897 16.1372C77.0555 15.7668 76.3339 15.5753 75.6007 15.583C74.8795 15.5756 74.1698 15.7655 73.5473 16.1322C72.9249 16.4989 72.4129 17.0288 72.0661 17.6654C71.7054 18.3341 71.5213 19.0849 71.5314 19.8458C71.5207 20.6039 71.7049 21.3519 72.0661 22.0172C72.4075 22.646 72.9148 23.1678 73.532 23.5248C74.1611 23.8881 74.8755 24.0747 75.6007 24.0654C76.3325 24.0743 77.0536 23.8869 77.6897 23.5226V23.518Z" fill="#388E3C"/>
<path d="M97.5515 12.5561H100.454V24.9273C100.479 26.2562 100.199 27.573 99.636 28.7751C99.0969 29.8842 98.2324 30.7998 97.1595 31.3981C96.0553 32.0291 94.6959 32.3446 93.0811 32.3446C91.9636 32.3395 90.851 32.1954 89.7686 31.9158C88.7897 31.6949 87.8525 31.3167 86.993 30.7959L88.2981 28.0407C89.6559 28.8041 91.1837 29.209 92.739 29.2176C93.5681 29.2472 94.3903 29.056 95.1226 28.6634C95.7366 28.3214 96.231 27.7974 96.5387 27.1626C96.8513 26.4948 97.0064 25.7634 96.9918 25.0254V24.6924C96.4663 25.2237 95.8429 25.6467 95.1566 25.9378C94.4216 26.2416 93.6331 26.3921 92.8387 26.3802C91.6166 26.3963 90.4117 26.0887 89.3449 25.4884C88.3076 24.9068 87.4464 24.0532 86.8525 23.0183C86.2393 21.9412 85.9262 20.7174 85.9462 19.4762C85.9396 18.2188 86.2565 16.9812 86.8661 15.8838C87.4557 14.7974 88.3143 13.8829 89.3585 13.229C90.4003 12.572 91.6071 12.2285 92.8364 12.2391C93.6862 12.2248 94.5281 12.4041 95.2993 12.7637C96.0246 13.1165 96.6702 13.6157 97.1957 14.2302L97.5515 12.5561ZM95.2562 22.7697C95.8312 22.4396 96.3065 21.9587 96.6316 21.3784C96.9633 20.7857 97.1337 20.1153 97.1255 19.4351C97.1345 18.7301 96.9645 18.0346 96.6316 17.4143C96.3099 16.8148 95.8321 16.3149 95.2495 15.9682C94.647 15.6207 93.9647 15.4379 93.2703 15.4379C92.5759 15.4379 91.8936 15.6207 91.2912 15.9682C90.7169 16.3122 90.2469 16.8075 89.9317 17.4006C89.605 18.0098 89.4374 18.6926 89.4445 19.3849C89.4343 20.0761 89.6021 20.7582 89.9317 21.3647C90.2505 21.948 90.7203 22.4335 91.2912 22.7697C91.8891 23.1198 92.5707 23.2988 93.2624 23.2874C93.9588 23.2965 94.6449 23.1177 95.2495 22.7697H95.2562Z" fill="#388E3C"/>
<path d="M104.906 9.7965C104.582 9.60884 104.311 9.33918 104.122 9.01417C103.938 8.70468 103.841 8.35074 103.841 7.99008C103.842 7.62734 103.939 7.27135 104.122 6.95914C104.311 6.63008 104.581 6.35583 104.906 6.16313C105.251 5.96471 105.642 5.86035 106.039 5.86035C106.436 5.86035 106.827 5.96471 107.172 6.16313C107.497 6.35583 107.767 6.63008 107.956 6.95914C108.139 7.27135 108.236 7.62734 108.237 7.99008C108.237 8.35074 108.14 8.70468 107.956 9.01417C107.767 9.33918 107.496 9.60884 107.172 9.7965C106.826 9.99063 106.436 10.0925 106.039 10.0925C105.643 10.0925 105.253 9.99063 104.906 9.7965ZM107.772 27.0852H104.267V12.5563H107.772V27.0852Z" fill="#388E3C"/>
<path d="M114.318 26.4511C113.19 25.7857 112.258 24.83 111.617 23.6821C110.97 22.5158 110.631 21.2022 110.631 19.8663C110.631 18.5304 110.97 17.2168 111.617 16.0505C112.27 14.8879 113.22 13.9229 114.369 13.2561C115.518 12.5893 116.823 12.2452 118.15 12.2597C119.141 12.2504 120.125 12.4308 121.05 12.7911C121.916 13.1327 122.713 13.6322 123.399 14.2646L121.641 16.7986C121.184 16.3891 120.664 16.0571 120.1 15.8155C119.537 15.5875 118.934 15.4743 118.326 15.4825C117.584 15.4774 116.855 15.6761 116.217 16.0573C115.573 16.4389 115.042 16.986 114.678 17.6425C114.295 18.3261 114.098 19.0996 114.108 19.8845C114.1 20.6468 114.292 21.3976 114.665 22.0612C115.038 22.7247 115.578 23.2776 116.231 23.6639C116.864 24.0435 117.589 24.2422 118.326 24.2387C118.936 24.2464 119.541 24.1333 120.107 23.9057C120.669 23.6695 121.19 23.3479 121.655 22.9523L123.399 25.4612C122.716 26.0974 121.918 26.5973 121.05 26.9346C120.132 27.2959 119.155 27.4793 118.17 27.4752C116.817 27.4935 115.485 27.1394 114.318 26.4511Z" fill="#388E3C"/>
<path d="M128.051 27.0852V7.62971H135.528C136.766 7.60269 137.992 7.88313 139.097 8.44625C140.082 8.95876 140.902 9.74368 141.46 10.7088C142.026 11.7189 142.313 12.8632 142.291 14.0229C142.317 15.226 142.041 16.4162 141.487 17.4829C140.961 18.4678 140.152 19.2704 139.167 19.7866C138.054 20.3547 136.818 20.6353 135.571 20.6031H131.778V27.0852H128.051ZM135.283 17.2183C135.876 17.2297 136.461 17.0917 136.987 16.8169C137.47 16.5615 137.873 16.1752 138.15 15.7016C138.435 15.2036 138.58 14.6365 138.569 14.0617C138.58 13.5058 138.437 12.9578 138.156 12.4788C137.879 12.0197 137.476 11.6519 136.994 11.4205C136.46 11.1637 135.875 11.0356 135.283 11.0464H131.778V17.2183H135.283Z" fill="#388E3C"/>
<path d="M147.573 26.458C146.433 25.7976 145.485 24.8475 144.825 23.7027C144.152 22.5476 143.802 21.2305 143.814 19.8915C143.814 17.8583 144.616 15.9085 146.044 14.4709C147.473 13.0332 149.41 12.2256 151.429 12.2256C153.449 12.2256 155.386 13.0332 156.814 14.4709C158.242 15.9085 159.045 17.8583 159.045 19.8915C159.053 21.2259 158.708 22.5385 158.045 23.694C157.382 24.8495 156.425 25.806 155.272 26.4648C154.094 27.1406 152.758 27.4893 151.402 27.4752C150.058 27.488 148.736 27.1366 147.573 26.458ZM153.516 23.5933C154.142 23.2222 154.658 22.689 155.009 22.0491C155.37 21.3803 155.56 20.6311 155.56 19.8698C155.56 19.1085 155.37 18.3593 155.009 17.6905C154.658 17.0481 154.142 16.5119 153.516 16.1372C152.886 15.7654 152.168 15.5693 151.437 15.5693C150.706 15.5693 149.989 15.7654 149.358 16.1372C148.734 16.5114 148.219 17.0458 147.867 17.6859C147.497 18.354 147.307 19.1082 147.317 19.8732C147.299 20.6393 147.484 21.3965 147.852 22.0674C148.205 22.708 148.723 23.241 149.352 23.6103C149.981 23.9795 150.697 24.1714 151.425 24.1657C152.161 24.1719 152.884 23.9738 153.516 23.5933Z" fill="#388E3C"/>
<path d="M172.53 6.6626H176.065V27.0852H173.002L172.755 25.3814C172.216 26.01 171.556 26.5214 170.815 26.8845C170.037 27.257 169.184 27.4436 168.323 27.4296C167.044 27.4377 165.788 27.0853 164.697 26.4123C163.592 25.743 162.679 24.7939 162.051 23.6594C161.408 22.4929 161.071 21.1809 161.071 19.847C161.071 18.513 161.408 17.201 162.051 16.0345C162.682 14.902 163.594 13.9535 164.697 13.2816C165.787 12.6069 167.043 12.2544 168.323 12.2643C169.109 12.2445 169.891 12.3933 170.616 12.7008C171.341 13.0083 171.993 13.4675 172.528 14.0479L172.53 6.6626ZM170.718 23.5225C171.344 23.1662 171.863 22.6451 172.218 22.0149C172.588 21.3552 172.778 20.6082 172.768 19.8504C172.777 19.0876 172.587 18.3357 172.218 17.6699C171.864 17.0333 171.346 16.5051 170.718 16.1417C170.083 15.7713 169.362 15.5799 168.629 15.5875C167.904 15.5805 167.191 15.7721 166.567 16.1417C165.948 16.5071 165.439 17.0354 165.096 17.6699C164.734 18.3381 164.549 19.0891 164.559 19.8504C164.548 20.6088 164.733 21.357 165.096 22.0217C165.436 22.6507 165.943 23.1725 166.56 23.5294C167.189 23.8924 167.903 24.079 168.629 24.0699C169.36 24.0773 170.08 23.8884 170.715 23.5225H170.718Z" fill="#388E3C"/>
</g>
<defs>
<clipPath id="clip0_2392_3482">
<rect width="176" height="36.0816" fill="white" transform="translate(0 0.959229)"/>
</clipPath>
</defs>
</svg>
