<svg width="256" height="58" viewBox="0 0 256 58" fill="none" xmlns="http://www.w3.org/2000/svg">
<g clip-path="url(#clip0_2069_4220)">
<g clip-path="url(#clip1_2069_4220)">
<path d="M0 0.097168H256V58.318H0V0.097168Z" fill="#006400"/>
<path d="M37.8125 16.1333L50.6162 32.3448V21.102C50.6162 19.5337 50.3878 18.4691 49.9412 17.921C49.332 17.1755 48.2977 16.8133 46.8602 16.8458V16.1336H55.4287V16.8456C54.329 16.9881 53.5995 17.1753 53.2188 17.3946C52.838 17.6248 52.5438 17.9868 52.337 18.4915C52.13 18.9962 52.0205 19.8729 52.0205 21.1015V42.8747H51.3672L33.8165 21.1015V37.7192C33.8165 39.2218 34.1543 40.2421 34.8397 40.7682C35.5262 41.2946 36.2988 41.5583 37.1808 41.5583H37.791V42.2715H28.591V41.5583C30.0175 41.5474 31.0185 41.2513 31.5743 40.67C32.1408 40.0884 32.412 39.1125 32.412 37.7194V19.2697L31.8575 18.5791C31.3125 17.8885 30.8233 17.4271 30.3985 17.2078C29.9735 16.9881 29.375 16.8682 28.58 16.8456V16.1333H37.8125ZM71.4882 34.8349H62.3202L61.2315 37.3789C60.872 38.2242 60.6982 38.9256 60.6982 39.4855C60.6982 40.2204 60.9922 40.7574 61.58 41.1087C61.9287 41.3172 62.7782 41.4706 64.128 41.5691V42.2824H55.4943V41.5691C56.4308 41.4265 57.1925 41.0427 57.791 40.4063C58.3908 39.7706 59.131 38.4544 60.0127 36.4689L69.2997 15.6069H69.6592L79.0225 37.0502C79.915 39.079 80.6445 40.3629 81.2217 40.8893C81.6572 41.2837 82.2668 41.5139 83.0617 41.5799V42.2932H70.5075V41.5799H71.0192C72.0317 41.5799 72.74 41.4374 73.1422 41.1518C73.4255 40.9435 73.5672 40.6473 73.5672 40.2635C73.5672 40.0333 73.5232 39.7925 73.4472 39.5512C73.4255 39.4303 73.2292 38.9591 72.8707 38.103L71.4882 34.8457V34.8349ZM70.835 33.4084L66.9697 24.4034L62.9842 33.4084H70.835ZM105.272 16.1333V16.8456C104.325 16.9992 103.486 17.5037 102.746 18.3706C102.213 19.0179 101.418 20.5202 100.35 22.901L91.412 42.8747H90.7802L81.8857 22.0893C80.8182 19.5767 80.0995 18.1069 79.7295 17.6692C79.37 17.2302 78.6845 16.9559 77.672 16.8347V16.1225H90.1162V16.8347H89.6925C88.5702 16.8347 87.8085 16.9773 87.3945 17.2629C87.1005 17.4604 86.959 17.7339 86.959 18.1066C86.959 18.3381 87.0138 18.6116 87.1115 18.9302C87.21 19.2481 87.5575 20.0923 88.1455 21.4637L93.6767 34.4835L98.8047 22.901C99.415 21.4962 99.796 20.5645 99.9375 20.0815C100.079 19.5994 100.144 19.2037 100.144 18.8645C100.144 18.4806 100.046 18.1404 99.8387 17.8442C99.6328 17.548 99.3387 17.3286 98.9355 17.1642C98.3915 16.9451 97.662 16.8347 96.758 16.8347V16.1225H105.272V16.1333ZM121.713 41.5583V42.2715H108.146V41.5583H109.007C109.758 41.5583 110.367 41.4265 110.825 41.152C111.162 40.9767 111.413 40.6591 111.587 40.2312C111.728 39.924 111.794 39.1125 111.794 37.8071V20.6076C111.794 19.2697 111.728 18.4366 111.587 18.0961C111.445 17.7674 111.162 17.4714 110.737 17.2183C110.313 16.9665 109.736 16.8456 109.007 16.8456H108.146V16.1333H121.713V16.8456H120.852C120.1 16.8456 119.491 16.9773 119.034 17.2518C118.707 17.4271 118.446 17.7457 118.25 18.1729C118.108 18.4806 118.043 19.2924 118.043 20.597V37.7962C118.043 39.1341 118.119 39.9673 118.261 40.3078C118.402 40.6365 118.696 40.9324 119.121 41.1855C119.546 41.4374 120.123 41.5583 120.852 41.5583H121.713ZM147.581 16.1333V23.208H146.895C146.492 21.5737 146.035 20.4001 145.534 19.6871C145.033 18.9735 144.358 18.4041 143.487 17.9759C142.998 17.7457 142.159 17.6248 140.939 17.6248H139.002V37.7962C139.002 39.1341 139.078 39.9673 139.219 40.3078C139.361 40.6365 139.655 40.9324 140.08 41.1855C140.505 41.4374 141.093 41.5583 141.833 41.5583H142.692V42.2715H129.105V41.5583H129.965C130.717 41.5583 131.326 41.4265 131.783 41.152C132.11 40.9767 132.371 40.6591 132.567 40.2312C132.709 39.924 132.774 39.1125 132.774 37.8071V17.6357H130.901C129.148 17.6357 127.886 18.0084 127.091 18.7542C125.98 19.7961 125.283 21.2778 124.989 23.208H124.26V16.1333H147.581ZM163.738 41.5583V42.2715H150.173V41.5583H151.032C151.784 41.5583 152.393 41.4265 152.85 41.152C153.178 40.9767 153.438 40.6591 153.613 40.2312C153.755 39.924 153.82 39.1125 153.82 37.8071V20.6076C153.82 19.2697 153.755 18.4366 153.613 18.0961C153.472 17.7674 153.188 17.4714 152.764 17.2183C152.339 16.9665 151.762 16.8456 151.032 16.8456H150.173V16.1333H163.738V16.8456H162.878C162.127 16.8456 161.517 16.9773 161.06 17.2518C160.733 17.4271 160.473 17.7457 160.276 18.1729C160.135 18.4806 160.069 19.2924 160.069 20.597V37.7962C160.069 39.1341 160.145 39.9673 160.287 40.3078C160.429 40.6365 160.723 40.9324 161.147 41.1855C161.572 41.4374 162.15 41.5583 162.878 41.5583H163.738ZM184.185 33.365L191.229 16.1333H201.791V16.8456H200.952C200.19 16.8456 199.569 16.9773 199.112 17.2518C198.797 17.4271 198.535 17.7339 198.35 18.162C198.209 18.4688 198.143 19.2697 198.143 20.5754V37.8071C198.143 39.145 198.209 39.9781 198.35 40.3186C198.492 40.6473 198.774 40.9432 199.21 41.1964C199.645 41.4482 200.222 41.5691 200.952 41.5691H201.791V42.2824H188.235V41.5691H189.074C189.836 41.5691 190.457 41.4374 190.914 41.1628C191.229 40.9876 191.491 40.67 191.676 40.2421C191.817 39.9348 191.883 39.1233 191.883 37.8179V18.4363L181.932 42.2824H181.474L171.371 18.601V37.017C171.371 38.3012 171.403 39.09 171.469 39.3862C171.632 40.0335 171.991 40.5491 172.547 40.9553C173.101 41.3608 173.973 41.5585 175.159 41.5585V42.2718H166.275V41.5585H166.548C167.125 41.5694 167.658 41.4817 168.159 41.284C168.66 41.0863 169.03 40.8236 169.291 40.4831C169.542 40.1547 169.748 39.6822 169.879 39.0792C169.901 38.9367 169.923 38.2783 169.923 37.1165V20.5756C169.923 19.2483 169.857 18.4257 169.716 18.0963C169.574 17.7676 169.291 17.4823 168.855 17.2304C168.42 16.9776 167.843 16.8577 167.113 16.8577H166.286V16.1444H176.891L184.186 33.3761L184.185 33.365ZM214.235 17.6357V28.2757H214.747C216.39 28.2757 217.589 27.7602 218.329 26.7172C219.069 25.6755 219.537 24.1397 219.744 22.1109H220.474V35.8H219.744C219.592 34.3075 219.266 33.0905 218.775 32.1362C218.285 31.1817 217.708 30.5455 217.066 30.2168C216.413 29.8871 215.476 29.7229 214.235 29.7229V37.083C214.235 38.5203 214.301 39.4087 214.42 39.7265C214.54 40.0441 214.768 40.3078 215.096 40.5163C215.422 40.7249 215.967 40.8236 216.707 40.8236H218.253C220.68 40.8236 222.618 40.2526 224.077 39.1235C225.536 37.9927 226.593 36.2712 227.224 33.9572H227.932L226.767 42.2715H204.338V41.5583H205.198C205.95 41.5583 206.559 41.4265 207.016 41.152C207.344 40.9767 207.604 40.6591 207.779 40.2312C207.92 39.924 207.985 39.1125 207.985 37.8071V20.6076C207.985 19.4231 207.953 18.7 207.888 18.4255C207.757 17.9759 207.528 17.6246 207.18 17.3838C206.69 17.0216 206.037 16.8456 205.187 16.8456H204.327V16.1333H226.048V23.8662H225.318C224.948 21.9792 224.426 20.6197 223.762 19.7961C223.098 18.9735 222.14 18.3706 220.92 17.9868C220.201 17.7566 218.862 17.6357 216.902 17.6357H214.224H214.235Z" fill="white"/>
</g>
</g>
<defs>
<clipPath id="clip0_2069_4220">
<rect width="256" height="57.8053" fill="white" transform="translate(0 0.097168)"/>
</clipPath>
<clipPath id="clip1_2069_4220">
<rect width="256" height="58.2211" fill="white" transform="translate(0 0.097168)"/>
</clipPath>
</defs>
</svg>
