<svg width="256" height="58" viewBox="0 0 256 58" fill="none" xmlns="http://www.w3.org/2000/svg">
<g clip-path="url(#clip0_2276_2973)">
<path d="M0 0.0974121H256V58.3182H0V0.0974121Z" fill="#006400"/>
<path d="M37.8126 16.1338L50.6163 32.3452V21.1025C50.6163 19.5342 50.3878 18.4696 49.9413 17.9215C49.3321 17.176 48.2978 16.8138 46.8603 16.8463V16.1341H55.4288V16.8461C54.3291 16.9886 53.5996 17.1758 53.2188 17.3951C52.8381 17.6253 52.5438 17.9872 52.3371 18.492C52.1301 18.9967 52.0206 19.8734 52.0206 21.102V42.8752H51.3673L33.8166 21.102V37.7197C33.8166 39.2223 34.1543 40.2425 34.8398 40.7687C35.5263 41.2951 36.2988 41.5588 37.1808 41.5588H37.7911V42.272H28.5911V41.5588C30.0176 41.5479 31.0186 41.2517 31.5743 40.6705C32.1408 40.0889 32.4121 39.113 32.4121 37.7199V19.2702L31.8576 18.5796C31.3126 17.889 30.8233 17.4276 30.3986 17.2082C29.9736 16.9886 29.3751 16.8687 28.5801 16.8461V16.1338H37.8126ZM71.4883 34.8354H62.3203L61.2316 37.3794C60.8721 38.2246 60.6983 38.9261 60.6983 39.486C60.6983 40.2209 60.9923 40.7578 61.5801 41.1092C61.9288 41.3177 62.7783 41.4711 64.1281 41.5696V42.2829H55.4943V41.5696C56.4308 41.427 57.1926 41.0432 57.7911 40.4068C58.3908 39.7711 59.1311 38.4548 60.0128 36.4694L69.2998 15.6074H69.6593L79.0226 37.0507C79.9151 39.0795 80.6446 40.3634 81.2218 40.8898C81.6573 41.2842 82.2668 41.5144 83.0618 41.5804V42.2937H70.5076V41.5804H71.0193C72.0318 41.5804 72.7401 41.4379 73.1423 41.1523C73.4256 40.944 73.5673 40.6478 73.5673 40.2639C73.5673 40.0337 73.5233 39.793 73.4473 39.5517C73.4256 39.4308 73.2293 38.9596 72.8708 38.1035L71.4883 34.8462V34.8354ZM70.8351 33.4088L66.9698 24.4039L62.9843 33.4088H70.8351ZM105.273 16.1338V16.8461C104.325 16.9997 103.486 17.5042 102.746 18.3711C102.213 19.0184 101.418 20.5207 100.351 22.9015L91.4121 42.8752H90.7803L81.8858 22.0898C80.8183 19.5772 80.0996 18.1074 79.7296 17.6696C79.3701 17.2307 78.6846 16.9564 77.6721 16.8352V16.123H90.1163V16.8352H89.6926C88.5703 16.8352 87.8086 16.9778 87.3946 17.2634C87.1006 17.4609 86.9591 17.7344 86.9591 18.1071C86.9591 18.3386 87.0138 18.6121 87.1116 18.9307C87.2101 19.2486 87.5576 20.0928 88.1456 21.4642L93.6768 34.484L98.8048 22.9015C99.4151 21.4966 99.7961 20.565 99.9376 20.082C100.079 19.5999 100.145 19.2042 100.145 18.865C100.145 18.4811 100.046 18.1409 99.8388 17.8447C99.6328 17.5485 99.3388 17.3291 98.9356 17.1647C98.3916 16.9456 97.6621 16.8352 96.7581 16.8352V16.123H105.273V16.1338ZM121.713 41.5588V42.272H108.147V41.5588H109.007C109.758 41.5588 110.367 41.427 110.825 41.1525C111.162 40.9772 111.413 40.6596 111.587 40.2317C111.729 39.9244 111.794 39.113 111.794 37.8076V20.6081C111.794 19.2702 111.729 18.4371 111.587 18.0965C111.445 17.7679 111.162 17.4719 110.737 17.2188C110.314 16.967 109.736 16.8461 109.007 16.8461H108.147V16.1338H121.713V16.8461H120.853C120.101 16.8461 119.491 16.9778 119.034 17.2523C118.707 17.4276 118.446 17.7462 118.25 18.1734C118.109 18.4811 118.043 19.2929 118.043 20.5975V37.7967C118.043 39.1346 118.119 39.9678 118.261 40.3083C118.402 40.637 118.696 40.9329 119.121 41.186C119.546 41.4379 120.123 41.5588 120.853 41.5588H121.713ZM147.581 16.1338V23.2085H146.896C146.492 21.5742 146.035 20.4006 145.534 19.6875C145.033 18.974 144.359 18.4046 143.487 17.9764C142.998 17.7462 142.159 17.6253 140.94 17.6253H139.002V37.7967C139.002 39.1346 139.078 39.9678 139.22 40.3083C139.361 40.637 139.655 40.9329 140.08 41.186C140.505 41.4379 141.093 41.5588 141.833 41.5588H142.693V42.272H129.106V41.5588H129.965C130.717 41.5588 131.326 41.427 131.783 41.1525C132.11 40.9772 132.371 40.6596 132.568 40.2317C132.709 39.9244 132.775 39.113 132.775 37.8076V17.6361H130.901C129.149 17.6361 127.886 18.0089 127.091 18.7547C125.981 19.7966 125.283 21.2783 124.989 23.2085H124.26V16.1338H147.581ZM163.738 41.5588V42.272H150.173V41.5588H151.032C151.784 41.5588 152.394 41.427 152.851 41.1525C153.178 40.9772 153.439 40.6596 153.613 40.2317C153.755 39.9244 153.82 39.113 153.82 37.8076V20.6081C153.82 19.2702 153.755 18.4371 153.613 18.0965C153.472 17.7679 153.188 17.4719 152.764 17.2188C152.339 16.967 151.762 16.8461 151.032 16.8461H150.173V16.1338H163.738V16.8461H162.878C162.127 16.8461 161.518 16.9778 161.061 17.2523C160.734 17.4276 160.473 17.7462 160.276 18.1734C160.135 18.4811 160.069 19.2929 160.069 20.5975V37.7967C160.069 39.1346 160.146 39.9678 160.287 40.3083C160.429 40.637 160.723 40.9329 161.148 41.186C161.573 41.4379 162.15 41.5588 162.878 41.5588H163.738ZM184.186 33.3655L191.23 16.1338H201.791V16.8461H200.952C200.191 16.8461 199.569 16.9778 199.112 17.2523C198.797 17.4276 198.535 17.7344 198.351 18.1625C198.209 18.4693 198.144 19.2702 198.144 20.5759V37.8076C198.144 39.1454 198.209 39.9786 198.351 40.3191C198.492 40.6478 198.775 40.9437 199.21 41.1968C199.646 41.4487 200.223 41.5696 200.952 41.5696H201.791V42.2829H188.235V41.5696H189.074C189.836 41.5696 190.457 41.4379 190.914 41.1633C191.23 40.988 191.491 40.6705 191.676 40.2425C191.818 39.9353 191.883 39.1238 191.883 37.8184V18.4368L181.932 42.2829H181.475L171.371 18.6015V37.0175C171.371 38.3017 171.404 39.0905 171.469 39.3867C171.632 40.034 171.991 40.5496 172.547 40.9558C173.102 41.3613 173.973 41.559 175.159 41.559V42.2723H166.276V41.559H166.548C167.125 41.5698 167.658 41.4822 168.159 41.2845C168.66 41.0868 169.03 40.8241 169.291 40.4836C169.542 40.1551 169.748 39.6827 169.879 39.0797C169.902 38.9372 169.923 38.2788 169.923 37.117V20.5761C169.923 19.2488 169.858 18.4262 169.716 18.0968C169.574 17.7681 169.291 17.4828 168.856 17.2309C168.42 16.978 167.843 16.8582 167.113 16.8582H166.286V16.1449H176.891L184.186 33.3766L184.186 33.3655ZM214.235 17.6361V28.2762H214.747C216.391 28.2762 217.589 27.7606 218.329 26.7177C219.069 25.676 219.537 24.1402 219.744 22.1114H220.474V35.8005H219.744C219.592 34.308 219.266 33.091 218.776 32.1367C218.285 31.1822 217.708 30.546 217.067 30.2173C216.413 29.8876 215.477 29.7234 214.235 29.7234V37.0835C214.235 38.5208 214.301 39.4091 214.42 39.727C214.54 40.0446 214.769 40.3083 215.096 40.5168C215.422 40.7254 215.967 40.8241 216.707 40.8241H218.253C220.681 40.8241 222.618 40.2531 224.077 39.124C225.536 37.9932 226.593 36.2717 227.224 33.9576H227.932L226.767 42.272H204.338V41.5588H205.198C205.95 41.5588 206.56 41.427 207.017 41.1525C207.344 40.9772 207.605 40.6596 207.779 40.2317C207.92 39.9244 207.985 39.113 207.985 37.8076V20.6081C207.985 19.4236 207.953 18.7005 207.888 18.426C207.757 17.9764 207.528 17.6251 207.18 17.3843C206.691 17.0221 206.037 16.8461 205.188 16.8461H204.327V16.1338H226.048V23.8666H225.318C224.948 21.9797 224.426 20.6202 223.762 19.7966C223.098 18.974 222.14 18.3711 220.92 17.9872C220.201 17.757 218.863 17.6361 216.903 17.6361H214.225H214.235Z" fill="white"/>
</g>
<defs>
<clipPath id="clip0_2276_2973">
<rect width="256" height="58.2211" fill="white" transform="translate(0 0.0974121)"/>
</clipPath>
</defs>
</svg>
