<svg width="128" height="20" viewBox="0 0 128 20" fill="none" xmlns="http://www.w3.org/2000/svg">
<g clip-path="url(#clip0_2276_2820)">
<path d="M21.4112 7.61259C20.9409 8.98097 17.9683 10.4044 10.65 8.71073L11.6084 13.1206C18.9292 14.4866 23.2549 13.3704 25.7213 10.7136C27.545 8.74961 27.9034 6.18922 26.398 4.2453C24.7963 2.18486 21.2793 0.683594 16.8213 0.683594C10.4414 0.683594 5.90725 2.57009 3.38725 9.655L0 19.1828H5.92725L9.29438 9.53797C10.688 5.57262 13.5844 4.91702 16.8213 4.91702C20.2085 4.93748 21.8438 6.36367 21.4112 7.61259ZM80.1148 11.7913L79.8881 11.6948C81.2256 11.1582 82.6547 10.8695 84.084 10.8695C84.9511 10.8695 86.8886 11.0208 87.6973 11.5025C87.9034 11.6194 88.0738 11.7913 87.9795 12.0251C87.6211 12.8313 82.3345 12.793 80.1148 11.7913ZM90.9522 9.57698C89.541 8.80665 87.2471 8.21064 84.9688 8.11472C80.2846 7.92185 74.94 9.55856 73.8691 13.4254C73.2485 15.6602 75.354 18.6628 80.8491 19.5086C83.5981 19.9327 87.9619 19.8363 91.1025 18.7592L92.2695 15.4653C85.9096 17.7 77.5942 17.042 77.8565 13.6957C80.9434 15.7176 85.4215 15.5247 88.7505 14.9657C94.5279 13.987 94.4519 11.4839 90.9522 9.57698ZM100.661 11.7913L100.435 11.6948C101.752 11.1582 103.202 10.8695 104.631 10.8695C105.497 10.8695 107.436 11.0208 108.242 11.5025C108.45 11.6194 108.62 11.7913 108.526 12.0251C108.168 12.8313 102.882 12.793 100.661 11.7913ZM111.497 9.57698C110.085 8.80665 107.791 8.21064 105.513 8.11472C100.829 7.92185 95.4844 9.55856 94.4136 13.4254C93.793 15.6602 95.8985 18.6628 101.394 19.5086C104.143 19.9327 108.506 19.8363 111.647 18.7592L112.814 15.4678C106.454 17.7025 98.1386 17.0446 98.4009 13.6982C101.488 15.7197 105.966 15.5272 109.295 14.9677C115.092 13.987 114.998 11.4839 111.497 9.57698ZM115.827 12.4077L113.473 19.1829H118.892L120.699 13.9659C121.152 12.6391 121.528 11.6558 123.107 11.6558H126.927L128 8.53832H120.981C118.629 8.53832 116.728 9.73033 115.827 12.4077ZM24.8901 19.1828H30.4976L34.3014 8.53832H28.6944L24.8901 19.1828ZM61.3579 13.4459C61.8819 11.9811 63.4634 11.3076 64.8389 11.3076C66.2144 11.3076 67.5293 12.1351 67.021 13.5604L65.0092 19.1808H70.4482L72.48 13.4644C73.5333 10.4982 71.2569 8.03427 66.12 8.03427C60.417 8.03427 57.1821 9.94123 55.9409 13.4435L53.8891 19.1808H59.3081L61.3579 13.4459ZM44.6104 11.4265C46.81 11.5229 48.5801 12.6575 48.2598 14.1218C47.9595 15.5273 45.8135 16.49 43.5933 16.3936C41.3935 16.2971 39.626 15.1606 39.9444 13.6982C40.2646 12.2908 42.3906 11.3301 44.6104 11.4265ZM45.3833 8.09375C39.7358 7.84383 34.6954 10.3289 34.019 13.4849C33.3603 16.5859 37.1797 19.4536 42.8409 19.7033C48.4884 19.9532 53.5284 17.4707 54.2051 14.3123C54.8639 11.1953 51.0439 8.34596 45.3833 8.09375Z" fill="#B91440"/>
</g>
<defs>
<clipPath id="clip0_2276_2820">
<rect width="128" height="19.0587" fill="white" transform="translate(0 0.683594)"/>
</clipPath>
</defs>
</svg>
