<svg width="128" height="27" viewBox="0 0 128 27" fill="none" xmlns="http://www.w3.org/2000/svg">
<g clip-path="url(#clip0_2276_1986)">
<path d="M128.152 13.3207V12.7403C128.152 11.1195 127.382 9.18669 123.98 9.18669C121.225 9.18669 119.414 10.3201 119.414 12.7622C119.414 14.8429 120.258 15.8339 122.271 16.5074L124.452 17.2576C125.397 17.5697 125.914 18.1993 125.914 19.1685C125.914 20.3512 125.194 21.0795 123.733 21.0795C122.192 21.0795 121.647 20.2581 121.647 18.7578V18.3472H119.263V18.829C119.263 21.3423 120.28 22.8645 123.654 22.8645C126.358 22.8645 128.444 21.6818 128.444 18.9002C128.444 16.8469 127.528 15.8066 125.543 15.155L123.828 14.5746C122.411 14.0927 121.945 13.6821 121.945 12.6636C121.945 11.4535 122.788 10.9717 123.856 10.9717C125.245 10.9717 125.616 11.9409 125.616 12.9757V13.3152H128.146L128.152 13.3207ZM114.005 22.5305H116.536V9.52617H113.854V18.6155C113.854 20.0665 112.813 20.7893 111.672 20.7893C110.531 20.7893 109.861 20.3074 109.861 18.8564V9.52617H107.179V18.6155C107.179 21.9774 108.518 22.8699 110.502 22.8699C111.992 22.8699 113.258 22.1691 113.927 21.0083H114V22.5305H114.005ZM101.546 22.5305H104.228V5.27171H101.546V22.5305ZM91.1492 15.8832C91.1492 13.1017 91.5709 11.2674 93.4095 11.2674C95.2481 11.2674 95.6698 13.129 95.6698 16.0749C95.6698 19.6777 94.9726 20.7893 93.4376 20.7893C91.554 20.7893 91.1548 18.9988 91.1548 15.8832M88.6246 26.7849H91.3066V21.0083H91.3572C91.852 22.1691 92.9428 22.8699 94.3822 22.8699C96.2209 22.8699 98.5037 21.6599 98.5037 16.2008C98.5037 11.7273 97.2611 9.19217 94.2079 9.19217C92.746 9.19217 91.7508 9.96421 91.2054 11.125H91.1548V9.53165H88.6246V26.7904V26.7849ZM76.2154 9.52617L80.0107 22.8207L79.6621 23.8829C79.3641 24.7042 78.7681 24.8959 77.8516 24.8959C77.5536 24.8959 77.2781 24.8466 76.9857 24.7973V26.878C77.3343 26.9273 77.7054 26.9766 78.054 26.9766C80.8091 27.0258 81.675 26.5659 82.7208 23.0123L86.3924 9.52617H83.5867L81.4501 19.289H81.3995L79.0942 9.52617H76.2154ZM71.4699 16.1734C71.4699 18.955 71.0482 20.7893 69.2095 20.7893C67.3709 20.7893 66.9492 18.9276 66.9492 15.9818C66.9492 12.4775 67.4946 11.2674 69.0352 11.2674C71.0931 11.2674 71.4699 13.0579 71.4699 16.1734ZM71.4699 22.5305H74.0001V5.27171H71.318V11.0484H71.2674C70.7726 9.88755 69.6818 9.18669 68.2424 9.18669C66.207 9.18669 64.121 10.0792 64.121 15.8558C64.121 20.3293 65.3636 22.8645 68.4898 22.8645C70.4015 22.8645 71.0706 21.7748 71.4192 20.9316H71.4699V22.525V22.5305ZM59.1618 22.5305H61.692V9.52617H59.01V18.6155C59.01 20.0665 57.9698 20.7893 56.8284 20.7893C55.687 20.7893 55.0179 20.3074 55.0179 18.8564V9.52617H52.3359V18.6155C52.3359 21.9774 53.6741 22.8699 55.6589 22.8699C57.1489 22.8699 58.414 22.1691 59.0831 21.0083H59.1562V22.5305H59.1618ZM42.8786 11.459H44.7172V19.5299C44.7172 22.1855 45.6112 22.6728 47.4217 22.6728C48.2651 22.6728 49.0073 22.6016 49.5808 22.4538V20.521C49.3334 20.5702 49.0073 20.5921 48.6137 20.5921C47.6972 20.5921 47.3992 20.2308 47.3992 19.2123V11.4535H49.5808V9.5207H47.3992V5.82474H44.7172V9.5207H42.8786V11.4535V11.459ZM29.8508 17.1864V17.597C29.8508 20.0117 30.846 22.8645 35.2373 22.8645C38.8134 22.8645 41.0962 21.3423 41.0962 17.6682C41.0962 15.2973 40.0054 13.9723 37.4977 13.1017L35.586 12.4227C33.7024 11.7218 32.9321 10.9717 32.9321 9.49879C32.9321 7.6645 34.0959 7.00744 35.3161 7.00744C37.076 7.00744 37.7957 7.92733 37.7957 9.49879V9.86018H40.6239V9.47142C40.6239 7.68093 40.1516 4.92676 35.6084 4.92676C32.2854 4.92676 30.0982 6.66796 30.0982 9.8109C30.0982 12.2749 31.2171 13.5835 33.7979 14.5472L35.7321 15.1988C37.3177 15.6587 38.2624 16.4581 38.2624 18.2705C38.2624 19.5518 37.3683 20.7838 35.5803 20.7838C33.618 20.7838 32.679 19.7215 32.679 17.6189V17.1864H29.8508Z" fill="white"/>
<path d="M8.6092 0.388053L-0.00195312 8.88281L1.79068 10.6061L10.4018 2.11136L8.6092 0.388053Z" fill="white"/>
<path d="M9.59447 4.63861L2.68701 11.4551L4.47996 13.1781L11.3874 6.36162L9.59447 4.63861Z" fill="white"/>
<path d="M11.4081 8.07031L5.3645 14.0322L7.15714 15.7555L13.2008 9.79362L11.4081 8.07031Z" fill="white"/>
<path d="M16.6014 8.17014L8.05103 16.6079L9.84397 18.3309L18.3944 9.89315L16.6014 8.17014Z" fill="white"/>
<path d="M21.6402 8.41122L10.7358 19.187L12.53 20.9088L23.4344 10.133L21.6402 8.41122Z" fill="white"/>
<path d="M19.7075 22.5581L23.0811 23.0344C23.1373 23.0399 23.1936 23.0344 23.2442 23.018C23.396 22.9633 23.5028 22.8154 23.4747 22.6457L22.963 19.333L19.7075 22.5581Z" fill="white"/>
<path d="M22.8788 18.8293L22.0241 13.2607L21.5125 13.77L22.3671 19.3385L22.8788 18.8293Z" fill="white"/>
<path d="M19.6963 22.0046L13.9331 21.249L13.4158 21.7582L19.179 22.5139L19.6963 22.0046Z" fill="white"/>
</g>
<defs>
<clipPath id="clip0_2276_1986">
<rect width="128.45" height="26.589" fill="white" transform="translate(0 0.387695)"/>
</clipPath>
</defs>
</svg>
