<svg width="192" height="72" viewBox="0 0 192 72" fill="none" xmlns="http://www.w3.org/2000/svg">
<g clip-path="url(#clip0_2299_3225)">
<g clip-path="url(#clip1_2299_3225)">
<path d="M81.4135 46.3642C75.9863 46.3642 71.7291 41.9125 71.7291 36.239C71.7291 30.5659 75.9883 26.1138 81.4135 26.1138C86.8386 26.1138 91.0228 30.6746 91.0228 36.239C91.0228 41.8034 86.6948 46.3642 81.4135 46.3642ZM81.4135 21.529C79.6294 21.529 77.8584 21.8402 76.3491 22.4172C74.7519 23.0289 73.2598 23.9455 72.036 25.0711C69.6573 27.2545 68.0708 30.0976 67.472 33.2458V22.1037H63V50.3787H66.6454L69.125 43.4668C71.4413 48.1059 76.1194 50.9534 81.4134 50.9534C89.112 50.9534 95.3552 44.368 95.3552 36.2434C95.3552 28.1187 89.1143 21.5333 81.4134 21.5333L81.4135 21.529ZM116.567 30.3659L125.803 21.0006L129 24.2424L119.764 33.6078L116.567 30.3659ZM116.658 42.2062L125.802 51.478L128.999 48.2367L102.139 21L98.9424 24.2417L108.086 33.5134C108.172 33.6004 109.348 34.7914 109.426 34.8848C109.801 35.3378 109.99 35.7014 109.99 36.2347C109.99 36.768 109.801 37.1315 109.426 37.5865C109.348 37.6802 108.172 38.8754 108.086 38.9603L98.9424 48.2343L102.139 51.4759L111.283 42.204C111.369 42.1169 112.543 40.9238 112.635 40.8455C113.084 40.4645 113.44 40.2731 113.966 40.2731C114.492 40.2731 114.851 40.4646 115.299 40.8455C115.392 40.9238 116.57 42.1169 116.654 42.204L116.658 42.2062Z" fill="white"/>
</g>
</g>
<defs>
<clipPath id="clip0_2299_3225">
<rect width="66" height="30" fill="white" transform="translate(63 21)"/>
</clipPath>
<clipPath id="clip1_2299_3225">
<rect width="66" height="30.4781" fill="white" transform="translate(63 21)"/>
</clipPath>
</defs>
</svg>
