<svg width="66" height="30" viewBox="0 0 66 30" fill="none" xmlns="http://www.w3.org/2000/svg">
<g clip-path="url(#clip0_2276_2928)">
<path d="M18.4135 25.3642C12.9863 25.3642 8.72915 20.9125 8.72915 15.239C8.72915 9.56588 12.9883 5.11379 18.4135 5.11379C23.8386 5.11379 28.0228 9.67458 28.0228 15.239C28.0228 20.8034 23.6948 25.3642 18.4135 25.3642ZM18.4135 0.529012C16.6294 0.529012 14.8584 0.840185 13.3491 1.41724C11.7519 2.02893 10.2598 2.94545 9.03601 4.07112C6.6573 6.25449 5.07085 9.09759 4.47195 12.2458V1.10371H0V29.3787H3.6454L6.12498 22.4668C8.4413 27.1059 13.1194 29.9534 18.4134 29.9534C26.112 29.9534 32.3552 23.368 32.3552 15.2434C32.3552 7.11873 26.1143 0.533326 18.4134 0.533326L18.4135 0.529012ZM53.5671 9.36589L62.803 0.000588227L66 3.24237L56.7641 12.6078L53.5671 9.36589ZM53.6583 21.2062L62.8018 30.478L65.9985 27.2367L39.1392 0L35.9424 3.24166L45.086 12.5134C45.1718 12.6004 46.3484 13.7914 46.4257 13.8848C46.8013 14.3378 46.9901 14.7014 46.9901 15.2347C46.9901 15.768 46.8013 16.1315 46.4257 16.5865C46.3483 16.6802 45.1718 17.8754 45.086 17.9603L35.9424 27.2343L39.1392 30.4759L48.2827 21.204C48.3685 21.1169 49.5428 19.9238 49.6352 19.8455C50.0838 19.4645 50.4401 19.2731 50.9663 19.2731C51.4922 19.2731 51.8508 19.4646 52.2995 19.8455C52.3916 19.9238 53.5703 21.1169 53.6539 21.204L53.6583 21.2062Z" fill="white"/>
</g>
<defs>
<clipPath id="clip0_2276_2928">
<rect width="66" height="30.4781" fill="white"/>
</clipPath>
</defs>
</svg>
