<svg width="128" height="38" viewBox="0 0 128 38" fill="none" xmlns="http://www.w3.org/2000/svg">
<g clip-path="url(#clip0_2276_315)">
<path d="M22.7845 8.23438C15.6479 8.23438 9.85352 12.9956 9.85352 18.8809C9.85352 24.7663 15.6479 29.5274 22.7845 29.5274C29.921 29.5274 35.7154 24.7663 35.7154 18.8809C35.7481 12.9625 29.9538 8.23438 22.7845 8.23438ZM22.7845 29.2629C22.7845 29.2629 22.3261 18.8478 11.9159 13.3593C11.9159 13.3593 21.9006 18.5172 33.3911 13.3593C33.4238 13.3593 24.2576 17.393 22.7845 29.2629Z" fill="white"/>
<path d="M22.7847 32.2054C13.2911 32.2054 7.13664 26.6837 6.51465 18.9468H6.7438C7.43127 23.708 11.3924 30.5522 22.7847 30.5522C34.1771 30.5522 38.1382 23.708 38.8256 18.9468H39.0548C38.4328 26.6837 32.2783 32.2054 22.7847 32.2054Z" fill="white"/>
<path d="M22.7844 34.9166C13.5855 34.9166 4.81206 29.8248 3.27344 18.9468H3.46986C5.04121 28.4691 13.7164 33.2634 22.7844 33.2634C31.8197 33.2634 40.4622 28.6014 42.099 18.9468H42.3282C41.1497 29.5603 32.1471 34.9166 22.7844 34.9166Z" fill="white"/>
<path d="M22.7847 37.6279C12.3744 37.6279 0.982097 31.7425 0 18.9468H0.196432C2.42252 31.9408 14.3386 35.9747 22.7847 35.9747C31.2307 35.9747 43.1468 31.9408 45.3729 18.9468H45.5693C44.5872 31.7425 33.2276 37.6279 22.7847 37.6279Z" fill="white"/>
<path d="M3.47026 10.8795L3.89584 10.0529C3.92857 10.0198 3.89584 9.98675 3.8631 9.95368L3.66668 9.85449C3.63394 9.85449 3.63394 9.85449 3.60121 9.85449C3.56847 9.85449 3.56847 9.88756 3.56847 9.88756L2.48817 11.9044C2.45543 11.9375 2.48816 11.9706 2.5209 12.0036L2.71733 12.1028C2.75007 12.1028 2.75005 12.1028 2.78279 12.1028C2.81552 12.1028 2.81554 12.0698 2.81554 12.0698L3.24111 11.2432L5.43446 12.4335C5.46719 12.4335 5.46719 12.4335 5.49993 12.4335C5.53267 12.4335 5.53267 12.4004 5.53267 12.4004L5.66361 12.169C5.69635 12.1359 5.66361 12.1028 5.63088 12.0698L3.47026 10.8795Z" fill="white"/>
<path d="M6.87474 8.23431C6.28548 7.73835 5.43436 7.53997 4.77963 8.30044C4.51774 8.59801 4.38676 8.96171 4.41949 9.32541C4.45223 9.72218 4.64868 10.1189 5.00878 10.4165C5.59804 10.9125 6.44916 11.1109 7.10389 10.3504C7.36579 10.0528 7.49676 9.68912 7.46403 9.35848C7.43129 8.92865 7.23484 8.53188 6.87474 8.23431ZM7.07119 9.39154C7.07119 9.62299 7.00572 9.85444 6.8093 10.0859C6.31825 10.648 5.66352 10.4496 5.27068 10.0859C5.00878 9.85444 4.81233 9.5238 4.81233 9.22622C4.81233 8.99478 4.87781 8.73027 5.07423 8.53188C5.56527 7.9698 6.22001 8.20125 6.61284 8.53188C6.87474 8.79639 7.03845 9.09397 7.07119 9.39154Z" fill="white"/>
<path d="M10.0176 7.50692L8.02066 7.04402L8.31529 5.39083C8.31529 5.35777 8.31529 5.32471 8.28255 5.32471C8.24982 5.32471 8.21708 5.32471 8.18434 5.32471L7.88972 5.55615L7.85698 5.58922L7.49688 7.67224L6.67846 6.58113C6.64573 6.54807 6.61299 6.54807 6.58025 6.58113L6.3511 6.74645C6.3511 6.74645 6.31836 6.77951 6.31836 6.81258C6.31836 6.84564 6.31836 6.84564 6.31836 6.8787L8.02066 9.12704C8.0534 9.16011 8.08613 9.16011 8.11887 9.12704L8.34803 8.96172C8.34803 8.96172 8.38076 8.92866 8.38076 8.8956C8.38076 8.86253 8.38076 8.86253 8.38076 8.82947L7.82424 8.069L7.92245 7.44079L9.69023 7.87062C9.72296 7.87062 9.72296 7.87062 9.7557 7.87062L10.0503 7.63917C10.0831 7.60611 10.0831 7.60611 10.0831 7.57304C10.0503 7.53998 10.0503 7.53998 10.0176 7.50692Z" fill="white"/>
<path d="M10.5737 5.98599L10.7374 4.00216C10.7374 3.9691 10.7374 3.93604 10.7047 3.93604C10.6719 3.93604 10.6392 3.93604 10.6392 3.93604L10.3446 4.10135C10.3118 4.10135 10.3118 4.13442 10.3118 4.16748L10.1809 5.78761L8.77321 5.0602C8.74047 5.0602 8.74047 5.0602 8.70774 5.0602L8.41311 5.22552C8.38037 5.22552 8.38037 5.25859 8.38037 5.29165C8.38037 5.32471 8.38037 5.35778 8.41311 5.35778L10.1809 6.2505L10.7374 7.24241C10.7374 7.27548 10.7701 7.27548 10.7701 7.27548C10.8029 7.27548 10.8029 7.27548 10.8356 7.27548L11.0648 7.14322C11.0975 7.11016 11.0975 7.07709 11.0975 7.04403L10.5737 5.98599Z" fill="white"/>
<path d="M13.2583 2.91102C13.2583 2.87796 13.1928 2.84489 13.1601 2.87795L12.8982 2.97715C12.8655 2.97715 12.8655 3.01022 12.8655 3.01022C12.8655 3.04328 12.8655 3.04327 12.8655 3.07634L13.5202 4.69646C13.6184 4.96097 13.6511 5.19241 13.5857 5.35773C13.5202 5.52305 13.3565 5.65531 13.1273 5.7545C12.8982 5.85369 12.7018 5.85369 12.5381 5.78756C12.3744 5.72143 12.2107 5.52305 12.1125 5.25854L11.4578 3.63843C11.4578 3.60536 11.3923 3.5723 11.3596 3.60536L11.0977 3.70455C11.0649 3.70455 11.0649 3.73761 11.0649 3.73761C11.0649 3.77068 11.0649 3.77068 11.0649 3.80374L11.7524 5.48999C12.0143 6.15126 12.6036 6.38271 13.291 6.1182C13.6511 5.98594 13.8803 5.7545 13.9785 5.48999C14.0767 5.22548 14.0767 4.9279 13.9458 4.59727L13.2583 2.91102Z" fill="white"/>
<path d="M18.4306 3.07648L18.1687 3.14261C18.1359 3.14261 18.1032 3.17567 18.1032 3.20874C18.136 3.63857 17.9395 4.10147 17.4157 4.20066C16.6955 4.33292 16.3027 3.77082 16.2045 3.2418C16.139 2.8781 16.2045 2.5144 16.3682 2.28296C16.4991 2.08457 16.7283 1.95231 16.9902 1.88619C17.383 1.82006 17.7431 1.98538 17.9068 2.34909C17.9068 2.38215 17.9395 2.41521 18.005 2.38214L18.2669 2.31602C18.2996 2.31602 18.2996 2.28296 18.3323 2.28296C18.3323 2.24989 18.3323 2.24989 18.3323 2.21682C18.1359 1.55555 17.4812 1.39023 16.9574 1.48942C16.5646 1.55555 16.2372 1.75393 16.0408 2.05151C15.8116 2.38214 15.7462 2.81198 15.8117 3.27487C15.9426 4.03535 16.5318 4.72969 17.5139 4.5313C18.2014 4.39905 18.5943 3.87002 18.5288 3.10955C18.5288 3.07649 18.5288 3.07648 18.496 3.04342C18.4633 3.07648 18.4633 3.07648 18.4306 3.07648Z" fill="white"/>
<path d="M19.9365 0.926874C19.5436 0.959938 19.2162 1.12526 18.9871 1.38977C18.7252 1.68734 18.5943 2.11717 18.627 2.58006C18.6925 3.34053 19.1835 4.10101 20.1656 4.03488C20.5585 4.00182 20.8858 3.83649 21.115 3.57197C21.3769 3.2744 21.5078 2.84457 21.4751 2.38168C21.4424 1.62121 20.9186 0.860746 19.9365 0.926874ZM21.0823 2.41474C21.115 2.77844 21.0168 3.10909 20.8204 3.34054C20.6567 3.53892 20.4275 3.63811 20.1656 3.67117C19.4127 3.7373 19.1181 3.10908 19.0853 2.58006C19.0526 2.21636 19.1508 1.88573 19.3472 1.65428C19.5109 1.4559 19.7401 1.35671 20.002 1.32364C20.7222 1.25751 21.0168 1.88572 21.0823 2.41474Z" fill="white"/>
<path d="M24.127 3.01013V2.91093C24.127 2.67948 24.0615 2.38191 23.7996 2.24966C24.0615 2.1174 24.2252 1.88596 24.2252 1.52226C24.2252 1.29081 24.1597 1.09242 24.0288 0.96017C23.8651 0.794851 23.6032 0.695663 23.3086 0.695663L21.9991 0.662598C21.9664 0.662598 21.9336 0.695655 21.9336 0.728719L21.8682 3.57221C21.8682 3.60527 21.8682 3.60527 21.9009 3.63834C21.9009 3.63834 21.9336 3.6714 21.9664 3.6714H22.2283C22.261 3.6714 22.2937 3.63833 22.2937 3.60527L22.3265 2.41497L23.2758 2.44804C23.7014 2.44804 23.7341 2.74561 23.7669 3.2085V3.27463C23.7669 3.40689 23.7669 3.5722 23.8324 3.70446C23.8324 3.73752 23.8651 3.73753 23.8978 3.73753H24.1925C24.2252 3.73753 24.2579 3.73752 24.2579 3.70446C24.2579 3.67139 24.2579 3.63834 24.2579 3.63834C24.127 3.50608 24.127 3.20851 24.127 3.01013ZM22.2937 1.09242L23.2431 1.12549C23.4395 1.12549 23.5705 1.19161 23.6687 1.29081C23.7341 1.39 23.7996 1.48919 23.7996 1.65451C23.7996 1.98515 23.505 2.1174 23.2431 2.1174L22.2937 2.08434V1.09242Z" fill="white"/>
<path d="M26.1237 0.960241L24.847 0.794922C24.8142 0.794922 24.8142 0.794922 24.7815 0.794922C24.7815 0.794922 24.7488 0.82799 24.7488 0.861054L24.4214 3.67147C24.4214 3.70454 24.4541 3.7376 24.4869 3.77066L24.7488 3.80373C24.7815 3.80373 24.7815 3.80373 24.8142 3.80373C24.8142 3.80373 24.847 3.77066 24.847 3.7376L24.9779 2.61343L25.8945 2.71262C26.1892 2.74568 26.4183 2.67955 26.6147 2.5473C26.7784 2.41504 26.8766 2.21666 26.9094 1.95215C27.0076 1.39007 26.6802 1.02637 26.1237 0.960241ZM25.1416 1.22475L25.9927 1.32395C26.1892 1.35701 26.5493 1.45619 26.4838 1.88602C26.4511 2.05134 26.4183 2.15053 26.3201 2.21666C26.2219 2.31585 26.0582 2.34892 25.8618 2.31586L25.0106 2.21666L25.1416 1.22475Z" fill="white"/>
<path d="M28.8084 1.38981C28.4155 1.29062 28.0555 1.35675 27.7608 1.55513C27.4335 1.75351 27.1715 2.15028 27.0733 2.58011C26.9097 3.34058 27.1715 4.20022 28.1209 4.3986C28.5137 4.49779 28.8739 4.43166 29.1685 4.23328C29.4959 4.0349 29.7577 3.63815 29.8559 3.20832C30.0196 2.44785 29.7577 1.58819 28.8084 1.38981ZM29.4304 3.10913C29.3649 3.47283 29.1685 3.77041 28.9066 3.93572C28.7102 4.068 28.4483 4.10103 28.1864 4.0349C27.4662 3.86959 27.3352 3.20833 27.4662 2.67931C27.5316 2.31561 27.7281 2.01803 27.99 1.85271C28.1864 1.72046 28.4483 1.68739 28.7102 1.75351C29.4304 1.91883 29.5613 2.58011 29.4304 3.10913Z" fill="white"/>
<path d="M32.1144 4.8287L32.1471 4.72951C32.2126 4.49806 32.2453 4.23355 32.0161 4.0021C32.3108 3.96904 32.5399 3.77066 32.6381 3.47309C32.8018 3.01019 32.5727 2.58036 32.0161 2.38197L30.7722 1.95215C30.7394 1.95215 30.7394 1.95215 30.7067 1.95215C30.6739 1.95215 30.6739 1.98522 30.6739 1.98522L29.7573 4.66338C29.7573 4.69644 29.7573 4.72951 29.7901 4.76257L30.052 4.86176C30.0847 4.86176 30.0847 4.86176 30.1174 4.86176C30.1502 4.86176 30.1502 4.8287 30.1502 4.8287L30.543 3.70453L31.4596 4.03517C31.8525 4.16742 31.8197 4.465 31.6888 4.89482V4.96095C31.656 5.09321 31.5906 5.25853 31.6233 5.39078C31.6233 5.42385 31.656 5.42385 31.656 5.45691L31.9507 5.5561C31.9834 5.5561 32.0161 5.5561 32.0161 5.52304C32.0489 5.48997 32.0489 5.45691 32.0161 5.45691C31.9834 5.29159 32.0489 4.99402 32.1144 4.8287ZM30.9686 2.41504L31.8525 2.74568C32.1798 2.87793 32.3108 3.07631 32.2126 3.37389C32.1798 3.50614 32.0816 3.57228 31.9834 3.6384C31.8525 3.70453 31.6888 3.70453 31.5251 3.6384L30.6412 3.30777L30.9686 2.41504Z" fill="white"/>
<path d="M34.7337 3.6054L34.4718 3.47314C34.4391 3.47314 34.4063 3.47314 34.3736 3.47314L32.0821 5.49004C32.0493 5.5231 32.0493 5.5231 32.0493 5.55616C32.0493 5.58923 32.0821 5.58923 32.0821 5.62229L32.3439 5.75455C32.3767 5.75455 32.4094 5.75455 32.4422 5.75455L33.0969 5.1594L34.1772 5.68842L34.1117 6.58114C34.1117 6.6142 34.1117 6.64727 34.1445 6.64727L34.4063 6.77952C34.4391 6.77952 34.4391 6.77952 34.4718 6.77952C34.5046 6.77952 34.5046 6.74646 34.5046 6.71339L34.7337 3.67153C34.7665 3.67153 34.7665 3.63846 34.7337 3.6054ZM34.3409 4.03523L34.2427 5.29165L33.4243 4.89489L34.3409 4.03523Z" fill="white"/>
<path d="M37.385 5.62224C37.4177 5.65531 37.4504 5.62224 37.4832 5.58918L37.6141 5.39079C37.6141 5.35773 37.6141 5.35773 37.6141 5.32467C37.6141 5.2916 37.6141 5.2916 37.5814 5.2916L35.6827 4.03518C35.6499 4.00212 35.6172 4.03518 35.5844 4.06824L35.4535 4.26663C35.4535 4.29969 35.4535 4.29969 35.4535 4.33275C35.4535 4.36582 35.4535 4.36582 35.4862 4.36582L36.2719 4.89484L34.897 7.01092C34.897 7.04398 34.897 7.04398 34.897 7.07705C34.897 7.11011 34.897 7.11011 34.9297 7.11011L35.1589 7.27543C35.1916 7.30849 35.2243 7.27543 35.2571 7.24237L36.632 5.12628L37.385 5.62224Z" fill="white"/>
<path d="M38.5308 6.01888L38.3344 5.85356C38.3344 5.85356 38.3017 5.8205 38.2689 5.85356C38.2362 5.85356 38.2362 5.85356 38.2035 5.88663L36.4357 8.1019C36.4029 8.13496 36.4029 8.16803 36.4357 8.20109L36.6321 8.36641C36.6321 8.36641 36.6648 8.39947 36.6976 8.36641C36.7303 8.36641 36.7303 8.36641 36.7631 8.33335L38.5308 6.11807C38.5636 6.08501 38.5636 6.05194 38.5308 6.01888Z" fill="white"/>
<path d="M40.1023 7.40772C39.8404 7.11014 39.4803 6.94482 39.1529 6.94482C38.7601 6.94482 38.3673 7.11014 38.0072 7.44078C37.4506 7.9698 37.1887 8.82946 37.8762 9.55686C38.1381 9.85444 38.4655 10.0198 38.8256 10.0198C39.2184 10.0198 39.6113 9.85444 39.9714 9.5238C40.5279 8.99478 40.7898 8.13512 40.1023 7.40772ZM39.6767 9.22622C39.4148 9.49074 39.0875 9.62299 38.7928 9.62299C38.5637 9.62299 38.3345 9.5238 38.1381 9.29235C37.6143 8.73027 37.909 8.10206 38.3018 7.73835C38.5637 7.47384 38.8911 7.34159 39.1857 7.34159C39.4476 7.34159 39.644 7.44078 39.8404 7.67223C40.3642 8.23431 40.0696 8.86252 39.6767 9.22622Z" fill="white"/>
<path d="M42.6558 11.243L42.5248 11.0115C42.4921 10.9785 42.4593 10.9785 42.4266 10.9785L40.5606 12.0365L41.7391 9.58978C41.7391 9.55671 41.7391 9.55671 41.7391 9.52365L41.5754 9.25914C41.5427 9.22607 41.51 9.22607 41.4772 9.22607L39.022 10.6148C38.9893 10.6148 38.9893 10.6478 38.9893 10.6478C38.9893 10.6809 38.9893 10.6809 38.9893 10.7139L39.1202 10.9454C39.1529 10.9785 39.1857 10.9785 39.2184 10.9785L41.0844 9.92041L39.9059 12.3671C39.9059 12.4002 39.9059 12.4002 39.9059 12.4333L40.0696 12.6978C40.1023 12.7308 40.135 12.7308 40.1678 12.7308L42.623 11.3422C42.6558 11.3422 42.6558 11.3091 42.6558 11.3091C42.6885 11.276 42.6885 11.243 42.6558 11.243Z" fill="white"/>
<path d="M77.5203 24.634C79.9428 24.634 81.5796 24.634 81.5796 24.634C83.6093 24.634 84.9188 23.7082 84.9188 21.6582V13.9213C84.9188 11.8713 83.6093 10.9456 81.5796 10.9456C81.5796 10.9456 77.2584 10.9456 72.3479 10.9456V8.96173H87.0466V6.38275H72.3479V4.39893H67.6339V6.38275H52.9351V8.96173H67.6339V10.9456C62.7234 10.9456 58.4021 10.9456 58.4021 10.9456C56.3725 10.9456 55.063 11.8713 55.063 13.9213V21.6582C55.063 23.7082 56.3725 24.634 58.4021 24.634C58.4021 24.634 60.039 24.634 62.4615 24.634C58.8605 28.1718 54.2773 31.5443 52.084 32.966H59.286C61.5776 31.2798 64.884 28.3702 67.6339 25.3944V34.1564H72.3479V25.3944C75.0978 28.3702 78.4042 31.2798 80.6957 32.966H87.8978C85.7044 31.5774 81.0886 28.1718 77.5203 24.634ZM80.4011 21.1623C80.4011 21.7574 79.8773 22.2534 79.2226 22.2534H72.3479V18.9801H80.4011V21.1623ZM79.2226 13.3592C79.8773 13.3592 80.4011 13.8552 80.4011 14.4503V16.6325H72.3479V13.3592H79.2226ZM59.6134 14.4503C59.6134 13.8552 60.1372 13.3592 60.7919 13.3592H67.6666V16.6325H59.6134V14.4503ZM59.6134 21.1623V18.9801H67.6666V22.2534H60.7919C60.1372 22.2534 59.6134 21.7905 59.6134 21.1623Z" fill="white"/>
<path d="M123.842 24.5347H118.801C120.405 26.8822 122.074 29.3289 122.926 31.1474H127.803C126.821 29.2297 125.414 27.0475 123.842 24.5347Z" fill="white"/>
<path d="M108.227 29.9569V23.2781H109.831C110.977 25.0635 112.45 27.6755 113.301 29.5602H118.179C117.36 27.8409 115.724 25.0304 114.643 23.2781H120.929C123.188 23.2781 124.628 22.187 124.628 19.9056V13.3589C124.628 11.0775 123.155 9.98642 120.929 9.98642H118.146C118.146 9.98642 120.765 8.06872 121.191 7.63889C122.042 6.77924 121.649 5.02686 120.078 5.02686H104.495C103.742 5.02686 103.055 5.09298 102.334 5.52281C101.254 6.18409 98.0131 8.73 94.4448 9.8211V12.367H118.473C119.292 12.367 119.947 13.0944 119.947 13.8549V15.4419H94.4448V17.8225H119.947V19.4096C119.947 20.1701 119.292 20.8975 118.473 20.8975H94.4448V23.2781H103.316V31.2134C103.316 33.1641 104.921 34.057 107.441 34.057H122.729V31.1803H109.929C108.882 31.1472 108.227 30.6513 108.227 29.9569ZM114.84 7.70502C114.643 7.9034 112.384 9.4574 111.468 9.98642H102.531C102.334 9.98642 102.334 9.8211 102.465 9.75498C103.677 9.19289 105.117 8.33323 106.688 7.20906C106.688 7.20906 114.25 7.20906 114.643 7.20906C115.003 7.20906 115.069 7.47357 114.84 7.70502Z" fill="white"/>
<path d="M92.5791 32.9659H97.8497C98.5699 31.7095 100.469 27.312 101.418 24.5347H96.8349C95.198 28.1717 93.6267 31.3127 92.5791 32.9659Z" fill="white"/>
</g>
<defs>
<clipPath id="clip0_2276_315">
<rect width="128" height="37.0314" fill="white" transform="translate(0 0.662598)"/>
</clipPath>
</defs>
</svg>
