<svg width="128" height="38" viewBox="0 0 128 38" fill="none" xmlns="http://www.w3.org/2000/svg">
<g clip-path="url(#clip0_2178_3819)">
<g clip-path="url(#clip1_2178_3819)">
<path d="M22.7847 8.23438C15.6481 8.23438 9.85371 12.9956 9.85371 18.8809C9.85371 24.7663 15.6481 29.5274 22.7847 29.5274C29.9212 29.5274 35.7156 24.7663 35.7156 18.8809C35.7483 12.9625 29.954 8.23438 22.7847 8.23438ZM22.7847 29.2629C22.7847 29.2629 22.3263 18.8478 11.9161 13.3593C11.9161 13.3593 21.9008 18.5172 33.3913 13.3593C33.424 13.3593 24.2578 17.393 22.7847 29.2629Z" fill="white"/>
<path d="M22.7847 32.2054C13.291 32.2054 7.13657 26.6837 6.51458 18.9468H6.74374C7.4312 23.708 11.3923 30.5522 22.7847 30.5522C34.177 30.5522 38.1381 23.708 38.8256 18.9468H39.0547C38.4327 26.6837 32.2783 32.2054 22.7847 32.2054Z" fill="white"/>
<path d="M22.7847 34.9166C13.5857 34.9166 4.81228 29.8248 3.27366 18.9468H3.47008C5.04143 28.4691 13.7166 33.2634 22.7847 33.2634C31.82 33.2634 40.4624 28.6014 42.0992 18.9468H42.3284C41.1499 29.5603 32.1473 34.9166 22.7847 34.9166Z" fill="white"/>
<path d="M22.7847 37.6279C12.3744 37.6279 0.982097 31.7425 0 18.9468H0.196432C2.42252 31.9408 14.3386 35.9747 22.7847 35.9747C31.2307 35.9747 43.1468 31.9408 45.3729 18.9468H45.5693C44.5872 31.7425 33.2276 37.6279 22.7847 37.6279Z" fill="white"/>
<path d="M3.47008 10.8795L3.89565 10.0529C3.92839 10.0198 3.89565 9.98675 3.86292 9.95368L3.6665 9.85449C3.63376 9.85449 3.63376 9.85449 3.60102 9.85449C3.56829 9.85449 3.56829 9.88756 3.56829 9.88756L2.48799 11.9044C2.45525 11.9375 2.48798 11.9706 2.52072 12.0036L2.71715 12.1028C2.74988 12.1028 2.74987 12.1028 2.7826 12.1028C2.81534 12.1028 2.81535 12.0698 2.81535 12.0698L3.24093 11.2432L5.43427 12.4335C5.46701 12.4335 5.46701 12.4335 5.49975 12.4335C5.53248 12.4335 5.53248 12.4004 5.53248 12.4004L5.66343 12.169C5.69616 12.1359 5.66343 12.1028 5.63069 12.0698L3.47008 10.8795Z" fill="white"/>
<path d="M6.87468 8.23431C6.28542 7.73835 5.43431 7.53997 4.77958 8.30044C4.51768 8.59801 4.3867 8.96171 4.41944 9.32541C4.45218 9.72218 4.64863 10.1189 5.00873 10.4165C5.59799 10.9125 6.44911 11.1109 7.10384 10.3504C7.36573 10.0528 7.49671 9.68912 7.46397 9.35848C7.43124 8.92865 7.23479 8.53188 6.87468 8.23431ZM7.07114 9.39154C7.07114 9.62299 7.00566 9.85444 6.80924 10.0859C6.31819 10.648 5.66346 10.4496 5.27062 10.0859C5.00873 9.85444 4.81228 9.5238 4.81228 9.22622C4.81228 8.99478 4.87775 8.73027 5.07417 8.53188C5.56522 7.9698 6.21995 8.20125 6.61279 8.53188C6.87468 8.79639 7.0384 9.09397 7.07114 9.39154Z" fill="white"/>
<path d="M10.0174 7.50692L8.02046 7.04402L8.31509 5.39083C8.31509 5.35777 8.31509 5.32471 8.28236 5.32471C8.24962 5.32471 8.21688 5.32471 8.18415 5.32471L7.88952 5.55615L7.85678 5.58922L7.49668 7.67224L6.67826 6.58113C6.64553 6.54807 6.61279 6.54807 6.58005 6.58113L6.3509 6.74645C6.3509 6.74645 6.31816 6.77951 6.31816 6.81258C6.31816 6.84564 6.31816 6.84564 6.31816 6.8787L8.02046 9.12704C8.0532 9.16011 8.08594 9.16011 8.11867 9.12704L8.34783 8.96172C8.34783 8.96172 8.38057 8.92866 8.38057 8.8956C8.38057 8.86253 8.38057 8.86253 8.38057 8.82947L7.82404 8.069L7.92225 7.44079L9.69003 7.87062C9.72276 7.87062 9.72276 7.87062 9.7555 7.87062L10.0501 7.63917C10.0829 7.60611 10.0829 7.60611 10.0829 7.57304C10.0501 7.53998 10.0501 7.53998 10.0174 7.50692Z" fill="white"/>
<path d="M10.5739 5.98599L10.7376 4.00216C10.7376 3.9691 10.7376 3.93604 10.7049 3.93604C10.6721 3.93604 10.6394 3.93604 10.6394 3.93604L10.3448 4.10135C10.312 4.10135 10.312 4.13442 10.312 4.16748L10.1811 5.78761L8.7734 5.0602C8.74066 5.0602 8.74066 5.0602 8.70793 5.0602L8.4133 5.22552C8.38056 5.22552 8.38056 5.25859 8.38056 5.29165C8.38056 5.32471 8.38056 5.35778 8.4133 5.35778L10.1811 6.2505L10.7376 7.24241C10.7376 7.27548 10.7703 7.27548 10.7703 7.27548C10.8031 7.27548 10.8031 7.27548 10.8358 7.27548L11.065 7.14322C11.0977 7.11016 11.0977 7.07709 11.0977 7.04403L10.5739 5.98599Z" fill="white"/>
<path d="M13.2583 2.91102C13.2583 2.87796 13.1928 2.84489 13.1601 2.87795L12.8982 2.97715C12.8655 2.97715 12.8655 3.01022 12.8655 3.01022C12.8655 3.04328 12.8655 3.04327 12.8655 3.07634L13.5202 4.69646C13.6184 4.96097 13.6512 5.19241 13.5857 5.35773C13.5202 5.52305 13.3565 5.65531 13.1274 5.7545C12.8982 5.85369 12.7018 5.85369 12.5381 5.78756C12.3744 5.72143 12.2107 5.52305 12.1125 5.25854L11.4578 3.63843C11.4578 3.60536 11.3923 3.5723 11.3596 3.60536L11.0977 3.70455C11.065 3.70455 11.065 3.73761 11.065 3.73761C11.065 3.77068 11.065 3.77068 11.065 3.80374L11.7524 5.48999C12.0143 6.15126 12.6036 6.38271 13.2911 6.1182C13.6512 5.98594 13.8803 5.7545 13.9785 5.48999C14.0767 5.22548 14.0767 4.9279 13.9458 4.59727L13.2583 2.91102Z" fill="white"/>
<path d="M18.4307 3.07648L18.1688 3.14261C18.1361 3.14261 18.1034 3.17567 18.1034 3.20874C18.1361 3.63857 17.9396 4.10147 17.4159 4.20066C16.6957 4.33292 16.3028 3.77082 16.2046 3.2418C16.1391 2.8781 16.2046 2.5144 16.3683 2.28296C16.4992 2.08457 16.7284 1.95231 16.9903 1.88619C17.3832 1.82006 17.7432 1.98538 17.9069 2.34909C17.9069 2.38215 17.9396 2.41521 18.0051 2.38214L18.267 2.31602C18.2998 2.31602 18.2997 2.28296 18.3325 2.28296C18.3325 2.24989 18.3325 2.24989 18.3325 2.21682C18.1361 1.55555 17.4814 1.39023 16.9576 1.48942C16.5647 1.55555 16.2373 1.75393 16.0409 2.05151C15.8118 2.38214 15.7463 2.81198 15.8118 3.27487C15.9427 4.03535 16.532 4.72969 17.5141 4.5313C18.2015 4.39905 18.5944 3.87002 18.5289 3.10955C18.5289 3.07649 18.5289 3.07648 18.4962 3.04342C18.4634 3.07648 18.4635 3.07648 18.4307 3.07648Z" fill="white"/>
<path d="M19.9366 0.926874C19.5438 0.959938 19.2164 1.12526 18.9872 1.38977C18.7253 1.68734 18.5944 2.11717 18.6271 2.58006C18.6926 3.34053 19.1837 4.10101 20.1658 4.03488C20.5586 4.00182 20.8859 3.83649 21.1151 3.57197C21.377 3.2744 21.508 2.84457 21.4752 2.38168C21.4425 1.62121 20.9187 0.860746 19.9366 0.926874ZM21.0824 2.41474C21.1151 2.77844 21.0169 3.10909 20.8205 3.34054C20.6568 3.53892 20.4277 3.63811 20.1658 3.67117C19.4128 3.7373 19.1182 3.10908 19.0855 2.58006C19.0527 2.21636 19.1509 1.88573 19.3473 1.65428C19.511 1.4559 19.7402 1.35671 20.0021 1.32364C20.7223 1.25751 21.0169 1.88572 21.0824 2.41474Z" fill="white"/>
<path d="M24.1269 3.01013V2.91093C24.1269 2.67948 24.0614 2.38191 23.7995 2.24966C24.0614 2.1174 24.2251 1.88596 24.2251 1.52226C24.2251 1.29081 24.1596 1.09242 24.0286 0.96017C23.865 0.794851 23.6031 0.695663 23.3084 0.695663L21.999 0.662598C21.9662 0.662598 21.9335 0.695655 21.9335 0.728719L21.868 3.57221C21.868 3.60527 21.868 3.60527 21.9008 3.63834C21.9008 3.63834 21.9335 3.6714 21.9662 3.6714H22.2281C22.2609 3.6714 22.2936 3.63833 22.2936 3.60527L22.3263 2.41497L23.2757 2.44804C23.7013 2.44804 23.734 2.74561 23.7668 3.2085V3.27463C23.7668 3.40689 23.7668 3.5722 23.8322 3.70446C23.8322 3.73752 23.865 3.73753 23.8977 3.73753H24.1923C24.2251 3.73753 24.2578 3.73752 24.2578 3.70446C24.2578 3.67139 24.2578 3.63834 24.2578 3.63834C24.1269 3.50608 24.1269 3.20851 24.1269 3.01013ZM22.2936 1.09242L23.243 1.12549C23.4394 1.12549 23.5703 1.19161 23.6685 1.29081C23.734 1.39 23.7995 1.48919 23.7995 1.65451C23.7995 1.98515 23.5049 2.1174 23.243 2.1174L22.2936 2.08434V1.09242Z" fill="white"/>
<path d="M26.1238 0.960241L24.8471 0.794922C24.8143 0.794922 24.8143 0.794922 24.7816 0.794922C24.7816 0.794922 24.7488 0.82799 24.7488 0.861054L24.4215 3.67147C24.4215 3.70454 24.4542 3.7376 24.487 3.77066L24.7488 3.80373C24.7816 3.80373 24.7816 3.80373 24.8143 3.80373C24.8143 3.80373 24.8471 3.77066 24.8471 3.7376L24.978 2.61343L25.8946 2.71262C26.1893 2.74568 26.4184 2.67955 26.6148 2.5473C26.7785 2.41504 26.8767 2.21666 26.9095 1.95215C27.0077 1.39007 26.6803 1.02637 26.1238 0.960241ZM25.1417 1.22475L25.9928 1.32395C26.1893 1.35701 26.5494 1.45619 26.4839 1.88602C26.4511 2.05134 26.4184 2.15053 26.3202 2.21666C26.222 2.31585 26.0583 2.34892 25.8619 2.31586L25.0107 2.21666L25.1417 1.22475Z" fill="white"/>
<path d="M28.8082 1.38981C28.4153 1.29062 28.0553 1.35675 27.7606 1.55513C27.4333 1.75351 27.1714 2.15028 27.0731 2.58011C26.9095 3.34058 27.1714 4.20022 28.1207 4.3986C28.5136 4.49779 28.8737 4.43166 29.1683 4.23328C29.4957 4.0349 29.7575 3.63815 29.8558 3.20832C30.0194 2.44785 29.7575 1.58819 28.8082 1.38981ZM29.4302 3.10913C29.3647 3.47283 29.1683 3.77041 28.9064 3.93572C28.71 4.068 28.4481 4.10103 28.1862 4.0349C27.466 3.86959 27.335 3.20833 27.466 2.67931C27.5315 2.31561 27.7279 2.01803 27.9898 1.85271C28.1862 1.72046 28.4481 1.68739 28.71 1.75351C29.4302 1.91883 29.5611 2.58011 29.4302 3.10913Z" fill="white"/>
<path d="M32.1146 4.8287L32.1473 4.72951C32.2128 4.49806 32.2455 4.23355 32.0164 4.0021C32.311 3.96904 32.5402 3.77066 32.6384 3.47309C32.802 3.01019 32.5729 2.58036 32.0164 2.38197L30.7724 1.95215C30.7396 1.95215 30.7396 1.95215 30.7069 1.95215C30.6742 1.95215 30.6742 1.98522 30.6742 1.98522L29.7575 4.66338C29.7575 4.69644 29.7575 4.72951 29.7903 4.76257L30.0522 4.86176C30.0849 4.86176 30.0849 4.86176 30.1176 4.86176C30.1504 4.86176 30.1504 4.8287 30.1504 4.8287L30.5432 3.70453L31.4598 4.03517C31.8527 4.16742 31.82 4.465 31.689 4.89482V4.96095C31.6563 5.09321 31.5908 5.25853 31.6235 5.39078C31.6235 5.42385 31.6563 5.42385 31.6563 5.45691L31.9509 5.5561C31.9836 5.5561 32.0164 5.5561 32.0164 5.52304C32.0491 5.48997 32.0491 5.45691 32.0164 5.45691C31.9836 5.29159 32.0491 4.99402 32.1146 4.8287ZM30.9688 2.41504L31.8527 2.74568C32.1801 2.87793 32.311 3.07631 32.2128 3.37389C32.1801 3.50614 32.0818 3.57228 31.9836 3.6384C31.8527 3.70453 31.689 3.70453 31.5253 3.6384L30.6414 3.30777L30.9688 2.41504Z" fill="white"/>
<path d="M34.7335 3.6054L34.4716 3.47314C34.4389 3.47314 34.4061 3.47314 34.3734 3.47314L32.0818 5.49004C32.0491 5.5231 32.0491 5.5231 32.0491 5.55616C32.0491 5.58923 32.0818 5.58923 32.0818 5.62229L32.3437 5.75455C32.3765 5.75455 32.4092 5.75455 32.4419 5.75455L33.0967 5.1594L34.177 5.68842L34.1115 6.58114C34.1115 6.6142 34.1115 6.64727 34.1442 6.64727L34.4061 6.77952C34.4389 6.77952 34.4389 6.77952 34.4716 6.77952C34.5043 6.77952 34.5043 6.74646 34.5043 6.71339L34.7335 3.67153C34.7662 3.67153 34.7662 3.63846 34.7335 3.6054ZM34.3407 4.03523L34.2425 5.29165L33.424 4.89489L34.3407 4.03523Z" fill="white"/>
<path d="M37.3852 5.62224C37.4179 5.65531 37.4506 5.62224 37.4834 5.58918L37.6143 5.39079C37.6143 5.35773 37.6143 5.35773 37.6143 5.32467C37.6143 5.2916 37.6143 5.2916 37.5816 5.2916L35.6829 4.03518C35.6501 4.00212 35.6174 4.03518 35.5847 4.06824L35.4537 4.26663C35.4537 4.29969 35.4537 4.29969 35.4537 4.33275C35.4537 4.36582 35.4537 4.36582 35.4864 4.36582L36.2721 4.89484L34.8972 7.01092C34.8972 7.04398 34.8972 7.04398 34.8972 7.07705C34.8972 7.11011 34.8972 7.11011 34.9299 7.11011L35.1591 7.27543C35.1918 7.30849 35.2246 7.27543 35.2573 7.24237L36.6322 5.12628L37.3852 5.62224Z" fill="white"/>
<path d="M38.5309 6.01888L38.3345 5.85356C38.3345 5.85356 38.3018 5.8205 38.2691 5.85356C38.2363 5.85356 38.2363 5.85356 38.2036 5.88663L36.4358 8.1019C36.4031 8.13496 36.4031 8.16803 36.4358 8.20109L36.6322 8.36641C36.6322 8.36641 36.665 8.39947 36.6977 8.36641C36.7304 8.36641 36.7304 8.36641 36.7632 8.33335L38.5309 6.11807C38.5637 6.08501 38.5637 6.05194 38.5309 6.01888Z" fill="white"/>
<path d="M40.1023 7.40772C39.8404 7.11014 39.4803 6.94482 39.1529 6.94482C38.7601 6.94482 38.3673 7.11014 38.0072 7.44078C37.4506 7.9698 37.1887 8.82946 37.8762 9.55686C38.1381 9.85444 38.4655 10.0198 38.8256 10.0198C39.2184 10.0198 39.6113 9.85444 39.9714 9.5238C40.5279 8.99478 40.7898 8.13512 40.1023 7.40772ZM39.6767 9.22622C39.4148 9.49074 39.0875 9.62299 38.7928 9.62299C38.5637 9.62299 38.3345 9.5238 38.1381 9.29235C37.6143 8.73027 37.909 8.10206 38.3018 7.73835C38.5637 7.47384 38.8911 7.34159 39.1857 7.34159C39.4476 7.34159 39.644 7.44078 39.8404 7.67223C40.3642 8.23431 40.0696 8.86252 39.6767 9.22622Z" fill="white"/>
<path d="M42.6558 11.243L42.5248 11.0115C42.4921 10.9785 42.4593 10.9785 42.4266 10.9785L40.5606 12.0365L41.7391 9.58978C41.7391 9.55671 41.7391 9.55671 41.7391 9.52365L41.5754 9.25914C41.5427 9.22607 41.51 9.22607 41.4772 9.22607L39.022 10.6148C38.9893 10.6148 38.9893 10.6478 38.9893 10.6478C38.9893 10.6809 38.9893 10.6809 38.9893 10.7139L39.1202 10.9454C39.1529 10.9785 39.1857 10.9785 39.2184 10.9785L41.0844 9.92041L39.9059 12.3671C39.9059 12.4002 39.9059 12.4002 39.9059 12.4333L40.0696 12.6978C40.1023 12.7308 40.135 12.7308 40.1678 12.7308L42.623 11.3422C42.6558 11.3422 42.6558 11.3091 42.6558 11.3091C42.6885 11.276 42.6885 11.243 42.6558 11.243Z" fill="white"/>
<path d="M77.5202 24.634C79.9427 24.634 81.5795 24.634 81.5795 24.634C83.6092 24.634 84.9187 23.7082 84.9187 21.6582V13.9213C84.9187 11.8713 83.6092 10.9456 81.5795 10.9456C81.5795 10.9456 77.2583 10.9456 72.3478 10.9456V8.96173H87.0465V6.38275H72.3478V4.39893H67.6338V6.38275H52.935V8.96173H67.6338V10.9456C62.7233 10.9456 58.402 10.9456 58.402 10.9456C56.3724 10.9456 55.0629 11.8713 55.0629 13.9213V21.6582C55.0629 23.7082 56.3724 24.634 58.402 24.634C58.402 24.634 60.0389 24.634 62.4614 24.634C58.8604 28.1718 54.2772 31.5443 52.0839 32.966H59.2859C61.5775 31.2798 64.8839 28.3702 67.6338 25.3944V34.1564H72.3478V25.3944C75.0977 28.3702 78.4041 31.2798 80.6957 32.966H87.8977C85.7043 31.5774 81.0885 28.1718 77.5202 24.634ZM80.401 21.1623C80.401 21.7574 79.8772 22.2534 79.2225 22.2534H72.3478V18.9801H80.401V21.1623ZM79.2225 13.3592C79.8772 13.3592 80.401 13.8552 80.401 14.4503V16.6325H72.3478V13.3592H79.2225ZM59.6133 14.4503C59.6133 13.8552 60.1371 13.3592 60.7918 13.3592H67.6665V16.6325H59.6133V14.4503ZM59.6133 21.1623V18.9801H67.6665V22.2534H60.7918C60.1371 22.2534 59.6133 21.7905 59.6133 21.1623Z" fill="white"/>
<path d="M123.842 24.5347H118.801C120.405 26.8822 122.075 29.3289 122.926 31.1474H127.804C126.821 29.2297 125.414 27.0475 123.842 24.5347Z" fill="white"/>
<path d="M108.227 29.9569V23.2781H109.831C110.977 25.0635 112.45 27.6755 113.301 29.5602H118.179C117.361 27.8409 115.724 25.0304 114.643 23.2781H120.929C123.188 23.2781 124.628 22.187 124.628 19.9056V13.3589C124.628 11.0775 123.155 9.98642 120.929 9.98642H118.146C118.146 9.98642 120.765 8.06872 121.191 7.63889C122.042 6.77924 121.649 5.02686 120.078 5.02686H104.495C103.742 5.02686 103.055 5.09298 102.335 5.52281C101.254 6.18409 98.0133 8.73 94.445 9.8211V12.367H118.474C119.292 12.367 119.947 13.0944 119.947 13.8549V15.4419H94.445V17.8225H119.947V19.4096C119.947 20.1701 119.292 20.8975 118.474 20.8975H94.445V23.2781H103.317V31.2134C103.317 33.1641 104.921 34.057 107.441 34.057H122.729V31.1803H109.929C108.882 31.1472 108.227 30.6513 108.227 29.9569ZM114.84 7.70502C114.643 7.9034 112.385 9.4574 111.468 9.98642H102.531C102.335 9.98642 102.335 9.8211 102.465 9.75498C103.677 9.19289 105.117 8.33323 106.688 7.20906C106.688 7.20906 114.251 7.20906 114.643 7.20906C115.004 7.20906 115.069 7.47357 114.84 7.70502Z" fill="white"/>
<path d="M92.579 32.9659H97.8496C98.5698 31.7095 100.469 27.312 101.418 24.5347H96.8348C95.198 28.1717 93.6266 31.3127 92.579 32.9659Z" fill="white"/>
</g>
</g>
<defs>
<clipPath id="clip0_2178_3819">
<rect width="128" height="36.6752" fill="white" transform="translate(0 0.662598)"/>
</clipPath>
<clipPath id="clip1_2178_3819">
<rect width="128" height="37.0314" fill="white" transform="translate(0 0.662598)"/>
</clipPath>
</defs>
</svg>
