<?xml version="1.0" encoding="UTF-8"?>
<svg xmlns="http://www.w3.org/2000/svg" xmlns:xlink="http://www.w3.org/1999/xlink" width="760.55pt" height="204.98pt" viewBox="0 0 760.55 204.98" version="1.1">
<defs>
<clipPath id="clip1">
  <path d="M 706 96 L 760.550781 96 L 760.550781 169 L 706 169 Z M 706 96 "/>
</clipPath>
<clipPath id="clip2">
  <path d="M 0 103 L 139 103 L 139 204.980469 L 0 204.980469 Z M 0 103 "/>
</clipPath>
</defs>
<g id="surface1">
<path style=" stroke:none;fill-rule:nonzero;fill:rgb(100%,100%,100%);fill-opacity:1;" d="M 271.769531 132.980469 C 271.769531 160.421875 285.738281 170.179688 302.972656 170.179688 C 320.203125 170.179688 334.171875 160.421875 334.171875 132.980469 C 334.171875 105.539063 320.304688 95.78125 302.972656 95.78125 C 285.636719 95.78125 271.769531 105.539063 271.769531 132.980469 M 320.371094 132.980469 C 320.371094 151.273438 310.945313 156.078125 302.972656 156.078125 C 294.996094 156.078125 285.570313 151.273438 285.570313 132.980469 C 285.570313 114.683594 295.34375 109.804688 302.972656 109.804688 C 310.597656 109.804688 320.371094 114.683594 320.371094 132.980469 "/>
<path style=" stroke:none;fill-rule:nonzero;fill:rgb(100%,100%,100%);fill-opacity:1;" d="M 396.019531 96.980469 C 395.023438 96.980469 394.21875 97.785156 394.21875 98.78125 L 394.21875 137.78125 C 394.21875 153.679688 385.21875 156.378906 380.417969 156.378906 C 375.617188 156.378906 366.617188 153.679688 366.617188 137.78125 L 366.617188 98.78125 C 366.617188 97.785156 365.8125 96.980469 364.820313 96.980469 L 354.617188 96.980469 C 353.625 96.980469 352.820313 97.785156 352.820313 98.78125 L 352.820313 137.78125 C 352.820313 162.679688 369.019531 170.179688 380.417969 170.179688 C 391.820313 170.179688 408.019531 163.28125 408.019531 137.78125 L 408.019531 98.78125 C 408.019531 97.785156 407.214844 96.980469 406.21875 96.980469 "/>
<path style=" stroke:none;fill-rule:nonzero;fill:rgb(100%,100%,100%);fill-opacity:1;" d="M 612.066406 96.980469 C 611.070313 96.980469 610.265625 97.785156 610.265625 98.78125 L 610.265625 137.78125 C 610.265625 153.679688 601.265625 156.378906 596.464844 156.378906 C 591.664063 156.378906 582.664063 153.679688 582.664063 137.78125 L 582.664063 98.78125 C 582.664063 97.785156 581.859375 96.980469 580.867188 96.980469 L 570.664063 96.980469 C 569.671875 96.980469 568.867188 97.785156 568.867188 98.78125 L 568.867188 137.78125 C 568.867188 162.679688 585.066406 170.179688 596.464844 170.179688 C 607.867188 170.179688 624.066406 163.28125 624.066406 137.78125 L 624.066406 98.78125 C 624.066406 97.785156 623.261719 96.980469 622.265625 96.980469 "/>
<path style=" stroke:none;fill-rule:nonzero;fill:rgb(100%,100%,100%);fill-opacity:1;" d="M 478.519531 98.78125 C 478.519531 97.785156 477.714844 96.980469 476.71875 96.980469 L 426.320313 96.980469 C 425.324219 96.980469 424.519531 97.785156 424.519531 98.78125 L 424.519531 108.980469 C 424.519531 109.972656 425.324219 110.78125 426.320313 110.78125 L 444.617188 110.78125 L 444.617188 167.179688 C 444.617188 168.175781 445.425781 168.980469 446.417969 168.980469 L 456.617188 168.980469 C 457.613281 168.980469 458.417969 168.175781 458.417969 167.179688 L 458.417969 110.78125 L 476.71875 110.78125 C 477.714844 110.78125 478.519531 109.972656 478.519531 108.980469 "/>
<g clip-path="url(#clip1)" clip-rule="nonzero">
<path style=" stroke:none;fill-rule:nonzero;fill:rgb(100%,100%,100%);fill-opacity:1;" d="M 760.550781 98.78125 C 760.550781 97.785156 759.746094 96.980469 758.753906 96.980469 L 708.351563 96.980469 C 707.359375 96.980469 706.550781 97.785156 706.550781 98.78125 L 706.550781 108.980469 C 706.550781 109.972656 707.359375 110.78125 708.351563 110.78125 L 726.652344 110.78125 L 726.652344 167.179688 C 726.652344 168.175781 727.457031 168.980469 728.453125 168.980469 L 738.652344 168.980469 C 739.644531 168.980469 740.453125 168.175781 740.453125 167.179688 L 740.453125 110.78125 L 758.753906 110.78125 C 759.746094 110.78125 760.550781 109.972656 760.550781 108.980469 "/>
</g>
<path style=" stroke:none;fill-rule:nonzero;fill:rgb(100%,100%,100%);fill-opacity:1;" d="M 508.820313 131.179688 L 508.820313 110.78125 L 522.617188 110.78125 C 528.738281 110.722656 535.21875 113.179688 535.21875 120.980469 C 535.21875 128.78125 528.242188 131.179688 522.617188 131.179688 Z M 549.019531 120.980469 C 549.019531 109.28125 542.71875 96.980469 525.019531 96.980469 L 496.820313 96.980469 C 495.828125 96.980469 495.019531 97.789063 495.019531 98.78125 L 495.019531 167.179688 C 495.019531 168.175781 495.824219 168.980469 496.820313 168.980469 L 507.019531 168.980469 C 508.011719 168.980469 508.820313 168.175781 508.820313 167.179688 L 508.820313 144.980469 L 525.019531 144.980469 C 525.710938 144.980469 526.382813 144.957031 527.039063 144.921875 L 534.804688 167.757813 C 535.050781 168.488281 535.738281 168.980469 536.507813 168.980469 L 546.503906 168.980469 C 547.738281 168.980469 548.605469 167.769531 548.210938 166.601563 L 539.53125 141.078125 C 546.328125 136.519531 549.019531 128.621094 549.019531 120.980469 "/>
<path style=" stroke:none;fill-rule:nonzero;fill:rgb(100%,100%,100%);fill-opacity:1;" d="M 641.222656 151.871094 L 650.578125 146.53125 C 651.46875 146.023438 652.609375 146.355469 653.070313 147.273438 C 655.894531 152.890625 660.929688 156.039063 669.285156 156.039063 C 678.039063 156.039063 681.351563 152.964844 681.351563 148.945313 C 681.351563 143.589844 676.140625 141.53125 665.171875 138.4375 C 653.882813 135.246094 643.253906 130.609375 643.253906 116.910156 C 643.253906 103.3125 654.515625 95.78125 667.175781 95.78125 C 678.648438 95.78125 687.574219 100.949219 692.703125 110.050781 C 693.191406 110.921875 692.894531 112.023438 692.023438 112.515625 L 682.914063 117.652344 C 682.066406 118.132813 680.980469 117.851563 680.488281 117.007813 C 677.847656 112.503906 673.925781 109.921875 667.175781 109.921875 C 661.058594 109.921875 657.050781 112.378906 657.050781 116.496094 C 657.050781 120.929688 660.320313 123.296875 671.5 126.59375 C 683.210938 130.199219 695.152344 134.011719 695.152344 148.742188 C 695.152344 162.234375 684.582031 170.179688 668.863281 170.179688 C 654.503906 170.179688 644.828125 164.007813 640.472656 154.171875 C 640.097656 153.324219 640.417969 152.332031 641.222656 151.871094 "/>
<path style=" stroke:none;fill-rule:evenodd;fill:rgb(100%,100%,100%);fill-opacity:1;" d="M 249.863281 98.03125 L 231.53125 129.84375 C 231.414063 130.042969 231.128906 130.042969 231.011719 129.84375 L 212.675781 98.03125 C 212.34375 97.453125 211.523438 96.980469 210.855469 96.980469 L 199.371094 96.980469 C 197.941406 96.980469 197.355469 97.992188 198.074219 99.230469 L 224.371094 144.679688 L 224.371094 168.378906 C 224.371094 169.371094 225.179688 170.179688 226.171875 170.179688 L 236.371094 170.179688 C 237.359375 170.179688 238.171875 169.371094 238.171875 168.378906 L 238.171875 144.679688 L 264.46875 99.230469 C 265.1875 97.992188 264.601563 96.980469 263.171875 96.980469 L 251.683594 96.980469 C 251.015625 96.980469 250.199219 97.453125 249.863281 98.03125 "/>
<g clip-path="url(#clip2)" clip-rule="nonzero">
<path style=" stroke:none;fill-rule:nonzero;fill:rgb(7.835388%,45.872498%,46.655273%);fill-opacity:1;" d="M 138.078125 147.277344 L 107.8125 139.714844 C 101.511719 118.972656 82.238281 103.875 59.4375 103.875 C 45.46875 103.875 32.824219 109.539063 23.675781 118.695313 C 17.960938 124.40625 10.066406 127.9375 1.347656 127.9375 C 0.953125 127.9375 0.558594 127.925781 0.164063 127.910156 C 0.0585938 129.585938 0 131.277344 0 132.980469 C 0 154.875 8.703125 174.734375 22.835938 189.296875 C 32.042969 198.957031 45.035156 204.980469 59.4375 204.980469 C 73.398438 204.980469 86.039063 199.320313 95.1875 190.167969 "/>
</g>
<path style=" stroke:none;fill-rule:nonzero;fill:rgb(18.431091%,61.521912%,64.256287%);fill-opacity:1;" d="M 138.925781 76.65625 C 129.71875 66.996094 116.726563 60.980469 102.332031 60.980469 C 88.371094 60.980469 75.734375 66.636719 66.585938 75.785156 L 24.191406 118.179688 C 24.132813 118.238281 24.074219 118.292969 24.015625 118.351563 C 23.871094 118.5 23.722656 118.644531 23.574219 118.789063 C 19.613281 122.714844 14.617188 125.597656 9.03125 126.992188 C 10.0625 129 11.179688 130.953125 12.367188 132.859375 L 12.367188 132.863281 C 12.632813 133.289063 12.902344 133.710938 13.171875 134.128906 C 13.195313 134.160156 13.214844 134.191406 13.234375 134.222656 C 13.234375 134.222656 13.234375 134.21875 13.234375 134.21875 C 27.667969 156.339844 52.632813 170.960938 81.015625 170.960938 C 104.023438 170.960938 124.78125 161.355469 139.507813 145.9375 C 145.078125 141.015625 152.398438 138.023438 160.417969 138.023438 C 160.816406 138.023438 161.210938 138.035156 161.605469 138.046875 C 161.710938 136.371094 161.769531 134.683594 161.769531 132.980469 C 161.769531 111.082031 153.0625 91.21875 138.925781 76.65625 "/>
<path style=" stroke:none;fill-rule:nonzero;fill:rgb(100%,100%,100%);fill-opacity:1;" d="M 159.363281 22.847656 C 159.363281 23.273438 159.695313 23.699219 160.214844 23.699219 L 165.179688 23.699219 C 165.636719 23.699219 166.03125 23.304688 166.03125 22.847656 L 166.03125 22.449219 C 166.03125 21.992188 165.636719 21.597656 165.179688 21.597656 L 160.214844 21.597656 C 159.726563 21.597656 159.363281 21.992188 159.363281 22.449219 Z M 166.671875 17.394531 L 158.691406 17.394531 C 157.746094 17.394531 156.835938 17.457031 155.890625 17.457031 C 155.097656 17.457031 155.035156 17.242188 155.035156 16.421875 L 155.035156 15.050781 C 155.035156 14.378906 155.097656 14.136719 155.859375 14.136719 C 156.804688 14.136719 157.746094 14.195313 158.691406 14.195313 L 166.671875 14.195313 C 167.617188 14.195313 168.558594 14.136719 169.503906 14.136719 C 170.265625 14.136719 170.324219 14.378906 170.324219 15.050781 L 170.324219 16.421875 C 170.324219 17.242188 170.265625 17.457031 169.472656 17.457031 C 168.527344 17.457031 167.617188 17.394531 166.671875 17.394531 M 166.671875 13.191406 L 158.691406 13.191406 C 157.746094 13.191406 156.835938 13.285156 155.890625 13.285156 C 155.097656 13.285156 155.035156 13.039063 155.035156 12.21875 L 155.035156 10.878906 C 155.035156 10.175781 155.097656 9.933594 155.859375 9.933594 C 156.804688 9.933594 157.746094 9.992188 158.691406 9.992188 L 166.671875 9.992188 C 167.617188 9.992188 168.558594 9.933594 169.503906 9.933594 C 170.265625 9.933594 170.324219 10.175781 170.324219 10.878906 L 170.324219 12.21875 C 170.324219 13.039063 170.265625 13.285156 169.472656 13.285156 C 168.527344 13.285156 167.617188 13.191406 166.671875 13.191406 M 160.0625 26.960938 C 159.820313 26.960938 159.421875 26.960938 159.421875 27.445313 C 159.421875 27.507813 159.453125 27.566406 159.453125 27.660156 C 159.453125 28.511719 159.089844 28.511719 157.59375 28.511719 L 156.46875 28.511719 C 155.3125 28.511719 154.945313 28.449219 154.945313 27.71875 C 154.945313 26.929688 155.035156 25.832031 155.035156 24.886719 L 155.035156 22.117188 C 155.035156 21.324219 154.976563 20.53125 154.976563 19.742188 C 154.976563 18.460938 155.769531 18.277344 156.863281 18.277344 C 157.71875 18.277344 158.601563 18.339844 159.453125 18.339844 L 165.910156 18.339844 C 166.792969 18.339844 167.644531 18.277344 168.527344 18.277344 C 169.625 18.277344 170.417969 18.460938 170.417969 19.769531 C 170.417969 20.53125 170.355469 21.324219 170.355469 22.117188 L 170.355469 24.886719 C 170.355469 25.863281 170.449219 26.804688 170.449219 27.71875 C 170.449219 28.449219 170.113281 28.511719 168.894531 28.511719 L 167.675781 28.511719 C 166.429688 28.511719 165.941406 28.511719 165.941406 27.71875 L 165.941406 27.476563 C 165.941406 27.078125 165.726563 26.960938 165.363281 26.960938 Z M 168.347656 9.140625 L 157.261719 9.140625 C 156.226563 9.140625 155.160156 9.203125 154.125 9.203125 C 153.363281 9.203125 153.300781 8.960938 153.300781 8.195313 L 153.300781 6.828125 C 153.300781 6.066406 153.363281 5.820313 154.125 5.820313 C 155.160156 5.820313 156.226563 5.882813 157.261719 5.882813 L 168.347656 5.882813 C 169.382813 5.882813 170.449219 5.820313 171.484375 5.820313 C 172.246094 5.820313 172.304688 6.066406 172.304688 6.828125 L 172.304688 8.195313 C 172.304688 8.960938 172.246094 9.203125 171.484375 9.203125 C 170.449219 9.203125 169.382813 9.140625 168.347656 9.140625 M 166.703125 1.648438 C 167.644531 1.648438 168.558594 1.589844 169.503906 1.589844 C 170.296875 1.589844 170.355469 1.832031 170.355469 2.5625 L 170.355469 3.964844 C 170.355469 4.785156 170.296875 5.03125 169.503906 5.03125 C 168.589844 5.03125 167.644531 4.96875 166.703125 4.96875 L 158.78125 4.96875 C 157.839844 4.96875 156.894531 5.03125 155.949219 5.03125 C 155.097656 5.03125 155.097656 4.757813 155.097656 3.71875 L 155.097656 3.535156 C 155.097656 3.265625 155.097656 3.019531 154.855469 3.019531 C 154.519531 3.019531 154.304688 3.535156 154.214844 3.78125 C 153.605469 5.183594 152.507813 7.527344 151.777344 8.835938 C 151.6875 8.960938 151.625 9.078125 151.625 9.265625 C 151.625 9.597656 151.929688 9.691406 152.175781 9.71875 C 152.386719 9.75 152.660156 9.84375 152.660156 10.117188 C 152.660156 10.269531 152.570313 10.359375 152.355469 10.542969 C 152.082031 10.785156 152.050781 11.335938 152.050781 11.578125 L 152.050781 23.394531 C 152.050781 24.796875 152.144531 26.195313 152.144531 27.628906 C 152.144531 28.390625 151.808594 28.449219 150.773438 28.449219 L 148.914063 28.449219 C 147.910156 28.449219 147.574219 28.390625 147.574219 27.628906 C 147.574219 26.195313 147.667969 24.796875 147.667969 23.394531 L 147.667969 16.269531 C 147.667969 16.023438 147.667969 15.75 147.394531 15.75 C 147.238281 15.75 147.179688 15.84375 147.089844 15.933594 C 146.964844 16.054688 146.8125 16.144531 146.632813 16.144531 C 145.898438 16.144531 144.195313 13.222656 144.195313 12.492188 C 144.195313 12.15625 144.46875 11.789063 144.925781 11.242188 C 146.996094 8.652344 149.097656 4.847656 150.042969 1.679688 C 150.164063 1.253906 150.285156 0.734375 150.804688 0.734375 C 150.988281 0.734375 151.140625 0.765625 151.351563 0.828125 C 151.839844 1.011719 154.398438 1.894531 154.761719 1.894531 C 154.945313 1.894531 155.097656 1.800781 155.25 1.710938 C 155.492188 1.617188 155.769531 1.589844 156.011719 1.589844 C 156.925781 1.589844 157.839844 1.648438 158.78125 1.648438 "/>
<path style=" stroke:none;fill-rule:nonzero;fill:rgb(100%,100%,100%);fill-opacity:1;" d="M 204.210938 18.644531 C 204.210938 18.429688 204.058594 18.246094 203.84375 18.246094 L 201.46875 18.246094 C 201.253906 18.246094 201.101563 18.429688 201.101563 18.644531 L 201.101563 18.828125 C 201.101563 19.039063 201.253906 19.222656 201.46875 19.222656 L 203.84375 19.222656 C 204.058594 19.222656 204.210938 19.039063 204.210938 18.828125 Z M 204.210938 14.777344 C 204.210938 14.5625 204.058594 14.378906 203.84375 14.378906 L 201.46875 14.378906 C 201.253906 14.378906 201.101563 14.5625 201.101563 14.777344 L 201.101563 14.929688 C 201.101563 15.171875 201.253906 15.324219 201.46875 15.324219 L 203.84375 15.324219 C 204.058594 15.324219 204.210938 15.171875 204.210938 14.929688 Z M 204.210938 10.847656 C 204.210938 10.632813 204.058594 10.449219 203.84375 10.449219 L 201.46875 10.449219 C 201.253906 10.449219 201.101563 10.632813 201.101563 10.847656 L 201.101563 11 C 201.101563 11.214844 201.253906 11.394531 201.46875 11.394531 L 203.84375 11.394531 C 204.058594 11.394531 204.210938 11.242188 204.210938 11 Z M 201.195313 22.757813 C 201.011719 22.757813 200.707031 22.785156 200.707031 23.03125 C 200.707031 23.242188 201.558594 24.035156 201.742188 24.21875 C 201.957031 24.429688 202.597656 25.011719 202.597656 25.285156 C 202.597656 25.464844 202.414063 25.617188 202.199219 25.617188 C 202.109375 25.617188 201.894531 25.558594 201.710938 25.558594 C 201.589844 25.558594 201.558594 25.589844 201.46875 25.648438 C 200.769531 26.226563 197.449219 28.574219 196.71875 28.574219 C 195.984375 28.574219 194.34375 26.289063 194.34375 25.738281 C 194.34375 25.496094 194.554688 25.40625 194.921875 25.222656 C 195.40625 24.980469 198.238281 23.546875 198.238281 23.089844 C 198.238281 22.816406 197.90625 22.816406 197.753906 22.816406 C 196.929688 22.757813 196.6875 22.117188 196.6875 21.414063 C 196.6875 20.441406 196.746094 19.496094 196.746094 18.523438 L 196.746094 11.214844 C 196.746094 10.269531 196.6875 9.292969 196.6875 8.351563 C 196.6875 7.222656 197.175781 6.917969 198.210938 6.917969 L 198.515625 6.917969 C 198.851563 6.917969 199.214844 6.855469 199.429688 6.582031 C 199.519531 6.492188 199.792969 5.851563 199.792969 5.730469 C 199.792969 5.457031 199.550781 5.394531 199.335938 5.394531 C 198.515625 5.394531 197.691406 5.488281 196.871094 5.488281 C 196.261719 5.488281 196.199219 5.152344 196.199219 4.207031 L 196.199219 2.714844 C 196.199219 1.863281 196.261719 1.558594 196.871094 1.558594 C 197.601563 1.558594 198.574219 1.617188 199.609375 1.617188 L 206.097656 1.617188 C 207.132813 1.617188 208.109375 1.558594 208.839844 1.558594 C 209.449219 1.558594 209.507813 1.832031 209.507813 2.5625 L 209.507813 4.328125 C 209.507813 5.214844 209.449219 5.488281 208.871094 5.488281 C 208.078125 5.488281 207.101563 5.394531 206.097656 5.394531 L 205.246094 5.394531 C 204.847656 5.394531 204.574219 5.546875 204.332031 5.789063 C 203.996094 6.097656 203.875 6.554688 203.875 6.613281 C 203.875 6.765625 203.996094 6.980469 204.394531 6.980469 C 205.246094 6.980469 206.097656 6.917969 206.921875 6.917969 C 207.984375 6.917969 208.535156 7.160156 208.535156 8.320313 C 208.535156 9.292969 208.472656 10.238281 208.472656 11.214844 L 208.472656 18.523438 C 208.472656 19.496094 208.535156 20.441406 208.535156 21.414063 C 208.535156 22.757813 207.804688 22.847656 206.796875 22.847656 C 206.707031 22.847656 206.617188 22.816406 206.523438 22.816406 C 206.371094 22.816406 206.25 22.878906 206.25 23.0625 C 206.25 23.394531 209.082031 24.886719 209.539063 25.101563 C 209.78125 25.222656 209.964844 25.34375 209.964844 25.617188 C 209.964844 26.351563 208.414063 28.449219 207.652344 28.449219 C 207.074219 28.449219 202.871094 25.617188 202.871094 25.039063 C 202.871094 24.582031 203.691406 23.820313 203.996094 23.515625 C 204.179688 23.335938 204.332031 23.210938 204.332031 23.0625 C 204.332031 22.847656 204.148438 22.785156 203.964844 22.757813 Z M 191.539063 14.652344 C 191.722656 14.652344 191.875 14.503906 191.875 14.320313 L 191.875 12.644531 C 191.875 12.460938 191.722656 12.308594 191.539063 12.308594 L 191.355469 12.308594 C 191.175781 12.308594 191.023438 12.460938 191.023438 12.644531 L 191.023438 14.320313 C 191.023438 14.503906 191.144531 14.625 191.355469 14.652344 Z M 187.246094 14.652344 C 187.460938 14.625 187.582031 14.503906 187.582031 14.320313 L 187.582031 12.644531 C 187.582031 12.460938 187.429688 12.308594 187.246094 12.308594 L 187.0625 12.308594 C 186.878906 12.308594 186.726563 12.460938 186.726563 12.644531 L 186.726563 14.320313 C 186.726563 14.503906 186.878906 14.652344 187.0625 14.652344 Z M 195.40625 15.171875 C 195.40625 16.023438 195.46875 16.664063 195.46875 17.03125 C 195.46875 18.035156 194.371094 18.125 193.609375 18.125 L 193.214844 18.125 C 192.941406 18.125 192.605469 18.1875 192.605469 18.523438 C 192.605469 19.039063 195.4375 21.476563 195.957031 21.871094 C 196.109375 21.992188 196.320313 22.175781 196.320313 22.390625 C 196.320313 23.0625 194.34375 25.285156 193.640625 25.285156 C 193.246094 25.285156 192.210938 24.003906 191.9375 23.667969 C 191.875 23.546875 191.753906 23.425781 191.632813 23.425781 C 191.355469 23.425781 191.328125 23.730469 191.328125 23.914063 C 191.328125 25.222656 191.417969 26.503906 191.417969 27.8125 C 191.417969 28.480469 191.113281 28.542969 190.199219 28.542969 L 188.492188 28.542969 C 187.609375 28.542969 187.277344 28.480469 187.277344 27.871094 C 187.277344 26.960938 187.335938 25.921875 187.335938 25.011719 C 187.335938 24.523438 187.335938 24.339844 187.183594 24.339844 C 187.003906 24.339844 186.878906 24.675781 186.820313 24.828125 C 186.605469 25.375 186.148438 26.289063 185.875 26.835938 C 185.601563 27.355469 185.480469 27.539063 185.265625 27.539063 C 184.414063 27.539063 181.945313 26.257813 181.945313 25.589844 C 181.945313 25.4375 182.066406 25.285156 182.25 25.070313 C 182.890625 24.277344 185.964844 19.375 185.964844 18.613281 C 185.964844 18.1875 185.570313 18.125 185.234375 18.125 L 184.960938 18.125 C 184.199219 18.125 183.105469 18.035156 183.105469 17.03125 C 183.105469 16.664063 183.164063 16.023438 183.164063 15.171875 L 183.164063 11.730469 C 183.164063 10.96875 183.105469 10.328125 183.105469 9.871094 C 183.105469 8.777344 184.320313 8.746094 185.113281 8.746094 C 185.632813 8.746094 186.332031 8.777344 186.636719 8.777344 C 187.03125 8.777344 187.367188 8.472656 187.367188 8.046875 L 187.367188 7.800781 C 187.367188 7.40625 187.03125 7.070313 186.636719 7.070313 L 186.148438 7.070313 C 185.203125 7.070313 184.261719 7.132813 183.347656 7.132813 C 182.554688 7.132813 182.492188 6.765625 182.492188 5.945313 L 182.492188 4.511719 C 182.492188 3.691406 182.554688 3.324219 183.347656 3.324219 C 184.320313 3.324219 185.328125 3.386719 186.300781 3.386719 C 186.820313 3.386719 187.335938 3.203125 187.335938 2.59375 C 187.335938 2.410156 187.277344 1.679688 187.277344 1.3125 C 187.277344 0.917969 187.519531 0.917969 187.824219 0.917969 C 188.648438 0.917969 190.109375 0.980469 190.992188 1.011719 C 191.449219 1.039063 191.9375 1.101563 191.9375 1.4375 C 191.9375 1.617188 191.78125 1.710938 191.660156 1.832031 C 191.480469 1.984375 191.355469 2.289063 191.355469 2.53125 C 191.355469 3.050781 191.78125 3.386719 192.300781 3.386719 C 193.183594 3.386719 194.035156 3.324219 194.890625 3.324219 C 195.683594 3.324219 195.742188 3.691406 195.742188 4.511719 L 195.742188 5.945313 C 195.742188 6.796875 195.683594 7.132813 194.890625 7.132813 C 194.007813 7.132813 193.125 7.070313 192.238281 7.070313 C 191.722656 7.070313 191.328125 7.375 191.328125 7.863281 L 191.328125 8.046875 C 191.328125 8.441406 191.660156 8.777344 192.058594 8.777344 C 192.269531 8.777344 193.03125 8.746094 193.488281 8.746094 C 194.28125 8.746094 195.46875 8.808594 195.46875 9.871094 C 195.46875 10.300781 195.40625 10.847656 195.40625 11.730469 "/>
<path style=" stroke:none;fill-rule:nonzero;fill:rgb(100%,100%,100%);fill-opacity:1;" d="M 244.566406 13.191406 C 244.566406 13.800781 242.953125 14.777344 242.617188 14.777344 C 242.402344 14.777344 242.253906 14.503906 242.160156 14.351563 C 241.582031 13.40625 240.910156 12.550781 240.210938 11.699219 C 240.121094 11.578125 239.96875 11.394531 239.96875 11.242188 C 239.96875 10.847656 241.644531 9.902344 242.007813 9.902344 C 242.34375 9.902344 244.566406 12.796875 244.566406 13.191406 M 238.507813 12.066406 C 238.902344 12.523438 240.578125 14.59375 240.578125 15.050781 C 240.578125 15.660156 238.933594 16.601563 238.628906 16.601563 C 238.476563 16.601563 238.414063 16.511719 238.019531 15.902344 C 237.441406 15.019531 236.832031 14.226563 236.160156 13.375 C 236.039063 13.222656 236.007813 13.132813 236.007813 13.039063 C 236.007813 12.613281 237.714844 11.699219 238.050781 11.699219 C 238.199219 11.699219 238.382813 11.914063 238.507813 12.066406 M 218.28125 7.007813 C 218.28125 6.066406 218.617188 6.035156 221.96875 5.851563 C 222.578125 5.820313 223.277344 5.789063 224.128906 5.730469 C 227.96875 5.484375 236.800781 4.480469 240.515625 3.78125 C 240.636719 3.75 240.730469 3.75 240.820313 3.75 C 241.367188 3.75 241.460938 4.175781 241.582031 4.753906 C 241.765625 5.546875 241.976563 7.34375 241.976563 8.136719 C 241.976563 8.714844 241.644531 8.714844 240.335938 8.746094 C 238.71875 8.777344 237.53125 8.746094 235.976563 9.292969 C 232.230469 10.632813 229.671875 14.167969 229.671875 18.1875 C 229.671875 21.078125 231.195313 21.871094 233.878906 21.871094 C 234.636719 21.871094 235.644531 21.78125 236.070313 21.78125 C 236.648438 21.78125 236.859375 21.871094 236.859375 22.449219 C 236.859375 23.335938 236.648438 25.222656 236.34375 26.015625 C 236.101563 26.621094 235.671875 26.714844 235.035156 26.714844 C 229.398438 26.714844 224.679688 25.253906 224.679688 18.675781 C 224.679688 15.628906 225.59375 13.375 227.296875 10.910156 C 227.390625 10.753906 227.480469 10.632813 227.480469 10.449219 C 227.480469 10.175781 227.269531 9.992188 226.933594 9.992188 C 226.535156 9.992188 225.714844 10.175781 225.289063 10.269531 C 223.671875 10.574219 221.570313 11.027344 219.988281 11.484375 C 219.867188 11.515625 219.683594 11.546875 219.5625 11.546875 C 218.921875 11.546875 218.710938 10.175781 218.558594 9.234375 C 218.40625 8.199219 218.28125 7.617188 218.28125 7.007813 "/>
<path style=" stroke:none;fill-rule:nonzero;fill:rgb(100%,100%,100%);fill-opacity:1;" d="M 275.453125 8.289063 C 276.914063 9.8125 277.675781 11.914063 277.675781 13.984375 C 277.675781 18.980469 273.992188 22.359375 269.636719 24.066406 C 268.265625 24.613281 264.945313 25.589844 263.515625 25.589844 C 262.8125 25.589844 262.507813 25.070313 262.234375 24.492188 C 261.929688 23.851563 261.289063 22.269531 261.289063 21.597656 C 261.289063 20.988281 261.960938 20.867188 262.449219 20.835938 C 264.578125 20.714844 266.40625 20.289063 268.324219 19.4375 C 270.609375 18.398438 272.773438 16.695313 272.773438 13.984375 C 272.773438 11.699219 271.066406 10.574219 268.964844 10.574219 C 264.886719 10.574219 260.5 12.765625 257.027344 14.683594 C 256.722656 14.867188 256.476563 14.988281 256.113281 14.988281 C 254.804688 14.988281 252.945313 11.820313 252.945313 10.601563 C 252.945313 10.144531 253.339844 10.023438 253.707031 9.933594 C 256.417969 9.140625 259.066406 8.167969 261.71875 7.285156 C 264.0625 6.492188 266.347656 5.851563 268.8125 5.851563 C 271.25 5.851563 273.71875 6.492188 275.453125 8.289063 "/>
<path style=" stroke:none;fill-rule:nonzero;fill:rgb(100%,100%,100%);fill-opacity:1;" d="M 308.714844 8.195313 C 309.414063 8.835938 311.335938 10.664063 311.335938 11.304688 C 311.335938 12.246094 308.867188 14.347656 308.105469 14.347656 C 307.738281 14.347656 307.464844 13.894531 307.253906 13.558594 C 306.214844 12.066406 304.878906 10.785156 303.445313 9.628906 C 303.199219 9.445313 302.898438 9.234375 302.898438 8.988281 C 302.898438 8.503906 304.847656 6.003906 305.699219 6.003906 C 306.277344 6.003906 308.226563 7.738281 308.714844 8.195313 M 298.238281 22.9375 C 298.238281 23.546875 298.847656 23.851563 299.363281 23.851563 C 300.066406 23.851563 300.308594 23.488281 300.308594 22.847656 C 300.308594 22.449219 300.277344 22.117188 299.394531 22.117188 C 298.878906 22.117188 298.238281 22.328125 298.238281 22.9375 M 303.597656 11.820313 C 304.113281 11.945313 304.390625 12.15625 304.390625 12.703125 C 304.390625 13.007813 304.328125 13.558594 304.328125 14.105469 C 304.328125 15.628906 304.449219 17.121094 304.542969 18.613281 C 304.570313 19.34375 304.722656 19.527344 305.425781 19.800781 C 306.277344 20.136719 310.113281 21.933594 310.113281 22.785156 C 310.113281 23.457031 308.410156 25.953125 307.433594 25.953125 C 307.191406 25.953125 306.765625 25.679688 306.09375 25.160156 C 305.910156 25.007813 305.730469 24.855469 305.515625 24.703125 C 305.363281 24.582031 305.242188 24.523438 305.027344 24.523438 C 304.542969 24.523438 304.421875 24.886719 304.359375 25.039063 C 304.144531 25.527344 303.6875 26.105469 303.324219 26.472656 C 302.378906 27.386719 300.917969 27.628906 299.636719 27.628906 C 296.746094 27.628906 293.730469 26.226563 293.730469 22.9375 C 293.730469 19.890625 296.410156 18.582031 299.121094 18.582031 L 299.363281 18.582031 C 299.851563 18.582031 300.09375 18.277344 300.09375 17.851563 C 300.09375 17.335938 299.820313 14.625 299.730469 13.710938 C 299.667969 13.253906 299.609375 12.734375 299.609375 12.277344 C 299.609375 11.640625 299.851563 11.394531 300.519531 11.394531 C 301.3125 11.394531 302.804688 11.640625 303.597656 11.820313 M 299.515625 2.257813 C 299.882813 2.347656 300.21875 2.472656 300.21875 2.652344 C 300.21875 2.804688 300.003906 2.960938 299.636719 3.203125 C 299.453125 3.324219 299.210938 4.390625 299.089844 4.90625 C 299.058594 5.03125 299.027344 5.089844 299.027344 5.152344 C 299.027344 5.242188 299 5.363281 299 5.488281 C 299 5.667969 299.152344 5.914063 299.363281 5.914063 C 299.515625 5.914063 299.851563 5.789063 300.035156 5.730469 C 300.21875 5.667969 300.367188 5.609375 300.550781 5.609375 C 300.824219 5.609375 300.917969 5.761719 300.976563 6.066406 C 301.070313 6.550781 301.28125 8.503906 301.28125 9.234375 C 301.28125 9.933594 300.855469 10.054688 298.480469 10.480469 C 297.414063 10.664063 297.382813 10.878906 297.019531 11.851563 C 296.5 13.253906 295.921875 14.625 295.3125 15.992188 C 294.519531 17.789063 293.699219 19.617188 292.753906 21.355469 C 292.511719 21.78125 292.207031 22.269531 292.023438 22.632813 C 291.871094 22.9375 291.75 23.089844 291.355469 23.089844 C 290.316406 23.089844 287.394531 21.8125 287.394531 21.019531 C 287.394531 20.835938 287.820313 20.136719 288.035156 19.800781 C 288.644531 18.765625 291.964844 12.703125 291.964844 11.945313 C 291.964844 11.640625 291.6875 11.488281 291.445313 11.488281 C 291.261719 11.488281 290.652344 11.546875 290.441406 11.578125 C 290.105469 11.609375 289.464844 11.667969 289.101563 11.667969 C 288.460938 11.667969 288.1875 11.394531 287.972656 8.804688 C 287.941406 8.5625 287.882813 8.015625 287.882813 7.738281 C 287.882813 7.3125 288.125 7.191406 288.492188 7.191406 C 289.007813 7.191406 289.738281 7.253906 290.410156 7.253906 C 293.179688 7.253906 293.578125 7.191406 293.882813 6.398438 C 294.277344 5.363281 294.644531 2.625 294.644531 1.679688 C 294.644531 1.4375 294.644531 1.191406 294.855469 1.191406 C 295.253906 1.191406 298.90625 2.105469 299.515625 2.257813 "/>
<path style=" stroke:none;fill-rule:nonzero;fill:rgb(100%,100%,100%);fill-opacity:1;" d="M 347.757813 0.554688 C 348.183594 0.949219 349.949219 2.59375 349.949219 3.019531 C 349.949219 3.628906 348.488281 4.785156 348.152344 4.785156 C 347.96875 4.785156 347.785156 4.542969 347.695313 4.390625 C 347.027344 3.570313 346.234375 2.808594 345.472656 2.046875 C 345.351563 1.925781 345.136719 1.742188 345.136719 1.558594 C 345.136719 1.132813 346.691406 0.00390625 347.027344 0.00390625 C 347.238281 0.00390625 347.664063 0.460938 347.757813 0.554688 M 345.53125 3.628906 C 346.324219 4.421875 346.933594 5.089844 346.933594 5.363281 C 346.933594 5.972656 345.503906 7.101563 345.136719 7.101563 C 345.015625 7.101563 344.832031 6.917969 344.679688 6.734375 C 344.011719 5.914063 343.246094 5.121094 342.488281 4.359375 C 342.304688 4.207031 342.152344 4.054688 342.152344 3.902344 C 342.152344 3.476563 343.675781 2.320313 344.039063 2.320313 C 344.253906 2.320313 344.984375 3.082031 345.53125 3.628906 M 342.546875 6.128906 C 343.464844 7.070313 344.222656 8.015625 345.015625 9.171875 C 345.472656 9.8125 347.511719 12.796875 347.511719 13.375 C 347.511719 14.382813 344.742188 15.964844 343.890625 15.964844 C 343.554688 15.964844 343.402344 15.691406 343.128906 15.140625 C 341.96875 12.734375 340.8125 10.359375 338.894531 8.320313 C 338.742188 8.167969 338.558594 7.953125 338.558594 7.769531 C 338.558594 7.132813 340.902344 5.578125 341.605469 5.578125 C 342 5.578125 342.273438 5.851563 342.546875 6.128906 M 330.152344 3.113281 C 330.152344 2.808594 330.214844 2.53125 330.578125 2.53125 C 330.882813 2.53125 334.324219 3.355469 334.902344 3.507813 C 335.148438 3.570313 335.695313 3.691406 335.695313 3.996094 C 335.695313 4.207031 335.480469 4.300781 335.210938 4.421875 C 334.722656 4.664063 334.601563 5.488281 334.476563 6.339844 L 334.414063 6.765625 C 334.386719 6.949219 334.324219 7.285156 334.324219 7.375 C 334.324219 8.074219 334.964844 8.105469 335.359375 8.105469 C 336.03125 8.105469 337.066406 8.289063 337.890625 8.777344 C 340.050781 10.023438 340.445313 11.820313 340.445313 13.984375 C 340.445313 16.664063 339.867188 21.113281 338.527344 23.457031 C 337.128906 25.894531 334.871094 26.867188 332.101563 26.867188 C 331.21875 26.867188 330.792969 26.746094 330.519531 26.015625 C 330.242188 25.3125 329.847656 23.671875 329.847656 22.9375 C 329.847656 22.542969 329.96875 22.207031 330.425781 22.207031 C 330.851563 22.207031 331.28125 22.238281 331.703125 22.238281 C 333.503906 22.238281 333.988281 22.117188 334.601563 20.960938 C 335.480469 19.3125 335.96875 16.054688 335.96875 14.199219 C 335.96875 12.796875 335.757813 12.339844 334.570313 12.339844 C 333.5625 12.339844 333.289063 12.460938 333.015625 13.46875 C 332.011719 17.03125 330.273438 20.472656 328.324219 23.609375 C 327.929688 24.246094 326.679688 26.136719 326.164063 26.5625 C 326.011719 26.714844 325.859375 26.777344 325.644531 26.777344 C 324.945313 26.777344 322.050781 25.160156 322.050781 24.1875 C 322.050781 23.882813 322.324219 23.578125 322.8125 23.089844 C 325.15625 20.683594 326.894531 17.945313 328.113281 14.714844 C 328.171875 14.5625 328.265625 14.351563 328.265625 14.199219 C 328.265625 13.894531 328.082031 13.742188 327.777344 13.742188 C 327.472656 13.742188 325.554688 14.441406 325.1875 14.59375 C 325.003906 14.683594 324.792969 14.808594 324.578125 14.808594 C 324.089844 14.808594 323.726563 13.617188 323.453125 12.429688 C 323.269531 11.640625 323.054688 10.632813 323.054688 10.328125 C 323.054688 9.933594 323.269531 9.84375 324.183594 9.75 C 326.164063 9.566406 326.953125 9.386719 328.84375 8.988281 C 329.636719 8.835938 329.816406 8.59375 329.910156 7.769531 C 330.0625 6.523438 330.152344 4.847656 330.152344 3.570313 "/>
<path style=" stroke:none;fill-rule:nonzero;fill:rgb(100%,100%,100%);fill-opacity:1;" d="M 366.460938 21.597656 C 365.972656 21.597656 365.484375 21.871094 365.484375 22.421875 C 365.484375 23.242188 366.519531 23.640625 367.222656 23.640625 C 367.617188 23.640625 367.980469 23.363281 367.980469 22.96875 C 367.980469 22.542969 367.523438 21.597656 366.460938 21.597656 M 374.773438 6.277344 C 374.773438 6.460938 374.589844 6.613281 374.4375 6.703125 C 373.160156 7.496094 371.789063 8.746094 370.691406 9.78125 C 370.539063 9.933594 370.417969 10.117188 370.417969 10.328125 C 370.417969 10.695313 370.753906 10.96875 371.117188 10.96875 C 371.210938 10.96875 371.332031 10.9375 371.453125 10.9375 C 371.910156 10.9375 372.976563 11.121094 373.585938 11.304688 C 376.875 12.308594 378.914063 14.960938 378.914063 18.402344 C 378.914063 24.21875 373.890625 27.109375 368.589844 27.109375 C 365.726563 27.109375 361.859375 25.953125 361.859375 22.449219 C 361.859375 20.015625 364.085938 18.21875 366.429688 18.21875 C 368.011719 18.21875 369.535156 18.949219 370.539063 20.167969 C 370.996094 20.746094 371.089844 21.050781 371.363281 21.691406 C 371.484375 21.992188 371.757813 22.269531 372.09375 22.269531 C 372.824219 22.269531 374.285156 20.746094 374.285156 18.734375 C 374.285156 16.148438 372.183594 14.988281 369.839844 14.988281 C 367.617188 14.988281 365.636719 15.84375 363.960938 17.335938 C 362.863281 18.308594 361.128906 20.042969 360.214844 21.171875 C 359.789063 21.722656 359.546875 21.933594 359.425781 21.933594 C 358.722656 21.933594 356.347656 19.433594 356.347656 18.859375 C 356.347656 18.492188 356.652344 18.21875 357.292969 17.730469 C 358.054688 17.121094 363.109375 12.097656 364.175781 11.058594 C 364.753906 10.480469 365.210938 9.933594 365.726563 9.355469 C 365.941406 9.140625 366.15625 8.960938 366.15625 8.65625 C 366.15625 8.289063 365.667969 8.226563 365.546875 8.226563 C 365.453125 8.226563 362.132813 8.835938 361.34375 8.960938 C 361.222656 8.988281 361.097656 8.988281 360.976563 8.988281 C 360.277344 8.988281 360.09375 5.546875 360.09375 4.96875 L 360.09375 4.664063 C 360.09375 4.207031 360.183594 4.207031 361.066406 4.207031 L 361.769531 4.207031 C 363.75 4.179688 368.105469 3.84375 369.839844 3.113281 C 370.601563 2.777344 370.9375 2.625 371.148438 2.625 C 372.460938 2.625 374.773438 5.609375 374.773438 6.277344 "/>
<path style=" stroke:none;fill-rule:nonzero;fill:rgb(100%,100%,100%);fill-opacity:1;" d="M 395.730469 20.835938 C 395.730469 21.324219 396.125 21.691406 396.582031 21.691406 L 403.832031 21.691406 C 404.289063 21.691406 404.683594 21.324219 404.683594 20.835938 L 404.683594 17.152344 C 404.683594 16.664063 404.289063 16.300781 403.832031 16.300781 L 396.582031 16.300781 C 396.125 16.300781 395.730469 16.664063 395.730469 17.183594 Z M 395.730469 11.273438 C 395.730469 11.761719 396.125 12.15625 396.582031 12.15625 L 403.832031 12.15625 C 404.289063 12.15625 404.683594 11.761719 404.683594 11.304688 L 404.683594 7.984375 C 404.683594 7.527344 404.289063 7.132813 403.832031 7.132813 L 396.582031 7.132813 C 396.125 7.132813 395.730469 7.527344 395.730469 7.984375 Z M 396.828125 26.074219 C 396.246094 26.074219 395.851563 26.320313 395.820313 26.960938 C 395.789063 27.75 395.457031 27.78125 394.054688 27.78125 L 392.472656 27.78125 C 391.222656 27.78125 390.828125 27.71875 390.828125 26.929688 C 390.828125 25.40625 390.917969 23.882813 390.917969 22.359375 L 390.917969 7.742188 C 390.917969 6.675781 390.855469 5.578125 390.855469 4.480469 C 390.855469 3.171875 391.496094 2.808594 392.714844 2.808594 C 393.84375 2.808594 394.9375 2.867188 396.066406 2.867188 L 404.347656 2.867188 C 405.445313 2.867188 406.542969 2.808594 407.667969 2.808594 C 408.828125 2.808594 409.558594 3.082031 409.558594 4.480469 C 409.558594 5.578125 409.496094 6.675781 409.496094 7.742188 L 409.496094 22.359375 C 409.496094 23.882813 409.589844 25.375 409.589844 26.898438 C 409.589844 27.660156 409.222656 27.75 408.246094 27.75 L 405.992188 27.75 C 404.867188 27.75 404.59375 27.660156 404.59375 26.835938 C 404.59375 26.503906 404.289063 26.074219 403.496094 26.074219 "/>
<path style=" stroke:none;fill-rule:nonzero;fill:rgb(100%,100%,100%);fill-opacity:1;" d="M 438.015625 18.765625 C 438.015625 19.464844 438.503906 19.710938 438.839844 19.710938 C 440.816406 19.710938 441.121094 19.679688 441.121094 19.285156 C 441.121094 19.132813 441 19.011719 440.910156 18.886719 C 440.238281 18.003906 438.929688 15.964844 438.414063 15.050781 C 438.320313 14.898438 438.289063 14.898438 438.199219 14.898438 C 438.015625 14.898438 438.015625 15.078125 438.015625 15.292969 Z M 433.386719 15.324219 C 433.386719 15.050781 433.386719 14.808594 433.171875 14.808594 C 433.082031 14.808594 433.019531 14.960938 432.6875 15.566406 C 432.078125 16.695313 431.347656 17.789063 430.613281 18.855469 C 430.523438 18.980469 430.402344 19.132813 430.402344 19.3125 C 430.402344 19.679688 430.765625 19.710938 432.5625 19.710938 C 433.171875 19.710938 433.386719 19.191406 433.386719 18.675781 Z M 426.808594 10.542969 C 425.589844 10.542969 424.371094 10.601563 423.152344 10.601563 C 422.390625 10.601563 422.328125 10.269531 422.328125 9.324219 L 422.328125 7.648438 C 422.328125 6.765625 422.390625 6.429688 423.121094 6.429688 C 424.371094 6.429688 425.589844 6.523438 426.808594 6.523438 L 432.441406 6.523438 C 433.296875 6.523438 433.417969 6.066406 433.417969 5.152344 C 433.417969 4.785156 433.386719 4.328125 433.386719 3.8125 C 433.386719 3.203125 433.386719 2.378906 433.296875 1.800781 C 433.265625 1.679688 433.265625 1.589844 433.265625 1.496094 C 433.265625 1.101563 433.570313 1.039063 433.902344 1.039063 C 434.453125 1.039063 437.40625 1.222656 438.078125 1.285156 C 438.351563 1.3125 438.6875 1.34375 438.6875 1.679688 C 438.6875 1.894531 438.535156 1.984375 438.320313 2.199219 C 438.046875 2.472656 438.015625 3.171875 438.015625 4.023438 L 438.015625 5.609375 C 438.015625 6.277344 438.59375 6.523438 439.171875 6.523438 L 444.65625 6.523438 C 445.871094 6.523438 447.09375 6.429688 448.339844 6.429688 C 449.070313 6.429688 449.132813 6.765625 449.132813 7.648438 L 449.132813 9.324219 C 449.132813 10.269531 449.070313 10.601563 448.308594 10.601563 C 447.09375 10.601563 445.871094 10.542969 444.65625 10.542969 L 441.457031 10.542969 C 441 10.542969 440.636719 10.542969 440.636719 11.03125 C 440.636719 11.609375 442.035156 13.527344 442.433594 14.074219 C 444.230469 16.601563 446.453125 18.980469 448.949219 20.808594 C 449.253906 21.019531 449.496094 21.171875 449.496094 21.507813 C 449.496094 22.601563 447.699219 24.796875 446.695313 24.796875 C 446.269531 24.796875 445.8125 24.308594 445.507813 24.035156 C 444.6875 23.242188 443.832031 22.390625 443.132813 21.597656 C 443.011719 21.445313 442.917969 21.386719 442.828125 21.386719 C 442.585938 21.386719 442.554688 21.628906 442.554688 21.933594 C 442.554688 23.515625 442.554688 23.914063 441.609375 23.914063 C 440.726563 23.914063 439.84375 23.820313 438.960938 23.820313 C 438.441406 23.820313 438.046875 24.1875 438.046875 24.734375 C 438.046875 25.679688 438.105469 26.621094 438.105469 27.566406 C 438.105469 28.328125 437.773438 28.421875 436.738281 28.421875 L 434.96875 28.421875 C 433.539063 28.421875 433.296875 28.390625 433.296875 27.535156 C 433.296875 27.386719 433.296875 27.234375 433.324219 26.988281 C 433.355469 26.683594 433.355469 26.320313 433.355469 25.863281 C 433.355469 25.40625 433.386719 24.886719 433.386719 24.703125 C 433.386719 24.1875 432.898438 23.820313 432.382813 23.820313 C 431.558594 23.820313 430.707031 23.914063 429.851563 23.914063 C 428.878906 23.914063 428.878906 23.578125 428.878906 21.964844 C 428.878906 21.8125 428.847656 21.566406 428.636719 21.566406 C 428.421875 21.566406 428.238281 21.78125 428.148438 21.902344 C 427.476563 22.664063 426.59375 23.546875 425.832031 24.21875 C 425.621094 24.429688 425.195313 24.734375 424.890625 24.734375 C 424.007813 24.734375 421.84375 22.480469 421.84375 21.71875 C 421.84375 21.355469 422.179688 21.109375 422.453125 20.898438 C 425.285156 18.765625 427.570313 16.300781 429.488281 13.285156 C 429.550781 13.191406 429.578125 13.132813 429.640625 13.011719 C 429.976563 12.398438 430.613281 11.394531 430.613281 11.03125 C 430.613281 10.574219 430.1875 10.542969 429.824219 10.542969 "/>
<path style=" stroke:none;fill-rule:nonzero;fill:rgb(100%,100%,100%);fill-opacity:1;" d="M 464.632813 17.121094 C 464.632813 17.851563 464.816406 20.074219 465.882813 20.074219 C 466.613281 20.074219 467.648438 18.066406 467.953125 17.425781 C 469.019531 15.234375 469.871094 10.726563 469.871094 9.628906 C 469.871094 9.386719 469.75 9.171875 469.476563 9.171875 C 468.589844 9.171875 464.632813 11.972656 464.632813 17.121094 M 481.292969 7.160156 C 483.453125 9.324219 484.519531 11.972656 484.519531 14.988281 C 484.519531 19.285156 482.175781 23.058594 478.398438 25.101563 C 477.636719 25.527344 475.628906 26.472656 474.773438 26.472656 C 473.707031 26.472656 472.09375 23.667969 472.09375 22.816406 C 472.09375 22.542969 472.367188 22.421875 473.25 22.207031 C 476.785156 21.292969 479.675781 19.070313 479.675781 15.171875 C 479.675781 10.390625 476.023438 8.503906 475.109375 8.503906 C 474.59375 8.503906 474.53125 9.050781 474.5 9.597656 C 474.164063 13.832031 472.945313 19.011719 470.144531 22.359375 C 469.019531 23.730469 467.554688 24.886719 465.730469 24.886719 C 463.6875 24.886719 462.011719 23.488281 461.097656 21.75 C 460.398438 20.410156 460.09375 18.675781 460.09375 17.183594 C 460.09375 9.871094 465.730469 4.054688 473.070313 4.054688 C 476.175781 4.054688 479.097656 4.96875 481.292969 7.160156 "/>
<path style=" stroke:none;fill-rule:nonzero;fill:rgb(100%,100%,100%);fill-opacity:1;" d="M 500.421875 7.648438 C 500.847656 7.589844 501.152344 7.253906 501.152344 6.828125 C 501.152344 6.613281 501.089844 6.433594 501.0625 6.21875 L 500.878906 5.425781 C 500.816406 5.058594 500.238281 2.683594 500.238281 2.5625 C 500.238281 2.226563 500.695313 2.136719 501.242188 2.105469 C 502.460938 2.015625 503.710938 1.921875 504.960938 1.921875 C 505.234375 1.921875 505.507813 1.921875 505.507813 2.136719 C 505.507813 2.289063 505.445313 2.441406 505.355469 2.59375 C 505.234375 2.777344 505.109375 2.988281 505.109375 3.324219 C 505.109375 3.71875 505.414063 5.152344 505.507813 5.640625 L 505.566406 5.882813 C 505.660156 6.398438 506.023438 6.765625 506.542969 6.765625 L 506.664063 6.765625 L 508.585938 6.460938 C 509.160156 6.398438 512.695313 5.820313 512.847656 5.820313 C 513.546875 5.820313 513.578125 6.492188 513.730469 7.222656 C 513.792969 7.710938 514.035156 9.019531 514.035156 9.445313 C 514.035156 10.175781 513.578125 10.238281 511.597656 10.480469 C 510.960938 10.542969 510.199219 10.632813 509.222656 10.785156 L 507.363281 11.058594 C 506.96875 11.152344 506.726563 11.484375 506.726563 11.882813 L 506.726563 12.035156 L 507.089844 13.894531 C 507.183594 14.351563 507.546875 14.652344 508.003906 14.652344 L 508.128906 14.652344 L 512.207031 14.074219 C 512.816406 13.984375 516.53125 13.375 516.683594 13.375 C 517.386719 13.375 517.476563 14.046875 517.566406 14.929688 L 517.660156 15.535156 C 517.71875 15.902344 517.8125 16.601563 517.8125 16.9375 C 517.8125 17.484375 517.597656 17.761719 517.050781 17.851563 C 516.777344 17.882813 513.273438 18.339844 512.816406 18.398438 L 508.917969 18.949219 C 508.492188 19.039063 508.21875 19.40625 508.21875 19.710938 C 508.21875 19.769531 508.21875 19.863281 508.25 19.953125 L 508.460938 21.050781 C 508.644531 21.933594 509.589844 26.226563 509.589844 26.746094 C 509.589844 27.230469 509.070313 27.324219 508.675781 27.414063 C 508.035156 27.566406 506.269531 27.964844 505.660156 27.964844 C 505.109375 27.964844 504.960938 27.535156 504.867188 26.621094 C 504.683594 25.070313 504.378906 23.546875 504.105469 22.023438 L 503.832031 20.652344 C 503.742188 20.167969 503.34375 19.832031 502.886719 19.832031 L 502.765625 19.832031 L 498.046875 20.503906 C 497.40625 20.59375 494.207031 21.140625 493.902344 21.140625 C 493.324219 21.140625 493.203125 20.773438 493.082031 20.289063 C 492.988281 19.863281 492.683594 17.730469 492.683594 17.335938 C 492.683594 16.726563 493.109375 16.664063 494.816406 16.480469 C 495.488281 16.421875 496.339844 16.328125 497.4375 16.175781 L 501.972656 15.535156 C 502.402344 15.445313 502.675781 15.140625 502.675781 14.746094 C 502.675781 14.683594 502.675781 14.652344 502.644531 14.53125 L 502.308594 12.765625 C 502.21875 12.277344 501.882813 11.976563 501.425781 11.976563 L 501.214844 11.976563 L 499.140625 12.277344 C 498.503906 12.371094 495.0625 12.917969 494.757813 12.917969 C 494.238281 12.917969 494.054688 12.460938 493.964844 12.003906 C 493.871094 11.457031 493.628906 9.691406 493.628906 9.230469 C 493.628906 8.5625 494.054688 8.503906 495.914063 8.289063 C 496.585938 8.199219 497.496094 8.105469 498.625 7.921875 "/>
<path style=" stroke:none;fill-rule:nonzero;fill:rgb(100%,100%,100%);fill-opacity:1;" d="M 533.714844 13.464844 C 534.109375 13.375 534.382813 13.070313 534.382813 12.703125 C 534.382813 12.613281 534.351563 12.523438 534.351563 12.492188 L 534.078125 11.058594 C 534.046875 10.9375 533.925781 10.300781 533.773438 9.628906 C 533.589844 8.804688 533.40625 8.046875 533.40625 7.984375 C 533.40625 7.710938 533.714844 7.648438 533.925781 7.617188 C 534.777344 7.496094 536.210938 7.375 537.03125 7.375 C 537.429688 7.375 537.914063 7.40625 537.914063 7.921875 C 537.914063 8.074219 537.855469 8.195313 537.792969 8.320313 C 537.730469 8.441406 537.703125 8.59375 537.703125 8.714844 C 537.703125 8.929688 537.945313 10.117188 538.007813 10.421875 L 538.28125 11.761719 C 538.371094 12.15625 538.707031 12.429688 539.074219 12.429688 C 539.132813 12.429688 539.226563 12.398438 539.253906 12.398438 L 543.335938 11.578125 C 544.128906 11.425781 544.949219 11.273438 545.714844 11.058594 C 545.863281 11 546.046875 10.96875 546.230469 10.96875 C 546.777344 10.96875 548.757813 12.703125 548.757813 13.40625 C 548.757813 13.710938 548.546875 13.894531 548.332031 14.105469 C 547.539063 14.898438 546.71875 16.207031 546.078125 17.183594 C 545.714844 17.699219 544.554688 19.4375 544.1875 19.769531 C 544.007813 19.984375 543.765625 20.136719 543.488281 20.136719 C 543.03125 20.136719 540.597656 19.160156 540.597656 18.460938 C 540.597656 18.246094 540.808594 17.972656 540.960938 17.761719 C 541.175781 17.546875 542.242188 16.300781 542.242188 16.054688 C 542.242188 15.933594 542.148438 15.71875 541.84375 15.71875 C 541.785156 15.71875 541.722656 15.75 541.660156 15.75 L 540.046875 16.085938 C 539.742188 16.144531 539.40625 16.390625 539.40625 16.90625 L 539.40625 17.027344 C 539.40625 17.058594 539.40625 17.214844 539.4375 17.335938 L 540.65625 23.242188 C 540.808594 23.820313 541.296875 25.921875 541.296875 26.378906 C 541.296875 26.777344 541.054688 26.867188 540.71875 26.960938 C 540.351563 27.078125 538.21875 27.476563 537.914063 27.476563 C 537.398438 27.476563 537.335938 27.171875 537.0625 25.589844 C 536.972656 25.160156 536.878906 24.644531 536.757813 24.035156 L 535.480469 17.882813 C 535.417969 17.488281 535.085938 17.214844 534.6875 17.214844 C 534.628906 17.214844 534.535156 17.242188 534.472656 17.242188 L 532.921875 17.578125 C 532.371094 17.699219 529.84375 18.246094 529.480469 18.246094 C 529.054688 18.246094 528.902344 17.851563 528.808594 17.515625 C 528.71875 17.152344 528.382813 15.324219 528.382813 15.019531 C 528.382813 14.441406 528.871094 14.347656 530.605469 14.074219 C 531.0625 13.984375 531.609375 13.894531 532.25 13.769531 "/>
<path style=" stroke:none;fill-rule:nonzero;fill:rgb(100%,100%,100%);fill-opacity:1;" d="M 574.589844 11.609375 C 574.589844 13.984375 574.589844 16.359375 574.285156 18.734375 C 573.886719 21.660156 572.914063 23.976563 570.660156 25.953125 C 570.109375 26.410156 567.796875 28.238281 567.1875 28.238281 C 566.730469 28.238281 565.632813 27.355469 565.207031 27.019531 C 564.78125 26.714844 563.5625 25.832031 563.5625 25.285156 C 563.5625 25.007813 564.171875 24.734375 564.414063 24.613281 C 567.035156 23.183594 568.984375 21.535156 569.472656 18.429688 C 569.777344 16.390625 569.867188 14.226563 569.867188 12.1875 L 569.867188 5.941406 C 569.867188 5.183594 569.867188 4.421875 569.777344 3.660156 C 569.746094 3.476563 569.714844 3.203125 569.714844 3.019531 C 569.714844 2.808594 569.808594 2.714844 570.019531 2.714844 C 570.871094 2.714844 573.582031 3.019531 574.527344 3.171875 C 574.738281 3.203125 575.105469 3.234375 575.105469 3.507813 C 575.105469 3.660156 574.984375 3.78125 574.832031 3.933594 C 574.617188 4.175781 574.589844 5.089844 574.589844 5.640625 Z M 563.046875 13.984375 C 563.046875 15.078125 563.074219 16.144531 563.074219 17.210938 C 563.074219 18.398438 563.015625 18.644531 561.429688 18.644531 L 559.542969 18.644531 C 558.386719 18.644531 558.140625 18.429688 558.140625 17.730469 C 558.140625 16.726563 558.230469 15.386719 558.230469 14.074219 L 558.230469 7.648438 C 558.230469 6.644531 558.230469 5.609375 558.203125 4.601563 C 558.203125 4.328125 558.171875 3.964844 558.171875 3.71875 C 558.171875 3.476563 558.230469 3.414063 558.445313 3.414063 C 558.839844 3.414063 561.398438 3.71875 562.011719 3.78125 C 562.191406 3.8125 562.34375 3.8125 562.496094 3.84375 C 563.164063 3.902344 563.53125 3.964844 563.53125 4.175781 C 563.53125 4.601563 563.046875 4.296875 563.046875 5.882813 "/>
<path style=" stroke:none;fill-rule:nonzero;fill:rgb(100%,100%,100%);fill-opacity:1;" d="M 593.410156 25.101563 C 592.894531 25.589844 590.976563 27.355469 590.335938 27.355469 C 589.664063 27.355469 586.558594 24.917969 586.558594 24.246094 C 586.558594 24.066406 586.804688 23.914063 587.441406 23.546875 C 591.097656 21.355469 593.382813 18.003906 594.050781 13.921875 C 594.144531 13.285156 594.175781 12.429688 594.175781 11.699219 C 594.175781 11.640625 594.144531 11.609375 594.144531 11.546875 C 594.144531 11.304688 594.175781 11.214844 594.449219 11.214844 C 595.332031 11.214844 598.316406 11.335938 599.015625 11.425781 C 599.535156 11.488281 599.625 11.609375 599.625 11.761719 C 599.625 11.851563 599.535156 11.945313 599.503906 12.035156 C 599.472656 12.066406 599.441406 12.125 599.441406 12.15625 C 599.441406 12.308594 599.5625 12.398438 599.71875 12.398438 C 599.808594 12.398438 599.867188 12.371094 599.929688 12.308594 C 600.175781 12.097656 602.09375 10.421875 602.09375 10.023438 C 602.09375 9.84375 601.941406 9.691406 601.605469 9.691406 L 590.367188 9.691406 C 589.238281 9.691406 588.144531 9.691406 587.046875 9.71875 C 586.621094 9.71875 586.195313 9.75 585.765625 9.75 C 584.824219 9.75 584.792969 9.414063 584.792969 7.710938 L 584.792969 6.15625 C 584.792969 5.488281 584.914063 5.089844 585.675781 5.089844 C 587.230469 5.089844 588.78125 5.152344 590.367188 5.152344 L 603.765625 5.152344 C 604.710938 5.152344 605.6875 5.121094 606.570313 4.96875 C 606.722656 4.9375 606.933594 4.90625 607.085938 4.90625 C 607.636719 4.90625 608 5.304688 608.398438 5.699219 C 608.914063 6.21875 610.101563 7.375 610.101563 8.105469 C 610.101563 8.441406 609.765625 8.714844 609.464844 8.960938 C 609.339844 9.078125 609.128906 9.292969 609.035156 9.414063 C 607.300781 11.335938 605.503906 13.160156 603.644531 14.929688 L 603.371094 15.203125 C 602.824219 15.75 602.246094 16.269531 601.878906 16.269531 C 601.390625 16.269531 600.050781 15.140625 599.535156 14.714844 C 599.441406 14.652344 599.351563 14.625 599.230469 14.625 C 598.863281 14.625 598.773438 14.808594 598.679688 15.171875 C 597.738281 19.011719 596.335938 22.300781 593.410156 25.101563 "/>
<path style=" stroke:none;fill-rule:nonzero;fill:rgb(100%,100%,100%);fill-opacity:1;" d="M 634.441406 19.890625 C 634.441406 24.21875 631.332031 26.777344 625.910156 26.777344 C 623.324219 26.777344 620.644531 26.074219 618.816406 25.101563 C 618.390625 24.859375 618.207031 24.703125 618.207031 24.429688 C 618.207031 24.277344 618.265625 24.097656 618.390625 23.820313 L 619.761719 20.867188 C 619.941406 20.472656 620.0625 20.257813 620.246094 20.257813 C 620.398438 20.257813 620.582031 20.378906 620.855469 20.5625 C 622.410156 21.691406 624.542969 22.269531 626.246094 22.269531 C 628.074219 22.269531 629.199219 21.566406 629.199219 20.410156 C 629.199219 19.070313 627.34375 18.277344 624.847656 17.335938 C 621.984375 16.238281 618.664063 14.5625 618.664063 10.632813 C 618.664063 6.339844 622.042969 3.902344 627.253906 3.902344 C 629.445313 3.902344 631.730469 4.449219 633.3125 5.210938 C 633.738281 5.425781 633.953125 5.578125 633.953125 5.851563 C 633.953125 6.003906 633.890625 6.1875 633.800781 6.433594 L 632.550781 9.660156 C 632.367188 10.085938 632.246094 10.300781 632.035156 10.300781 C 631.882813 10.300781 631.730469 10.207031 631.453125 10.023438 C 630.144531 9.234375 628.316406 8.714844 626.765625 8.714844 C 624.664063 8.714844 623.902344 9.507813 623.902344 10.421875 C 623.902344 11.546875 625.515625 12.277344 627.402344 13.011719 C 630.664063 14.289063 634.441406 15.871094 634.441406 19.890625 "/>
<path style=" stroke:none;fill-rule:nonzero;fill:rgb(100%,100%,100%);fill-opacity:1;" d="M 650.253906 20.472656 C 650.253906 22.085938 650.347656 25.589844 650.347656 25.800781 C 650.347656 26.441406 650.164063 26.5625 649.464844 26.5625 L 646.082031 26.5625 C 645.382813 26.5625 645.199219 26.441406 645.199219 25.800781 C 645.199219 25.589844 645.289063 22.085938 645.289063 20.472656 L 645.289063 10.207031 C 645.289063 8.59375 645.199219 5.089844 645.199219 4.878906 C 645.199219 4.238281 645.382813 4.117188 646.082031 4.117188 L 648.09375 4.117188 C 648.855469 4.117188 649.097656 4.238281 649.585938 4.816406 C 650.714844 6.1875 651.777344 7.40625 652.875 8.65625 L 659.210938 15.871094 C 659.363281 16.054688 659.515625 16.148438 659.605469 16.148438 C 659.726563 16.148438 659.820313 15.992188 659.820313 15.660156 L 659.820313 10.207031 C 659.820313 8.59375 659.726563 5.089844 659.726563 4.878906 C 659.726563 4.238281 659.910156 4.117188 660.609375 4.117188 L 663.992188 4.117188 C 664.691406 4.117188 664.875 4.238281 664.875 4.878906 C 664.875 5.089844 664.78125 8.59375 664.78125 10.207031 L 664.78125 20.472656 C 664.78125 22.085938 664.875 25.589844 664.875 25.800781 C 664.875 26.441406 664.691406 26.5625 663.992188 26.5625 L 662.46875 26.5625 C 661.707031 26.5625 661.464844 26.441406 660.976563 25.863281 C 659.878906 24.582031 658.875 23.457031 657.625 22.054688 L 650.863281 14.472656 C 650.714844 14.289063 650.589844 14.226563 650.5 14.226563 C 650.347656 14.226563 650.253906 14.382813 650.253906 14.714844 "/>
<path style=" stroke:none;fill-rule:nonzero;fill:rgb(100%,100%,100%);fill-opacity:1;" d="M 691.640625 19.890625 C 691.640625 24.21875 688.535156 26.777344 683.113281 26.777344 C 680.523438 26.777344 677.84375 26.074219 676.019531 25.101563 C 675.589844 24.859375 675.410156 24.703125 675.410156 24.429688 C 675.410156 24.277344 675.46875 24.097656 675.589844 23.820313 L 676.960938 20.867188 C 677.144531 20.472656 677.265625 20.257813 677.449219 20.257813 C 677.601563 20.257813 677.785156 20.378906 678.058594 20.5625 C 679.609375 21.691406 681.742188 22.269531 683.449219 22.269531 C 685.277344 22.269531 686.402344 21.566406 686.402344 20.410156 C 686.402344 19.070313 684.546875 18.277344 682.046875 17.335938 C 679.183594 16.238281 675.863281 14.5625 675.863281 10.632813 C 675.863281 6.339844 679.246094 3.902344 684.453125 3.902344 C 686.644531 3.902344 688.929688 4.449219 690.515625 5.210938 C 690.941406 5.425781 691.152344 5.578125 691.152344 5.851563 C 691.152344 6.003906 691.09375 6.1875 691.003906 6.433594 L 689.753906 9.660156 C 689.570313 10.085938 689.449219 10.300781 689.234375 10.300781 C 689.085938 10.300781 688.929688 10.207031 688.65625 10.023438 C 687.347656 9.234375 685.519531 8.714844 683.964844 8.714844 C 681.863281 8.714844 681.105469 9.507813 681.105469 10.421875 C 681.105469 11.546875 682.71875 12.277344 684.605469 13.011719 C 687.863281 14.289063 691.640625 15.871094 691.640625 19.890625 "/>
</g>
</svg>
