<svg width="192" height="54" viewBox="0 0 192 54" fill="none" xmlns="http://www.w3.org/2000/svg">
<g clip-path="url(#clip0_2069_5167)">
<g clip-path="url(#clip1_2069_5167)">
<path d="M68.6317 34.8461C68.6317 41.8591 72.1593 44.3528 76.5117 44.3528C80.863 44.3528 84.3906 41.8591 84.3906 34.8461C84.3906 27.8331 80.8886 25.3394 76.5117 25.3394C72.1337 25.3394 68.6317 27.8331 68.6317 34.8461ZM80.9054 34.8461C80.9054 39.5211 78.525 40.749 76.5117 40.749C74.4973 40.749 72.1169 39.5211 72.1169 34.8461C72.1169 30.1701 74.5851 28.9232 76.5117 28.9232C78.4372 28.9232 80.9054 30.1701 80.9054 34.8461Z" fill="white"/>
<path d="M100.009 25.646C99.7578 25.646 99.5546 25.8516 99.5546 26.1062V36.0731C99.5546 40.1362 97.2818 40.826 96.0694 40.826C94.857 40.826 92.5842 40.1362 92.5842 36.0731V26.1062C92.5842 25.8516 92.381 25.646 92.1304 25.646H89.5538C89.3032 25.646 89.1 25.8516 89.1 26.1062V36.0731C89.1 42.4362 93.1909 44.3529 96.0694 44.3529C98.9489 44.3529 103.04 42.59 103.04 36.0731V26.1062C103.04 25.8516 102.837 25.646 102.585 25.646" fill="white"/>
<path d="M154.569 25.646C154.318 25.646 154.114 25.8516 154.114 26.1062V36.0731C154.114 40.1362 151.842 40.826 150.629 40.826C149.417 40.826 147.144 40.1362 147.144 36.0731V26.1062C147.144 25.8516 146.941 25.646 146.69 25.646H144.114C143.863 25.646 143.66 25.8516 143.66 26.1062V36.0731C143.66 42.4362 147.751 44.3529 150.629 44.3529C153.509 44.3529 157.6 42.59 157.6 36.0731V26.1062C157.6 25.8516 157.396 25.646 157.145 25.646" fill="white"/>
<path d="M120.844 26.1062C120.844 25.8516 120.64 25.646 120.389 25.646H107.661C107.41 25.646 107.207 25.8516 107.207 26.1062V28.7127C107.207 28.9663 107.41 29.173 107.661 29.173H112.282V43.5863C112.282 43.8408 112.486 44.0465 112.737 44.0465H115.313C115.564 44.0465 115.767 43.8408 115.767 43.5863V29.173H120.389C120.64 29.173 120.844 28.9663 120.844 28.7127" fill="white"/>
<mask id="mask0_2069_5167" style="mask-type:luminance" maskUnits="userSpaceOnUse" x="178" y="25" width="15" height="20">
<path d="M178.291 25.3955H192.067V44.0515H178.291V25.3955Z" fill="white"/>
</mask>
<g mask="url(#mask0_2069_5167)">
<path d="M192.067 26.1062C192.067 25.8516 191.864 25.646 191.613 25.646H178.885C178.634 25.646 178.43 25.8516 178.43 26.1062V28.7127C178.43 28.9663 178.634 29.173 178.885 29.173H183.506V43.5863C183.506 43.8408 183.709 44.0465 183.961 44.0465H186.537C186.787 44.0465 186.991 43.8408 186.991 43.5863V29.173H191.613C191.864 29.173 192.067 28.9663 192.067 28.7127" fill="white"/>
</g>
<path d="M128.496 34.386V29.173H131.98C133.526 29.158 135.162 29.7859 135.162 31.7795C135.162 33.7731 133.4 34.386 131.98 34.386H128.496ZM138.647 31.7795C138.647 28.7896 137.056 25.646 132.587 25.646H125.465C125.215 25.646 125.01 25.8526 125.01 26.1062V43.5863C125.01 43.8408 125.214 44.0465 125.465 44.0465H128.041C128.292 44.0465 128.496 43.8408 128.496 43.5863V37.913H132.587C132.761 37.913 132.931 37.907 133.097 37.898L135.058 43.734C135.12 43.9207 135.293 44.0465 135.488 44.0465H138.012C138.324 44.0465 138.543 43.737 138.443 43.4385L136.251 36.9157C137.968 35.7507 138.647 33.7321 138.647 31.7795Z" fill="white"/>
<path d="M161.932 39.6738L164.295 38.3091C164.52 38.1794 164.808 38.2642 164.924 38.4988C165.637 39.9344 166.909 40.739 169.019 40.739C171.23 40.739 172.066 39.9533 172.066 38.9261C172.066 37.5574 170.75 37.0313 167.98 36.2407C165.129 35.4251 162.445 34.2401 162.445 30.7391C162.445 27.2641 165.289 25.3394 168.486 25.3394C171.384 25.3394 173.638 26.6601 174.933 28.9861C175.056 29.2087 174.981 29.4902 174.761 29.616L172.461 30.9288C172.247 31.0516 171.972 30.9797 171.848 30.7641C171.181 29.613 170.191 28.9532 168.486 28.9532C166.941 28.9532 165.929 29.5811 165.929 30.6333C165.929 31.7663 166.755 32.3713 169.578 33.2139C172.536 34.1353 175.551 35.1096 175.551 38.8742C175.551 42.3223 172.882 44.3528 168.912 44.3528C165.286 44.3528 162.843 42.7755 161.743 40.2618C161.648 40.0452 161.729 39.7916 161.932 39.6738Z" fill="white"/>
<path fill-rule="evenodd" clip-rule="evenodd" d="M63.0996 25.9145L58.4701 34.0446C58.4405 34.0955 58.3685 34.0955 58.3389 34.0446L53.7084 25.9145C53.6245 25.7668 53.4174 25.646 53.2487 25.646H50.3485C49.9874 25.646 49.8395 25.9046 50.021 26.221L56.6619 37.8361V43.8927C56.6619 44.1463 56.8661 44.3529 57.1167 44.3529H59.6923C59.9419 44.3529 60.1471 44.1463 60.1471 43.8927V37.8361L66.788 26.221C66.9695 25.9046 66.8216 25.646 66.4605 25.646H63.5593C63.3906 25.646 63.1844 25.7668 63.0996 25.9145Z" fill="white"/>
<mask id="mask1_2069_5167" style="mask-type:luminance" maskUnits="userSpaceOnUse" x="0" y="27" width="36" height="27">
<path d="M-1.52588e-05 27.1841H35.1026V53.2464H-1.52588e-05V27.1841Z" fill="white"/>
</mask>
<g mask="url(#mask1_2069_5167)">
<path d="M34.8698 38.4997L27.2266 36.567C25.6354 31.2661 20.7682 27.4077 15.0101 27.4077C11.4825 27.4077 8.2893 28.8552 5.97898 31.1952C4.53578 32.6547 2.54212 33.5572 0.340317 33.5572C0.240684 33.5572 0.14105 33.5542 0.0414166 33.5502C0.0147818 33.9785 -1.52588e-05 34.4107 -1.52588e-05 34.846C-1.52588e-05 40.4414 2.19784 45.5167 5.76689 49.2383C8.092 51.7071 11.373 53.2464 15.0101 53.2464C18.5358 53.2464 21.728 51.7999 24.0383 49.4609" fill="#147577"/>
</g>
<path d="M35.0838 20.4519C32.7587 17.9832 29.4777 16.4458 25.8426 16.4458C22.3169 16.4458 19.1257 17.8913 16.8154 20.2293L6.10921 31.0638C6.09441 31.0787 6.07962 31.0927 6.06482 31.1077C6.02832 31.1456 5.99083 31.1826 5.95335 31.2195C4.95307 32.2228 3.69137 32.9595 2.28072 33.3159C2.54114 33.829 2.82328 34.3282 3.12316 34.8153V34.8163C3.19024 34.9251 3.25831 35.033 3.32638 35.1398C3.33229 35.1478 3.33723 35.1557 3.34216 35.1637V35.1627C6.98717 40.816 13.2917 44.5526 20.4594 44.5526C26.2697 44.5526 31.5118 42.0979 35.2308 38.1576C36.6375 36.8998 38.4862 36.1351 40.5114 36.1351C40.612 36.1351 40.7116 36.1381 40.8113 36.1411C40.8379 35.7128 40.8527 35.2815 40.8527 34.8463C40.8527 29.2499 38.6539 24.1736 35.0838 20.4519Z" fill="#2F9DA4"/>
<path d="M40.245 6.70015C40.245 6.80896 40.3289 6.91777 40.4601 6.91777H41.7139C41.8293 6.91777 41.929 6.81695 41.929 6.70015V6.59832C41.929 6.48152 41.8293 6.38069 41.7139 6.38069H40.4601C40.3368 6.38069 40.245 6.48152 40.245 6.59832V6.70015ZM42.0907 5.30653H40.0754C39.8366 5.30653 39.6068 5.32251 39.3681 5.32251C39.1678 5.32251 39.152 5.2676 39.152 5.05796V4.70756C39.152 4.53585 39.1678 4.47396 39.3602 4.47396C39.5989 4.47396 39.8366 4.48893 40.0754 4.48893H42.0907C42.3295 4.48893 42.5672 4.47396 42.8059 4.47396C42.9983 4.47396 43.0131 4.53585 43.0131 4.70756V5.05796C43.0131 5.2676 42.9983 5.32251 42.798 5.32251C42.5593 5.32251 42.3295 5.30653 42.0907 5.30653ZM42.0907 4.23237H40.0754C39.8366 4.23237 39.6068 4.25633 39.3681 4.25633C39.1678 4.25633 39.152 4.19344 39.152 3.9838V3.64139C39.152 3.46169 39.1678 3.3998 39.3602 3.3998C39.5989 3.3998 39.8366 3.41478 40.0754 3.41478H42.0907C42.3295 3.41478 42.5672 3.3998 42.8059 3.3998C42.9983 3.3998 43.0131 3.46169 43.0131 3.64139V3.9838C43.0131 4.19344 42.9983 4.25633 42.798 4.25633C42.5593 4.25633 42.3295 4.23237 42.0907 4.23237ZM40.4216 7.75135C40.3605 7.75135 40.2598 7.75135 40.2598 7.87513C40.2598 7.89111 40.2677 7.90608 40.2677 7.93004C40.2677 8.14767 40.176 8.14767 39.7982 8.14767H39.5141C39.2221 8.14767 39.1293 8.13169 39.1293 7.94501C39.1293 7.74336 39.152 7.46284 39.152 7.22125V6.51347C39.152 6.31081 39.1372 6.10816 39.1372 5.90651C39.1372 5.57907 39.3375 5.53215 39.6137 5.53215C39.8297 5.53215 40.0527 5.54812 40.2677 5.54812H41.8984C42.1213 5.54812 42.3364 5.53215 42.5593 5.53215C42.8365 5.53215 43.0368 5.57907 43.0368 5.91349C43.0368 6.10816 43.021 6.31081 43.021 6.51347V7.22125C43.021 7.47083 43.0447 7.71141 43.0447 7.94501C43.0447 8.13169 42.9598 8.14767 42.652 8.14767H42.3443C42.0296 8.14767 41.9063 8.14767 41.9063 7.94501V7.88312C41.9063 7.78129 41.852 7.75135 41.7603 7.75135H40.4216ZM42.5139 3.19715H39.7143C39.4529 3.19715 39.1836 3.21312 38.9222 3.21312C38.7298 3.21312 38.714 3.15123 38.714 2.95556V2.60616C38.714 2.41149 38.7298 2.3486 38.9222 2.3486C39.1836 2.3486 39.4529 2.36457 39.7143 2.36457H42.5139C42.7753 2.36457 43.0447 2.3486 43.3061 2.3486C43.4984 2.3486 43.5132 2.41149 43.5132 2.60616V2.95556C43.5132 3.15123 43.4984 3.21312 43.3061 3.21312C43.0447 3.21312 42.7753 3.19715 42.5139 3.19715ZM42.0986 1.28243C42.3364 1.28243 42.5672 1.26745 42.8059 1.26745C43.0062 1.26745 43.021 1.32935 43.021 1.51603V1.87441C43.021 2.08405 43.0062 2.14695 42.8059 2.14695C42.5751 2.14695 42.3364 2.13097 42.0986 2.13097H40.0981C39.8603 2.13097 39.6216 2.14695 39.3829 2.14695C39.1678 2.14695 39.1678 2.07707 39.1678 1.81152V1.7646C39.1678 1.69572 39.1678 1.63283 39.1067 1.63283C39.0218 1.63283 38.9676 1.7646 38.9449 1.82749C38.791 2.18588 38.5138 2.78485 38.3293 3.11928C38.3066 3.15123 38.2908 3.18118 38.2908 3.22909C38.2908 3.31395 38.3678 3.33791 38.4299 3.34489C38.4832 3.35288 38.5523 3.37684 38.5523 3.44672C38.5523 3.48565 38.5296 3.50861 38.4753 3.55553C38.4063 3.61743 38.3984 3.75819 38.3984 3.82008V6.83991C38.3984 7.19829 38.422 7.55568 38.422 7.92205C38.422 8.11672 38.3372 8.13169 38.0758 8.13169H37.6062C37.3527 8.13169 37.2679 8.11672 37.2679 7.92205C37.2679 7.55568 37.2916 7.19829 37.2916 6.83991V5.01903C37.2916 4.95613 37.2916 4.88625 37.2225 4.88625C37.183 4.88625 37.1682 4.91021 37.1456 4.93317C37.114 4.96412 37.0755 4.98708 37.0301 4.98708C36.8447 4.98708 36.4146 4.24036 36.4146 4.05368C36.4146 3.96783 36.4836 3.87399 36.5991 3.73423C37.1219 3.07236 37.6526 2.10003 37.8913 1.29041C37.9219 1.1816 37.9525 1.04883 38.0837 1.04883C38.1301 1.04883 38.1685 1.05681 38.2218 1.07279C38.3451 1.11971 38.9912 1.34532 39.083 1.34532C39.1293 1.34532 39.1678 1.32136 39.2063 1.2984C39.2675 1.27444 39.3375 1.26745 39.3987 1.26745C39.6295 1.26745 39.8603 1.28243 40.0981 1.28243" fill="white"/>
<path d="M51.5707 5.62594C51.5707 5.57104 51.5322 5.52412 51.478 5.52412H50.8782C50.824 5.52412 50.7855 5.57104 50.7855 5.62594V5.67286C50.7855 5.72677 50.824 5.77369 50.8782 5.77369H51.478C51.5322 5.77369 51.5707 5.72677 51.5707 5.67286V5.62594ZM51.5707 4.63763C51.5707 4.58273 51.5322 4.53581 51.478 4.53581H50.8782C50.824 4.53581 50.7855 4.58273 50.7855 4.63763V4.67657C50.7855 4.73846 50.824 4.7774 50.8782 4.7774H51.478C51.5322 4.7774 51.5707 4.73846 51.5707 4.67657V4.63763ZM51.5707 3.63336C51.5707 3.57845 51.5322 3.53153 51.478 3.53153H50.8782C50.824 3.53153 50.7855 3.57845 50.7855 3.63336V3.67229C50.7855 3.72719 50.824 3.77312 50.8782 3.77312H51.478C51.5322 3.77312 51.5707 3.73418 51.5707 3.67229V3.63336ZM50.8092 6.67714C50.7628 6.67714 50.6858 6.68413 50.6858 6.74702C50.6858 6.80093 50.9009 7.00358 50.9473 7.0505C51.0015 7.10441 51.1633 7.25315 51.1633 7.32303C51.1633 7.36896 51.1169 7.40789 51.0627 7.40789C51.04 7.40789 50.9857 7.39291 50.9394 7.39291C50.9088 7.39291 50.9009 7.4009 50.8782 7.41587C50.7016 7.56362 49.8631 8.16359 49.6787 8.16359C49.4932 8.16359 49.0789 7.57959 49.0789 7.43884C49.0789 7.37694 49.1322 7.35398 49.2249 7.30706C49.3472 7.24517 50.0624 6.8788 50.0624 6.762C50.0624 6.69211 49.9785 6.69211 49.9401 6.69211C49.7319 6.67714 49.6708 6.51342 49.6708 6.33373C49.6708 6.08515 49.6856 5.84357 49.6856 5.59499V3.72719C49.6856 3.48561 49.6708 3.23604 49.6708 2.99545C49.6708 2.70694 49.7941 2.62908 50.0555 2.62908H50.1324C50.2173 2.62908 50.309 2.6131 50.3633 2.54322C50.386 2.52026 50.455 2.35654 50.455 2.3256C50.455 2.25572 50.3939 2.23974 50.3396 2.23974C50.1324 2.23974 49.9243 2.2637 49.7171 2.2637C49.5632 2.2637 49.5475 2.17785 49.5475 1.93626V1.55492C49.5475 1.33729 49.5632 1.25942 49.7171 1.25942C49.9016 1.25942 50.1472 1.2744 50.4087 1.2744H52.0472C52.3086 1.2744 52.5552 1.25942 52.7397 1.25942C52.8936 1.25942 52.9084 1.3293 52.9084 1.51598V1.96721C52.9084 2.19382 52.8936 2.2637 52.7476 2.2637C52.5473 2.2637 52.3007 2.23974 52.0472 2.23974H51.8321C51.7315 2.23974 51.6625 2.27868 51.6013 2.34057C51.5165 2.41944 51.4859 2.53624 51.4859 2.55121C51.4859 2.59014 51.5165 2.64505 51.6171 2.64505C51.8321 2.64505 52.0472 2.62908 52.2553 2.62908C52.5236 2.62908 52.6627 2.69097 52.6627 2.98746C52.6627 3.23604 52.647 3.47762 52.647 3.72719V5.59499C52.647 5.84357 52.6627 6.08515 52.6627 6.33373C52.6627 6.67714 52.4783 6.7001 52.2238 6.7001C52.2011 6.7001 52.1784 6.69211 52.1547 6.69211C52.1162 6.69211 52.0857 6.70809 52.0857 6.75501C52.0857 6.83986 52.8008 7.22121 52.9163 7.27611C52.9774 7.30706 53.0238 7.33801 53.0238 7.40789C53.0238 7.59557 52.6322 8.13165 52.4398 8.13165C52.2938 8.13165 51.2324 7.40789 51.2324 7.26014C51.2324 7.14334 51.4395 6.94868 51.5165 6.87081C51.5628 6.82489 51.6013 6.79294 51.6013 6.75501C51.6013 6.7001 51.5549 6.68413 51.5086 6.67714H50.8092ZM48.3706 4.60569C48.417 4.60569 48.4554 4.56775 48.4554 4.52084V4.09257C48.4554 4.04565 48.417 4.00672 48.3706 4.00672H48.3242C48.2789 4.00672 48.2404 4.04565 48.2404 4.09257V4.52084C48.2404 4.56775 48.271 4.5987 48.3242 4.60569H48.3706ZM47.2865 4.60569C47.3407 4.5987 47.3713 4.56775 47.3713 4.52084V4.09257C47.3713 4.04565 47.3328 4.00672 47.2865 4.00672H47.2401C47.1937 4.00672 47.1553 4.04565 47.1553 4.09257V4.52084C47.1553 4.56775 47.1937 4.60569 47.2401 4.60569H47.2865ZM49.3472 4.73846C49.3472 4.95609 49.363 5.11981 49.363 5.21365C49.363 5.47021 49.0858 5.49317 48.8934 5.49317H48.7938C48.7247 5.49317 48.6399 5.50914 48.6399 5.59499C48.6399 5.72677 49.3551 6.3497 49.4863 6.45053C49.5248 6.48148 49.578 6.5284 49.578 6.5833C49.578 6.75501 49.0789 7.32303 48.9013 7.32303C48.8017 7.32303 48.5403 6.99559 48.4712 6.90974C48.4554 6.8788 48.4249 6.84785 48.3943 6.84785C48.3242 6.84785 48.3173 6.92571 48.3173 6.97263C48.3173 7.30706 48.34 7.6345 48.34 7.96893C48.34 8.13964 48.2631 8.15561 48.0322 8.15561H47.6012C47.3782 8.15561 47.2944 8.13964 47.2944 7.9839C47.2944 7.7513 47.3092 7.48576 47.3092 7.25315C47.3092 7.12837 47.3092 7.08145 47.2707 7.08145C47.2253 7.08145 47.1937 7.1673 47.1789 7.20623C47.1247 7.34599 47.0093 7.57959 46.9402 7.71936C46.8712 7.85213 46.8406 7.89905 46.7863 7.89905C46.5713 7.89905 45.9478 7.57161 45.9478 7.4009C45.9478 7.36197 45.9784 7.32303 46.0248 7.26813C46.1866 7.06548 46.9629 5.81262 46.9629 5.61796C46.9629 5.50914 46.8633 5.49317 46.7784 5.49317H46.7094C46.517 5.49317 46.2408 5.47021 46.2408 5.21365C46.2408 5.11981 46.2556 4.95609 46.2556 4.73846V3.85897C46.2556 3.6643 46.2408 3.50058 46.2408 3.38378C46.2408 3.10426 46.5476 3.09628 46.7479 3.09628C46.8791 3.09628 47.0556 3.10426 47.1326 3.10426C47.2322 3.10426 47.3171 3.0264 47.3171 2.91758V2.85469C47.3171 2.75386 47.2322 2.66801 47.1326 2.66801H47.0093C46.7705 2.66801 46.5328 2.68398 46.302 2.68398C46.1017 2.68398 46.0859 2.59014 46.0859 2.3805V2.01413C46.0859 1.80449 46.1017 1.71065 46.302 1.71065C46.5476 1.71065 46.8021 1.72662 47.0477 1.72662C47.1789 1.72662 47.3092 1.6797 47.3092 1.52397C47.3092 1.47705 47.2944 1.29037 47.2944 1.19653C47.2944 1.0957 47.3555 1.0957 47.4325 1.0957C47.6406 1.0957 48.0096 1.11168 48.2325 1.11966C48.3479 1.12665 48.4712 1.14262 48.4712 1.22848C48.4712 1.2744 48.4318 1.29836 48.4012 1.3293C48.3558 1.36824 48.3242 1.4461 48.3242 1.508C48.3242 1.64077 48.4318 1.72662 48.563 1.72662C48.7859 1.72662 49.001 1.71065 49.217 1.71065C49.4172 1.71065 49.432 1.80449 49.432 2.01413V2.3805C49.432 2.59813 49.4172 2.68398 49.217 2.68398C48.9941 2.68398 48.7711 2.66801 48.5472 2.66801C48.417 2.66801 48.3173 2.74588 48.3173 2.87066V2.91758C48.3173 3.01841 48.4012 3.10426 48.5018 3.10426C48.5551 3.10426 48.7474 3.09628 48.8629 3.09628C49.0631 3.09628 49.363 3.11225 49.363 3.38378C49.363 3.49359 49.3472 3.63336 49.3472 3.85897" fill="white"/>
<path d="M61.7619 4.23269C61.7619 4.38842 61.3545 4.638 61.2697 4.638C61.2154 4.638 61.1779 4.56812 61.1543 4.52918C61.0083 4.2876 60.8386 4.06897 60.662 3.85134C60.6393 3.8204 60.6009 3.77348 60.6009 3.73454C60.6009 3.63372 61.0241 3.39213 61.1158 3.39213C61.2006 3.39213 61.7619 4.13186 61.7619 4.23269ZM60.2319 3.94518C60.3316 4.06198 60.7548 4.59108 60.7548 4.70788C60.7548 4.86361 60.3394 5.1042 60.2625 5.1042C60.224 5.1042 60.2082 5.08124 60.1086 4.9255C59.9626 4.69989 59.8087 4.49724 59.6391 4.27961C59.6085 4.24068 59.6006 4.21772 59.6006 4.19376C59.6006 4.08494 60.0317 3.85134 60.1165 3.85134C60.154 3.85134 60.2004 3.90625 60.2319 3.94518ZM55.124 2.6524C55.124 2.41181 55.2088 2.40382 56.0552 2.3569C56.2091 2.34892 56.3857 2.34093 56.6007 2.32596C57.5704 2.26306 59.8008 2.0065 60.739 1.82781C60.7696 1.81982 60.7932 1.81982 60.8159 1.81982C60.954 1.81982 60.9777 1.92864 61.0083 2.07638C61.0546 2.27904 61.1079 2.73825 61.1079 2.9409C61.1079 3.08865 61.0241 3.08865 60.6936 3.09664C60.2852 3.10462 59.9853 3.09664 59.5927 3.2364C58.6467 3.57881 58.0005 4.48226 58.0005 5.5095C58.0005 6.24824 58.3853 6.45089 59.063 6.45089C59.2543 6.45089 59.5088 6.42793 59.6164 6.42793C59.7624 6.42793 59.8156 6.45089 59.8156 6.59864C59.8156 6.82525 59.7624 7.30742 59.6854 7.51008C59.6243 7.66481 59.5157 7.68877 59.355 7.68877C57.9315 7.68877 56.7398 7.31541 56.7398 5.63429C56.7398 4.85562 56.9707 4.27961 57.4008 3.64969C57.4244 3.60976 57.4471 3.57881 57.4471 3.53189C57.4471 3.46201 57.3938 3.41509 57.309 3.41509C57.2084 3.41509 57.0012 3.46201 56.8937 3.48597C56.4853 3.56384 55.9546 3.67964 55.5551 3.79644C55.5245 3.80442 55.4781 3.81241 55.4475 3.81241C55.2858 3.81241 55.2325 3.46201 55.194 3.22142C55.1555 2.95688 55.124 2.80813 55.124 2.6524Z" fill="white"/>
<path d="M69.562 2.97987C69.9309 3.3692 70.1233 3.90628 70.1233 4.43537C70.1233 5.71219 69.193 6.57571 68.0931 7.01196C67.7469 7.15172 66.9084 7.40129 66.5473 7.40129C66.3698 7.40129 66.2928 7.26852 66.2238 7.12077C66.1468 6.95705 65.985 6.55274 65.985 6.38104C65.985 6.22531 66.1547 6.19436 66.278 6.18637C66.8156 6.15543 67.2773 6.04661 67.7617 5.82898C68.3388 5.56344 68.8853 5.12819 68.8853 4.43537C68.8853 3.85137 68.4542 3.56387 67.9234 3.56387C66.8936 3.56387 65.7858 4.12391 64.9088 4.61407C64.8318 4.66099 64.7697 4.69193 64.678 4.69193C64.3475 4.69193 63.8779 3.88232 63.8779 3.57085C63.8779 3.45405 63.9776 3.42311 64.0703 3.40015C64.7549 3.19749 65.4237 2.94892 66.0935 2.72331C66.6854 2.52065 67.2625 2.35693 67.885 2.35693C68.5005 2.35693 69.124 2.52065 69.562 2.97987Z" fill="white"/>
<path d="M77.9618 2.95595C78.1383 3.11967 78.6237 3.58687 78.6237 3.75059C78.6237 3.99118 78.0002 4.52826 77.8079 4.52826C77.7151 4.52826 77.6461 4.41245 77.5928 4.3266C77.3304 3.94525 76.993 3.61782 76.631 3.32232C76.5689 3.2754 76.4929 3.22149 76.4929 3.1586C76.4929 3.03481 76.9852 2.39591 77.2002 2.39591C77.3462 2.39591 77.8385 2.83915 77.9618 2.95595ZM75.316 6.72349C75.316 6.87923 75.4699 6.95709 75.6002 6.95709C75.7777 6.95709 75.8389 6.86425 75.8389 6.70053C75.8389 6.59871 75.831 6.51385 75.608 6.51385C75.4778 6.51385 75.316 6.56776 75.316 6.72349ZM76.6695 3.88236C76.7997 3.91431 76.8697 3.96821 76.8697 4.10798C76.8697 4.18584 76.854 4.3266 76.854 4.46636C76.854 4.85569 76.8845 5.23704 76.9082 5.61839C76.9151 5.80507 76.9536 5.85199 77.1312 5.92187C77.3462 6.00772 78.3149 6.46693 78.3149 6.68456C78.3149 6.85627 77.8848 7.49417 77.6382 7.49417C77.577 7.49417 77.4695 7.42429 77.2998 7.29152C77.2535 7.25259 77.2081 7.21365 77.1538 7.17472C77.1154 7.14377 77.0848 7.1288 77.0305 7.1288C76.9082 7.1288 76.8776 7.22164 76.8618 7.26057C76.8076 7.38536 76.6922 7.53311 76.6004 7.62695C76.3617 7.86055 75.9928 7.92244 75.6692 7.92244C74.9392 7.92244 74.1777 7.56405 74.1777 6.72349C74.1777 5.94483 74.8544 5.6104 75.539 5.6104H75.6002C75.7235 5.6104 75.7846 5.53253 75.7846 5.42372C75.7846 5.29195 75.7156 4.59913 75.6929 4.36553C75.6771 4.24873 75.6623 4.11596 75.6623 3.99916C75.6623 3.83644 75.7235 3.77355 75.8921 3.77355C76.0924 3.77355 76.4692 3.83644 76.6695 3.88236ZM75.6386 1.43855C75.7314 1.46151 75.8162 1.49345 75.8162 1.53938C75.8162 1.57831 75.7619 1.61824 75.6692 1.68013C75.6228 1.71108 75.5617 1.98361 75.5311 2.11539C75.5232 2.14733 75.5153 2.16231 75.5153 2.17828C75.5153 2.20124 75.5084 2.23219 75.5084 2.26413C75.5084 2.31006 75.5469 2.37295 75.6002 2.37295C75.6386 2.37295 75.7235 2.341 75.7698 2.32603C75.8162 2.31006 75.8537 2.29508 75.9 2.29508C75.9691 2.29508 75.9928 2.33401 76.0076 2.41188C76.0312 2.53567 76.0845 3.03481 76.0845 3.22149C76.0845 3.40019 75.977 3.43113 75.3772 3.53995C75.1079 3.58687 75.1 3.64177 75.0083 3.89035C74.8771 4.24873 74.7311 4.59913 74.5772 4.94854C74.3769 5.40775 74.1698 5.87495 73.931 6.31919C73.8699 6.428 73.7929 6.55279 73.7466 6.64563C73.7081 6.72349 73.6775 6.76243 73.5779 6.76243C73.3155 6.76243 72.5776 6.43599 72.5776 6.23333C72.5776 6.18641 72.6851 6.00772 72.7394 5.92187C72.8933 5.65732 73.7318 4.10798 73.7318 3.91431C73.7318 3.83644 73.6617 3.79751 73.6006 3.79751C73.5542 3.79751 73.4003 3.81248 73.3471 3.82047C73.2622 3.82845 73.1004 3.84343 73.0087 3.84343C72.8469 3.84343 72.7779 3.77355 72.7236 3.11168C72.7157 3.04979 72.7009 2.91003 72.7009 2.83915C72.7009 2.73034 72.7621 2.69939 72.8548 2.69939C72.985 2.69939 73.1695 2.71536 73.3392 2.71536C74.0386 2.71536 74.1392 2.69939 74.2161 2.49674C74.3158 2.23219 74.4085 1.53239 74.4085 1.2908C74.4085 1.22891 74.4085 1.16602 74.4618 1.16602C74.5624 1.16602 75.4847 1.39962 75.6386 1.43855Z" fill="white"/>
<path d="M87.8215 1.00306C87.9291 1.10389 88.3749 1.52417 88.3749 1.63298C88.3749 1.78872 88.006 2.08421 87.9212 2.08421C87.8748 2.08421 87.8284 2.02232 87.8058 1.98338C87.6371 1.77374 87.4368 1.57908 87.2445 1.38441C87.2139 1.35346 87.1596 1.30654 87.1596 1.25962C87.1596 1.15081 87.5522 0.862305 87.6371 0.862305C87.6903 0.862305 87.7979 0.979105 87.8215 1.00306ZM87.2593 1.78872C87.4595 1.99137 87.6134 2.16208 87.6134 2.23196C87.6134 2.38769 87.2523 2.6762 87.1596 2.6762C87.129 2.6762 87.0827 2.62928 87.0442 2.58236C86.8755 2.37272 86.6822 2.17006 86.4908 1.9754C86.4444 1.93646 86.406 1.89753 86.406 1.8586C86.406 1.74978 86.7907 1.45429 86.8824 1.45429C86.9367 1.45429 87.1211 1.64896 87.2593 1.78872ZM86.5056 2.42762C86.7374 2.66821 86.9288 2.9098 87.129 3.20529C87.2445 3.36901 87.7594 4.1317 87.7594 4.27945C87.7594 4.53701 87.06 4.94132 86.8449 4.94132C86.7601 4.94132 86.7216 4.87144 86.6526 4.73068C86.3596 4.11573 86.0676 3.50877 85.5832 2.98766C85.5448 2.94873 85.4984 2.89382 85.4984 2.8469C85.4984 2.68418 86.0903 2.28686 86.2678 2.28686C86.3675 2.28686 86.4365 2.35674 86.5056 2.42762ZM83.3755 1.65694C83.3755 1.57908 83.3913 1.5082 83.483 1.5082C83.56 1.5082 84.4291 1.71884 84.5751 1.75777C84.6372 1.77374 84.7753 1.80469 84.7753 1.88256C84.7753 1.93646 84.7211 1.96042 84.653 1.99137C84.5297 2.05326 84.4991 2.2639 84.4675 2.48153L84.4518 2.59034C84.4448 2.63726 84.4291 2.72312 84.4291 2.74608C84.4291 2.92477 84.5908 2.93276 84.6905 2.93276C84.8602 2.93276 85.1216 2.97968 85.3297 3.10446C85.8752 3.42292 85.9749 3.88213 85.9749 4.43518C85.9749 5.12001 85.8289 6.25706 85.4905 6.85604C85.1374 7.47897 84.5672 7.72754 83.8678 7.72754C83.6448 7.72754 83.5373 7.6966 83.4682 7.50992C83.3982 7.33022 83.2986 6.91094 83.2986 6.72326C83.2986 6.62244 83.3292 6.53658 83.4446 6.53658C83.5521 6.53658 83.6606 6.54457 83.7671 6.54457C84.2219 6.54457 84.3442 6.51362 84.4991 6.21813C84.7211 5.79685 84.8444 4.96428 84.8444 4.49009C84.8444 4.1317 84.7911 4.0149 84.4912 4.0149C84.2367 4.0149 84.1677 4.04585 84.0986 4.30341C83.8451 5.21385 83.4061 6.09334 82.9138 6.89497C82.8142 7.05769 82.4985 7.54086 82.3683 7.64968C82.3299 7.68861 82.2914 7.70458 82.2371 7.70458C82.0605 7.70458 81.3296 7.29129 81.3296 7.04272C81.3296 6.96485 81.3986 6.88698 81.5219 6.7622C82.1138 6.14725 82.5528 5.44745 82.8606 4.62186C82.8754 4.58293 82.899 4.52902 82.899 4.49009C82.899 4.41222 82.8527 4.37329 82.7757 4.37329C82.6988 4.37329 82.2144 4.55198 82.1217 4.59092C82.0753 4.61388 82.0221 4.64582 81.9678 4.64582C81.8445 4.64582 81.7528 4.34134 81.6837 4.03786C81.6374 3.83621 81.5831 3.57865 81.5831 3.50078C81.5831 3.39996 81.6374 3.377 81.8682 3.35304C82.3683 3.30612 82.5676 3.2602 83.045 3.15837C83.2453 3.11944 83.2907 3.05754 83.3144 2.8469C83.3528 2.52845 83.3755 2.10018 83.3755 1.77374" fill="white"/>
<path d="M92.5448 6.38092C92.4214 6.38092 92.2981 6.4508 92.2981 6.59156C92.2981 6.8012 92.5596 6.90303 92.7371 6.90303C92.8368 6.90303 92.9285 6.83215 92.9285 6.73132C92.9285 6.62251 92.8131 6.38092 92.5448 6.38092ZM94.644 2.46563C94.644 2.51255 94.5976 2.55148 94.5591 2.57444C94.2366 2.77709 93.8903 3.09655 93.6131 3.36109C93.5746 3.40003 93.5441 3.44695 93.5441 3.50085C93.5441 3.59469 93.6289 3.66457 93.7206 3.66457C93.7443 3.66457 93.7749 3.65659 93.8055 3.65659C93.9209 3.65659 94.1902 3.70351 94.3441 3.75043C95.1747 4.00699 95.6896 4.68483 95.6896 5.56432C95.6896 7.05077 94.421 7.78951 93.0824 7.78951C92.3593 7.78951 91.3827 7.49401 91.3827 6.59855C91.3827 5.97661 91.945 5.5174 92.5369 5.5174C92.9364 5.5174 93.3211 5.70408 93.5746 6.01555C93.69 6.16329 93.7137 6.24116 93.7828 6.40488C93.8134 6.48175 93.8824 6.55263 93.9672 6.55263C94.1517 6.55263 94.5207 6.16329 94.5207 5.64917C94.5207 4.98831 93.9899 4.69181 93.3981 4.69181C92.8368 4.69181 92.3366 4.91044 91.9134 5.29179C91.6362 5.54036 91.1982 5.9836 90.9674 6.27211C90.8599 6.41287 90.7987 6.46677 90.7681 6.46677C90.5906 6.46677 89.9908 5.82787 89.9908 5.68112C89.9908 5.58728 90.0677 5.5174 90.2295 5.39261C90.4219 5.23688 91.6984 3.95308 91.9677 3.68753C92.1137 3.53979 92.2291 3.40003 92.3593 3.25228C92.4136 3.19737 92.4678 3.15145 92.4678 3.07359C92.4678 2.97975 92.3445 2.96377 92.3139 2.96377C92.2902 2.96377 91.4517 3.11951 91.2525 3.15145C91.2219 3.15844 91.1903 3.15844 91.1598 3.15844C90.9832 3.15844 90.9368 2.27895 90.9368 2.1312V2.05333C90.9368 1.93653 90.9595 1.93653 91.1824 1.93653H91.36C91.8601 1.92955 92.9601 1.84369 93.3981 1.65701C93.5904 1.57116 93.6753 1.53223 93.7285 1.53223C94.06 1.53223 94.644 2.29492 94.644 2.46563Z" fill="white"/>
<path d="M99.9364 6.18621C99.9364 6.31099 100.036 6.40483 100.151 6.40483H101.982C102.098 6.40483 102.197 6.31099 102.197 6.18621V5.24482C102.197 5.12004 102.098 5.02719 101.982 5.02719H100.151C100.036 5.02719 99.9364 5.12004 99.9364 5.25281V6.18621ZM99.9364 3.7424C99.9364 3.86718 100.036 3.96801 100.151 3.96801H101.982C102.098 3.96801 102.197 3.86718 102.197 3.75038V2.90184C102.197 2.78504 102.098 2.68421 101.982 2.68421H100.151C100.036 2.68421 99.9364 2.78504 99.9364 2.90184V3.7424ZM100.214 7.52491C100.067 7.52491 99.967 7.58781 99.9591 7.75153C99.9512 7.95318 99.8673 7.96117 99.5132 7.96117H99.1137C98.798 7.96117 98.6984 7.94519 98.6984 7.74354C98.6984 7.35421 98.7211 6.96487 98.7211 6.57554V2.83994C98.7211 2.56741 98.7053 2.28689 98.7053 2.00637C98.7053 1.67194 98.8671 1.5791 99.1748 1.5791C99.4599 1.5791 99.7361 1.59408 100.021 1.59408H102.113C102.39 1.59408 102.667 1.5791 102.951 1.5791C103.244 1.5791 103.429 1.64898 103.429 2.00637C103.429 2.28689 103.413 2.56741 103.413 2.83994V6.57554C103.413 6.96487 103.436 7.34622 103.436 7.73555C103.436 7.93022 103.344 7.95318 103.097 7.95318H102.528C102.244 7.95318 102.175 7.93022 102.175 7.71958C102.175 7.63473 102.098 7.52491 101.898 7.52491" fill="white"/>
<path d="M110.615 5.65719C110.615 5.83589 110.738 5.89878 110.823 5.89878C111.322 5.89878 111.399 5.89079 111.399 5.78996C111.399 5.75103 111.369 5.72008 111.346 5.68814C111.176 5.46253 110.846 4.94142 110.716 4.70782C110.692 4.66889 110.684 4.66889 110.661 4.66889C110.615 4.66889 110.615 4.71481 110.615 4.76971V5.65719ZM109.446 4.7777C109.446 4.70782 109.446 4.64592 109.392 4.64592C109.369 4.64592 109.353 4.68486 109.269 4.83959C109.115 5.1281 108.931 5.40762 108.746 5.68015C108.723 5.7121 108.692 5.75103 108.692 5.79695C108.692 5.89079 108.784 5.89878 109.238 5.89878C109.392 5.89878 109.446 5.76601 109.446 5.63423V4.7777ZM107.785 3.55579C107.477 3.55579 107.169 3.57077 106.861 3.57077C106.669 3.57077 106.653 3.48591 106.653 3.24433V2.81606C106.653 2.59045 106.669 2.50459 106.854 2.50459C107.169 2.50459 107.477 2.52855 107.785 2.52855H109.207C109.423 2.52855 109.454 2.41175 109.454 2.17815C109.454 2.08431 109.446 1.96751 109.446 1.83574C109.446 1.68001 109.446 1.46937 109.423 1.32162C109.415 1.29067 109.415 1.26771 109.415 1.24375C109.415 1.14293 109.492 1.12695 109.576 1.12695C109.715 1.12695 110.461 1.17387 110.631 1.18985C110.7 1.19683 110.785 1.20482 110.785 1.29067C110.785 1.34558 110.746 1.36854 110.692 1.42345C110.623 1.49333 110.615 1.67202 110.615 1.88965V2.29495C110.615 2.46566 110.761 2.52855 110.907 2.52855H112.292C112.599 2.52855 112.907 2.50459 113.222 2.50459C113.407 2.50459 113.422 2.59045 113.422 2.81606V3.24433C113.422 3.48591 113.407 3.57077 113.214 3.57077C112.907 3.57077 112.599 3.55579 112.292 3.55579H111.484C111.369 3.55579 111.277 3.55579 111.277 3.68058C111.277 3.82833 111.63 4.31849 111.731 4.45825C112.184 5.10414 112.746 5.7121 113.376 6.1793C113.453 6.23321 113.514 6.27214 113.514 6.35799C113.514 6.63751 113.06 7.19855 112.807 7.19855C112.699 7.19855 112.584 7.07377 112.507 7.00389C112.3 6.80123 112.084 6.58361 111.907 6.38095C111.877 6.34202 111.853 6.32704 111.83 6.32704C111.769 6.32704 111.761 6.38894 111.761 6.4668C111.761 6.87111 111.761 6.97294 111.522 6.97294C111.3 6.97294 111.077 6.94898 110.854 6.94898C110.722 6.94898 110.623 7.04282 110.623 7.18258C110.623 7.42417 110.638 7.66475 110.638 7.90634C110.638 8.10101 110.554 8.12496 110.292 8.12496H109.845C109.484 8.12496 109.423 8.11698 109.423 7.89835C109.423 7.86042 109.423 7.82148 109.43 7.75859C109.438 7.68073 109.438 7.58788 109.438 7.47108C109.438 7.35428 109.446 7.22151 109.446 7.17459C109.446 7.04282 109.323 6.94898 109.192 6.94898C108.984 6.94898 108.769 6.97294 108.553 6.97294C108.308 6.97294 108.308 6.88708 108.308 6.47479C108.308 6.43586 108.3 6.37297 108.246 6.37297C108.192 6.37297 108.146 6.42787 108.123 6.45882C107.953 6.65349 107.73 6.8791 107.538 7.0508C107.485 7.10471 107.377 7.18258 107.3 7.18258C107.077 7.18258 106.531 6.60657 106.531 6.4119C106.531 6.31906 106.616 6.25617 106.685 6.20226C107.4 5.65719 107.977 5.02727 108.461 4.25659C108.477 4.23263 108.484 4.21766 108.5 4.18671C108.585 4.02998 108.746 3.77342 108.746 3.68058C108.746 3.56378 108.638 3.55579 108.546 3.55579" fill="white"/>
<path d="M117.337 5.23674C117.337 5.42342 117.383 5.99145 117.652 5.99145C117.837 5.99145 118.098 5.47833 118.175 5.31461C118.445 4.75457 118.66 3.60254 118.66 3.32202C118.66 3.26013 118.629 3.20522 118.56 3.20522C118.336 3.20522 117.337 3.92099 117.337 5.23674ZM121.544 2.6911C122.09 3.24415 122.359 3.92099 122.359 4.69167C122.359 5.78979 121.767 6.75414 120.813 7.27625C120.621 7.38506 120.114 7.62665 119.898 7.62665C119.628 7.62665 119.221 6.90987 119.221 6.69225C119.221 6.62237 119.29 6.59142 119.513 6.53651C120.406 6.30291 121.136 5.73489 121.136 4.73859C121.136 3.51669 120.213 3.03451 119.982 3.03451C119.852 3.03451 119.836 3.17427 119.829 3.31403C119.744 4.39618 119.436 5.71991 118.729 6.57545C118.445 6.92585 118.075 7.22134 117.614 7.22134C117.098 7.22134 116.675 6.86395 116.444 6.41971C116.267 6.0773 116.19 5.63406 116.19 5.25271C116.19 3.38391 117.614 1.89746 119.468 1.89746C120.252 1.89746 120.99 2.13106 121.544 2.6911Z" fill="white"/>
<path d="M126.375 2.81603C126.482 2.80106 126.559 2.7152 126.559 2.60639C126.559 2.55149 126.543 2.50556 126.537 2.45066L126.49 2.248C126.474 2.15417 126.328 1.54721 126.328 1.51626C126.328 1.43041 126.444 1.40745 126.582 1.39946C126.89 1.3765 127.205 1.35254 127.521 1.35254C127.59 1.35254 127.659 1.35254 127.659 1.40745C127.659 1.44638 127.643 1.48531 127.621 1.52424C127.59 1.57116 127.559 1.62507 127.559 1.71093C127.559 1.81175 127.636 2.17812 127.659 2.30291L127.674 2.3648C127.698 2.49658 127.789 2.59042 127.921 2.59042H127.951L128.437 2.51255C128.582 2.49658 129.474 2.34883 129.513 2.34883C129.689 2.34883 129.697 2.52054 129.736 2.70722C129.751 2.832 129.813 3.16643 129.813 3.27525C129.813 3.46193 129.697 3.4779 129.197 3.53979C129.036 3.55576 128.844 3.57873 128.597 3.61766L128.128 3.68754C128.028 3.7115 127.967 3.79635 127.967 3.89818V3.93711L128.059 4.4123C128.082 4.5291 128.174 4.60597 128.29 4.60597H128.321L129.351 4.45822C129.505 4.43526 130.443 4.27952 130.481 4.27952C130.659 4.27952 130.682 4.45123 130.704 4.67684L130.728 4.83158C130.743 4.92542 130.767 5.10411 130.767 5.18997C130.767 5.32973 130.712 5.4006 130.574 5.42356C130.505 5.43155 129.62 5.54835 129.505 5.56333L128.52 5.70408C128.413 5.72705 128.344 5.82088 128.344 5.89875C128.344 5.91372 128.344 5.93768 128.352 5.96064L128.405 6.24116C128.451 6.46678 128.69 7.5639 128.69 7.69667C128.69 7.82046 128.559 7.84442 128.459 7.86738C128.297 7.90631 127.852 8.00814 127.698 8.00814C127.559 8.00814 127.521 7.89832 127.497 7.66473C127.451 7.2684 127.374 6.87907 127.305 6.48974L127.236 6.13934C127.213 6.01555 127.113 5.9297 126.997 5.9297H126.967L125.775 6.1014C125.613 6.12436 124.805 6.26412 124.728 6.26412C124.582 6.26412 124.552 6.17029 124.521 6.0465C124.498 5.93768 124.421 5.39262 124.421 5.29179C124.421 5.13606 124.528 5.12008 124.959 5.07317C125.129 5.05819 125.344 5.03423 125.621 4.9953L126.766 4.83158C126.875 4.80862 126.944 4.73075 126.944 4.62992C126.944 4.61395 126.944 4.60597 126.936 4.57502L126.851 4.12379C126.829 3.99901 126.744 3.92214 126.628 3.92214H126.575L126.051 3.99901C125.89 4.02296 125.021 4.16272 124.944 4.16272C124.813 4.16272 124.767 4.04593 124.744 3.92913C124.72 3.78936 124.659 3.33814 124.659 3.22034C124.659 3.04963 124.767 3.03466 125.236 2.97975C125.406 2.95679 125.636 2.93283 125.921 2.88591" fill="white"/>
<path d="M134.782 4.30243C134.882 4.27947 134.951 4.2016 134.951 4.10776C134.951 4.0848 134.943 4.06184 134.943 4.05385L134.874 3.68748C134.866 3.65653 134.836 3.49381 134.797 3.32211C134.751 3.11147 134.705 2.9178 134.705 2.90183C134.705 2.83195 134.782 2.81597 134.836 2.80799C135.051 2.77704 135.413 2.74609 135.62 2.74609C135.721 2.74609 135.843 2.75408 135.843 2.88585C135.843 2.92479 135.828 2.95573 135.812 2.98768C135.797 3.01863 135.79 3.05756 135.79 3.08851C135.79 3.14341 135.851 3.44689 135.867 3.52476L135.936 3.86717C135.958 3.968 136.043 4.03788 136.136 4.03788C136.151 4.03788 136.174 4.02989 136.181 4.02989L137.212 3.82025C137.412 3.78132 137.62 3.74239 137.813 3.68748C137.85 3.67251 137.897 3.66452 137.943 3.66452C138.081 3.66452 138.581 4.10776 138.581 4.28745C138.581 4.36532 138.528 4.41224 138.474 4.46615C138.274 4.6688 138.066 5.00323 137.905 5.2528C137.813 5.38457 137.52 5.82881 137.427 5.91367C137.382 5.96857 137.321 6.00751 137.251 6.00751C137.135 6.00751 136.521 5.75793 136.521 5.57924C136.521 5.52433 136.574 5.45445 136.612 5.40055C136.667 5.34564 136.936 5.02719 136.936 4.96429C136.936 4.93335 136.912 4.87844 136.835 4.87844C136.821 4.87844 136.805 4.88643 136.789 4.88643L136.382 4.97228C136.305 4.98725 136.22 5.05015 136.22 5.18192V5.21287C136.22 5.22085 136.22 5.26079 136.228 5.29173L136.535 6.80115C136.574 6.94889 136.697 7.48597 136.697 7.60277C136.697 7.7046 136.636 7.72756 136.551 7.75152C136.459 7.78147 135.92 7.88329 135.843 7.88329C135.713 7.88329 135.697 7.80543 135.628 7.40112C135.605 7.29131 135.582 7.15953 135.551 7.0038L135.228 5.43149C135.213 5.33067 135.129 5.26079 135.028 5.26079C135.013 5.26079 134.99 5.26777 134.974 5.26777L134.582 5.35363C134.443 5.38457 133.805 5.52433 133.713 5.52433C133.606 5.52433 133.567 5.42351 133.543 5.33765C133.521 5.24481 133.436 4.77761 133.436 4.69975C133.436 4.552 133.559 4.52804 133.997 4.45816C134.113 4.4352 134.251 4.41224 134.413 4.38029" fill="white"/>
<path d="M145.105 3.82828C145.105 4.43524 145.105 5.0422 145.028 5.64916C144.927 6.39688 144.682 6.98887 144.113 7.494C143.973 7.6108 143.389 8.078 143.236 8.078C143.12 8.078 142.843 7.85239 142.735 7.76653C142.628 7.68867 142.32 7.46305 142.32 7.32329C142.32 7.25242 142.474 7.18253 142.535 7.15159C143.197 6.78621 143.689 6.36494 143.813 5.5713C143.89 5.05019 143.912 4.49714 143.912 3.97603V2.37976C143.912 2.18609 143.912 1.99143 143.89 1.79676C143.882 1.74984 143.874 1.67996 143.874 1.63304C143.874 1.57913 143.897 1.55518 143.951 1.55518C144.166 1.55518 144.85 1.63304 145.089 1.67198C145.142 1.67996 145.235 1.68795 145.235 1.75783C145.235 1.79676 145.205 1.82771 145.166 1.86664C145.112 1.92854 145.105 2.16214 145.105 2.30289V3.82828ZM142.19 4.43524C142.19 4.71476 142.197 4.9873 142.197 5.25983C142.197 5.56331 142.182 5.6262 141.781 5.6262H141.305C141.013 5.6262 140.951 5.5713 140.951 5.3926C140.951 5.13604 140.974 4.79363 140.974 4.4582V2.81602C140.974 2.55946 140.974 2.29491 140.967 2.03735C140.967 1.96747 140.959 1.87463 140.959 1.81174C140.959 1.74984 140.974 1.73387 141.028 1.73387C141.127 1.73387 141.774 1.81174 141.928 1.82771C141.974 1.8357 142.012 1.8357 142.051 1.84368C142.219 1.85866 142.312 1.87463 142.312 1.92854C142.312 2.03735 142.19 1.95948 142.19 2.36479" fill="white"/>
<path d="M149.858 7.27639C149.728 7.40118 149.243 7.85241 149.081 7.85241C148.912 7.85241 148.127 7.22947 148.127 7.05777C148.127 7.01185 148.19 6.97291 148.35 6.87907C149.274 6.31903 149.851 5.4625 150.02 4.41929C150.043 4.25657 150.051 4.03794 150.051 3.85126C150.051 3.83629 150.043 3.8283 150.043 3.81233C150.043 3.75043 150.051 3.72747 150.12 3.72747C150.343 3.72747 151.097 3.75842 151.273 3.78138C151.405 3.79735 151.427 3.8283 151.427 3.86723C151.427 3.89019 151.405 3.91415 151.397 3.93711C151.389 3.9451 151.381 3.96007 151.381 3.96806C151.381 4.00699 151.411 4.02995 151.451 4.02995C151.474 4.02995 151.488 4.02297 151.504 4.00699C151.566 3.95309 152.051 3.52482 152.051 3.42299C152.051 3.37707 152.012 3.33814 151.927 3.33814H149.089C148.804 3.33814 148.528 3.33814 148.251 3.34513C148.143 3.34513 148.036 3.35311 147.927 3.35311C147.689 3.35311 147.682 3.26726 147.682 2.83201V2.43469C147.682 2.26398 147.712 2.16215 147.905 2.16215C148.297 2.16215 148.689 2.17813 149.089 2.17813H152.473C152.712 2.17813 152.958 2.17014 153.181 2.13121C153.22 2.12322 153.273 2.11523 153.311 2.11523C153.45 2.11523 153.542 2.21706 153.643 2.31789C153.773 2.45066 154.073 2.74615 154.073 2.93283C154.073 3.01869 153.988 3.08857 153.912 3.15146C153.881 3.18141 153.827 3.23631 153.804 3.26726C153.366 3.75842 152.912 4.22462 152.442 4.67685L152.373 4.74673C152.235 4.88649 152.089 5.01926 151.996 5.01926C151.873 5.01926 151.535 4.73075 151.405 4.62194C151.381 4.60597 151.358 4.59898 151.328 4.59898C151.235 4.59898 151.212 4.6459 151.188 4.73874C150.951 5.72006 150.597 6.56062 149.858 7.27639Z" fill="white"/>
<path d="M160.22 5.9444C160.22 7.0505 159.434 7.70438 158.065 7.70438C157.412 7.70438 156.735 7.52469 156.274 7.27612C156.166 7.21422 156.12 7.17429 156.12 7.10441C156.12 7.06548 156.135 7.01956 156.166 6.94868L156.512 6.19397C156.558 6.09314 156.588 6.03824 156.635 6.03824C156.673 6.03824 156.72 6.06918 156.789 6.1161C157.181 6.40461 157.72 6.55236 158.15 6.55236C158.612 6.55236 158.896 6.37266 158.896 6.07717C158.896 5.73476 158.427 5.5321 157.797 5.29152C157.074 5.011 156.235 4.58273 156.235 3.57845C156.235 2.48133 157.089 1.8584 158.405 1.8584C158.958 1.8584 159.535 1.99816 159.935 2.19283C160.042 2.24773 160.096 2.28666 160.096 2.35655C160.096 2.39548 160.081 2.4424 160.058 2.50529L159.742 3.32988C159.696 3.43869 159.665 3.4936 159.612 3.4936C159.573 3.4936 159.535 3.46964 159.465 3.42272C159.135 3.22106 158.673 3.08829 158.281 3.08829C157.75 3.08829 157.558 3.29094 157.558 3.52454C157.558 3.81205 157.966 3.99873 158.442 4.18641C159.266 4.51285 160.22 4.91716 160.22 5.9444Z" fill="white"/>
<path d="M164.213 6.09341C164.213 6.50571 164.237 7.40117 164.237 7.45508C164.237 7.6188 164.19 7.64975 164.014 7.64975H163.159C162.983 7.64975 162.936 7.6188 162.936 7.45508C162.936 7.40117 162.959 6.50571 162.959 6.09341V3.46991C162.959 3.05761 162.936 2.16215 162.936 2.10824C162.936 1.94452 162.983 1.91357 163.159 1.91357H163.667C163.86 1.91357 163.921 1.94452 164.044 2.09227C164.329 2.44267 164.598 2.75413 164.875 3.07359L166.475 4.91743C166.513 4.96435 166.552 4.98831 166.574 4.98831C166.605 4.98831 166.629 4.94838 166.629 4.86352V3.46991C166.629 3.05761 166.605 2.16215 166.605 2.10824C166.605 1.94452 166.651 1.91357 166.828 1.91357H167.682C167.859 1.91357 167.905 1.94452 167.905 2.10824C167.905 2.16215 167.882 3.05761 167.882 3.46991V6.09341C167.882 6.50571 167.905 7.40117 167.905 7.45508C167.905 7.6188 167.859 7.64975 167.682 7.64975H167.298C167.105 7.64975 167.044 7.6188 166.921 7.47105C166.644 7.14361 166.39 6.85611 166.074 6.49772L164.367 4.56004C164.329 4.51312 164.298 4.49715 164.275 4.49715C164.237 4.49715 164.213 4.53708 164.213 4.62193" fill="white"/>
<path d="M174.665 5.9444C174.665 7.0505 173.88 7.70438 172.511 7.70438C171.857 7.70438 171.18 7.52469 170.72 7.27612C170.611 7.21422 170.566 7.17429 170.566 7.10441C170.566 7.06548 170.581 7.01956 170.611 6.94868L170.957 6.19397C171.004 6.09314 171.034 6.03824 171.081 6.03824C171.119 6.03824 171.166 6.06918 171.235 6.1161C171.626 6.40461 172.165 6.55236 172.596 6.55236C173.058 6.55236 173.342 6.37266 173.342 6.07717C173.342 5.73476 172.873 5.5321 172.242 5.29152C171.519 5.011 170.68 4.58273 170.68 3.57845C170.68 2.48133 171.534 1.8584 172.849 1.8584C173.403 1.8584 173.98 1.99816 174.38 2.19283C174.488 2.24773 174.541 2.28666 174.541 2.35655C174.541 2.39548 174.526 2.4424 174.504 2.50529L174.188 3.32988C174.142 3.43869 174.111 3.4936 174.057 3.4936C174.019 3.4936 173.98 3.46964 173.911 3.42272C173.58 3.22106 173.119 3.08829 172.726 3.08829C172.195 3.08829 172.004 3.29094 172.004 3.52454C172.004 3.81205 172.411 3.99873 172.888 4.18641C173.711 4.51285 174.665 4.91716 174.665 5.9444Z" fill="white"/>
</g>
</g>
<defs>
<clipPath id="clip0_2069_5167">
<rect width="192" height="52.2778" fill="white" transform="translate(0 0.861328)"/>
</clipPath>
<clipPath id="clip1_2069_5167">
<rect width="192.067" height="52.3851" fill="white" transform="translate(0 0.861328)"/>
</clipPath>
</defs>
</svg>
