<?xml version="1.0" encoding="UTF-8"?>
<svg xmlns="http://www.w3.org/2000/svg" xmlns:xlink="http://www.w3.org/1999/xlink" width="1507.31pt" height="360pt" viewBox="0 0 1507.31 360" version="1.1">
<defs>
<clipPath id="clip1">
  <path d="M 0 0 L 1507.308594 0 L 1507.308594 360 L 0 360 Z M 0 0 "/>
</clipPath>
</defs>
<g id="surface1">
<g clip-path="url(#clip1)" clip-rule="nonzero">
<path style=" stroke:none;fill-rule:nonzero;fill:rgb(9.423828%,16.868591%,16.479492%);fill-opacity:1;" d="M 0 360 L 1507.308594 360 L 1507.308594 0 L 0 0 Z M 0 360 "/>
</g>
<path style=" stroke:none;fill-rule:nonzero;fill:rgb(100%,100%,100%);fill-opacity:1;" d="M 572.679688 180 C 572.679688 225.738281 595.960938 242 624.679688 242 C 653.398438 242 676.679688 225.738281 676.679688 180 C 676.679688 134.261719 653.570313 118 624.679688 118 C 595.789063 118 572.679688 134.261719 572.679688 180 M 653.679688 180 C 653.679688 210.492188 637.96875 218.5 624.679688 218.5 C 611.390625 218.5 595.679688 210.492188 595.679688 180 C 595.679688 149.507813 611.96875 141.378906 624.679688 141.378906 C 637.390625 141.378906 653.679688 149.507813 653.679688 180 "/>
<path style=" stroke:none;fill-rule:nonzero;fill:rgb(100%,100%,100%);fill-opacity:1;" d="M 779.757813 120 C 778.101563 120 776.757813 121.34375 776.757813 123 L 776.757813 188 C 776.757813 214.5 761.757813 219 753.757813 219 C 745.757813 219 730.757813 214.5 730.757813 188 L 730.757813 123 C 730.757813 121.34375 729.414063 120 727.757813 120 L 710.757813 120 C 709.101563 120 707.757813 121.34375 707.757813 123 L 707.757813 188 C 707.757813 229.5 734.757813 242 753.757813 242 C 772.757813 242 799.757813 230.5 799.757813 188 L 799.757813 123 C 799.757813 121.34375 798.414063 120 796.757813 120 "/>
<path style=" stroke:none;fill-rule:nonzero;fill:rgb(100%,100%,100%);fill-opacity:1;" d="M 1139.839844 120 C 1138.179688 120 1136.839844 121.34375 1136.839844 123 L 1136.839844 188 C 1136.839844 214.5 1121.839844 219 1113.839844 219 C 1105.839844 219 1090.839844 214.5 1090.839844 188 L 1090.839844 123 C 1090.839844 121.34375 1089.5 120 1087.839844 120 L 1070.839844 120 C 1069.179688 120 1067.839844 121.34375 1067.839844 123 L 1067.839844 188 C 1067.839844 229.5 1094.839844 242 1113.839844 242 C 1132.839844 242 1159.839844 230.5 1159.839844 188 L 1159.839844 123 C 1159.839844 121.34375 1158.5 120 1156.839844 120 "/>
<path style=" stroke:none;fill-rule:nonzero;fill:rgb(100%,100%,100%);fill-opacity:1;" d="M 917.257813 123 C 917.257813 121.34375 915.914063 120 914.257813 120 L 830.257813 120 C 828.601563 120 827.257813 121.34375 827.257813 123 L 827.257813 140 C 827.257813 141.65625 828.601563 143 830.257813 143 L 860.757813 143 L 860.757813 237 C 860.757813 238.65625 862.101563 240 863.757813 240 L 880.757813 240 C 882.414063 240 883.757813 238.65625 883.757813 237 L 883.757813 143 L 914.257813 143 C 915.914063 143 917.257813 141.65625 917.257813 140 "/>
<path style=" stroke:none;fill-rule:nonzero;fill:rgb(100%,100%,100%);fill-opacity:1;" d="M 1387.320313 123 C 1387.320313 121.34375 1385.96875 120 1384.320313 120 L 1300.320313 120 C 1298.660156 120 1297.320313 121.34375 1297.320313 123 L 1297.320313 140 C 1297.320313 141.65625 1298.660156 143 1300.320313 143 L 1330.820313 143 L 1330.820313 237 C 1330.820313 238.65625 1332.160156 240 1333.820313 240 L 1350.820313 240 C 1352.46875 240 1353.820313 238.65625 1353.820313 237 L 1353.820313 143 L 1384.320313 143 C 1385.96875 143 1387.320313 141.65625 1387.320313 140 "/>
<path style=" stroke:none;fill-rule:nonzero;fill:rgb(100%,100%,100%);fill-opacity:1;" d="M 967.757813 177 L 967.757813 143 L 990.757813 143 C 1000.960938 142.90625 1011.761719 147 1011.761719 160 C 1011.761719 173 1000.128906 177 990.757813 177 Z M 1034.761719 160 C 1034.761719 140.5 1024.261719 120 994.757813 120 L 947.757813 120 C 946.109375 120 944.757813 121.351563 944.757813 123 L 944.757813 237 C 944.757813 238.65625 946.101563 240 947.757813 240 L 964.757813 240 C 966.414063 240 967.757813 238.65625 967.757813 237 L 967.757813 200 L 994.757813 200 C 995.910156 200 997.03125 199.964844 998.125 199.902344 L 1011.070313 237.964844 C 1011.480469 239.183594 1012.621094 240 1013.910156 240 L 1030.570313 240 C 1032.628906 240 1034.070313 237.980469 1033.410156 236.035156 L 1018.949219 193.496094 C 1030.28125 185.898438 1034.761719 172.738281 1034.761719 160 "/>
<path style=" stroke:none;fill-rule:nonzero;fill:rgb(100%,100%,100%);fill-opacity:1;" d="M 1188.429688 211.484375 L 1204.03125 202.585938 C 1205.511719 201.738281 1207.410156 202.296875 1208.179688 203.820313 C 1212.890625 213.183594 1221.28125 218.429688 1235.199219 218.429688 C 1249.800781 218.429688 1255.320313 213.304688 1255.320313 206.609375 C 1255.320313 197.683594 1246.628906 194.25 1228.351563 189.097656 C 1209.53125 183.777344 1191.820313 176.050781 1191.820313 153.21875 C 1191.820313 130.554688 1210.589844 118 1231.691406 118 C 1250.808594 118 1265.679688 126.617188 1274.230469 141.78125 C 1275.050781 143.234375 1274.550781 145.074219 1273.101563 145.894531 L 1257.921875 154.457031 C 1256.5 155.253906 1254.699219 154.785156 1253.871094 153.382813 C 1249.480469 145.871094 1242.941406 141.570313 1231.691406 141.570313 C 1221.488281 141.570313 1214.820313 145.664063 1214.820313 152.53125 C 1214.820313 159.914063 1220.261719 163.859375 1238.890625 169.355469 C 1258.410156 175.363281 1278.320313 181.714844 1278.320313 206.265625 C 1278.320313 228.757813 1260.699219 242 1234.5 242 C 1210.570313 242 1194.441406 231.710938 1187.179688 215.320313 C 1186.558594 213.910156 1187.089844 212.253906 1188.429688 211.484375 "/>
<path style=" stroke:none;fill-rule:evenodd;fill:rgb(100%,100%,100%);fill-opacity:1;" d="M 536.171875 121.753906 L 505.613281 174.773438 C 505.421875 175.105469 504.941406 175.105469 504.746094 174.773438 L 474.191406 121.753906 C 473.636719 120.789063 472.269531 120 471.15625 120 L 452.015625 120 C 449.632813 120 448.65625 121.6875 449.851563 123.753906 L 493.679688 199.5 L 493.679688 239 C 493.679688 240.648438 495.03125 242 496.679688 242 L 513.679688 242 C 515.328125 242 516.679688 240.648438 516.679688 239 L 516.679688 199.5 L 560.511719 123.753906 C 561.703125 121.6875 560.730469 120 558.347656 120 L 539.203125 120 C 538.089844 120 536.726563 120.789063 536.171875 121.753906 "/>
<path style=" stroke:none;fill-rule:nonzero;fill:rgb(7.835388%,45.872498%,46.655273%);fill-opacity:1;" d="M 349.859375 203.832031 L 299.414063 191.226563 C 288.914063 156.65625 256.792969 131.492188 218.789063 131.492188 C 195.511719 131.492188 174.4375 140.933594 159.1875 156.191406 L 159.1875 156.195313 L 159.1875 156.191406 C 149.660156 165.707031 136.507813 171.59375 121.976563 171.59375 C 121.316406 171.59375 120.65625 171.574219 120 171.550781 C 119.828125 174.347656 119.726563 177.160156 119.726563 180 C 119.726563 216.492188 134.234375 249.589844 157.785156 273.859375 C 173.132813 289.964844 194.789063 300 218.789063 300 C 242.058594 300 263.125 290.566406 278.371094 275.316406 "/>
<path style=" stroke:none;fill-rule:nonzero;fill:rgb(18.431091%,61.521912%,64.256287%);fill-opacity:1;" d="M 351.269531 86.125 C 335.925781 70.03125 314.273438 60 290.28125 60 C 267.015625 60 245.953125 69.429688 230.703125 84.675781 L 160.050781 155.332031 C 159.953125 155.425781 159.851563 155.519531 159.753906 155.617188 C 159.515625 155.863281 159.265625 156.105469 159.019531 156.347656 C 152.414063 162.890625 144.089844 167.695313 134.78125 170.023438 C 136.5 173.367188 138.359375 176.625 140.34375 179.800781 C 140.339844 179.800781 140.339844 179.804688 140.339844 179.808594 C 140.78125 180.515625 141.230469 181.214844 141.6875 181.914063 C 141.71875 181.96875 141.75 182.019531 141.785156 182.070313 C 141.785156 182.070313 141.785156 182.070313 141.785156 182.066406 C 165.84375 218.933594 207.453125 243.300781 254.757813 243.300781 C 293.097656 243.300781 327.695313 227.289063 352.242188 201.59375 C 361.527344 193.390625 373.726563 188.40625 387.09375 188.40625 C 387.753906 188.40625 388.414063 188.421875 389.070313 188.449219 C 389.242188 185.652344 389.339844 182.835938 389.339844 180 C 389.339844 143.503906 374.832031 110.398438 351.269531 86.125 "/>
</g>
</svg>
