<svg width="256" height="68" viewBox="0 0 256 68" fill="none" xmlns="http://www.w3.org/2000/svg">
<g clip-path="url(#clip0_2276_121)">
<g clip-path="url(#clip1_2276_121)">
<path d="M653 0.332031V168.619H0V0.332031H653Z" fill="black"/>
<path d="M42.292 14.6321C39.499 14.6321 37.287 15.0968 35.6425 16.0422C33.6368 17.1972 32.1613 18.9452 31.2531 20.9238C30.9727 21.5365 30.7478 22.1741 30.5811 22.8286H52.466C53.5128 22.8358 53.8135 22.678 54.3193 21.8253L58.3877 14.6309H42.2928L42.292 14.6321Z" fill="url(#paint0_linear_2276_121)"/>
<path d="M20.0899 28.8662C21.4862 31.3363 22.9862 33.0608 24.6112 34.042C26.5927 35.2388 28.8134 35.6705 30.9461 35.4831C31.6061 35.4252 32.2596 35.3044 32.8974 35.1249L21.9549 15.7702C21.4374 14.8409 21.1542 14.6533 20.1774 14.6323H12.0422L20.0899 28.8662Z" fill="url(#paint1_linear_2276_121)"/>
<path d="M43.2624 41.3843C44.6592 38.915 45.3719 36.725 45.3904 34.7982C45.4149 32.4469 44.6709 30.2676 43.4454 28.4744C43.0656 27.9207 42.6377 27.403 42.1669 26.9277L31.2245 46.2838C30.6952 47.2055 30.6787 47.5504 31.1485 48.425L35.2159 55.6195L43.2634 41.3843H43.2624Z" fill="url(#paint2_linear_2276_121)"/>
<path d="M78.4254 22.0239C78.0639 21.3277 77.8636 21.2052 77.1811 21.2052H71.3604L76.0969 29.5265C78.0636 33.0916 81.7559 35.2637 85.2071 33.9515L78.4239 22.025L78.4254 22.0239ZM83.3616 40.5094V49.8949H89.1412V41.9448L101.061 21.2052H94.3587L83.3616 40.5094ZM123.782 25.2619V36.9431C123.782 42.2716 121.735 45.0572 117.601 45.0572C113.467 45.0572 111.42 42.2708 111.42 36.9431V21.2052H105.68V36.9441C105.68 45.47 110.336 50.7566 117.601 50.7566C124.866 50.7566 129.561 45.4281 129.522 36.9441L129.482 20.6726C126.471 21.0824 123.783 22.2703 123.783 25.263L123.782 25.2619ZM155.932 24.6477L150.876 33.665L145.698 24.3206C144.534 22.3111 143.129 21.2052 140.56 21.2052H136.949V49.8959H142.407V28.9909L148.949 41.3282H152.842L159.384 28.9909V49.8949H164.843V21.2052H161.833C158.903 21.2052 157.177 22.4347 155.932 24.6477ZM181.865 33.4597L179.657 38.1328H186.56C190.374 38.1328 192.259 35.7534 192.862 32.7615H182.828C182.267 32.7615 182.105 32.8432 181.865 33.4597H181.865Z" fill="white"/>
<path d="M172.673 49.8947H193.624V44.4841H178.132V26.573H193.624V21.205H172.674L172.673 49.8947ZM219.835 24.6475L214.779 33.6641L209.601 24.3195C208.437 22.31 207.032 21.204 204.463 21.204H200.851V49.8957H206.309V28.9907L212.852 41.329H216.744L223.287 28.9907V49.8957H228.745V21.204H225.735C222.805 21.204 221.08 22.4346 219.835 24.6475ZM236.174 25.0157V49.8947H241.953V20.5476C239.746 20.6316 236.174 21.5732 236.174 25.0157Z" fill="white"/>
</g>
</g>
<defs>
<linearGradient id="paint0_linear_2276_121" x1="58.1083" y1="18.7313" x2="30.9825" y2="18.7313" gradientUnits="userSpaceOnUse">
<stop stop-color="#FAA500"/>
<stop offset="0.2" stop-color="#FBB914"/>
<stop offset="0.51" stop-color="#FDD42F"/>
<stop offset="0.79" stop-color="#FEE540"/>
<stop offset="1" stop-color="#FFEB46"/>
</linearGradient>
<linearGradient id="paint1_linear_2276_121" x1="15.6589" y1="12.8318" x2="29.6533" y2="36.5674" gradientUnits="userSpaceOnUse">
<stop stop-color="#FAA500"/>
<stop offset="0.2" stop-color="#FBB914"/>
<stop offset="0.51" stop-color="#FDD42F"/>
<stop offset="0.79" stop-color="#FEE540"/>
<stop offset="1" stop-color="#FFEB46"/>
</linearGradient>
<linearGradient id="paint2_linear_2276_121" x1="31.8812" y1="53.3231" x2="45.8757" y2="29.5876" gradientUnits="userSpaceOnUse">
<stop stop-color="#FAA500"/>
<stop offset="0.2" stop-color="#FBB914"/>
<stop offset="0.51" stop-color="#FDD42F"/>
<stop offset="0.79" stop-color="#FEE540"/>
<stop offset="1" stop-color="#FFEB46"/>
</linearGradient>
<clipPath id="clip0_2276_121">
<rect width="256" height="67.3362" fill="white" transform="translate(0 0.332031)"/>
</clipPath>
<clipPath id="clip1_2276_121">
<rect width="256" height="67.3404" fill="white" transform="translate(0 0.332031)"/>
</clipPath>
</defs>
</svg>
