<svg width="256" height="68" viewBox="0 0 256 68" fill="none" xmlns="http://www.w3.org/2000/svg">
<g clip-path="url(#clip0_1823_3109)">
<g clip-path="url(#clip1_1823_3109)">
<path d="M653 0.332031V168.619H0V0.332031H653Z" fill="black"/>
<path d="M42.292 14.6321C39.499 14.6321 37.287 15.0968 35.6425 16.0422C33.6368 17.1972 32.1613 18.9452 31.2531 20.9238C30.9727 21.5365 30.7478 22.1741 30.5811 22.8286H52.466C53.5128 22.8358 53.8135 22.678 54.3193 21.8253L58.3877 14.6309H42.2928L42.292 14.6321Z" fill="url(#paint0_linear_1823_3109)"/>
<path d="M20.09 28.8662C21.4862 31.3363 22.9862 33.0608 24.6112 34.042C26.5927 35.2388 28.8135 35.6705 30.9462 35.4831C31.6062 35.4252 32.2597 35.3044 32.8974 35.1249L21.955 15.7702C21.4375 14.8409 21.1542 14.6533 20.1775 14.6323H12.0423L20.09 28.8662Z" fill="url(#paint1_linear_1823_3109)"/>
<path d="M43.2624 41.3843C44.6592 38.915 45.3719 36.725 45.3904 34.7982C45.4149 32.4469 44.6709 30.2676 43.4454 28.4744C43.0656 27.9207 42.6377 27.403 42.1669 26.9277L31.2245 46.2838C30.6952 47.2055 30.6787 47.5504 31.1485 48.425L35.2159 55.6195L43.2634 41.3843H43.2624Z" fill="url(#paint2_linear_1823_3109)"/>
<path d="M78.4254 22.0242C78.0639 21.328 77.8636 21.2054 77.1811 21.2054H71.3604L76.0969 29.5268C78.0636 33.0918 81.7559 35.264 85.2071 33.9517L78.4239 22.0252L78.4254 22.0242ZM83.3616 40.5097V49.8952H89.1412V41.945L101.061 21.2054H94.3587L83.3616 40.5097ZM123.782 25.2622V36.9434C123.782 42.2718 121.735 45.0574 117.601 45.0574C113.467 45.0574 111.42 42.271 111.42 36.9434V21.2054H105.68V36.9444C105.68 45.4702 110.336 50.7568 117.601 50.7568C124.866 50.7568 129.561 45.4284 129.522 36.9444L129.482 20.6729C126.471 21.0826 123.783 22.2705 123.783 25.2632L123.782 25.2622ZM155.932 24.6479L150.876 33.6653L145.698 24.3209C144.534 22.3114 143.129 21.2054 140.56 21.2054H136.949V49.8962H142.407V28.9912L148.949 41.3285H152.842L159.384 28.9912V49.8952H164.843V21.2054H161.833C158.903 21.2054 157.177 22.435 155.932 24.6479ZM181.865 33.46L179.657 38.1331H186.56C190.374 38.1331 192.259 35.7536 192.862 32.7617H182.828C182.267 32.7617 182.105 32.8434 181.865 33.46H181.865Z" fill="white"/>
<path d="M172.673 49.895H193.624V44.4843H178.132V26.5733H193.624V21.2053H172.674L172.673 49.895ZM219.836 24.6478L214.779 33.6643L209.601 24.3197C208.437 22.3102 207.032 21.2042 204.464 21.2042H200.851V49.896H206.309V28.991L212.852 41.3293H216.745L223.287 28.991V49.896H228.745V21.2042H225.735C222.805 21.2042 221.08 22.4348 219.836 24.6478ZM236.174 25.0159V49.895H241.953V20.5479C239.746 20.6318 236.174 21.5734 236.174 25.0159Z" fill="white"/>
</g>
</g>
<defs>
<linearGradient id="paint0_linear_1823_3109" x1="58.1083" y1="18.7313" x2="30.9825" y2="18.7313" gradientUnits="userSpaceOnUse">
<stop stop-color="#FAA500"/>
<stop offset="0.2" stop-color="#FBB914"/>
<stop offset="0.51" stop-color="#FDD42F"/>
<stop offset="0.79" stop-color="#FEE540"/>
<stop offset="1" stop-color="#FFEB46"/>
</linearGradient>
<linearGradient id="paint1_linear_1823_3109" x1="15.6589" y1="12.8318" x2="29.6534" y2="36.5674" gradientUnits="userSpaceOnUse">
<stop stop-color="#FAA500"/>
<stop offset="0.2" stop-color="#FBB914"/>
<stop offset="0.51" stop-color="#FDD42F"/>
<stop offset="0.79" stop-color="#FEE540"/>
<stop offset="1" stop-color="#FFEB46"/>
</linearGradient>
<linearGradient id="paint2_linear_1823_3109" x1="31.8812" y1="53.3231" x2="45.8757" y2="29.5876" gradientUnits="userSpaceOnUse">
<stop stop-color="#FAA500"/>
<stop offset="0.2" stop-color="#FBB914"/>
<stop offset="0.51" stop-color="#FDD42F"/>
<stop offset="0.79" stop-color="#FEE540"/>
<stop offset="1" stop-color="#FFEB46"/>
</linearGradient>
<clipPath id="clip0_1823_3109">
<rect width="256" height="67.3362" fill="white" transform="translate(0 0.332031)"/>
</clipPath>
<clipPath id="clip1_1823_3109">
<rect width="256" height="67.3404" fill="white" transform="translate(0 0.332031)"/>
</clipPath>
</defs>
</svg>
