<svg width="3012" height="600" viewBox="0 0 3012 600" fill="none" xmlns="http://www.w3.org/2000/svg">
<path d="M393.793 217.983C393.793 341.344 302.232 436.024 181.991 436.024H22.3897C12.4897 436.024 4.44971 427.984 4.44971 418.084V17.942C4.44971 8.04196 12.4897 0.00198163 22.3897 0.00198163H181.991C302.172 -0.0580187 393.793 94.6224 393.793 217.983ZM284.771 217.983C284.771 151.323 241.811 107.702 181.991 107.702H119.051V328.264H181.991C241.751 328.264 284.771 284.643 284.771 217.983Z" fill="white"/>
<path d="M594.434 356.284C612.254 356.284 628.155 351.544 641.415 342.424C647.715 338.104 655.935 337.864 662.235 342.304L709.034 375.064C718.394 381.604 719.354 395.164 711.014 402.964C680.534 431.224 639.195 444.784 591.975 444.784C484.214 444.784 417.553 373.144 417.553 280.924C417.553 187.443 486.073 115.803 583.273 115.803C682.334 115.803 744.014 186.183 744.014 279.664C744.014 287.464 743.594 295.024 742.574 302.644C741.374 311.584 733.755 318.304 724.755 318.304H524.773C537.133 348.184 564.494 356.284 594.434 356.284ZM643.033 246.663C633.673 214.263 609.375 203.043 584.475 203.043C554.594 203.043 532.153 217.983 523.393 246.663H643.033Z" fill="white"/>
<path d="M1840.58 356.284C1858.4 356.284 1874.3 351.544 1887.56 342.424C1893.86 338.104 1902.08 337.864 1908.38 342.304L1955.18 375.064C1964.54 381.604 1965.5 395.164 1957.16 402.964C1926.68 431.224 1885.34 444.784 1838.12 444.784C1730.36 444.784 1663.7 373.144 1663.7 280.924C1663.7 187.443 1732.22 115.803 1829.42 115.803C1928.48 115.803 1990.16 186.183 1990.16 279.664C1990.16 287.464 1989.74 295.024 1988.72 302.644C1987.52 311.584 1979.9 318.304 1970.9 318.304H1770.92C1783.28 348.184 1810.7 356.284 1840.58 356.284ZM1889.18 246.663C1879.82 214.263 1855.52 203.043 1830.62 203.043C1800.74 203.043 1778.3 217.983 1769.54 246.663H1889.18Z" fill="white"/>
<path d="M1254.26 245.402V418.083C1254.26 427.983 1246.22 436.023 1236.32 436.023H1168.22C1158.32 436.023 1150.28 427.983 1150.28 418.083V257.282C1150.28 230.522 1137.8 213.662 1111.64 213.662C1082.36 213.662 1068.68 234.842 1068.68 265.982V418.083C1068.68 427.983 1060.64 436.023 1050.74 436.023H983.236C973.336 436.023 965.236 427.983 965.236 418.083V257.282C965.236 230.522 952.156 213.662 925.996 213.662C897.316 213.662 883.035 234.842 883.035 265.982V418.083C883.035 427.983 874.995 436.023 865.035 436.023H797.534C787.634 436.023 779.594 427.983 779.594 418.083V135.181C779.594 129.301 784.334 124.561 790.214 124.561H872.416C878.296 124.561 883.035 129.301 883.035 135.181V153.841C899.835 131.401 927.255 115.861 967.155 115.861C1003.94 115.861 1030.1 130.201 1046.9 155.701C1066.22 132.001 1094.24 115.861 1137.2 115.861C1208.78 115.801 1254.26 164.402 1254.26 245.402Z" fill="white"/>
<path d="M1628.05 142.501V418.083C1628.05 427.983 1620.01 436.023 1610.11 436.023H1542.61C1532.71 436.023 1524.67 427.983 1524.67 418.083V407.403C1504.75 431.103 1476.07 444.783 1436.23 444.783C1352.77 444.783 1289.83 373.743 1289.83 280.322C1289.83 186.902 1352.77 115.861 1436.23 115.861C1476.13 115.861 1504.75 129.601 1524.67 153.241V142.561C1524.67 132.661 1532.71 124.621 1542.61 124.621H1610.11C1620.01 124.561 1628.05 132.601 1628.05 142.501ZM1524.67 280.262C1524.67 239.762 1497.85 212.342 1459.27 212.342C1420.63 212.342 1393.87 239.762 1393.87 280.262C1393.87 320.762 1420.69 348.183 1459.27 348.183C1497.85 348.183 1524.67 320.762 1524.67 280.262Z" fill="white"/>
<path d="M2659.89 142.501V418.083C2659.89 427.983 2651.85 436.023 2641.95 436.023H2574.45C2564.55 436.023 2556.51 427.983 2556.51 418.083V407.403C2536.59 431.103 2507.91 444.783 2468.07 444.783C2384.61 444.783 2321.66 373.743 2321.66 280.322C2321.66 186.902 2384.61 115.861 2468.07 115.861C2507.97 115.861 2536.59 129.601 2556.51 153.241V142.561C2556.51 132.661 2564.55 124.621 2574.45 124.621H2641.95C2651.85 124.561 2659.89 132.601 2659.89 142.501ZM2556.45 280.262C2556.45 239.762 2529.69 212.342 2491.04 212.342C2452.4 212.342 2425.65 239.762 2425.65 280.262C2425.65 320.762 2452.46 348.183 2491.04 348.183C2529.69 348.183 2556.45 320.762 2556.45 280.262Z" fill="white"/>
<path d="M2013.8 280.262C2013.8 187.441 2084.84 115.801 2179.52 115.801C2233.7 115.801 2281.64 140.341 2310.62 179.221C2317.28 188.161 2314.88 200.041 2305.22 205.621L2246.96 239.281C2239.7 243.481 2230.52 241.981 2224.76 235.861C2213.78 224.161 2197.64 216.781 2178.86 216.781C2144 216.781 2117.78 242.942 2117.78 280.322C2117.78 317.702 2143.94 343.862 2178.86 343.862C2197.52 343.862 2214.02 336.482 2224.88 324.602C2230.34 318.662 2240.3 316.922 2247.26 320.942L2305.28 354.422C2314.88 359.942 2317.28 371.762 2310.74 380.702C2281.76 420.182 2233.76 444.782 2179.46 444.782C2084.84 444.722 2013.8 373.082 2013.8 280.262Z" fill="white"/>
<path d="M3011.97 249.781V418.082C3011.97 427.982 3003.93 436.022 2994.03 436.022H2926.53C2916.63 436.022 2908.59 427.982 2908.59 418.082V262.862C2908.59 229.201 2888.67 213.661 2861.85 213.661C2830.11 213.661 2810.79 232.981 2810.79 270.362V418.082C2810.79 427.982 2802.75 436.022 2792.85 436.022H2725.35C2715.45 436.022 2707.35 427.982 2707.35 418.082V142.501C2707.35 132.601 2715.39 124.561 2725.35 124.561H2792.85C2802.75 124.561 2810.79 132.601 2810.79 142.501V155.701C2828.25 130.801 2858.73 115.801 2897.37 115.801C2961.51 115.801 3011.97 160.081 3011.97 249.781Z" fill="white"/>
<path d="M684.197 599.046H55.574C50.174 599.046 45.1343 596.166 42.4343 591.486L2.05418 521.525C-3.76585 511.445 3.49383 498.785 15.1939 498.785H724.578C736.218 498.785 743.537 511.385 737.717 521.525L697.337 591.486C694.577 596.166 689.597 599.046 684.197 599.046Z" fill="white"/>
</svg>
