<svg width="128" height="36" viewBox="0 0 128 36" fill="none" xmlns="http://www.w3.org/2000/svg">
<g clip-path="url(#clip0_2074_545)">
<path d="M91.4785 13.4886C87.7216 13.4886 84.746 16.267 84.746 20.2178C84.746 24.168 87.7216 26.9464 91.4785 26.9464C93.1685 26.9464 94.6972 26.3812 95.8701 25.4022L96.1739 26.7995H98.2085V20.2177C98.2085 16.2603 95.3965 13.4885 91.476 13.4885L91.4785 13.4886ZM91.4785 24.4598C89.4439 24.4598 87.5259 22.7044 87.5259 20.2177C87.5259 17.7312 89.4439 15.9752 91.4785 15.9752C93.5131 15.9752 95.3916 17.7312 95.3916 20.2177C95.3916 22.7044 93.5131 24.4598 91.4785 24.4598ZM15.5497 13.4886C11.8642 13.4886 8.81787 16.267 8.81787 20.2178C8.81787 24.168 11.8642 26.9464 15.7109 26.9464C19.0771 26.9464 21.0015 25.1909 21.9624 22.9962H18.9161C18.4355 23.5818 17.4746 24.4574 15.7109 24.4574C13.6279 24.4574 11.9467 22.9962 11.7861 21.3851H22.1236C22.1236 21.3851 22.2846 20.7991 22.2846 20.2153C22.2846 16.2647 19.2377 13.4861 15.5522 13.4861L15.5497 13.4886ZM11.7862 19.1923C12.1056 17.2895 13.628 15.9752 15.55 15.9752C17.7941 15.9752 19.236 17.292 19.5577 19.1923H11.7862ZM45.56 13.4886C41.874 13.4886 38.8276 16.267 38.8276 20.2178C38.8276 24.168 41.874 26.9464 45.7207 26.9464C49.087 26.9464 51.0112 25.1909 51.9726 22.9962H48.9264C48.4452 23.5818 47.4844 24.4574 45.7207 24.4574C43.6377 24.4574 41.957 22.9962 41.7959 21.3851H52.1334C52.1334 21.3851 52.2944 20.7991 52.2944 20.2153C52.2944 16.2647 49.2481 13.4861 45.562 13.4861L45.56 13.4886ZM41.7959 19.1923C42.1157 17.2895 43.6377 15.9752 45.56 15.9752C47.8042 15.9752 49.248 17.292 49.5675 19.1923H41.7959ZM61.6089 15.9752C63.3931 15.9752 64.5289 17 65.0161 18.4618H68.0971C67.4487 15.6833 65.0161 13.4886 61.6089 13.4886C57.7164 13.4886 54.6329 16.267 54.6329 20.2178C54.6329 24.168 57.7139 26.9464 61.6089 26.9464C65.0161 26.9464 67.4487 24.7516 68.0971 21.9732H65.0162C64.5289 23.4374 63.3932 24.4598 61.609 24.4598C59.5006 24.4598 57.5137 22.7044 57.5137 20.2177C57.5137 17.7312 59.5006 15.9752 61.609 15.9752H61.6089ZM102.713 8.36816C101.703 8.36816 100.862 9.2095 100.862 10.2183C100.862 11.227 101.703 12.0685 102.713 12.0685C103.722 12.0685 104.563 11.227 104.563 10.2183C104.563 9.2095 103.722 8.36816 102.713 8.36816ZM101.395 13.6336H104.03V26.7995H101.395V13.6336ZM30.686 13.493C27.1587 13.493 24.7335 14.8927 24.7335 14.8927V26.7995H27.3681V16.7151C27.3681 16.7151 28.8809 16.0899 30.4906 16.0899C32.6221 16.0899 33.7394 17.391 33.7394 19.2499V26.797H36.3745V19.1948C36.3745 15.6833 34.1142 13.491 30.686 13.491V13.493ZM113.494 13.493C109.967 13.493 107.541 14.8927 107.541 14.8927V26.7995H110.176V16.7151C110.176 16.7151 111.689 16.0899 113.298 16.0899C115.43 16.0899 116.547 17.391 116.547 19.2499V26.797H119.182V19.1948C119.182 15.6833 116.922 13.491 113.494 13.491V13.493ZM76.6069 13.493C75.4879 13.4934 74.3733 13.6332 73.289 13.9093V9.17502H70.6542V26.7996H73.289V16.7151C73.289 16.7151 74.8017 16.0899 76.4116 16.0899C78.5429 16.0899 79.6601 17.391 79.6601 19.2499V26.797H82.2954V19.1948C82.2954 15.6833 80.0351 13.491 76.6069 13.491V13.493Z" fill="white"/>
</g>
<defs>
<clipPath id="clip0_2074_545">
<rect width="128" height="35.2817" fill="white" transform="translate(0 0.359375)"/>
</clipPath>
</defs>
</svg>
