<svg width="40" height="40" viewBox="0 0 40 40" fill="none" xmlns="http://www.w3.org/2000/svg">
<path d="M32.7914 13.3053C32.8114 13.5946 32.8114 13.8839 32.8114 14.1759C32.8114 23.0727 26.0385 33.3334 13.6539 33.3334V33.328C9.9955 33.3334 6.41305 32.2855 3.33325 30.3096C3.86522 30.3736 4.39986 30.4056 4.93582 30.4069C7.96762 30.4096 10.9128 29.3922 13.298 27.519C10.4168 27.4644 7.8903 25.5858 7.00769 22.8434C8.01695 23.038 9.05689 22.998 10.0475 22.7274C6.90635 22.0927 4.6465 19.3329 4.6465 16.1278C4.6465 16.0984 4.6465 16.0704 4.6465 16.0424C5.58244 16.5637 6.63038 16.8531 7.70231 16.8851C4.74383 14.9079 3.83189 10.9721 5.61844 7.89497C9.03689 12.1014 14.0806 14.6585 19.495 14.9292C18.9523 12.5907 19.6935 10.1402 21.4427 8.49625C24.1546 5.94708 28.4196 6.07774 30.9688 8.78823C32.4767 8.49092 33.922 7.93762 35.2446 7.15367C34.742 8.71224 33.69 10.0362 32.2847 10.8774C33.6193 10.7201 34.9233 10.3628 36.1512 9.81751C35.2473 11.1721 34.1086 12.352 32.7914 13.3053Z" fill="white"/>
</svg>
