<svg width="209" height="209" viewBox="0 0 209 209" fill="none" xmlns="http://www.w3.org/2000/svg">
<path d="M95.4856 147.57H60.7634C48.7553 147.57 38.5195 143.338 30.056 134.874C21.5925 126.411 17.3607 116.175 17.3607 104.167C17.3607 92.1588 21.5925 81.923 30.056 73.4595C38.5195 64.9959 48.7553 60.7642 60.7634 60.7642H95.4856V78.1252H60.7634C53.5296 78.1252 47.3809 80.6571 42.3173 85.7207C37.2536 90.7844 34.7218 96.9331 34.7218 104.167C34.7218 111.401 37.2536 117.549 42.3173 122.613C47.3809 127.677 53.5296 130.208 60.7634 130.208H95.4856V147.57ZM69.444 112.847V95.4863H138.888V112.847H69.444ZM112.847 147.57V130.208H147.569C154.803 130.208 160.951 127.677 166.015 122.613C171.079 117.549 173.61 111.401 173.61 104.167C173.61 96.9331 171.079 90.7844 166.015 85.7207C160.951 80.6571 154.803 78.1252 147.569 78.1252H112.847V60.7642H147.569C159.577 60.7642 169.813 64.9959 178.276 73.4595C186.74 81.923 190.972 92.1588 190.972 104.167C190.972 116.175 186.74 126.411 178.276 134.874C169.813 143.338 159.577 147.57 147.569 147.57H112.847Z" fill="#EADDFF"/>
</svg>
