<svg width="40" height="40" viewBox="0 0 40 40" fill="none" xmlns="http://www.w3.org/2000/svg">
<path d="M32.7916 13.3053C32.8116 13.5947 32.8116 13.884 32.8116 14.176C32.8116 23.0727 26.0388 33.3334 13.6542 33.3334V33.3281C9.99574 33.3334 6.4133 32.2855 3.3335 30.3096C3.86546 30.3736 4.4001 30.4056 4.93607 30.407C7.96787 30.4096 10.913 29.3923 13.2982 27.5191C10.4171 27.4644 7.89054 25.5859 7.00793 22.8434C8.0172 23.0381 9.05713 22.9981 10.0477 22.7274C6.9066 22.0927 4.64674 19.333 4.64674 16.1278C4.64674 16.0985 4.64674 16.0705 4.64674 16.0425C5.58269 16.5638 6.63062 16.8531 7.70255 16.8851C4.74408 14.9079 3.83213 10.9722 5.61869 7.89503C9.03713 12.1014 14.0809 14.6586 19.4952 14.9292C18.9525 12.5907 19.6938 10.1402 21.443 8.49632C24.1549 5.94714 28.4199 6.0778 30.9691 8.78829C32.477 8.49098 33.9222 7.93768 35.2449 7.15373C34.7422 8.7123 33.6902 10.0362 32.285 10.8775C33.6195 10.7202 34.9235 10.3629 36.1514 9.81757C35.2475 11.1721 34.1089 12.3521 32.7916 13.3053Z" fill="white"/>
</svg>
